G04 #@! TF.FileFunction,Soldermask,Bot*
%FSLAX46Y46*%
G04 Gerber Fmt 4.6, Leading zero omitted, Abs format (unit mm)*
G04 Created by KiCad (PCBNEW 4.0.5-e0-6337~49~ubuntu14.04.1) date Fri Dec 30 14:23:34 2016*
%MOMM*%
%LPD*%
G01*
G04 APERTURE LIST*
%ADD10C,0.150000*%
%ADD11C,1.524000*%
%ADD12R,1.778000X1.778000*%
%ADD13C,1.778000*%
%ADD14C,3.048000*%
%ADD15C,3.175000*%
%ADD16R,1.524000X3.048000*%
%ADD17O,1.524000X3.048000*%
%ADD18R,3.048000X1.524000*%
%ADD19O,3.048000X1.524000*%
G04 APERTURE END LIST*
D10*
D11*
X130937000Y-80835500D03*
X155194000Y-80835500D03*
D12*
X206375000Y-124460000D03*
D13*
X206375000Y-127000000D03*
X203835000Y-124460000D03*
X203835000Y-127000000D03*
X201295000Y-124460000D03*
X201295000Y-127000000D03*
X198755000Y-124460000D03*
X198755000Y-127000000D03*
X196215000Y-124460000D03*
X196215000Y-127000000D03*
X193675000Y-124460000D03*
X193675000Y-127000000D03*
X191135000Y-124460000D03*
X191135000Y-127000000D03*
X188595000Y-124460000D03*
X188595000Y-127000000D03*
X186055000Y-124460000D03*
X186055000Y-127000000D03*
X183515000Y-124460000D03*
X183515000Y-127000000D03*
X180975000Y-124460000D03*
X180975000Y-127000000D03*
X178435000Y-124460000D03*
X178435000Y-127000000D03*
X175895000Y-124460000D03*
X175895000Y-127000000D03*
D14*
X165862000Y-116205000D03*
D15*
X88900000Y-120650000D03*
X88900000Y-90170000D03*
X187960000Y-106045000D03*
D16*
X78740000Y-77470000D03*
D17*
X81280000Y-77470000D03*
X83820000Y-77470000D03*
X86360000Y-77470000D03*
X88900000Y-77470000D03*
X91440000Y-77470000D03*
X93980000Y-77470000D03*
X96520000Y-77470000D03*
X99060000Y-77470000D03*
X101600000Y-77470000D03*
X104140000Y-77470000D03*
X106680000Y-77470000D03*
X109220000Y-77470000D03*
X111760000Y-77470000D03*
X114300000Y-77470000D03*
X116840000Y-77470000D03*
D18*
X170815000Y-118745000D03*
D19*
X170815000Y-116205000D03*
X170815000Y-113665000D03*
X170815000Y-111125000D03*
X170815000Y-108585000D03*
X170815000Y-106045000D03*
X170815000Y-103505000D03*
X170815000Y-100965000D03*
X170815000Y-98425000D03*
X170815000Y-95885000D03*
X170815000Y-93345000D03*
X170815000Y-90805000D03*
M02*
