M48
INCH,TZ
T10C0.025
T11C0.042
T12C0.060
%
T10
X031000Y-36750
X032000Y-36750
X038750Y-33500
X039500Y-45250
X039750Y-38000
X040000Y-39250
X040750Y-49500
X041250Y-41000
X043000Y-37000
X043500Y-37500
X043500Y-47750
X043750Y-42000
X044000Y-38000
X044250Y-46000
X045500Y-38500
X045750Y-39500
X046000Y-46750
X046500Y-44000
X046750Y-39000
X047750Y-47250
X048000Y-39250
X048000Y-46500
X049500Y-44750
X050000Y-41750
X050750Y-46000
X051250Y-45450
X052000Y-42750
X052500Y-46500
X053000Y-46000
X053500Y-45450
X053750Y-47750
X054000Y-42750
X054750Y-47000
X055750Y-45450
X056500Y-42500
X057000Y-48300
X057500Y-46000
X058000Y-43000
X058000Y-45450
X058500Y-42250
X058800Y-47800
X059750Y-47500
X060500Y-47500
X061700Y-47700
X061950Y-43000
X062150Y-44850
X062250Y-46600
X063050Y-46600
X063500Y-41000
X078250Y-47000
T11
X031000Y-30500
X032000Y-30500
X033000Y-30500
X034000Y-30500
X035000Y-30500
X036000Y-30500
X037000Y-30500
X038000Y-30500
X039000Y-30500
X040000Y-30500
X041000Y-30500
X042000Y-30500
X043000Y-30500
X044000Y-30500
X045000Y-30500
X046000Y-30500
X067250Y-35750
X067250Y-36750
X067250Y-37750
X067250Y-38750
X067250Y-39750
X067250Y-40750
X067250Y-41750
X067250Y-42750
X067250Y-43750
X067250Y-44750
X067250Y-45750
X067250Y-46750
X069250Y-49000
X069250Y-50000
X070250Y-49000
X070250Y-50000
X071250Y-49000
X071250Y-50000
X072250Y-49000
X072250Y-50000
X073250Y-49000
X073250Y-50000
X074250Y-49000
X074250Y-50000
X075250Y-49000
X075250Y-50000
X076250Y-49000
X076250Y-50000
X077250Y-49000
X077250Y-50000
X078250Y-49000
X078250Y-50000
X079250Y-49000
X079250Y-50000
X080250Y-49000
X080250Y-50000
X081250Y-49000
X081250Y-50000
T12
X065300Y-45750
M30

