%FSLAX45Y45*%
G04 Gerber Fmt 4.5, Leading zero omitted, Abs format (unit mm)*
G04 Created by KiCad (PCBNEW 4.0.5-e0-6337~49~ubuntu14.04.1) date Fri Dec 30 14:23:28 2016*
%MOMM*%
%LPD*%
G01*
G04 APERTURE LIST*
%ADD10C,0.127000*%
%ADD11C,0.100000*%
%ADD12C,0.200000*%
%ADD13C,0.300000*%
G04 APERTURE END LIST*
D10*
D11*
X15938500Y-7493000D02*
X7620000Y-7493000D01*
X15938500Y-8382000D02*
X15938500Y-7493000D01*
X21336000Y-8382000D02*
X15938500Y-8382000D01*
X21336000Y-13652500D02*
X21336000Y-8382000D01*
X16764000Y-13652500D02*
X21336000Y-13652500D01*
X16764000Y-12763500D02*
X16764000Y-13652500D01*
X7620000Y-12763500D02*
X16764000Y-12763500D01*
X7620000Y-7493000D02*
X7620000Y-12763500D01*
D12*
X13017500Y-8007350D02*
X13169900Y-8159750D01*
X13169900Y-8007350D02*
X13017500Y-8159750D01*
X15443200Y-8007350D02*
X15595600Y-8159750D01*
X15595600Y-8007350D02*
X15443200Y-8159750D01*
X9048750Y-9017000D02*
G75*
G03X9048750Y-9017000I-158750J0D01*
G01*
X9048750Y-12065000D02*
G75*
G03X9048750Y-12065000I-158750J0D01*
G01*
X18954750Y-10604500D02*
G75*
G03X18954750Y-10604500I-158750J0D01*
G01*
D13*
X7886428Y-14123214D02*
X7886428Y-13823214D01*
X7957857Y-13823214D01*
X8000714Y-13837500D01*
X8029286Y-13866071D01*
X8043571Y-13894643D01*
X8057857Y-13951786D01*
X8057857Y-13994643D01*
X8043571Y-14051786D01*
X8029286Y-14080357D01*
X8000714Y-14108929D01*
X7957857Y-14123214D01*
X7886428Y-14123214D01*
X8186428Y-14123214D02*
X8186428Y-13923214D01*
X8186428Y-13980357D02*
X8200714Y-13951786D01*
X8215000Y-13937500D01*
X8243571Y-13923214D01*
X8272143Y-13923214D01*
X8372143Y-14123214D02*
X8372143Y-13923214D01*
X8372143Y-13823214D02*
X8357857Y-13837500D01*
X8372143Y-13851786D01*
X8386428Y-13837500D01*
X8372143Y-13823214D01*
X8372143Y-13851786D01*
X8557857Y-14123214D02*
X8529286Y-14108929D01*
X8515000Y-14080357D01*
X8515000Y-13823214D01*
X8715000Y-14123214D02*
X8686429Y-14108929D01*
X8672143Y-14080357D01*
X8672143Y-13823214D01*
X9057857Y-14123214D02*
X9057857Y-13823214D01*
X9157857Y-14037500D01*
X9257857Y-13823214D01*
X9257857Y-14123214D01*
X9529286Y-14123214D02*
X9529286Y-13966071D01*
X9515000Y-13937500D01*
X9486429Y-13923214D01*
X9429286Y-13923214D01*
X9400714Y-13937500D01*
X9529286Y-14108929D02*
X9500714Y-14123214D01*
X9429286Y-14123214D01*
X9400714Y-14108929D01*
X9386429Y-14080357D01*
X9386429Y-14051786D01*
X9400714Y-14023214D01*
X9429286Y-14008929D01*
X9500714Y-14008929D01*
X9529286Y-13994643D01*
X9672143Y-13923214D02*
X9672143Y-14223214D01*
X9672143Y-13937500D02*
X9700714Y-13923214D01*
X9757857Y-13923214D01*
X9786429Y-13937500D01*
X9800714Y-13951786D01*
X9815000Y-13980357D01*
X9815000Y-14066071D01*
X9800714Y-14094643D01*
X9786429Y-14108929D01*
X9757857Y-14123214D01*
X9700714Y-14123214D01*
X9672143Y-14108929D01*
X9943571Y-14094643D02*
X9957857Y-14108929D01*
X9943571Y-14123214D01*
X9929286Y-14108929D01*
X9943571Y-14094643D01*
X9943571Y-14123214D01*
X9943571Y-13937500D02*
X9957857Y-13951786D01*
X9943571Y-13966071D01*
X9929286Y-13951786D01*
X9943571Y-13937500D01*
X9943571Y-13966071D01*
X7462600Y-14541300D02*
X7615000Y-14693700D01*
X7615000Y-14541300D02*
X7462600Y-14693700D01*
X8043571Y-14753214D02*
X7872143Y-14753214D01*
X7957857Y-14753214D02*
X7957857Y-14453214D01*
X7929286Y-14496071D01*
X7900714Y-14524643D01*
X7872143Y-14538929D01*
X8172143Y-14724643D02*
X8186428Y-14738929D01*
X8172143Y-14753214D01*
X8157857Y-14738929D01*
X8172143Y-14724643D01*
X8172143Y-14753214D01*
X8457857Y-14453214D02*
X8315000Y-14453214D01*
X8300714Y-14596071D01*
X8315000Y-14581786D01*
X8343571Y-14567500D01*
X8415000Y-14567500D01*
X8443571Y-14581786D01*
X8457857Y-14596071D01*
X8472143Y-14624643D01*
X8472143Y-14696071D01*
X8457857Y-14724643D01*
X8443571Y-14738929D01*
X8415000Y-14753214D01*
X8343571Y-14753214D01*
X8315000Y-14738929D01*
X8300714Y-14724643D01*
X8586429Y-14481786D02*
X8600714Y-14467500D01*
X8629286Y-14453214D01*
X8700714Y-14453214D01*
X8729286Y-14467500D01*
X8743571Y-14481786D01*
X8757857Y-14510357D01*
X8757857Y-14538929D01*
X8743571Y-14581786D01*
X8572143Y-14753214D01*
X8757857Y-14753214D01*
X8886429Y-14753214D02*
X8886429Y-14553214D01*
X8886429Y-14581786D02*
X8900714Y-14567500D01*
X8929286Y-14553214D01*
X8972143Y-14553214D01*
X9000714Y-14567500D01*
X9015000Y-14596071D01*
X9015000Y-14753214D01*
X9015000Y-14596071D02*
X9029286Y-14567500D01*
X9057857Y-14553214D01*
X9100714Y-14553214D01*
X9129286Y-14567500D01*
X9143571Y-14596071D01*
X9143571Y-14753214D01*
X9286429Y-14753214D02*
X9286429Y-14553214D01*
X9286429Y-14581786D02*
X9300714Y-14567500D01*
X9329286Y-14553214D01*
X9372143Y-14553214D01*
X9400714Y-14567500D01*
X9415000Y-14596071D01*
X9415000Y-14753214D01*
X9415000Y-14596071D02*
X9429286Y-14567500D01*
X9457857Y-14553214D01*
X9500714Y-14553214D01*
X9529286Y-14567500D01*
X9543571Y-14596071D01*
X9543571Y-14753214D01*
X10129286Y-14438929D02*
X9872143Y-14824643D01*
X10515000Y-14453214D02*
X10543571Y-14453214D01*
X10572143Y-14467500D01*
X10586428Y-14481786D01*
X10600714Y-14510357D01*
X10615000Y-14567500D01*
X10615000Y-14638929D01*
X10600714Y-14696071D01*
X10586428Y-14724643D01*
X10572143Y-14738929D01*
X10543571Y-14753214D01*
X10515000Y-14753214D01*
X10486428Y-14738929D01*
X10472143Y-14724643D01*
X10457857Y-14696071D01*
X10443571Y-14638929D01*
X10443571Y-14567500D01*
X10457857Y-14510357D01*
X10472143Y-14481786D01*
X10486428Y-14467500D01*
X10515000Y-14453214D01*
X10743571Y-14724643D02*
X10757857Y-14738929D01*
X10743571Y-14753214D01*
X10729286Y-14738929D01*
X10743571Y-14724643D01*
X10743571Y-14753214D01*
X10943571Y-14453214D02*
X10972143Y-14453214D01*
X11000714Y-14467500D01*
X11015000Y-14481786D01*
X11029286Y-14510357D01*
X11043571Y-14567500D01*
X11043571Y-14638929D01*
X11029286Y-14696071D01*
X11015000Y-14724643D01*
X11000714Y-14738929D01*
X10972143Y-14753214D01*
X10943571Y-14753214D01*
X10915000Y-14738929D01*
X10900714Y-14724643D01*
X10886428Y-14696071D01*
X10872143Y-14638929D01*
X10872143Y-14567500D01*
X10886428Y-14510357D01*
X10900714Y-14481786D01*
X10915000Y-14467500D01*
X10943571Y-14453214D01*
X11300714Y-14453214D02*
X11243571Y-14453214D01*
X11215000Y-14467500D01*
X11200714Y-14481786D01*
X11172143Y-14524643D01*
X11157857Y-14581786D01*
X11157857Y-14696071D01*
X11172143Y-14724643D01*
X11186428Y-14738929D01*
X11215000Y-14753214D01*
X11272143Y-14753214D01*
X11300714Y-14738929D01*
X11315000Y-14724643D01*
X11329285Y-14696071D01*
X11329285Y-14624643D01*
X11315000Y-14596071D01*
X11300714Y-14581786D01*
X11272143Y-14567500D01*
X11215000Y-14567500D01*
X11186428Y-14581786D01*
X11172143Y-14596071D01*
X11157857Y-14624643D01*
X11515000Y-14453214D02*
X11543571Y-14453214D01*
X11572143Y-14467500D01*
X11586428Y-14481786D01*
X11600714Y-14510357D01*
X11615000Y-14567500D01*
X11615000Y-14638929D01*
X11600714Y-14696071D01*
X11586428Y-14724643D01*
X11572143Y-14738929D01*
X11543571Y-14753214D01*
X11515000Y-14753214D01*
X11486428Y-14738929D01*
X11472143Y-14724643D01*
X11457857Y-14696071D01*
X11443571Y-14638929D01*
X11443571Y-14567500D01*
X11457857Y-14510357D01*
X11472143Y-14481786D01*
X11486428Y-14467500D01*
X11515000Y-14453214D01*
X11729286Y-14453214D02*
X11729286Y-14510357D01*
X11843571Y-14453214D02*
X11843571Y-14510357D01*
X12286428Y-14867500D02*
X12272143Y-14853214D01*
X12243571Y-14810357D01*
X12229285Y-14781786D01*
X12215000Y-14738929D01*
X12200714Y-14667500D01*
X12200714Y-14610357D01*
X12215000Y-14538929D01*
X12229285Y-14496071D01*
X12243571Y-14467500D01*
X12272143Y-14424643D01*
X12286428Y-14410357D01*
X12386428Y-14481786D02*
X12400714Y-14467500D01*
X12429285Y-14453214D01*
X12500714Y-14453214D01*
X12529285Y-14467500D01*
X12543571Y-14481786D01*
X12557857Y-14510357D01*
X12557857Y-14538929D01*
X12543571Y-14581786D01*
X12372143Y-14753214D01*
X12557857Y-14753214D01*
X12915000Y-14753214D02*
X12915000Y-14453214D01*
X13043571Y-14753214D02*
X13043571Y-14596071D01*
X13029285Y-14567500D01*
X13000714Y-14553214D01*
X12957857Y-14553214D01*
X12929285Y-14567500D01*
X12915000Y-14581786D01*
X13229285Y-14753214D02*
X13200714Y-14738929D01*
X13186428Y-14724643D01*
X13172143Y-14696071D01*
X13172143Y-14610357D01*
X13186428Y-14581786D01*
X13200714Y-14567500D01*
X13229285Y-14553214D01*
X13272143Y-14553214D01*
X13300714Y-14567500D01*
X13315000Y-14581786D01*
X13329285Y-14610357D01*
X13329285Y-14696071D01*
X13315000Y-14724643D01*
X13300714Y-14738929D01*
X13272143Y-14753214D01*
X13229285Y-14753214D01*
X13500714Y-14753214D02*
X13472143Y-14738929D01*
X13457857Y-14710357D01*
X13457857Y-14453214D01*
X13729286Y-14738929D02*
X13700714Y-14753214D01*
X13643571Y-14753214D01*
X13615000Y-14738929D01*
X13600714Y-14710357D01*
X13600714Y-14596071D01*
X13615000Y-14567500D01*
X13643571Y-14553214D01*
X13700714Y-14553214D01*
X13729286Y-14567500D01*
X13743571Y-14596071D01*
X13743571Y-14624643D01*
X13600714Y-14653214D01*
X13857857Y-14738929D02*
X13886428Y-14753214D01*
X13943571Y-14753214D01*
X13972143Y-14738929D01*
X13986428Y-14710357D01*
X13986428Y-14696071D01*
X13972143Y-14667500D01*
X13943571Y-14653214D01*
X13900714Y-14653214D01*
X13872143Y-14638929D01*
X13857857Y-14610357D01*
X13857857Y-14596071D01*
X13872143Y-14567500D01*
X13900714Y-14553214D01*
X13943571Y-14553214D01*
X13972143Y-14567500D01*
X14086428Y-14867500D02*
X14100714Y-14853214D01*
X14129286Y-14810357D01*
X14143571Y-14781786D01*
X14157857Y-14738929D01*
X14172143Y-14667500D01*
X14172143Y-14610357D01*
X14157857Y-14538929D01*
X14143571Y-14496071D01*
X14129286Y-14467500D01*
X14100714Y-14424643D01*
X14086428Y-14410357D01*
X14629286Y-14867500D02*
X14615000Y-14853214D01*
X14586428Y-14810357D01*
X14572143Y-14781786D01*
X14557857Y-14738929D01*
X14543571Y-14667500D01*
X14543571Y-14610357D01*
X14557857Y-14538929D01*
X14572143Y-14496071D01*
X14586428Y-14467500D01*
X14615000Y-14424643D01*
X14629286Y-14410357D01*
X14743571Y-14553214D02*
X14743571Y-14753214D01*
X14743571Y-14581786D02*
X14757857Y-14567500D01*
X14786428Y-14553214D01*
X14829286Y-14553214D01*
X14857857Y-14567500D01*
X14872143Y-14596071D01*
X14872143Y-14753214D01*
X15057857Y-14753214D02*
X15029286Y-14738929D01*
X15015000Y-14724643D01*
X15000714Y-14696071D01*
X15000714Y-14610357D01*
X15015000Y-14581786D01*
X15029286Y-14567500D01*
X15057857Y-14553214D01*
X15100714Y-14553214D01*
X15129286Y-14567500D01*
X15143571Y-14581786D01*
X15157857Y-14610357D01*
X15157857Y-14696071D01*
X15143571Y-14724643D01*
X15129286Y-14738929D01*
X15100714Y-14753214D01*
X15057857Y-14753214D01*
X15243571Y-14553214D02*
X15357857Y-14553214D01*
X15286428Y-14453214D02*
X15286428Y-14710357D01*
X15300714Y-14738929D01*
X15329286Y-14753214D01*
X15357857Y-14753214D01*
X15686428Y-14553214D02*
X15686428Y-14853214D01*
X15686428Y-14567500D02*
X15715000Y-14553214D01*
X15772143Y-14553214D01*
X15800714Y-14567500D01*
X15815000Y-14581786D01*
X15829286Y-14610357D01*
X15829286Y-14696071D01*
X15815000Y-14724643D01*
X15800714Y-14738929D01*
X15772143Y-14753214D01*
X15715000Y-14753214D01*
X15686428Y-14738929D01*
X16000714Y-14753214D02*
X15972143Y-14738929D01*
X15957857Y-14710357D01*
X15957857Y-14453214D01*
X16243571Y-14753214D02*
X16243571Y-14596071D01*
X16229286Y-14567500D01*
X16200714Y-14553214D01*
X16143571Y-14553214D01*
X16115000Y-14567500D01*
X16243571Y-14738929D02*
X16215000Y-14753214D01*
X16143571Y-14753214D01*
X16115000Y-14738929D01*
X16100714Y-14710357D01*
X16100714Y-14681786D01*
X16115000Y-14653214D01*
X16143571Y-14638929D01*
X16215000Y-14638929D01*
X16243571Y-14624643D01*
X16343571Y-14553214D02*
X16457857Y-14553214D01*
X16386429Y-14453214D02*
X16386429Y-14710357D01*
X16400714Y-14738929D01*
X16429286Y-14753214D01*
X16457857Y-14753214D01*
X16672143Y-14738929D02*
X16643571Y-14753214D01*
X16586429Y-14753214D01*
X16557857Y-14738929D01*
X16543571Y-14710357D01*
X16543571Y-14596071D01*
X16557857Y-14567500D01*
X16586429Y-14553214D01*
X16643571Y-14553214D01*
X16672143Y-14567500D01*
X16686429Y-14596071D01*
X16686429Y-14624643D01*
X16543571Y-14653214D01*
X16943572Y-14753214D02*
X16943572Y-14453214D01*
X16943572Y-14738929D02*
X16915000Y-14753214D01*
X16857857Y-14753214D01*
X16829286Y-14738929D01*
X16815000Y-14724643D01*
X16800714Y-14696071D01*
X16800714Y-14610357D01*
X16815000Y-14581786D01*
X16829286Y-14567500D01*
X16857857Y-14553214D01*
X16915000Y-14553214D01*
X16943572Y-14567500D01*
X17057857Y-14867500D02*
X17072143Y-14853214D01*
X17100714Y-14810357D01*
X17115000Y-14781786D01*
X17129286Y-14738929D01*
X17143572Y-14667500D01*
X17143572Y-14610357D01*
X17129286Y-14538929D01*
X17115000Y-14496071D01*
X17100714Y-14467500D01*
X17072143Y-14424643D01*
X17057857Y-14410357D01*
X7615000Y-15013500D02*
G75*
G03X7615000Y-15013500I-158750J0D01*
G01*
X7857857Y-14849214D02*
X8043571Y-14849214D01*
X7943571Y-14963500D01*
X7986428Y-14963500D01*
X8015000Y-14977786D01*
X8029286Y-14992071D01*
X8043571Y-15020643D01*
X8043571Y-15092071D01*
X8029286Y-15120643D01*
X8015000Y-15134929D01*
X7986428Y-15149214D01*
X7900714Y-15149214D01*
X7872143Y-15134929D01*
X7857857Y-15120643D01*
X8172143Y-15120643D02*
X8186428Y-15134929D01*
X8172143Y-15149214D01*
X8157857Y-15134929D01*
X8172143Y-15120643D01*
X8172143Y-15149214D01*
X8472143Y-15149214D02*
X8300714Y-15149214D01*
X8386428Y-15149214D02*
X8386428Y-14849214D01*
X8357857Y-14892071D01*
X8329286Y-14920643D01*
X8300714Y-14934929D01*
X8572143Y-14849214D02*
X8772143Y-14849214D01*
X8643571Y-15149214D01*
X8886429Y-15149214D02*
X8886429Y-14949214D01*
X8886429Y-14977786D02*
X8900714Y-14963500D01*
X8929286Y-14949214D01*
X8972143Y-14949214D01*
X9000714Y-14963500D01*
X9015000Y-14992071D01*
X9015000Y-15149214D01*
X9015000Y-14992071D02*
X9029286Y-14963500D01*
X9057857Y-14949214D01*
X9100714Y-14949214D01*
X9129286Y-14963500D01*
X9143571Y-14992071D01*
X9143571Y-15149214D01*
X9286429Y-15149214D02*
X9286429Y-14949214D01*
X9286429Y-14977786D02*
X9300714Y-14963500D01*
X9329286Y-14949214D01*
X9372143Y-14949214D01*
X9400714Y-14963500D01*
X9415000Y-14992071D01*
X9415000Y-15149214D01*
X9415000Y-14992071D02*
X9429286Y-14963500D01*
X9457857Y-14949214D01*
X9500714Y-14949214D01*
X9529286Y-14963500D01*
X9543571Y-14992071D01*
X9543571Y-15149214D01*
X10129286Y-14834929D02*
X9872143Y-15220643D01*
X10515000Y-14849214D02*
X10543571Y-14849214D01*
X10572143Y-14863500D01*
X10586428Y-14877786D01*
X10600714Y-14906357D01*
X10615000Y-14963500D01*
X10615000Y-15034929D01*
X10600714Y-15092071D01*
X10586428Y-15120643D01*
X10572143Y-15134929D01*
X10543571Y-15149214D01*
X10515000Y-15149214D01*
X10486428Y-15134929D01*
X10472143Y-15120643D01*
X10457857Y-15092071D01*
X10443571Y-15034929D01*
X10443571Y-14963500D01*
X10457857Y-14906357D01*
X10472143Y-14877786D01*
X10486428Y-14863500D01*
X10515000Y-14849214D01*
X10743571Y-15120643D02*
X10757857Y-15134929D01*
X10743571Y-15149214D01*
X10729286Y-15134929D01*
X10743571Y-15120643D01*
X10743571Y-15149214D01*
X11043571Y-15149214D02*
X10872143Y-15149214D01*
X10957857Y-15149214D02*
X10957857Y-14849214D01*
X10929286Y-14892071D01*
X10900714Y-14920643D01*
X10872143Y-14934929D01*
X11157857Y-14877786D02*
X11172143Y-14863500D01*
X11200714Y-14849214D01*
X11272143Y-14849214D01*
X11300714Y-14863500D01*
X11315000Y-14877786D01*
X11329285Y-14906357D01*
X11329285Y-14934929D01*
X11315000Y-14977786D01*
X11143571Y-15149214D01*
X11329285Y-15149214D01*
X11600714Y-14849214D02*
X11457857Y-14849214D01*
X11443571Y-14992071D01*
X11457857Y-14977786D01*
X11486428Y-14963500D01*
X11557857Y-14963500D01*
X11586428Y-14977786D01*
X11600714Y-14992071D01*
X11615000Y-15020643D01*
X11615000Y-15092071D01*
X11600714Y-15120643D01*
X11586428Y-15134929D01*
X11557857Y-15149214D01*
X11486428Y-15149214D01*
X11457857Y-15134929D01*
X11443571Y-15120643D01*
X11729286Y-14849214D02*
X11729286Y-14906357D01*
X11843571Y-14849214D02*
X11843571Y-14906357D01*
X12286428Y-15263500D02*
X12272143Y-15249214D01*
X12243571Y-15206357D01*
X12229285Y-15177786D01*
X12215000Y-15134929D01*
X12200714Y-15063500D01*
X12200714Y-15006357D01*
X12215000Y-14934929D01*
X12229285Y-14892071D01*
X12243571Y-14863500D01*
X12272143Y-14820643D01*
X12286428Y-14806357D01*
X12372143Y-14849214D02*
X12557857Y-14849214D01*
X12457857Y-14963500D01*
X12500714Y-14963500D01*
X12529285Y-14977786D01*
X12543571Y-14992071D01*
X12557857Y-15020643D01*
X12557857Y-15092071D01*
X12543571Y-15120643D01*
X12529285Y-15134929D01*
X12500714Y-15149214D01*
X12415000Y-15149214D01*
X12386428Y-15134929D01*
X12372143Y-15120643D01*
X12915000Y-15149214D02*
X12915000Y-14849214D01*
X13043571Y-15149214D02*
X13043571Y-14992071D01*
X13029285Y-14963500D01*
X13000714Y-14949214D01*
X12957857Y-14949214D01*
X12929285Y-14963500D01*
X12915000Y-14977786D01*
X13229285Y-15149214D02*
X13200714Y-15134929D01*
X13186428Y-15120643D01*
X13172143Y-15092071D01*
X13172143Y-15006357D01*
X13186428Y-14977786D01*
X13200714Y-14963500D01*
X13229285Y-14949214D01*
X13272143Y-14949214D01*
X13300714Y-14963500D01*
X13315000Y-14977786D01*
X13329285Y-15006357D01*
X13329285Y-15092071D01*
X13315000Y-15120643D01*
X13300714Y-15134929D01*
X13272143Y-15149214D01*
X13229285Y-15149214D01*
X13500714Y-15149214D02*
X13472143Y-15134929D01*
X13457857Y-15106357D01*
X13457857Y-14849214D01*
X13729286Y-15134929D02*
X13700714Y-15149214D01*
X13643571Y-15149214D01*
X13615000Y-15134929D01*
X13600714Y-15106357D01*
X13600714Y-14992071D01*
X13615000Y-14963500D01*
X13643571Y-14949214D01*
X13700714Y-14949214D01*
X13729286Y-14963500D01*
X13743571Y-14992071D01*
X13743571Y-15020643D01*
X13600714Y-15049214D01*
X13857857Y-15134929D02*
X13886428Y-15149214D01*
X13943571Y-15149214D01*
X13972143Y-15134929D01*
X13986428Y-15106357D01*
X13986428Y-15092071D01*
X13972143Y-15063500D01*
X13943571Y-15049214D01*
X13900714Y-15049214D01*
X13872143Y-15034929D01*
X13857857Y-15006357D01*
X13857857Y-14992071D01*
X13872143Y-14963500D01*
X13900714Y-14949214D01*
X13943571Y-14949214D01*
X13972143Y-14963500D01*
X14086428Y-15263500D02*
X14100714Y-15249214D01*
X14129286Y-15206357D01*
X14143571Y-15177786D01*
X14157857Y-15134929D01*
X14172143Y-15063500D01*
X14172143Y-15006357D01*
X14157857Y-14934929D01*
X14143571Y-14892071D01*
X14129286Y-14863500D01*
X14100714Y-14820643D01*
X14086428Y-14806357D01*
X14629286Y-15263500D02*
X14615000Y-15249214D01*
X14586428Y-15206357D01*
X14572143Y-15177786D01*
X14557857Y-15134929D01*
X14543571Y-15063500D01*
X14543571Y-15006357D01*
X14557857Y-14934929D01*
X14572143Y-14892071D01*
X14586428Y-14863500D01*
X14615000Y-14820643D01*
X14629286Y-14806357D01*
X14743571Y-14949214D02*
X14743571Y-15149214D01*
X14743571Y-14977786D02*
X14757857Y-14963500D01*
X14786428Y-14949214D01*
X14829286Y-14949214D01*
X14857857Y-14963500D01*
X14872143Y-14992071D01*
X14872143Y-15149214D01*
X15057857Y-15149214D02*
X15029286Y-15134929D01*
X15015000Y-15120643D01*
X15000714Y-15092071D01*
X15000714Y-15006357D01*
X15015000Y-14977786D01*
X15029286Y-14963500D01*
X15057857Y-14949214D01*
X15100714Y-14949214D01*
X15129286Y-14963500D01*
X15143571Y-14977786D01*
X15157857Y-15006357D01*
X15157857Y-15092071D01*
X15143571Y-15120643D01*
X15129286Y-15134929D01*
X15100714Y-15149214D01*
X15057857Y-15149214D01*
X15243571Y-14949214D02*
X15357857Y-14949214D01*
X15286428Y-14849214D02*
X15286428Y-15106357D01*
X15300714Y-15134929D01*
X15329286Y-15149214D01*
X15357857Y-15149214D01*
X15686428Y-14949214D02*
X15686428Y-15249214D01*
X15686428Y-14963500D02*
X15715000Y-14949214D01*
X15772143Y-14949214D01*
X15800714Y-14963500D01*
X15815000Y-14977786D01*
X15829286Y-15006357D01*
X15829286Y-15092071D01*
X15815000Y-15120643D01*
X15800714Y-15134929D01*
X15772143Y-15149214D01*
X15715000Y-15149214D01*
X15686428Y-15134929D01*
X16000714Y-15149214D02*
X15972143Y-15134929D01*
X15957857Y-15106357D01*
X15957857Y-14849214D01*
X16243571Y-15149214D02*
X16243571Y-14992071D01*
X16229286Y-14963500D01*
X16200714Y-14949214D01*
X16143571Y-14949214D01*
X16115000Y-14963500D01*
X16243571Y-15134929D02*
X16215000Y-15149214D01*
X16143571Y-15149214D01*
X16115000Y-15134929D01*
X16100714Y-15106357D01*
X16100714Y-15077786D01*
X16115000Y-15049214D01*
X16143571Y-15034929D01*
X16215000Y-15034929D01*
X16243571Y-15020643D01*
X16343571Y-14949214D02*
X16457857Y-14949214D01*
X16386429Y-14849214D02*
X16386429Y-15106357D01*
X16400714Y-15134929D01*
X16429286Y-15149214D01*
X16457857Y-15149214D01*
X16672143Y-15134929D02*
X16643571Y-15149214D01*
X16586429Y-15149214D01*
X16557857Y-15134929D01*
X16543571Y-15106357D01*
X16543571Y-14992071D01*
X16557857Y-14963500D01*
X16586429Y-14949214D01*
X16643571Y-14949214D01*
X16672143Y-14963500D01*
X16686429Y-14992071D01*
X16686429Y-15020643D01*
X16543571Y-15049214D01*
X16943572Y-15149214D02*
X16943572Y-14849214D01*
X16943572Y-15134929D02*
X16915000Y-15149214D01*
X16857857Y-15149214D01*
X16829286Y-15134929D01*
X16815000Y-15120643D01*
X16800714Y-15092071D01*
X16800714Y-15006357D01*
X16815000Y-14977786D01*
X16829286Y-14963500D01*
X16857857Y-14949214D01*
X16915000Y-14949214D01*
X16943572Y-14963500D01*
X17057857Y-15263500D02*
X17072143Y-15249214D01*
X17100714Y-15206357D01*
X17115000Y-15177786D01*
X17129286Y-15134929D01*
X17143572Y-15063500D01*
X17143572Y-15006357D01*
X17129286Y-14934929D01*
X17115000Y-14892071D01*
X17100714Y-14863500D01*
X17072143Y-14820643D01*
X17057857Y-14806357D01*
M02*
