%FSLAX45Y45*%
G04 Gerber Fmt 4.5, Leading zero omitted, Abs format (unit mm)*
G04 Created by KiCad (PCBNEW 4.0.5-e0-6337~49~ubuntu14.04.1) date Fri Dec 30 14:23:28 2016*
%MOMM*%
%LPD*%
G01*
G04 APERTURE LIST*
%ADD10C,0.127000*%
%ADD11C,0.100000*%
%ADD12C,0.200000*%
%ADD13C,0.300000*%
G04 APERTURE END LIST*
D10*
D11*
X15938500Y-7493000D02*
X7620000Y-7493000D01*
X15938500Y-8382000D02*
X15938500Y-7493000D01*
X21336000Y-8382000D02*
X15938500Y-8382000D01*
X21336000Y-13652500D02*
X21336000Y-8382000D01*
X16764000Y-13652500D02*
X21336000Y-13652500D01*
X16764000Y-12763500D02*
X16764000Y-13652500D01*
X7620000Y-12763500D02*
X16764000Y-12763500D01*
X7620000Y-7493000D02*
X7620000Y-12763500D01*
D12*
X7842250Y-9302750D02*
X7905750Y-9366250D01*
X7905750Y-9302750D02*
X7842250Y-9366250D01*
X8096250Y-9302750D02*
X8159750Y-9366250D01*
X8159750Y-9302750D02*
X8096250Y-9366250D01*
X9810750Y-8477250D02*
X9874250Y-8540750D01*
X9874250Y-8477250D02*
X9810750Y-8540750D01*
X10001250Y-11461750D02*
X10064750Y-11525250D01*
X10064750Y-11461750D02*
X10001250Y-11525250D01*
X10064750Y-9620250D02*
X10128250Y-9683750D01*
X10128250Y-9620250D02*
X10064750Y-9683750D01*
X10128250Y-9937750D02*
X10191750Y-10001250D01*
X10191750Y-9937750D02*
X10128250Y-10001250D01*
X10318750Y-12541250D02*
X10382250Y-12604750D01*
X10382250Y-12541250D02*
X10318750Y-12604750D01*
X10445750Y-10382250D02*
X10509250Y-10445750D01*
X10509250Y-10382250D02*
X10445750Y-10445750D01*
X10890250Y-9366250D02*
X10953750Y-9429750D01*
X10953750Y-9366250D02*
X10890250Y-9429750D01*
X11017250Y-9493250D02*
X11080750Y-9556750D01*
X11080750Y-9493250D02*
X11017250Y-9556750D01*
X11017250Y-12096750D02*
X11080750Y-12160250D01*
X11080750Y-12096750D02*
X11017250Y-12160250D01*
X11080750Y-10636250D02*
X11144250Y-10699750D01*
X11144250Y-10636250D02*
X11080750Y-10699750D01*
X11144250Y-9620250D02*
X11207750Y-9683750D01*
X11207750Y-9620250D02*
X11144250Y-9683750D01*
X11207750Y-11652250D02*
X11271250Y-11715750D01*
X11271250Y-11652250D02*
X11207750Y-11715750D01*
X11525250Y-9747250D02*
X11588750Y-9810750D01*
X11588750Y-9747250D02*
X11525250Y-9810750D01*
X11588750Y-10001250D02*
X11652250Y-10064750D01*
X11652250Y-10001250D02*
X11588750Y-10064750D01*
X11652250Y-11842750D02*
X11715750Y-11906250D01*
X11715750Y-11842750D02*
X11652250Y-11906250D01*
X11779250Y-11144250D02*
X11842750Y-11207750D01*
X11842750Y-11144250D02*
X11779250Y-11207750D01*
X11842750Y-9874250D02*
X11906250Y-9937750D01*
X11906250Y-9874250D02*
X11842750Y-9937750D01*
X12096750Y-11969750D02*
X12160250Y-12033250D01*
X12160250Y-11969750D02*
X12096750Y-12033250D01*
X12160250Y-9937750D02*
X12223750Y-10001250D01*
X12223750Y-9937750D02*
X12160250Y-10001250D01*
X12160250Y-11779250D02*
X12223750Y-11842750D01*
X12223750Y-11779250D02*
X12160250Y-11842750D01*
X12541250Y-11334750D02*
X12604750Y-11398250D01*
X12604750Y-11334750D02*
X12541250Y-11398250D01*
X12668250Y-10572750D02*
X12731750Y-10636250D01*
X12731750Y-10572750D02*
X12668250Y-10636250D01*
X12858750Y-11652250D02*
X12922250Y-11715750D01*
X12922250Y-11652250D02*
X12858750Y-11715750D01*
X12985750Y-11512550D02*
X13049250Y-11576050D01*
X13049250Y-11512550D02*
X12985750Y-11576050D01*
X13176250Y-10826750D02*
X13239750Y-10890250D01*
X13239750Y-10826750D02*
X13176250Y-10890250D01*
X13303250Y-11779250D02*
X13366750Y-11842750D01*
X13366750Y-11779250D02*
X13303250Y-11842750D01*
X13430250Y-11652250D02*
X13493750Y-11715750D01*
X13493750Y-11652250D02*
X13430250Y-11715750D01*
X13557250Y-11512550D02*
X13620750Y-11576050D01*
X13620750Y-11512550D02*
X13557250Y-11576050D01*
X13620750Y-12096750D02*
X13684250Y-12160250D01*
X13684250Y-12096750D02*
X13620750Y-12160250D01*
X13684250Y-10826750D02*
X13747750Y-10890250D01*
X13747750Y-10826750D02*
X13684250Y-10890250D01*
X13874750Y-11906250D02*
X13938250Y-11969750D01*
X13938250Y-11906250D02*
X13874750Y-11969750D01*
X14128750Y-11512550D02*
X14192250Y-11576050D01*
X14192250Y-11512550D02*
X14128750Y-11576050D01*
X14319250Y-10763250D02*
X14382750Y-10826750D01*
X14382750Y-10763250D02*
X14319250Y-10826750D01*
X14446250Y-12236450D02*
X14509750Y-12299950D01*
X14509750Y-12236450D02*
X14446250Y-12299950D01*
X14573250Y-11652250D02*
X14636750Y-11715750D01*
X14636750Y-11652250D02*
X14573250Y-11715750D01*
X14700250Y-10890250D02*
X14763750Y-10953750D01*
X14763750Y-10890250D02*
X14700250Y-10953750D01*
X14700250Y-11512550D02*
X14763750Y-11576050D01*
X14763750Y-11512550D02*
X14700250Y-11576050D01*
X14827250Y-10699750D02*
X14890750Y-10763250D01*
X14890750Y-10699750D02*
X14827250Y-10763250D01*
X14903450Y-12109450D02*
X14966950Y-12172950D01*
X14966950Y-12109450D02*
X14903450Y-12172950D01*
X15144750Y-12033250D02*
X15208250Y-12096750D01*
X15208250Y-12033250D02*
X15144750Y-12096750D01*
X15335250Y-12033250D02*
X15398750Y-12096750D01*
X15398750Y-12033250D02*
X15335250Y-12096750D01*
X15640050Y-12084050D02*
X15703550Y-12147550D01*
X15703550Y-12084050D02*
X15640050Y-12147550D01*
X15703550Y-10890250D02*
X15767050Y-10953750D01*
X15767050Y-10890250D02*
X15703550Y-10953750D01*
X15754350Y-11360150D02*
X15817850Y-11423650D01*
X15817850Y-11360150D02*
X15754350Y-11423650D01*
X15779750Y-11804650D02*
X15843250Y-11868150D01*
X15843250Y-11804650D02*
X15779750Y-11868150D01*
X15982950Y-11804650D02*
X16046450Y-11868150D01*
X16046450Y-11804650D02*
X15982950Y-11868150D01*
X16097250Y-10382250D02*
X16160750Y-10445750D01*
X16160750Y-10382250D02*
X16097250Y-10445750D01*
X19843750Y-11906250D02*
X19907250Y-11969750D01*
X19907250Y-11906250D02*
X19843750Y-11969750D01*
X7927340Y-7747000D02*
G75*
G03X7927340Y-7747000I-53340J0D01*
G01*
X8181340Y-7747000D02*
G75*
G03X8181340Y-7747000I-53340J0D01*
G01*
X8435340Y-7747000D02*
G75*
G03X8435340Y-7747000I-53340J0D01*
G01*
X8689340Y-7747000D02*
G75*
G03X8689340Y-7747000I-53340J0D01*
G01*
X8943340Y-7747000D02*
G75*
G03X8943340Y-7747000I-53340J0D01*
G01*
X9197340Y-7747000D02*
G75*
G03X9197340Y-7747000I-53340J0D01*
G01*
X9451340Y-7747000D02*
G75*
G03X9451340Y-7747000I-53340J0D01*
G01*
X9705340Y-7747000D02*
G75*
G03X9705340Y-7747000I-53340J0D01*
G01*
X9959340Y-7747000D02*
G75*
G03X9959340Y-7747000I-53340J0D01*
G01*
X10213340Y-7747000D02*
G75*
G03X10213340Y-7747000I-53340J0D01*
G01*
X10467340Y-7747000D02*
G75*
G03X10467340Y-7747000I-53340J0D01*
G01*
X10721340Y-7747000D02*
G75*
G03X10721340Y-7747000I-53340J0D01*
G01*
X10975340Y-7747000D02*
G75*
G03X10975340Y-7747000I-53340J0D01*
G01*
X11229340Y-7747000D02*
G75*
G03X11229340Y-7747000I-53340J0D01*
G01*
X11483340Y-7747000D02*
G75*
G03X11483340Y-7747000I-53340J0D01*
G01*
X11737340Y-7747000D02*
G75*
G03X11737340Y-7747000I-53340J0D01*
G01*
X17134840Y-9080500D02*
G75*
G03X17134840Y-9080500I-53340J0D01*
G01*
X17134840Y-9334500D02*
G75*
G03X17134840Y-9334500I-53340J0D01*
G01*
X17134840Y-9588500D02*
G75*
G03X17134840Y-9588500I-53340J0D01*
G01*
X17134840Y-9842500D02*
G75*
G03X17134840Y-9842500I-53340J0D01*
G01*
X17134840Y-10096500D02*
G75*
G03X17134840Y-10096500I-53340J0D01*
G01*
X17134840Y-10350500D02*
G75*
G03X17134840Y-10350500I-53340J0D01*
G01*
X17134840Y-10604500D02*
G75*
G03X17134840Y-10604500I-53340J0D01*
G01*
X17134840Y-10858500D02*
G75*
G03X17134840Y-10858500I-53340J0D01*
G01*
X17134840Y-11112500D02*
G75*
G03X17134840Y-11112500I-53340J0D01*
G01*
X17134840Y-11366500D02*
G75*
G03X17134840Y-11366500I-53340J0D01*
G01*
X17134840Y-11620500D02*
G75*
G03X17134840Y-11620500I-53340J0D01*
G01*
X17134840Y-11874500D02*
G75*
G03X17134840Y-11874500I-53340J0D01*
G01*
X17642840Y-12446000D02*
G75*
G03X17642840Y-12446000I-53340J0D01*
G01*
X17642840Y-12700000D02*
G75*
G03X17642840Y-12700000I-53340J0D01*
G01*
X17896840Y-12446000D02*
G75*
G03X17896840Y-12446000I-53340J0D01*
G01*
X17896840Y-12700000D02*
G75*
G03X17896840Y-12700000I-53340J0D01*
G01*
X18150840Y-12446000D02*
G75*
G03X18150840Y-12446000I-53340J0D01*
G01*
X18150840Y-12700000D02*
G75*
G03X18150840Y-12700000I-53340J0D01*
G01*
X18404840Y-12446000D02*
G75*
G03X18404840Y-12446000I-53340J0D01*
G01*
X18404840Y-12700000D02*
G75*
G03X18404840Y-12700000I-53340J0D01*
G01*
X18658840Y-12446000D02*
G75*
G03X18658840Y-12446000I-53340J0D01*
G01*
X18658840Y-12700000D02*
G75*
G03X18658840Y-12700000I-53340J0D01*
G01*
X18912840Y-12446000D02*
G75*
G03X18912840Y-12446000I-53340J0D01*
G01*
X18912840Y-12700000D02*
G75*
G03X18912840Y-12700000I-53340J0D01*
G01*
X19166840Y-12446000D02*
G75*
G03X19166840Y-12446000I-53340J0D01*
G01*
X19166840Y-12700000D02*
G75*
G03X19166840Y-12700000I-53340J0D01*
G01*
X19420840Y-12446000D02*
G75*
G03X19420840Y-12446000I-53340J0D01*
G01*
X19420840Y-12700000D02*
G75*
G03X19420840Y-12700000I-53340J0D01*
G01*
X19674840Y-12446000D02*
G75*
G03X19674840Y-12446000I-53340J0D01*
G01*
X19674840Y-12700000D02*
G75*
G03X19674840Y-12700000I-53340J0D01*
G01*
X19928840Y-12446000D02*
G75*
G03X19928840Y-12446000I-53340J0D01*
G01*
X19928840Y-12700000D02*
G75*
G03X19928840Y-12700000I-53340J0D01*
G01*
X20182840Y-12446000D02*
G75*
G03X20182840Y-12446000I-53340J0D01*
G01*
X20182840Y-12700000D02*
G75*
G03X20182840Y-12700000I-53340J0D01*
G01*
X20436840Y-12446000D02*
G75*
G03X20436840Y-12446000I-53340J0D01*
G01*
X20436840Y-12700000D02*
G75*
G03X20436840Y-12700000I-53340J0D01*
G01*
X20690840Y-12446000D02*
G75*
G03X20690840Y-12446000I-53340J0D01*
G01*
X20690840Y-12700000D02*
G75*
G03X20690840Y-12700000I-53340J0D01*
G01*
X16586200Y-11544300D02*
X16586200Y-11696700D01*
X16510000Y-11620500D02*
X16662400Y-11620500D01*
D13*
X7886428Y-14123214D02*
X7886428Y-13823214D01*
X7957857Y-13823214D01*
X8000714Y-13837500D01*
X8029286Y-13866071D01*
X8043571Y-13894643D01*
X8057857Y-13951786D01*
X8057857Y-13994643D01*
X8043571Y-14051786D01*
X8029286Y-14080357D01*
X8000714Y-14108929D01*
X7957857Y-14123214D01*
X7886428Y-14123214D01*
X8186428Y-14123214D02*
X8186428Y-13923214D01*
X8186428Y-13980357D02*
X8200714Y-13951786D01*
X8215000Y-13937500D01*
X8243571Y-13923214D01*
X8272143Y-13923214D01*
X8372143Y-14123214D02*
X8372143Y-13923214D01*
X8372143Y-13823214D02*
X8357857Y-13837500D01*
X8372143Y-13851786D01*
X8386428Y-13837500D01*
X8372143Y-13823214D01*
X8372143Y-13851786D01*
X8557857Y-14123214D02*
X8529286Y-14108929D01*
X8515000Y-14080357D01*
X8515000Y-13823214D01*
X8715000Y-14123214D02*
X8686429Y-14108929D01*
X8672143Y-14080357D01*
X8672143Y-13823214D01*
X9057857Y-14123214D02*
X9057857Y-13823214D01*
X9157857Y-14037500D01*
X9257857Y-13823214D01*
X9257857Y-14123214D01*
X9529286Y-14123214D02*
X9529286Y-13966071D01*
X9515000Y-13937500D01*
X9486429Y-13923214D01*
X9429286Y-13923214D01*
X9400714Y-13937500D01*
X9529286Y-14108929D02*
X9500714Y-14123214D01*
X9429286Y-14123214D01*
X9400714Y-14108929D01*
X9386429Y-14080357D01*
X9386429Y-14051786D01*
X9400714Y-14023214D01*
X9429286Y-14008929D01*
X9500714Y-14008929D01*
X9529286Y-13994643D01*
X9672143Y-13923214D02*
X9672143Y-14223214D01*
X9672143Y-13937500D02*
X9700714Y-13923214D01*
X9757857Y-13923214D01*
X9786429Y-13937500D01*
X9800714Y-13951786D01*
X9815000Y-13980357D01*
X9815000Y-14066071D01*
X9800714Y-14094643D01*
X9786429Y-14108929D01*
X9757857Y-14123214D01*
X9700714Y-14123214D01*
X9672143Y-14108929D01*
X9943571Y-14094643D02*
X9957857Y-14108929D01*
X9943571Y-14123214D01*
X9929286Y-14108929D01*
X9943571Y-14094643D01*
X9943571Y-14123214D01*
X9943571Y-13937500D02*
X9957857Y-13951786D01*
X9943571Y-13966071D01*
X9929286Y-13951786D01*
X9943571Y-13937500D01*
X9943571Y-13966071D01*
X7551500Y-14585750D02*
X7615000Y-14649250D01*
X7615000Y-14585750D02*
X7551500Y-14649250D01*
X7943571Y-14453214D02*
X7972143Y-14453214D01*
X8000714Y-14467500D01*
X8015000Y-14481786D01*
X8029286Y-14510357D01*
X8043571Y-14567500D01*
X8043571Y-14638929D01*
X8029286Y-14696071D01*
X8015000Y-14724643D01*
X8000714Y-14738929D01*
X7972143Y-14753214D01*
X7943571Y-14753214D01*
X7915000Y-14738929D01*
X7900714Y-14724643D01*
X7886428Y-14696071D01*
X7872143Y-14638929D01*
X7872143Y-14567500D01*
X7886428Y-14510357D01*
X7900714Y-14481786D01*
X7915000Y-14467500D01*
X7943571Y-14453214D01*
X8172143Y-14724643D02*
X8186428Y-14738929D01*
X8172143Y-14753214D01*
X8157857Y-14738929D01*
X8172143Y-14724643D01*
X8172143Y-14753214D01*
X8443571Y-14453214D02*
X8386428Y-14453214D01*
X8357857Y-14467500D01*
X8343571Y-14481786D01*
X8315000Y-14524643D01*
X8300714Y-14581786D01*
X8300714Y-14696071D01*
X8315000Y-14724643D01*
X8329286Y-14738929D01*
X8357857Y-14753214D01*
X8415000Y-14753214D01*
X8443571Y-14738929D01*
X8457857Y-14724643D01*
X8472143Y-14696071D01*
X8472143Y-14624643D01*
X8457857Y-14596071D01*
X8443571Y-14581786D01*
X8415000Y-14567500D01*
X8357857Y-14567500D01*
X8329286Y-14581786D01*
X8315000Y-14596071D01*
X8300714Y-14624643D01*
X8729286Y-14553214D02*
X8729286Y-14753214D01*
X8657857Y-14438929D02*
X8586429Y-14653214D01*
X8772143Y-14653214D01*
X8886429Y-14753214D02*
X8886429Y-14553214D01*
X8886429Y-14581786D02*
X8900714Y-14567500D01*
X8929286Y-14553214D01*
X8972143Y-14553214D01*
X9000714Y-14567500D01*
X9015000Y-14596071D01*
X9015000Y-14753214D01*
X9015000Y-14596071D02*
X9029286Y-14567500D01*
X9057857Y-14553214D01*
X9100714Y-14553214D01*
X9129286Y-14567500D01*
X9143571Y-14596071D01*
X9143571Y-14753214D01*
X9286429Y-14753214D02*
X9286429Y-14553214D01*
X9286429Y-14581786D02*
X9300714Y-14567500D01*
X9329286Y-14553214D01*
X9372143Y-14553214D01*
X9400714Y-14567500D01*
X9415000Y-14596071D01*
X9415000Y-14753214D01*
X9415000Y-14596071D02*
X9429286Y-14567500D01*
X9457857Y-14553214D01*
X9500714Y-14553214D01*
X9529286Y-14567500D01*
X9543571Y-14596071D01*
X9543571Y-14753214D01*
X10129286Y-14438929D02*
X9872143Y-14824643D01*
X10515000Y-14453214D02*
X10543571Y-14453214D01*
X10572143Y-14467500D01*
X10586428Y-14481786D01*
X10600714Y-14510357D01*
X10615000Y-14567500D01*
X10615000Y-14638929D01*
X10600714Y-14696071D01*
X10586428Y-14724643D01*
X10572143Y-14738929D01*
X10543571Y-14753214D01*
X10515000Y-14753214D01*
X10486428Y-14738929D01*
X10472143Y-14724643D01*
X10457857Y-14696071D01*
X10443571Y-14638929D01*
X10443571Y-14567500D01*
X10457857Y-14510357D01*
X10472143Y-14481786D01*
X10486428Y-14467500D01*
X10515000Y-14453214D01*
X10743571Y-14724643D02*
X10757857Y-14738929D01*
X10743571Y-14753214D01*
X10729286Y-14738929D01*
X10743571Y-14724643D01*
X10743571Y-14753214D01*
X10943571Y-14453214D02*
X10972143Y-14453214D01*
X11000714Y-14467500D01*
X11015000Y-14481786D01*
X11029286Y-14510357D01*
X11043571Y-14567500D01*
X11043571Y-14638929D01*
X11029286Y-14696071D01*
X11015000Y-14724643D01*
X11000714Y-14738929D01*
X10972143Y-14753214D01*
X10943571Y-14753214D01*
X10915000Y-14738929D01*
X10900714Y-14724643D01*
X10886428Y-14696071D01*
X10872143Y-14638929D01*
X10872143Y-14567500D01*
X10886428Y-14510357D01*
X10900714Y-14481786D01*
X10915000Y-14467500D01*
X10943571Y-14453214D01*
X11157857Y-14481786D02*
X11172143Y-14467500D01*
X11200714Y-14453214D01*
X11272143Y-14453214D01*
X11300714Y-14467500D01*
X11315000Y-14481786D01*
X11329285Y-14510357D01*
X11329285Y-14538929D01*
X11315000Y-14581786D01*
X11143571Y-14753214D01*
X11329285Y-14753214D01*
X11600714Y-14453214D02*
X11457857Y-14453214D01*
X11443571Y-14596071D01*
X11457857Y-14581786D01*
X11486428Y-14567500D01*
X11557857Y-14567500D01*
X11586428Y-14581786D01*
X11600714Y-14596071D01*
X11615000Y-14624643D01*
X11615000Y-14696071D01*
X11600714Y-14724643D01*
X11586428Y-14738929D01*
X11557857Y-14753214D01*
X11486428Y-14753214D01*
X11457857Y-14738929D01*
X11443571Y-14724643D01*
X11729286Y-14453214D02*
X11729286Y-14510357D01*
X11843571Y-14453214D02*
X11843571Y-14510357D01*
X12286428Y-14867500D02*
X12272143Y-14853214D01*
X12243571Y-14810357D01*
X12229285Y-14781786D01*
X12215000Y-14738929D01*
X12200714Y-14667500D01*
X12200714Y-14610357D01*
X12215000Y-14538929D01*
X12229285Y-14496071D01*
X12243571Y-14467500D01*
X12272143Y-14424643D01*
X12286428Y-14410357D01*
X12543571Y-14453214D02*
X12400714Y-14453214D01*
X12386428Y-14596071D01*
X12400714Y-14581786D01*
X12429285Y-14567500D01*
X12500714Y-14567500D01*
X12529285Y-14581786D01*
X12543571Y-14596071D01*
X12557857Y-14624643D01*
X12557857Y-14696071D01*
X12543571Y-14724643D01*
X12529285Y-14738929D01*
X12500714Y-14753214D01*
X12429285Y-14753214D01*
X12400714Y-14738929D01*
X12386428Y-14724643D01*
X12743571Y-14453214D02*
X12772143Y-14453214D01*
X12800714Y-14467500D01*
X12815000Y-14481786D01*
X12829285Y-14510357D01*
X12843571Y-14567500D01*
X12843571Y-14638929D01*
X12829285Y-14696071D01*
X12815000Y-14724643D01*
X12800714Y-14738929D01*
X12772143Y-14753214D01*
X12743571Y-14753214D01*
X12715000Y-14738929D01*
X12700714Y-14724643D01*
X12686428Y-14696071D01*
X12672143Y-14638929D01*
X12672143Y-14567500D01*
X12686428Y-14510357D01*
X12700714Y-14481786D01*
X12715000Y-14467500D01*
X12743571Y-14453214D01*
X13200714Y-14753214D02*
X13200714Y-14453214D01*
X13329285Y-14753214D02*
X13329285Y-14596071D01*
X13315000Y-14567500D01*
X13286428Y-14553214D01*
X13243571Y-14553214D01*
X13215000Y-14567500D01*
X13200714Y-14581786D01*
X13515000Y-14753214D02*
X13486428Y-14738929D01*
X13472143Y-14724643D01*
X13457857Y-14696071D01*
X13457857Y-14610357D01*
X13472143Y-14581786D01*
X13486428Y-14567500D01*
X13515000Y-14553214D01*
X13557857Y-14553214D01*
X13586428Y-14567500D01*
X13600714Y-14581786D01*
X13615000Y-14610357D01*
X13615000Y-14696071D01*
X13600714Y-14724643D01*
X13586428Y-14738929D01*
X13557857Y-14753214D01*
X13515000Y-14753214D01*
X13786428Y-14753214D02*
X13757857Y-14738929D01*
X13743571Y-14710357D01*
X13743571Y-14453214D01*
X14015000Y-14738929D02*
X13986428Y-14753214D01*
X13929286Y-14753214D01*
X13900714Y-14738929D01*
X13886428Y-14710357D01*
X13886428Y-14596071D01*
X13900714Y-14567500D01*
X13929286Y-14553214D01*
X13986428Y-14553214D01*
X14015000Y-14567500D01*
X14029286Y-14596071D01*
X14029286Y-14624643D01*
X13886428Y-14653214D01*
X14143571Y-14738929D02*
X14172143Y-14753214D01*
X14229286Y-14753214D01*
X14257857Y-14738929D01*
X14272143Y-14710357D01*
X14272143Y-14696071D01*
X14257857Y-14667500D01*
X14229286Y-14653214D01*
X14186428Y-14653214D01*
X14157857Y-14638929D01*
X14143571Y-14610357D01*
X14143571Y-14596071D01*
X14157857Y-14567500D01*
X14186428Y-14553214D01*
X14229286Y-14553214D01*
X14257857Y-14567500D01*
X14372143Y-14867500D02*
X14386428Y-14853214D01*
X14415000Y-14810357D01*
X14429286Y-14781786D01*
X14443571Y-14738929D01*
X14457857Y-14667500D01*
X14457857Y-14610357D01*
X14443571Y-14538929D01*
X14429286Y-14496071D01*
X14415000Y-14467500D01*
X14386428Y-14424643D01*
X14372143Y-14410357D01*
X7615000Y-15013500D02*
G75*
G03X7615000Y-15013500I-53340J0D01*
G01*
X8043571Y-15149214D02*
X7872143Y-15149214D01*
X7957857Y-15149214D02*
X7957857Y-14849214D01*
X7929286Y-14892071D01*
X7900714Y-14920643D01*
X7872143Y-14934929D01*
X8172143Y-15120643D02*
X8186428Y-15134929D01*
X8172143Y-15149214D01*
X8157857Y-15134929D01*
X8172143Y-15120643D01*
X8172143Y-15149214D01*
X8372143Y-14849214D02*
X8400714Y-14849214D01*
X8429286Y-14863500D01*
X8443571Y-14877786D01*
X8457857Y-14906357D01*
X8472143Y-14963500D01*
X8472143Y-15034929D01*
X8457857Y-15092071D01*
X8443571Y-15120643D01*
X8429286Y-15134929D01*
X8400714Y-15149214D01*
X8372143Y-15149214D01*
X8343571Y-15134929D01*
X8329286Y-15120643D01*
X8315000Y-15092071D01*
X8300714Y-15034929D01*
X8300714Y-14963500D01*
X8315000Y-14906357D01*
X8329286Y-14877786D01*
X8343571Y-14863500D01*
X8372143Y-14849214D01*
X8572143Y-14849214D02*
X8772143Y-14849214D01*
X8643571Y-15149214D01*
X8886429Y-15149214D02*
X8886429Y-14949214D01*
X8886429Y-14977786D02*
X8900714Y-14963500D01*
X8929286Y-14949214D01*
X8972143Y-14949214D01*
X9000714Y-14963500D01*
X9015000Y-14992071D01*
X9015000Y-15149214D01*
X9015000Y-14992071D02*
X9029286Y-14963500D01*
X9057857Y-14949214D01*
X9100714Y-14949214D01*
X9129286Y-14963500D01*
X9143571Y-14992071D01*
X9143571Y-15149214D01*
X9286429Y-15149214D02*
X9286429Y-14949214D01*
X9286429Y-14977786D02*
X9300714Y-14963500D01*
X9329286Y-14949214D01*
X9372143Y-14949214D01*
X9400714Y-14963500D01*
X9415000Y-14992071D01*
X9415000Y-15149214D01*
X9415000Y-14992071D02*
X9429286Y-14963500D01*
X9457857Y-14949214D01*
X9500714Y-14949214D01*
X9529286Y-14963500D01*
X9543571Y-14992071D01*
X9543571Y-15149214D01*
X10129286Y-14834929D02*
X9872143Y-15220643D01*
X10515000Y-14849214D02*
X10543571Y-14849214D01*
X10572143Y-14863500D01*
X10586428Y-14877786D01*
X10600714Y-14906357D01*
X10615000Y-14963500D01*
X10615000Y-15034929D01*
X10600714Y-15092071D01*
X10586428Y-15120643D01*
X10572143Y-15134929D01*
X10543571Y-15149214D01*
X10515000Y-15149214D01*
X10486428Y-15134929D01*
X10472143Y-15120643D01*
X10457857Y-15092071D01*
X10443571Y-15034929D01*
X10443571Y-14963500D01*
X10457857Y-14906357D01*
X10472143Y-14877786D01*
X10486428Y-14863500D01*
X10515000Y-14849214D01*
X10743571Y-15120643D02*
X10757857Y-15134929D01*
X10743571Y-15149214D01*
X10729286Y-15134929D01*
X10743571Y-15120643D01*
X10743571Y-15149214D01*
X10943571Y-14849214D02*
X10972143Y-14849214D01*
X11000714Y-14863500D01*
X11015000Y-14877786D01*
X11029286Y-14906357D01*
X11043571Y-14963500D01*
X11043571Y-15034929D01*
X11029286Y-15092071D01*
X11015000Y-15120643D01*
X11000714Y-15134929D01*
X10972143Y-15149214D01*
X10943571Y-15149214D01*
X10915000Y-15134929D01*
X10900714Y-15120643D01*
X10886428Y-15092071D01*
X10872143Y-15034929D01*
X10872143Y-14963500D01*
X10886428Y-14906357D01*
X10900714Y-14877786D01*
X10915000Y-14863500D01*
X10943571Y-14849214D01*
X11300714Y-14949214D02*
X11300714Y-15149214D01*
X11229285Y-14834929D02*
X11157857Y-15049214D01*
X11343571Y-15049214D01*
X11443571Y-14877786D02*
X11457857Y-14863500D01*
X11486428Y-14849214D01*
X11557857Y-14849214D01*
X11586428Y-14863500D01*
X11600714Y-14877786D01*
X11615000Y-14906357D01*
X11615000Y-14934929D01*
X11600714Y-14977786D01*
X11429285Y-15149214D01*
X11615000Y-15149214D01*
X11729286Y-14849214D02*
X11729286Y-14906357D01*
X11843571Y-14849214D02*
X11843571Y-14906357D01*
X12286428Y-15263500D02*
X12272143Y-15249214D01*
X12243571Y-15206357D01*
X12229285Y-15177786D01*
X12215000Y-15134929D01*
X12200714Y-15063500D01*
X12200714Y-15006357D01*
X12215000Y-14934929D01*
X12229285Y-14892071D01*
X12243571Y-14863500D01*
X12272143Y-14820643D01*
X12286428Y-14806357D01*
X12543571Y-14849214D02*
X12400714Y-14849214D01*
X12386428Y-14992071D01*
X12400714Y-14977786D01*
X12429285Y-14963500D01*
X12500714Y-14963500D01*
X12529285Y-14977786D01*
X12543571Y-14992071D01*
X12557857Y-15020643D01*
X12557857Y-15092071D01*
X12543571Y-15120643D01*
X12529285Y-15134929D01*
X12500714Y-15149214D01*
X12429285Y-15149214D01*
X12400714Y-15134929D01*
X12386428Y-15120643D01*
X12815000Y-14949214D02*
X12815000Y-15149214D01*
X12743571Y-14834929D02*
X12672143Y-15049214D01*
X12857857Y-15049214D01*
X13200714Y-15149214D02*
X13200714Y-14849214D01*
X13329285Y-15149214D02*
X13329285Y-14992071D01*
X13315000Y-14963500D01*
X13286428Y-14949214D01*
X13243571Y-14949214D01*
X13215000Y-14963500D01*
X13200714Y-14977786D01*
X13515000Y-15149214D02*
X13486428Y-15134929D01*
X13472143Y-15120643D01*
X13457857Y-15092071D01*
X13457857Y-15006357D01*
X13472143Y-14977786D01*
X13486428Y-14963500D01*
X13515000Y-14949214D01*
X13557857Y-14949214D01*
X13586428Y-14963500D01*
X13600714Y-14977786D01*
X13615000Y-15006357D01*
X13615000Y-15092071D01*
X13600714Y-15120643D01*
X13586428Y-15134929D01*
X13557857Y-15149214D01*
X13515000Y-15149214D01*
X13786428Y-15149214D02*
X13757857Y-15134929D01*
X13743571Y-15106357D01*
X13743571Y-14849214D01*
X14015000Y-15134929D02*
X13986428Y-15149214D01*
X13929286Y-15149214D01*
X13900714Y-15134929D01*
X13886428Y-15106357D01*
X13886428Y-14992071D01*
X13900714Y-14963500D01*
X13929286Y-14949214D01*
X13986428Y-14949214D01*
X14015000Y-14963500D01*
X14029286Y-14992071D01*
X14029286Y-15020643D01*
X13886428Y-15049214D01*
X14143571Y-15134929D02*
X14172143Y-15149214D01*
X14229286Y-15149214D01*
X14257857Y-15134929D01*
X14272143Y-15106357D01*
X14272143Y-15092071D01*
X14257857Y-15063500D01*
X14229286Y-15049214D01*
X14186428Y-15049214D01*
X14157857Y-15034929D01*
X14143571Y-15006357D01*
X14143571Y-14992071D01*
X14157857Y-14963500D01*
X14186428Y-14949214D01*
X14229286Y-14949214D01*
X14257857Y-14963500D01*
X14372143Y-15263500D02*
X14386428Y-15249214D01*
X14415000Y-15206357D01*
X14429286Y-15177786D01*
X14443571Y-15134929D01*
X14457857Y-15063500D01*
X14457857Y-15006357D01*
X14443571Y-14934929D01*
X14429286Y-14892071D01*
X14415000Y-14863500D01*
X14386428Y-14820643D01*
X14372143Y-14806357D01*
X7538800Y-15333300D02*
X7538800Y-15485700D01*
X7462600Y-15409500D02*
X7615000Y-15409500D01*
X8043571Y-15545214D02*
X7872143Y-15545214D01*
X7957857Y-15545214D02*
X7957857Y-15245214D01*
X7929286Y-15288071D01*
X7900714Y-15316643D01*
X7872143Y-15330929D01*
X8172143Y-15516643D02*
X8186428Y-15530929D01*
X8172143Y-15545214D01*
X8157857Y-15530929D01*
X8172143Y-15516643D01*
X8172143Y-15545214D01*
X8457857Y-15245214D02*
X8315000Y-15245214D01*
X8300714Y-15388071D01*
X8315000Y-15373786D01*
X8343571Y-15359500D01*
X8415000Y-15359500D01*
X8443571Y-15373786D01*
X8457857Y-15388071D01*
X8472143Y-15416643D01*
X8472143Y-15488071D01*
X8457857Y-15516643D01*
X8443571Y-15530929D01*
X8415000Y-15545214D01*
X8343571Y-15545214D01*
X8315000Y-15530929D01*
X8300714Y-15516643D01*
X8586429Y-15273786D02*
X8600714Y-15259500D01*
X8629286Y-15245214D01*
X8700714Y-15245214D01*
X8729286Y-15259500D01*
X8743571Y-15273786D01*
X8757857Y-15302357D01*
X8757857Y-15330929D01*
X8743571Y-15373786D01*
X8572143Y-15545214D01*
X8757857Y-15545214D01*
X8886429Y-15545214D02*
X8886429Y-15345214D01*
X8886429Y-15373786D02*
X8900714Y-15359500D01*
X8929286Y-15345214D01*
X8972143Y-15345214D01*
X9000714Y-15359500D01*
X9015000Y-15388071D01*
X9015000Y-15545214D01*
X9015000Y-15388071D02*
X9029286Y-15359500D01*
X9057857Y-15345214D01*
X9100714Y-15345214D01*
X9129286Y-15359500D01*
X9143571Y-15388071D01*
X9143571Y-15545214D01*
X9286429Y-15545214D02*
X9286429Y-15345214D01*
X9286429Y-15373786D02*
X9300714Y-15359500D01*
X9329286Y-15345214D01*
X9372143Y-15345214D01*
X9400714Y-15359500D01*
X9415000Y-15388071D01*
X9415000Y-15545214D01*
X9415000Y-15388071D02*
X9429286Y-15359500D01*
X9457857Y-15345214D01*
X9500714Y-15345214D01*
X9529286Y-15359500D01*
X9543571Y-15388071D01*
X9543571Y-15545214D01*
X10129286Y-15230929D02*
X9872143Y-15616643D01*
X10515000Y-15245214D02*
X10543571Y-15245214D01*
X10572143Y-15259500D01*
X10586428Y-15273786D01*
X10600714Y-15302357D01*
X10615000Y-15359500D01*
X10615000Y-15430929D01*
X10600714Y-15488071D01*
X10586428Y-15516643D01*
X10572143Y-15530929D01*
X10543571Y-15545214D01*
X10515000Y-15545214D01*
X10486428Y-15530929D01*
X10472143Y-15516643D01*
X10457857Y-15488071D01*
X10443571Y-15430929D01*
X10443571Y-15359500D01*
X10457857Y-15302357D01*
X10472143Y-15273786D01*
X10486428Y-15259500D01*
X10515000Y-15245214D01*
X10743571Y-15516643D02*
X10757857Y-15530929D01*
X10743571Y-15545214D01*
X10729286Y-15530929D01*
X10743571Y-15516643D01*
X10743571Y-15545214D01*
X10943571Y-15245214D02*
X10972143Y-15245214D01*
X11000714Y-15259500D01*
X11015000Y-15273786D01*
X11029286Y-15302357D01*
X11043571Y-15359500D01*
X11043571Y-15430929D01*
X11029286Y-15488071D01*
X11015000Y-15516643D01*
X11000714Y-15530929D01*
X10972143Y-15545214D01*
X10943571Y-15545214D01*
X10915000Y-15530929D01*
X10900714Y-15516643D01*
X10886428Y-15488071D01*
X10872143Y-15430929D01*
X10872143Y-15359500D01*
X10886428Y-15302357D01*
X10900714Y-15273786D01*
X10915000Y-15259500D01*
X10943571Y-15245214D01*
X11300714Y-15245214D02*
X11243571Y-15245214D01*
X11215000Y-15259500D01*
X11200714Y-15273786D01*
X11172143Y-15316643D01*
X11157857Y-15373786D01*
X11157857Y-15488071D01*
X11172143Y-15516643D01*
X11186428Y-15530929D01*
X11215000Y-15545214D01*
X11272143Y-15545214D01*
X11300714Y-15530929D01*
X11315000Y-15516643D01*
X11329285Y-15488071D01*
X11329285Y-15416643D01*
X11315000Y-15388071D01*
X11300714Y-15373786D01*
X11272143Y-15359500D01*
X11215000Y-15359500D01*
X11186428Y-15373786D01*
X11172143Y-15388071D01*
X11157857Y-15416643D01*
X11515000Y-15245214D02*
X11543571Y-15245214D01*
X11572143Y-15259500D01*
X11586428Y-15273786D01*
X11600714Y-15302357D01*
X11615000Y-15359500D01*
X11615000Y-15430929D01*
X11600714Y-15488071D01*
X11586428Y-15516643D01*
X11572143Y-15530929D01*
X11543571Y-15545214D01*
X11515000Y-15545214D01*
X11486428Y-15530929D01*
X11472143Y-15516643D01*
X11457857Y-15488071D01*
X11443571Y-15430929D01*
X11443571Y-15359500D01*
X11457857Y-15302357D01*
X11472143Y-15273786D01*
X11486428Y-15259500D01*
X11515000Y-15245214D01*
X11729286Y-15245214D02*
X11729286Y-15302357D01*
X11843571Y-15245214D02*
X11843571Y-15302357D01*
X12286428Y-15659500D02*
X12272143Y-15645214D01*
X12243571Y-15602357D01*
X12229285Y-15573786D01*
X12215000Y-15530929D01*
X12200714Y-15459500D01*
X12200714Y-15402357D01*
X12215000Y-15330929D01*
X12229285Y-15288071D01*
X12243571Y-15259500D01*
X12272143Y-15216643D01*
X12286428Y-15202357D01*
X12557857Y-15545214D02*
X12386428Y-15545214D01*
X12472143Y-15545214D02*
X12472143Y-15245214D01*
X12443571Y-15288071D01*
X12415000Y-15316643D01*
X12386428Y-15330929D01*
X12915000Y-15545214D02*
X12915000Y-15245214D01*
X13043571Y-15545214D02*
X13043571Y-15388071D01*
X13029285Y-15359500D01*
X13000714Y-15345214D01*
X12957857Y-15345214D01*
X12929285Y-15359500D01*
X12915000Y-15373786D01*
X13229285Y-15545214D02*
X13200714Y-15530929D01*
X13186428Y-15516643D01*
X13172143Y-15488071D01*
X13172143Y-15402357D01*
X13186428Y-15373786D01*
X13200714Y-15359500D01*
X13229285Y-15345214D01*
X13272143Y-15345214D01*
X13300714Y-15359500D01*
X13315000Y-15373786D01*
X13329285Y-15402357D01*
X13329285Y-15488071D01*
X13315000Y-15516643D01*
X13300714Y-15530929D01*
X13272143Y-15545214D01*
X13229285Y-15545214D01*
X13500714Y-15545214D02*
X13472143Y-15530929D01*
X13457857Y-15502357D01*
X13457857Y-15245214D01*
X13729286Y-15530929D02*
X13700714Y-15545214D01*
X13643571Y-15545214D01*
X13615000Y-15530929D01*
X13600714Y-15502357D01*
X13600714Y-15388071D01*
X13615000Y-15359500D01*
X13643571Y-15345214D01*
X13700714Y-15345214D01*
X13729286Y-15359500D01*
X13743571Y-15388071D01*
X13743571Y-15416643D01*
X13600714Y-15445214D01*
X13843571Y-15659500D02*
X13857857Y-15645214D01*
X13886428Y-15602357D01*
X13900714Y-15573786D01*
X13915000Y-15530929D01*
X13929286Y-15459500D01*
X13929286Y-15402357D01*
X13915000Y-15330929D01*
X13900714Y-15288071D01*
X13886428Y-15259500D01*
X13857857Y-15216643D01*
X13843571Y-15202357D01*
M02*
