G04 #@! TF.FileFunction,Copper,L1,Top,Signal*
%FSLAX46Y46*%
G04 Gerber Fmt 4.6, Leading zero omitted, Abs format (unit mm)*
G04 Created by KiCad (PCBNEW 4.0.5-e0-6337~49~ubuntu14.04.1) date Fri Dec 30 14:23:34 2016*
%MOMM*%
%LPD*%
G01*
G04 APERTURE LIST*
%ADD10C,0.150000*%
%ADD11R,1.778000X1.778000*%
%ADD12C,1.778000*%
%ADD13R,0.398780X1.501140*%
%ADD14C,3.048000*%
%ADD15R,2.000000X1.600000*%
%ADD16R,1.600000X3.500000*%
%ADD17R,1.600000X2.000000*%
%ADD18R,1.500000X1.500000*%
%ADD19R,0.899160X1.798320*%
%ADD20R,1.399540X1.998980*%
%ADD21R,1.099820X1.798320*%
%ADD22R,1.524000X3.048000*%
%ADD23O,1.524000X3.048000*%
%ADD24R,3.048000X1.524000*%
%ADD25O,3.048000X1.524000*%
%ADD26R,2.000000X1.700000*%
%ADD27R,1.700000X2.000000*%
%ADD28R,1.200000X1.200000*%
%ADD29R,1.600000X1.500000*%
%ADD30R,0.660400X2.032000*%
%ADD31R,2.032000X0.660400*%
%ADD32R,3.800000X2.000000*%
%ADD33R,1.500000X2.000000*%
%ADD34C,1.066800*%
%ADD35C,0.762000*%
%ADD36C,0.381000*%
%ADD37C,1.524000*%
%ADD38C,0.508000*%
%ADD39C,0.304800*%
G04 APERTURE END LIST*
D10*
D11*
X206375000Y-124460000D03*
D12*
X206375000Y-127000000D03*
X203835000Y-124460000D03*
X203835000Y-127000000D03*
X201295000Y-124460000D03*
X201295000Y-127000000D03*
X198755000Y-124460000D03*
X198755000Y-127000000D03*
X196215000Y-124460000D03*
X196215000Y-127000000D03*
X193675000Y-124460000D03*
X193675000Y-127000000D03*
X191135000Y-124460000D03*
X191135000Y-127000000D03*
X188595000Y-124460000D03*
X188595000Y-127000000D03*
X186055000Y-124460000D03*
X186055000Y-127000000D03*
X183515000Y-124460000D03*
X183515000Y-127000000D03*
X180975000Y-124460000D03*
X180975000Y-127000000D03*
X178435000Y-124460000D03*
X178435000Y-127000000D03*
X175895000Y-124460000D03*
X175895000Y-127000000D03*
D13*
X149209760Y-114360960D03*
X149860000Y-114360960D03*
X150510240Y-114360960D03*
X150510240Y-111699040D03*
X149860000Y-111699040D03*
X149209760Y-111699040D03*
D14*
X165862000Y-116205000D03*
D15*
X128365000Y-108585000D03*
X124365000Y-108585000D03*
X119920000Y-123190000D03*
X123920000Y-123190000D03*
X82010000Y-82550000D03*
X78010000Y-82550000D03*
D16*
X114935000Y-123985000D03*
X114935000Y-118585000D03*
D15*
X118840000Y-114300000D03*
X114840000Y-114300000D03*
D17*
X101600000Y-86265000D03*
X101600000Y-90265000D03*
D15*
X128365000Y-120015000D03*
X124365000Y-120015000D03*
D16*
X97790000Y-117950000D03*
X97790000Y-123350000D03*
D17*
X92075000Y-108490000D03*
X92075000Y-112490000D03*
D15*
X111030000Y-108585000D03*
X115030000Y-108585000D03*
D17*
X88900000Y-108490000D03*
X88900000Y-112490000D03*
D18*
X102870000Y-105665000D03*
X102870000Y-108965000D03*
X106680000Y-105665000D03*
X106680000Y-108965000D03*
X99060000Y-105665000D03*
X99060000Y-108965000D03*
D19*
X136105900Y-105138220D03*
X138605260Y-105138220D03*
X140355320Y-105138220D03*
X143603980Y-105138220D03*
X146103340Y-105138220D03*
X148602700Y-105138220D03*
X151023320Y-105138220D03*
X152722580Y-105138220D03*
X133606540Y-105138220D03*
X141856460Y-105138220D03*
D20*
X128125220Y-84140040D03*
X157624780Y-82991960D03*
D21*
X155874720Y-105138220D03*
D22*
X78740000Y-77470000D03*
D23*
X81280000Y-77470000D03*
X83820000Y-77470000D03*
X86360000Y-77470000D03*
X88900000Y-77470000D03*
X91440000Y-77470000D03*
X93980000Y-77470000D03*
X96520000Y-77470000D03*
X99060000Y-77470000D03*
X101600000Y-77470000D03*
X104140000Y-77470000D03*
X106680000Y-77470000D03*
X109220000Y-77470000D03*
X111760000Y-77470000D03*
X114300000Y-77470000D03*
X116840000Y-77470000D03*
D24*
X170815000Y-118745000D03*
D25*
X170815000Y-116205000D03*
X170815000Y-113665000D03*
X170815000Y-111125000D03*
X170815000Y-108585000D03*
X170815000Y-106045000D03*
X170815000Y-103505000D03*
X170815000Y-100965000D03*
X170815000Y-98425000D03*
X170815000Y-95885000D03*
X170815000Y-93345000D03*
X170815000Y-90805000D03*
D26*
X160877000Y-116205000D03*
X156877000Y-116205000D03*
X131350000Y-120015000D03*
X135350000Y-120015000D03*
D27*
X153670000Y-114205000D03*
X153670000Y-118205000D03*
X81915000Y-86900000D03*
X81915000Y-90900000D03*
D26*
X102330000Y-111760000D03*
X98330000Y-111760000D03*
X126905000Y-123190000D03*
X130905000Y-123190000D03*
X107220000Y-111760000D03*
X111220000Y-111760000D03*
D27*
X78105000Y-90900000D03*
X78105000Y-86900000D03*
D26*
X201200000Y-116205000D03*
X205200000Y-116205000D03*
X201200000Y-113030000D03*
X205200000Y-113030000D03*
X201200000Y-109855000D03*
X205200000Y-109855000D03*
X201200000Y-106680000D03*
X205200000Y-106680000D03*
X201200000Y-103505000D03*
X205200000Y-103505000D03*
X201200000Y-100330000D03*
X205200000Y-100330000D03*
X201200000Y-97155000D03*
X205200000Y-97155000D03*
X201200000Y-93980000D03*
X205200000Y-93980000D03*
X201200000Y-90805000D03*
X205200000Y-90805000D03*
X201200000Y-87630000D03*
X205200000Y-87630000D03*
D27*
X95250000Y-109950000D03*
X95250000Y-105950000D03*
D28*
X81410000Y-96165000D03*
X78610000Y-96165000D03*
D29*
X80010000Y-99415000D03*
D30*
X106680000Y-95986600D03*
X105410000Y-95986600D03*
X104140000Y-95986600D03*
X102870000Y-95986600D03*
X102870000Y-102133400D03*
X104140000Y-102133400D03*
X105410000Y-102133400D03*
X106680000Y-102133400D03*
D31*
X141071600Y-120015000D03*
X141071600Y-121285000D03*
X141071600Y-122555000D03*
X141071600Y-123825000D03*
X147218400Y-123825000D03*
X147218400Y-122555000D03*
X147218400Y-121285000D03*
X147218400Y-120015000D03*
X165633400Y-111760000D03*
X165633400Y-110490000D03*
X165633400Y-109220000D03*
X165633400Y-107950000D03*
X159486600Y-107950000D03*
X159486600Y-109220000D03*
X159486600Y-110490000D03*
X159486600Y-111760000D03*
D30*
X104140000Y-91338400D03*
X105410000Y-91338400D03*
X106680000Y-91338400D03*
X107950000Y-91338400D03*
X109220000Y-91338400D03*
X110490000Y-91338400D03*
X111760000Y-91338400D03*
X113030000Y-91338400D03*
X113030000Y-85191600D03*
X111760000Y-85191600D03*
X110490000Y-85191600D03*
X109220000Y-85191600D03*
X107950000Y-85191600D03*
X106680000Y-85191600D03*
X105410000Y-85191600D03*
X104140000Y-85191600D03*
D32*
X106045000Y-116865000D03*
D33*
X106045000Y-123165000D03*
X108345000Y-123165000D03*
X103745000Y-123165000D03*
D13*
X137779760Y-114360960D03*
X138430000Y-114360960D03*
X139080240Y-114360960D03*
X139080240Y-111699040D03*
X138430000Y-111699040D03*
X137779760Y-111699040D03*
X143494760Y-114360960D03*
X144145000Y-114360960D03*
X144795240Y-114360960D03*
X144795240Y-111699040D03*
X144145000Y-111699040D03*
X143494760Y-111699040D03*
X132064760Y-114360960D03*
X132715000Y-114360960D03*
X133365240Y-114360960D03*
X133365240Y-111699040D03*
X132715000Y-111699040D03*
X132064760Y-111699040D03*
D34*
X111125000Y-106680000D03*
X121920000Y-118110000D03*
X112395000Y-116840000D03*
X132080000Y-108585000D03*
X137160000Y-108585000D03*
X147320000Y-109220000D03*
X143510000Y-107950000D03*
X198755000Y-119380000D03*
X100965000Y-96520000D03*
X110490000Y-121285000D03*
X98425000Y-85090000D03*
X81280000Y-93345000D03*
X146050000Y-116840000D03*
X157861000Y-113919000D03*
X128905000Y-116840000D03*
X134620000Y-116840000D03*
X136525000Y-121285000D03*
X153670000Y-120650000D03*
X133350000Y-118110000D03*
X111760000Y-96520000D03*
X101600000Y-99695000D03*
X115570000Y-97790000D03*
X118745000Y-99060000D03*
X158115000Y-118364000D03*
X116205000Y-100330000D03*
X156718000Y-121158000D03*
X151765000Y-120650000D03*
X139065000Y-119380000D03*
X110490000Y-95250000D03*
X160147000Y-118364000D03*
X121920000Y-99695000D03*
X109220000Y-93980000D03*
X144780000Y-122682000D03*
X127000000Y-106045000D03*
X161290000Y-104140000D03*
X116840000Y-118745000D03*
X148590000Y-107315000D03*
X100330000Y-114935000D03*
X121285000Y-120015000D03*
X103505000Y-125730000D03*
X78740000Y-93345000D03*
X130175000Y-115443000D03*
X135890000Y-115443000D03*
X141605000Y-115443000D03*
X147320000Y-115443000D03*
X118110000Y-111760000D03*
X104775000Y-104140000D03*
X125730000Y-113665000D03*
X149352000Y-121412000D03*
X157353000Y-109220000D03*
D35*
X88900000Y-108490000D02*
X92075000Y-108490000D01*
X111030000Y-108585000D02*
X111030000Y-106775000D01*
X111030000Y-106775000D02*
X111125000Y-106680000D01*
X112370000Y-116865000D02*
X112395000Y-116840000D01*
X106045000Y-116865000D02*
X112370000Y-116865000D01*
X128270000Y-113665000D02*
X128365000Y-108585000D01*
X121920000Y-118110000D02*
X128270000Y-113665000D01*
X95250000Y-109950000D02*
X93535000Y-109950000D01*
X93535000Y-109950000D02*
X92075000Y-108490000D01*
X106045000Y-116865000D02*
X106045000Y-123165000D01*
X97790000Y-117950000D02*
X100490000Y-117950000D01*
X100490000Y-117950000D02*
X101575000Y-116865000D01*
X101575000Y-116865000D02*
X106045000Y-116865000D01*
X97790000Y-117950000D02*
X97790000Y-115570000D01*
X95250000Y-113030000D02*
X95250000Y-109950000D01*
X97790000Y-115570000D02*
X95250000Y-113030000D01*
X132080000Y-108585000D02*
X128365000Y-108585000D01*
D36*
X132064760Y-108600240D02*
X132064760Y-111699040D01*
X132080000Y-108585000D02*
X132064760Y-108600240D01*
X137779760Y-109204760D02*
X137779760Y-111699040D01*
X137160000Y-108585000D02*
X137779760Y-109204760D01*
X143494760Y-107950000D02*
X143510000Y-107950000D01*
X149209760Y-109839760D02*
X149209760Y-111699040D01*
X148590000Y-109220000D02*
X149209760Y-109839760D01*
X147320000Y-109220000D02*
X148590000Y-109220000D01*
X143494760Y-111699040D02*
X143494760Y-107950000D01*
X143494760Y-107950000D02*
X143494760Y-107965240D01*
X143603980Y-107856020D02*
X143603980Y-105138220D01*
X143494760Y-107965240D02*
X143603980Y-107856020D01*
D35*
X196215000Y-124460000D02*
X196215000Y-121920000D01*
X196215000Y-121920000D02*
X198755000Y-119380000D01*
D37*
X169545000Y-125730000D02*
X116840000Y-125730000D01*
D35*
X110490000Y-123431904D02*
X110490000Y-121285000D01*
X101498400Y-95986600D02*
X102870000Y-95986600D01*
X100965000Y-96520000D02*
X101498400Y-95986600D01*
X101600000Y-86265000D02*
X99600000Y-86265000D01*
X99600000Y-86265000D02*
X98425000Y-85090000D01*
X114935000Y-123985000D02*
X114935000Y-123825000D01*
X114935000Y-123825000D02*
X118840000Y-119920000D01*
X118840000Y-119920000D02*
X118840000Y-114300000D01*
D37*
X114935000Y-123985000D02*
X110490000Y-123431904D01*
X110490000Y-123431904D02*
X108345000Y-123165000D01*
X116840000Y-125730000D02*
X116680000Y-125730000D01*
X206375000Y-129540000D02*
X203835000Y-132080000D01*
X203835000Y-132080000D02*
X175895000Y-132080000D01*
X175895000Y-132080000D02*
X169545000Y-125730000D01*
X206375000Y-127000000D02*
X206375000Y-129540000D01*
X116680000Y-125730000D02*
X114935000Y-123985000D01*
D35*
X81410000Y-96165000D02*
X81410000Y-94110000D01*
X81410000Y-94110000D02*
X81280000Y-93980000D01*
X81280000Y-93980000D02*
X81280000Y-93345000D01*
X82010000Y-82550000D02*
X82010000Y-80105000D01*
X81280000Y-79375000D02*
X81280000Y-77470000D01*
X82010000Y-80105000D02*
X81280000Y-79375000D01*
X81915000Y-86900000D02*
X81915000Y-82645000D01*
X81915000Y-82645000D02*
X82010000Y-82550000D01*
D38*
X104140000Y-85191600D02*
X102673400Y-85191600D01*
X102673400Y-85191600D02*
X101600000Y-86265000D01*
X105410000Y-85191600D02*
X104140000Y-85191600D01*
X104140000Y-85191600D02*
X104140000Y-86995000D01*
X104140000Y-86995000D02*
X104775000Y-87630000D01*
X104775000Y-87630000D02*
X113665000Y-87630000D01*
X113665000Y-87630000D02*
X114935000Y-86360000D01*
X114935000Y-86360000D02*
X114935000Y-82550000D01*
X114935000Y-82550000D02*
X114300000Y-81915000D01*
X114300000Y-81915000D02*
X114300000Y-77470000D01*
D35*
X131350000Y-120015000D02*
X128365000Y-120015000D01*
D38*
X128365000Y-120015000D02*
X128270000Y-119920000D01*
D35*
X128270000Y-119920000D02*
X128270000Y-117475000D01*
X128270000Y-117475000D02*
X128905000Y-116840000D01*
D36*
X143891000Y-113030000D02*
X145415000Y-113030000D01*
X145415000Y-113030000D02*
X146685000Y-114300000D01*
X146050000Y-114935000D02*
X146685000Y-114300000D01*
X146050000Y-116840000D02*
X146050000Y-114935000D01*
X146685000Y-114300000D02*
X149148800Y-114300000D01*
X149148800Y-114300000D02*
X149209760Y-114360960D01*
D35*
X170815000Y-118745000D02*
X163703000Y-118745000D01*
X161417000Y-116205000D02*
X160877000Y-116205000D01*
X163703000Y-118745000D02*
X161417000Y-116205000D01*
D37*
X203835000Y-124460000D02*
X206375000Y-124460000D01*
X206375000Y-124460000D02*
X206375000Y-127000000D01*
D35*
X205200000Y-103505000D02*
X205200000Y-106680000D01*
X205200000Y-106680000D02*
X205200000Y-109855000D01*
X205200000Y-109855000D02*
X205200000Y-113030000D01*
X205200000Y-113030000D02*
X205200000Y-116205000D01*
X205200000Y-116205000D02*
X206375000Y-117380000D01*
X206375000Y-117380000D02*
X206375000Y-124460000D01*
D36*
X157861000Y-113919000D02*
X160401000Y-113919000D01*
X160401000Y-113919000D02*
X160909000Y-114427000D01*
X160909000Y-114427000D02*
X160877000Y-116205000D01*
X157962600Y-113817400D02*
X159486600Y-111760000D01*
X157861000Y-113919000D02*
X157962600Y-113817400D01*
X129540000Y-114300000D02*
X132064760Y-114360960D01*
X128905000Y-114935000D02*
X129540000Y-114300000D01*
X128905000Y-116840000D02*
X128905000Y-114935000D01*
X135255000Y-114300000D02*
X137779760Y-114360960D01*
X134620000Y-114935000D02*
X135255000Y-114300000D01*
X134620000Y-116840000D02*
X134620000Y-114935000D01*
X132064760Y-114360960D02*
X132064760Y-113426240D01*
X132064760Y-113426240D02*
X132715000Y-112776000D01*
X132715000Y-112776000D02*
X132715000Y-111699040D01*
X137779760Y-114360960D02*
X137779760Y-113426240D01*
X137779760Y-113426240D02*
X138430000Y-112776000D01*
X138430000Y-112776000D02*
X138430000Y-111699040D01*
X143494760Y-114360960D02*
X143494760Y-113426240D01*
X144145000Y-112776000D02*
X144145000Y-111699040D01*
X143494760Y-113426240D02*
X143891000Y-113030000D01*
X143891000Y-113030000D02*
X144145000Y-112776000D01*
D38*
X136525000Y-121285000D02*
X136620000Y-121285000D01*
X136620000Y-121285000D02*
X135350000Y-120015000D01*
X141071600Y-121285000D02*
X142875000Y-121285000D01*
X140355320Y-116479320D02*
X140355320Y-105138220D01*
X143510000Y-119634000D02*
X140355320Y-116479320D01*
X143510000Y-120650000D02*
X143510000Y-119634000D01*
X142875000Y-121285000D02*
X143510000Y-120650000D01*
X136525000Y-121285000D02*
X141071600Y-121285000D01*
D35*
X165633400Y-110490000D02*
X168275000Y-110490000D01*
X168910000Y-111125000D02*
X170815000Y-111125000D01*
X168275000Y-110490000D02*
X168910000Y-111125000D01*
X200914000Y-113030000D02*
X198120000Y-113030000D01*
X179705000Y-114300000D02*
X176530000Y-111125000D01*
X176530000Y-111125000D02*
X170815000Y-111125000D01*
X197485000Y-114300000D02*
X179705000Y-114300000D01*
X198120000Y-113030000D02*
X197485000Y-114300000D01*
X80010000Y-99415000D02*
X82195000Y-99415000D01*
X83820000Y-92805000D02*
X81915000Y-90900000D01*
X83820000Y-97790000D02*
X83820000Y-92805000D01*
X82195000Y-99415000D02*
X83820000Y-97790000D01*
X81915000Y-90900000D02*
X82455000Y-90900000D01*
X82455000Y-90900000D02*
X83820000Y-89535000D01*
X83820000Y-89535000D02*
X83820000Y-77470000D01*
X78105000Y-90900000D02*
X81915000Y-90900000D01*
D38*
X133350000Y-118110000D02*
X133350000Y-121920000D01*
X133350000Y-121920000D02*
X133985000Y-122555000D01*
X154432000Y-122301000D02*
X153670000Y-120650000D01*
X186055000Y-123444000D02*
X186055000Y-124460000D01*
X184912000Y-122301000D02*
X154432000Y-122301000D01*
X186055000Y-123444000D02*
X184912000Y-122301000D01*
X141071600Y-122555000D02*
X133985000Y-122555000D01*
D36*
X133350000Y-118110000D02*
X133350000Y-114300000D01*
X133350000Y-114300000D02*
X133365240Y-114360960D01*
X133365240Y-111699040D02*
X133365240Y-110474760D01*
X136105900Y-107734100D02*
X136105900Y-105138220D01*
X133365240Y-110474760D02*
X136105900Y-107734100D01*
D35*
X106680000Y-85191600D02*
X106680000Y-83820000D01*
X104140000Y-81280000D02*
X104140000Y-77470000D01*
X106680000Y-83820000D02*
X104140000Y-81280000D01*
X107950000Y-85191600D02*
X107950000Y-82550000D01*
X106680000Y-81280000D02*
X106680000Y-77470000D01*
X107950000Y-82550000D02*
X106680000Y-81280000D01*
X109220000Y-85191600D02*
X109220000Y-77470000D01*
X110490000Y-85191600D02*
X110490000Y-82550000D01*
X111760000Y-81280000D02*
X111760000Y-77470000D01*
X110490000Y-82550000D02*
X111760000Y-81280000D01*
X165633400Y-111760000D02*
X165735000Y-111760000D01*
X165735000Y-111760000D02*
X168275000Y-113665000D01*
X168275000Y-113665000D02*
X170815000Y-113665000D01*
X201295000Y-124460000D02*
X201295000Y-120650000D01*
X200914000Y-120269000D02*
X200914000Y-116205000D01*
X201295000Y-120650000D02*
X200914000Y-120269000D01*
X200914000Y-116205000D02*
X198120000Y-116205000D01*
X176530000Y-113665000D02*
X170815000Y-113665000D01*
X178435000Y-115570000D02*
X176530000Y-113665000D01*
X197485000Y-115570000D02*
X178435000Y-115570000D01*
X198120000Y-116205000D02*
X197485000Y-115570000D01*
X111760000Y-91338400D02*
X111760000Y-96520000D01*
D38*
X102870000Y-105665000D02*
X102870000Y-102133400D01*
X102870000Y-100965000D02*
X102870000Y-102133400D01*
X101600000Y-99695000D02*
X102870000Y-100965000D01*
X106680000Y-97155000D02*
X106680000Y-95986600D01*
X107315000Y-97790000D02*
X106680000Y-97155000D01*
X115570000Y-97790000D02*
X107315000Y-97790000D01*
X106680000Y-95986600D02*
X106680000Y-91338400D01*
X160274000Y-120777000D02*
X158115000Y-118364000D01*
X191135000Y-124460000D02*
X191135000Y-122047000D01*
X189865000Y-120777000D02*
X160274000Y-120777000D01*
X191135000Y-122047000D02*
X189865000Y-120777000D01*
X105410000Y-98425000D02*
X105410000Y-95986600D01*
X106045000Y-99060000D02*
X105410000Y-98425000D01*
X118745000Y-99060000D02*
X106045000Y-99060000D01*
X105410000Y-95986600D02*
X105410000Y-91338400D01*
X104140000Y-99695000D02*
X104140000Y-95986600D01*
X104775000Y-100330000D02*
X104140000Y-99695000D01*
X116205000Y-100330000D02*
X104775000Y-100330000D01*
X104140000Y-95986600D02*
X104140000Y-91338400D01*
D35*
X165633400Y-109220000D02*
X168275000Y-109220000D01*
X168910000Y-108585000D02*
X170815000Y-108585000D01*
X168275000Y-109220000D02*
X168910000Y-108585000D01*
X200914000Y-109855000D02*
X198120000Y-109855000D01*
X176530000Y-108585000D02*
X170815000Y-108585000D01*
X181119300Y-112875657D02*
X176530000Y-108585000D01*
X196215000Y-113030000D02*
X181119300Y-112875657D01*
X198120000Y-109855000D02*
X196215000Y-113030000D01*
D38*
X150495000Y-118745000D02*
X151130000Y-118110000D01*
X149860000Y-123825000D02*
X150495000Y-123190000D01*
X150495000Y-123190000D02*
X150495000Y-118745000D01*
X147218400Y-123825000D02*
X149860000Y-123825000D01*
X151130000Y-118110000D02*
X153575000Y-118110000D01*
X153575000Y-118110000D02*
X153670000Y-118205000D01*
X154686000Y-118237000D02*
X153670000Y-118205000D01*
X156718000Y-121158000D02*
X154686000Y-118237000D01*
D36*
X150510240Y-111699040D02*
X150510240Y-108569760D01*
X151023320Y-108056680D02*
X151023320Y-105138220D01*
X150510240Y-108569760D02*
X151023320Y-108056680D01*
D38*
X152654000Y-123063000D02*
X151765000Y-120650000D01*
X183515000Y-124079000D02*
X182499000Y-123063000D01*
X182499000Y-123063000D02*
X152654000Y-123063000D01*
D36*
X141071600Y-120015000D02*
X139700000Y-120015000D01*
X139700000Y-120015000D02*
X139080240Y-119395240D01*
X139080240Y-119395240D02*
X139080240Y-114360960D01*
D38*
X183515000Y-124460000D02*
X183515000Y-124079000D01*
D36*
X139080240Y-111699040D02*
X139080240Y-109235240D01*
X138605260Y-108760260D02*
X138605260Y-105138220D01*
X139080240Y-109235240D02*
X138605260Y-108760260D01*
D35*
X110490000Y-91338400D02*
X110490000Y-95250000D01*
D38*
X106680000Y-105665000D02*
X106680000Y-102133400D01*
X161544000Y-120015000D02*
X160147000Y-118364000D01*
X193675000Y-124460000D02*
X193675000Y-121158000D01*
X192532000Y-120015000D02*
X161544000Y-120015000D01*
X193675000Y-121158000D02*
X192532000Y-120015000D01*
X119380000Y-102235000D02*
X106680000Y-102235000D01*
X121920000Y-99695000D02*
X119380000Y-102235000D01*
D35*
X165633400Y-107950000D02*
X165735000Y-107950000D01*
X165735000Y-107950000D02*
X168275000Y-106045000D01*
X168275000Y-106045000D02*
X170815000Y-106045000D01*
X176530000Y-106045000D02*
X170815000Y-106045000D01*
X182244996Y-111758492D02*
X176530000Y-106045000D01*
X194945000Y-111760000D02*
X182244996Y-111758492D01*
X198120000Y-106680000D02*
X194945000Y-111760000D01*
X200914000Y-106680000D02*
X198120000Y-106680000D01*
X109220000Y-91338400D02*
X109220000Y-93980000D01*
D38*
X141071600Y-123825000D02*
X132175000Y-123825000D01*
X132175000Y-123825000D02*
X130905000Y-123190000D01*
X144780000Y-122682000D02*
X144795240Y-122682000D01*
D36*
X141071600Y-123825000D02*
X144145000Y-123825000D01*
X144145000Y-123825000D02*
X144795240Y-123174760D01*
X144795240Y-123174760D02*
X144795240Y-122682000D01*
X144795240Y-122682000D02*
X144795240Y-114360960D01*
X144795240Y-111699040D02*
X144795240Y-109204760D01*
X146103340Y-107896660D02*
X146103340Y-105138220D01*
X144795240Y-109204760D02*
X146103340Y-107896660D01*
D35*
X165735000Y-103505000D02*
X170815000Y-103505000D01*
X161290000Y-107950000D02*
X165735000Y-103505000D01*
X159486600Y-107950000D02*
X161290000Y-107950000D01*
X200914000Y-103505000D02*
X198120000Y-103505000D01*
X177165000Y-103505000D02*
X170815000Y-103505000D01*
X180340000Y-100330000D02*
X177165000Y-103505000D01*
X194945000Y-100330000D02*
X180340000Y-100330000D01*
X198120000Y-103505000D02*
X194945000Y-100330000D01*
D38*
X147218400Y-120015000D02*
X147955000Y-120015000D01*
X147955000Y-120015000D02*
X151130000Y-116078000D01*
X151130000Y-116078000D02*
X156877000Y-116205000D01*
X159004000Y-121539000D02*
X156845000Y-119126000D01*
X188595000Y-122809000D02*
X187325000Y-121539000D01*
X187325000Y-121539000D02*
X159004000Y-121539000D01*
X188595000Y-124460000D02*
X188595000Y-122809000D01*
X156845000Y-119126000D02*
X156845000Y-116237000D01*
X156845000Y-116237000D02*
X156877000Y-116205000D01*
X156877000Y-116205000D02*
X156845000Y-114808000D01*
X155956000Y-113919000D02*
X155874720Y-105138220D01*
X156845000Y-114808000D02*
X155956000Y-113919000D01*
D35*
X128125220Y-84140040D02*
X123510040Y-84140040D01*
X123510040Y-84140040D02*
X116840000Y-77470000D01*
X157624780Y-82991960D02*
X129273300Y-82991960D01*
X129273300Y-82991960D02*
X128125220Y-84140040D01*
X81280000Y-112395000D02*
X88805000Y-112395000D01*
X88805000Y-112395000D02*
X88900000Y-112490000D01*
X88900000Y-112490000D02*
X92075000Y-112490000D01*
X81280000Y-112395000D02*
X77470000Y-108585000D01*
X77470000Y-108585000D02*
X77470000Y-97305000D01*
X77470000Y-97305000D02*
X78610000Y-96165000D01*
X118745000Y-108585000D02*
X115030000Y-108585000D01*
X127000000Y-106045000D02*
X124460000Y-108585000D01*
X124365000Y-108585000D02*
X124460000Y-108585000D01*
X205200000Y-87630000D02*
X205200000Y-86455000D01*
X161290000Y-88900000D02*
X161290000Y-104140000D01*
X165100000Y-85090000D02*
X161290000Y-88900000D01*
X203835000Y-85090000D02*
X165100000Y-85090000D01*
X205200000Y-86455000D02*
X203835000Y-85090000D01*
X114935000Y-118585000D02*
X116680000Y-118585000D01*
X116680000Y-118585000D02*
X116840000Y-118745000D01*
X148602700Y-107315000D02*
X148590000Y-107315000D01*
D36*
X148602700Y-107315000D02*
X148602700Y-105138220D01*
D35*
X98330000Y-111760000D02*
X98330000Y-112935000D01*
X98330000Y-112935000D02*
X100330000Y-114935000D01*
X103745000Y-123165000D02*
X103745000Y-125490000D01*
X103505000Y-125730000D02*
X103745000Y-125490000D01*
X124365000Y-108585000D02*
X124365000Y-99600000D01*
X116103400Y-91338400D02*
X113030000Y-91338400D01*
X124365000Y-99600000D02*
X116103400Y-91338400D01*
X92075000Y-112490000D02*
X92075000Y-113030000D01*
X92075000Y-113030000D02*
X95250000Y-116205000D01*
X95250000Y-116205000D02*
X95250000Y-121920000D01*
X95250000Y-121920000D02*
X96680000Y-123350000D01*
X96680000Y-123350000D02*
X97790000Y-123350000D01*
X114935000Y-112395000D02*
X118745000Y-108585000D01*
X118745000Y-108585000D02*
X124365000Y-108585000D01*
X114935000Y-118585000D02*
X114935000Y-114395000D01*
X114935000Y-114395000D02*
X114935000Y-112395000D01*
X114935000Y-112395000D02*
X114300000Y-111760000D01*
X114300000Y-111760000D02*
X111220000Y-111760000D01*
X103745000Y-123165000D02*
X97790000Y-123350000D01*
X99060000Y-108965000D02*
X98330000Y-111760000D01*
X78610000Y-96165000D02*
X78610000Y-93475000D01*
X78610000Y-93475000D02*
X78740000Y-93345000D01*
X78010000Y-82550000D02*
X78010000Y-80105000D01*
X78740000Y-79375000D02*
X78740000Y-77470000D01*
X78010000Y-80105000D02*
X78740000Y-79375000D01*
X78105000Y-86900000D02*
X78105000Y-82645000D01*
X78105000Y-82645000D02*
X78010000Y-82550000D01*
X119920000Y-123190000D02*
X119920000Y-121380000D01*
X119920000Y-121380000D02*
X121285000Y-120015000D01*
X121285000Y-120015000D02*
X124365000Y-120015000D01*
D38*
X101600000Y-90265000D02*
X101600000Y-90170000D01*
X101600000Y-90170000D02*
X102870000Y-88900000D01*
X113030000Y-89535000D02*
X113030000Y-91338400D01*
X112395000Y-88900000D02*
X113030000Y-89535000D01*
X102870000Y-88900000D02*
X112395000Y-88900000D01*
X113030000Y-91338400D02*
X113030000Y-90805000D01*
X113030000Y-90805000D02*
X116840000Y-86995000D01*
X116840000Y-86995000D02*
X116840000Y-77470000D01*
X141605000Y-115443000D02*
X141859000Y-115189000D01*
X141859000Y-115189000D02*
X141859000Y-105140760D01*
X141859000Y-105140760D02*
X141856460Y-105138220D01*
D36*
X132715000Y-114360960D02*
X132715000Y-115316000D01*
X130683000Y-115951000D02*
X130175000Y-115443000D01*
X132080000Y-115951000D02*
X130683000Y-115951000D01*
X132715000Y-115316000D02*
X132080000Y-115951000D01*
X138430000Y-114360960D02*
X138430000Y-115316000D01*
X136398000Y-115951000D02*
X135890000Y-115443000D01*
X137795000Y-115951000D02*
X136398000Y-115951000D01*
X138430000Y-115316000D02*
X137795000Y-115951000D01*
X149860000Y-114360960D02*
X149860000Y-115316000D01*
X144145000Y-115316000D02*
X144145000Y-114360960D01*
X143510000Y-115951000D02*
X144145000Y-115316000D01*
X142113000Y-115951000D02*
X143510000Y-115951000D01*
X141605000Y-115443000D02*
X142113000Y-115951000D01*
X147828000Y-115951000D02*
X147320000Y-115443000D01*
X149225000Y-115951000D02*
X147828000Y-115951000D01*
X149860000Y-115316000D02*
X149225000Y-115951000D01*
D35*
X205200000Y-100330000D02*
X205200000Y-97155000D01*
X205200000Y-97155000D02*
X205200000Y-93980000D01*
X205200000Y-93980000D02*
X205200000Y-90805000D01*
X205200000Y-90805000D02*
X205200000Y-87630000D01*
D36*
X149860000Y-111699040D02*
X149860000Y-108585000D01*
X148602700Y-107327700D02*
X148602700Y-107315000D01*
X149860000Y-108585000D02*
X148602700Y-107327700D01*
X149860000Y-114360960D02*
X149860000Y-111699040D01*
D35*
X104775000Y-102133400D02*
X104775000Y-104140000D01*
X123825000Y-111760000D02*
X125730000Y-113665000D01*
X118110000Y-111760000D02*
X123825000Y-111760000D01*
X104140000Y-102133400D02*
X104775000Y-102133400D01*
X104775000Y-102133400D02*
X105410000Y-102133400D01*
D38*
X147218400Y-122555000D02*
X147218400Y-121285000D01*
X147218400Y-121285000D02*
X147345400Y-121412000D01*
X147345400Y-121412000D02*
X149352000Y-121412000D01*
X157353000Y-109220000D02*
X159486600Y-109220000D01*
D35*
X165862000Y-116205000D02*
X165735000Y-116205000D01*
X165735000Y-116205000D02*
X161925000Y-112395000D01*
X161925000Y-112395000D02*
X161925000Y-111125000D01*
X161925000Y-111125000D02*
X161290000Y-110490000D01*
X161290000Y-110490000D02*
X159486600Y-110490000D01*
X159486600Y-110490000D02*
X159486600Y-109220000D01*
X123920000Y-123190000D02*
X126905000Y-123190000D01*
X175895000Y-100965000D02*
X170815000Y-100965000D01*
X178435000Y-98425000D02*
X175895000Y-100965000D01*
X196850000Y-98425000D02*
X178435000Y-98425000D01*
X198755000Y-100330000D02*
X196850000Y-98425000D01*
X200914000Y-100330000D02*
X198755000Y-100330000D01*
X201200000Y-97155000D02*
X199390000Y-97155000D01*
X198755000Y-96520000D02*
X177165000Y-96520000D01*
X199390000Y-97155000D02*
X198755000Y-96520000D01*
X175260000Y-98425000D02*
X170815000Y-98425000D01*
X177165000Y-96520000D02*
X175260000Y-98425000D01*
X170815000Y-95885000D02*
X174625000Y-95885000D01*
X174625000Y-95885000D02*
X176530000Y-93980000D01*
X176530000Y-93980000D02*
X200914000Y-93980000D01*
X173990000Y-93345000D02*
X170815000Y-93345000D01*
X176530000Y-90805000D02*
X173990000Y-93345000D01*
X200914000Y-90805000D02*
X176530000Y-90805000D01*
X200914000Y-87630000D02*
X176530000Y-87630000D01*
X176530000Y-87630000D02*
X173355000Y-90805000D01*
X173355000Y-90805000D02*
X170815000Y-90805000D01*
D36*
X150510240Y-114360960D02*
X153514040Y-114360960D01*
X153514040Y-114360960D02*
X153670000Y-114205000D01*
D35*
X102330000Y-111760000D02*
X102870000Y-108965000D01*
X107220000Y-111760000D02*
X107315000Y-111760000D01*
X107315000Y-111760000D02*
X106680000Y-108965000D01*
X95250000Y-105950000D02*
X95345000Y-105950000D01*
X95345000Y-105950000D02*
X99060000Y-105665000D01*
D39*
G36*
X158674600Y-81422654D02*
X158455911Y-81332070D01*
X157891480Y-81332070D01*
X157726380Y-81497170D01*
X157726380Y-82890360D01*
X157746380Y-82890360D01*
X157746380Y-83093560D01*
X157726380Y-83093560D01*
X157726380Y-84486750D01*
X157891480Y-84651850D01*
X158455911Y-84651850D01*
X158698636Y-84551310D01*
X158884410Y-84365537D01*
X158898051Y-84332605D01*
X159113142Y-84476324D01*
X159385000Y-84530400D01*
X212649600Y-84530400D01*
X212649600Y-135814600D01*
X168350400Y-135814600D01*
X168350400Y-127635000D01*
X168296324Y-127363142D01*
X168155511Y-127152400D01*
X168955822Y-127152400D01*
X174889211Y-133085789D01*
X175350671Y-133394126D01*
X175895000Y-133502400D01*
X203835000Y-133502400D01*
X204379329Y-133394126D01*
X204840789Y-133085789D01*
X207380786Y-130545791D01*
X207380789Y-130545789D01*
X207689126Y-130084329D01*
X207797400Y-129540000D01*
X207797400Y-127614749D01*
X207924131Y-127309547D01*
X207924669Y-126693157D01*
X207797400Y-126385143D01*
X207797400Y-125738131D01*
X207884288Y-125610966D01*
X207937338Y-125349000D01*
X207937338Y-123571000D01*
X207891289Y-123326270D01*
X207746654Y-123101501D01*
X207525966Y-122950712D01*
X207416400Y-122928524D01*
X207416400Y-117380000D01*
X207337128Y-116981473D01*
X207111381Y-116643619D01*
X206873338Y-116405576D01*
X206873338Y-115355000D01*
X206827289Y-115110270D01*
X206682654Y-114885501D01*
X206461966Y-114734712D01*
X206241400Y-114690046D01*
X206241400Y-114545548D01*
X206444730Y-114507289D01*
X206669499Y-114362654D01*
X206820288Y-114141966D01*
X206873338Y-113880000D01*
X206873338Y-112180000D01*
X206827289Y-111935270D01*
X206682654Y-111710501D01*
X206461966Y-111559712D01*
X206241400Y-111515046D01*
X206241400Y-111370548D01*
X206444730Y-111332289D01*
X206669499Y-111187654D01*
X206820288Y-110966966D01*
X206873338Y-110705000D01*
X206873338Y-109005000D01*
X206827289Y-108760270D01*
X206682654Y-108535501D01*
X206461966Y-108384712D01*
X206241400Y-108340046D01*
X206241400Y-108195548D01*
X206444730Y-108157289D01*
X206669499Y-108012654D01*
X206820288Y-107791966D01*
X206873338Y-107530000D01*
X206873338Y-105830000D01*
X206827289Y-105585270D01*
X206682654Y-105360501D01*
X206461966Y-105209712D01*
X206241400Y-105165046D01*
X206241400Y-105020548D01*
X206444730Y-104982289D01*
X206669499Y-104837654D01*
X206820288Y-104616966D01*
X206873338Y-104355000D01*
X206873338Y-102655000D01*
X206827289Y-102410270D01*
X206682654Y-102185501D01*
X206461966Y-102034712D01*
X206200000Y-101981662D01*
X204200000Y-101981662D01*
X203955270Y-102027711D01*
X203730501Y-102172346D01*
X203579712Y-102393034D01*
X203526662Y-102655000D01*
X203526662Y-104355000D01*
X203572711Y-104599730D01*
X203717346Y-104824499D01*
X203938034Y-104975288D01*
X204158600Y-105019954D01*
X204158600Y-105164452D01*
X203955270Y-105202711D01*
X203730501Y-105347346D01*
X203579712Y-105568034D01*
X203526662Y-105830000D01*
X203526662Y-107530000D01*
X203572711Y-107774730D01*
X203717346Y-107999499D01*
X203938034Y-108150288D01*
X204158600Y-108194954D01*
X204158600Y-108339452D01*
X203955270Y-108377711D01*
X203730501Y-108522346D01*
X203579712Y-108743034D01*
X203526662Y-109005000D01*
X203526662Y-110705000D01*
X203572711Y-110949730D01*
X203717346Y-111174499D01*
X203938034Y-111325288D01*
X204158600Y-111369954D01*
X204158600Y-111514452D01*
X203955270Y-111552711D01*
X203730501Y-111697346D01*
X203579712Y-111918034D01*
X203526662Y-112180000D01*
X203526662Y-113880000D01*
X203572711Y-114124730D01*
X203717346Y-114349499D01*
X203938034Y-114500288D01*
X204158600Y-114544954D01*
X204158600Y-114689452D01*
X203955270Y-114727711D01*
X203730501Y-114872346D01*
X203579712Y-115093034D01*
X203526662Y-115355000D01*
X203526662Y-117055000D01*
X203572711Y-117299730D01*
X203717346Y-117524499D01*
X203938034Y-117675288D01*
X204200000Y-117728338D01*
X205250576Y-117728338D01*
X205333600Y-117811362D01*
X205333600Y-122926338D01*
X205241270Y-122943711D01*
X205095362Y-123037600D01*
X204449749Y-123037600D01*
X204144547Y-122910869D01*
X203528157Y-122910331D01*
X202958482Y-123145716D01*
X202564695Y-123538816D01*
X202336400Y-123310121D01*
X202336400Y-120650000D01*
X202257128Y-120251473D01*
X202031381Y-119913619D01*
X201955400Y-119837638D01*
X201955400Y-117728338D01*
X202200000Y-117728338D01*
X202444730Y-117682289D01*
X202669499Y-117537654D01*
X202820288Y-117316966D01*
X202873338Y-117055000D01*
X202873338Y-115355000D01*
X202827289Y-115110270D01*
X202682654Y-114885501D01*
X202461966Y-114734712D01*
X202200000Y-114681662D01*
X200200000Y-114681662D01*
X199955270Y-114727711D01*
X199730501Y-114872346D01*
X199579712Y-115093034D01*
X199565422Y-115163600D01*
X198551362Y-115163600D01*
X198302596Y-114914834D01*
X198314119Y-114897589D01*
X198416456Y-114765728D01*
X198763620Y-114071400D01*
X199562676Y-114071400D01*
X199572711Y-114124730D01*
X199717346Y-114349499D01*
X199938034Y-114500288D01*
X200200000Y-114553338D01*
X202200000Y-114553338D01*
X202444730Y-114507289D01*
X202669499Y-114362654D01*
X202820288Y-114141966D01*
X202873338Y-113880000D01*
X202873338Y-112180000D01*
X202827289Y-111935270D01*
X202682654Y-111710501D01*
X202461966Y-111559712D01*
X202200000Y-111506662D01*
X200200000Y-111506662D01*
X199955270Y-111552711D01*
X199730501Y-111697346D01*
X199579712Y-111918034D01*
X199565422Y-111988600D01*
X198120000Y-111988600D01*
X198045408Y-112003437D01*
X198709631Y-110896400D01*
X199562676Y-110896400D01*
X199572711Y-110949730D01*
X199717346Y-111174499D01*
X199938034Y-111325288D01*
X200200000Y-111378338D01*
X202200000Y-111378338D01*
X202444730Y-111332289D01*
X202669499Y-111187654D01*
X202820288Y-110966966D01*
X202873338Y-110705000D01*
X202873338Y-109005000D01*
X202827289Y-108760270D01*
X202682654Y-108535501D01*
X202461966Y-108384712D01*
X202200000Y-108331662D01*
X200200000Y-108331662D01*
X199955270Y-108377711D01*
X199730501Y-108522346D01*
X199579712Y-108743034D01*
X199565422Y-108813600D01*
X198120000Y-108813600D01*
X197999600Y-108837549D01*
X198697193Y-107721400D01*
X199562676Y-107721400D01*
X199572711Y-107774730D01*
X199717346Y-107999499D01*
X199938034Y-108150288D01*
X200200000Y-108203338D01*
X202200000Y-108203338D01*
X202444730Y-108157289D01*
X202669499Y-108012654D01*
X202820288Y-107791966D01*
X202873338Y-107530000D01*
X202873338Y-105830000D01*
X202827289Y-105585270D01*
X202682654Y-105360501D01*
X202461966Y-105209712D01*
X202200000Y-105156662D01*
X200200000Y-105156662D01*
X199955270Y-105202711D01*
X199730501Y-105347346D01*
X199579712Y-105568034D01*
X199565422Y-105638600D01*
X198120000Y-105638600D01*
X198004025Y-105661669D01*
X197885831Y-105665269D01*
X197806647Y-105700930D01*
X197721473Y-105717872D01*
X197623154Y-105783567D01*
X197515336Y-105832123D01*
X197455827Y-105895371D01*
X197383619Y-105943619D01*
X197317923Y-106041940D01*
X197236895Y-106128059D01*
X194367850Y-110718531D01*
X193192400Y-110718392D01*
X193192400Y-101371400D01*
X194513638Y-101371400D01*
X197383619Y-104241381D01*
X197721473Y-104467128D01*
X198120000Y-104546400D01*
X199562676Y-104546400D01*
X199572711Y-104599730D01*
X199717346Y-104824499D01*
X199938034Y-104975288D01*
X200200000Y-105028338D01*
X202200000Y-105028338D01*
X202444730Y-104982289D01*
X202669499Y-104837654D01*
X202820288Y-104616966D01*
X202873338Y-104355000D01*
X202873338Y-102655000D01*
X202827289Y-102410270D01*
X202682654Y-102185501D01*
X202461966Y-102034712D01*
X202200000Y-101981662D01*
X200200000Y-101981662D01*
X199955270Y-102027711D01*
X199730501Y-102172346D01*
X199579712Y-102393034D01*
X199565422Y-102463600D01*
X198551362Y-102463600D01*
X195681381Y-99593619D01*
X195490984Y-99466400D01*
X196418638Y-99466400D01*
X198018619Y-101066381D01*
X198356473Y-101292128D01*
X198755000Y-101371400D01*
X199562676Y-101371400D01*
X199572711Y-101424730D01*
X199717346Y-101649499D01*
X199938034Y-101800288D01*
X200200000Y-101853338D01*
X202200000Y-101853338D01*
X202444730Y-101807289D01*
X202669499Y-101662654D01*
X202820288Y-101441966D01*
X202873338Y-101180000D01*
X202873338Y-100596700D01*
X203539600Y-100596700D01*
X203539600Y-101311361D01*
X203640140Y-101554086D01*
X203825913Y-101739860D01*
X204068638Y-101840400D01*
X204933300Y-101840400D01*
X205098400Y-101675300D01*
X205098400Y-100431600D01*
X205301600Y-100431600D01*
X205301600Y-101675300D01*
X205466700Y-101840400D01*
X206331362Y-101840400D01*
X206574087Y-101739860D01*
X206759860Y-101554086D01*
X206860400Y-101311361D01*
X206860400Y-100596700D01*
X206695300Y-100431600D01*
X205301600Y-100431600D01*
X205098400Y-100431600D01*
X203704700Y-100431600D01*
X203539600Y-100596700D01*
X202873338Y-100596700D01*
X202873338Y-99480000D01*
X202848621Y-99348639D01*
X203539600Y-99348639D01*
X203539600Y-100063300D01*
X203704700Y-100228400D01*
X205098400Y-100228400D01*
X205098400Y-98984700D01*
X205301600Y-98984700D01*
X205301600Y-100228400D01*
X206695300Y-100228400D01*
X206860400Y-100063300D01*
X206860400Y-99348639D01*
X206759860Y-99105914D01*
X206574087Y-98920140D01*
X206331362Y-98819600D01*
X205466700Y-98819600D01*
X205301600Y-98984700D01*
X205098400Y-98984700D01*
X204933300Y-98819600D01*
X204068638Y-98819600D01*
X203825913Y-98920140D01*
X203640140Y-99105914D01*
X203539600Y-99348639D01*
X202848621Y-99348639D01*
X202827289Y-99235270D01*
X202682654Y-99010501D01*
X202461966Y-98859712D01*
X202200000Y-98806662D01*
X200200000Y-98806662D01*
X199955270Y-98852711D01*
X199730501Y-98997346D01*
X199579712Y-99218034D01*
X199565422Y-99288600D01*
X199186362Y-99288600D01*
X197586381Y-97688619D01*
X197498485Y-97629889D01*
X197395984Y-97561400D01*
X198323638Y-97561400D01*
X198653619Y-97891381D01*
X198991474Y-98117129D01*
X199390000Y-98196400D01*
X199562676Y-98196400D01*
X199572711Y-98249730D01*
X199717346Y-98474499D01*
X199938034Y-98625288D01*
X200200000Y-98678338D01*
X202200000Y-98678338D01*
X202444730Y-98632289D01*
X202669499Y-98487654D01*
X202820288Y-98266966D01*
X202873338Y-98005000D01*
X202873338Y-97421700D01*
X203539600Y-97421700D01*
X203539600Y-98136361D01*
X203640140Y-98379086D01*
X203825913Y-98564860D01*
X204068638Y-98665400D01*
X204933300Y-98665400D01*
X205098400Y-98500300D01*
X205098400Y-97256600D01*
X205301600Y-97256600D01*
X205301600Y-98500300D01*
X205466700Y-98665400D01*
X206331362Y-98665400D01*
X206574087Y-98564860D01*
X206759860Y-98379086D01*
X206860400Y-98136361D01*
X206860400Y-97421700D01*
X206695300Y-97256600D01*
X205301600Y-97256600D01*
X205098400Y-97256600D01*
X203704700Y-97256600D01*
X203539600Y-97421700D01*
X202873338Y-97421700D01*
X202873338Y-96305000D01*
X202848621Y-96173639D01*
X203539600Y-96173639D01*
X203539600Y-96888300D01*
X203704700Y-97053400D01*
X205098400Y-97053400D01*
X205098400Y-95809700D01*
X205301600Y-95809700D01*
X205301600Y-97053400D01*
X206695300Y-97053400D01*
X206860400Y-96888300D01*
X206860400Y-96173639D01*
X206759860Y-95930914D01*
X206574087Y-95745140D01*
X206331362Y-95644600D01*
X205466700Y-95644600D01*
X205301600Y-95809700D01*
X205098400Y-95809700D01*
X204933300Y-95644600D01*
X204068638Y-95644600D01*
X203825913Y-95745140D01*
X203640140Y-95930914D01*
X203539600Y-96173639D01*
X202848621Y-96173639D01*
X202827289Y-96060270D01*
X202682654Y-95835501D01*
X202461966Y-95684712D01*
X202200000Y-95631662D01*
X200200000Y-95631662D01*
X199955270Y-95677711D01*
X199730501Y-95822346D01*
X199649158Y-95941396D01*
X199491381Y-95783619D01*
X199343356Y-95684712D01*
X199153527Y-95557872D01*
X198755000Y-95478600D01*
X177165000Y-95478600D01*
X176766473Y-95557872D01*
X176576644Y-95684712D01*
X176428619Y-95783619D01*
X174828638Y-97383600D01*
X172572288Y-97383600D01*
X172230163Y-97155000D01*
X172572288Y-96926400D01*
X174625000Y-96926400D01*
X175023527Y-96847128D01*
X175361381Y-96621381D01*
X176961362Y-95021400D01*
X199562676Y-95021400D01*
X199572711Y-95074730D01*
X199717346Y-95299499D01*
X199938034Y-95450288D01*
X200200000Y-95503338D01*
X202200000Y-95503338D01*
X202444730Y-95457289D01*
X202669499Y-95312654D01*
X202820288Y-95091966D01*
X202873338Y-94830000D01*
X202873338Y-94246700D01*
X203539600Y-94246700D01*
X203539600Y-94961361D01*
X203640140Y-95204086D01*
X203825913Y-95389860D01*
X204068638Y-95490400D01*
X204933300Y-95490400D01*
X205098400Y-95325300D01*
X205098400Y-94081600D01*
X205301600Y-94081600D01*
X205301600Y-95325300D01*
X205466700Y-95490400D01*
X206331362Y-95490400D01*
X206574087Y-95389860D01*
X206759860Y-95204086D01*
X206860400Y-94961361D01*
X206860400Y-94246700D01*
X206695300Y-94081600D01*
X205301600Y-94081600D01*
X205098400Y-94081600D01*
X203704700Y-94081600D01*
X203539600Y-94246700D01*
X202873338Y-94246700D01*
X202873338Y-93130000D01*
X202848621Y-92998639D01*
X203539600Y-92998639D01*
X203539600Y-93713300D01*
X203704700Y-93878400D01*
X205098400Y-93878400D01*
X205098400Y-92634700D01*
X205301600Y-92634700D01*
X205301600Y-93878400D01*
X206695300Y-93878400D01*
X206860400Y-93713300D01*
X206860400Y-92998639D01*
X206759860Y-92755914D01*
X206574087Y-92570140D01*
X206331362Y-92469600D01*
X205466700Y-92469600D01*
X205301600Y-92634700D01*
X205098400Y-92634700D01*
X204933300Y-92469600D01*
X204068638Y-92469600D01*
X203825913Y-92570140D01*
X203640140Y-92755914D01*
X203539600Y-92998639D01*
X202848621Y-92998639D01*
X202827289Y-92885270D01*
X202682654Y-92660501D01*
X202461966Y-92509712D01*
X202200000Y-92456662D01*
X200200000Y-92456662D01*
X199955270Y-92502711D01*
X199730501Y-92647346D01*
X199579712Y-92868034D01*
X199565422Y-92938600D01*
X176530000Y-92938600D01*
X176131473Y-93017872D01*
X175793619Y-93243619D01*
X174193638Y-94843600D01*
X172572288Y-94843600D01*
X172230163Y-94615000D01*
X172572288Y-94386400D01*
X173990000Y-94386400D01*
X174388527Y-94307128D01*
X174726381Y-94081381D01*
X176961362Y-91846400D01*
X199562676Y-91846400D01*
X199572711Y-91899730D01*
X199717346Y-92124499D01*
X199938034Y-92275288D01*
X200200000Y-92328338D01*
X202200000Y-92328338D01*
X202444730Y-92282289D01*
X202669499Y-92137654D01*
X202820288Y-91916966D01*
X202873338Y-91655000D01*
X202873338Y-91071700D01*
X203539600Y-91071700D01*
X203539600Y-91786361D01*
X203640140Y-92029086D01*
X203825913Y-92214860D01*
X204068638Y-92315400D01*
X204933300Y-92315400D01*
X205098400Y-92150300D01*
X205098400Y-90906600D01*
X205301600Y-90906600D01*
X205301600Y-92150300D01*
X205466700Y-92315400D01*
X206331362Y-92315400D01*
X206574087Y-92214860D01*
X206759860Y-92029086D01*
X206860400Y-91786361D01*
X206860400Y-91071700D01*
X206695300Y-90906600D01*
X205301600Y-90906600D01*
X205098400Y-90906600D01*
X203704700Y-90906600D01*
X203539600Y-91071700D01*
X202873338Y-91071700D01*
X202873338Y-89955000D01*
X202848621Y-89823639D01*
X203539600Y-89823639D01*
X203539600Y-90538300D01*
X203704700Y-90703400D01*
X205098400Y-90703400D01*
X205098400Y-89459700D01*
X205301600Y-89459700D01*
X205301600Y-90703400D01*
X206695300Y-90703400D01*
X206860400Y-90538300D01*
X206860400Y-89823639D01*
X206759860Y-89580914D01*
X206574087Y-89395140D01*
X206331362Y-89294600D01*
X205466700Y-89294600D01*
X205301600Y-89459700D01*
X205098400Y-89459700D01*
X204933300Y-89294600D01*
X204068638Y-89294600D01*
X203825913Y-89395140D01*
X203640140Y-89580914D01*
X203539600Y-89823639D01*
X202848621Y-89823639D01*
X202827289Y-89710270D01*
X202682654Y-89485501D01*
X202461966Y-89334712D01*
X202200000Y-89281662D01*
X200200000Y-89281662D01*
X199955270Y-89327711D01*
X199730501Y-89472346D01*
X199579712Y-89693034D01*
X199565422Y-89763600D01*
X176530000Y-89763600D01*
X176131473Y-89842872D01*
X175963662Y-89955000D01*
X175793619Y-90068619D01*
X173558638Y-92303600D01*
X172572288Y-92303600D01*
X172230163Y-92075000D01*
X172572288Y-91846400D01*
X173355000Y-91846400D01*
X173753527Y-91767128D01*
X174091381Y-91541381D01*
X176961362Y-88671400D01*
X199562676Y-88671400D01*
X199572711Y-88724730D01*
X199717346Y-88949499D01*
X199938034Y-89100288D01*
X200200000Y-89153338D01*
X202200000Y-89153338D01*
X202444730Y-89107289D01*
X202669499Y-88962654D01*
X202820288Y-88741966D01*
X202873338Y-88480000D01*
X202873338Y-87896700D01*
X203539600Y-87896700D01*
X203539600Y-88611361D01*
X203640140Y-88854086D01*
X203825913Y-89039860D01*
X204068638Y-89140400D01*
X204933300Y-89140400D01*
X205098400Y-88975300D01*
X205098400Y-87731600D01*
X205301600Y-87731600D01*
X205301600Y-88975300D01*
X205466700Y-89140400D01*
X206331362Y-89140400D01*
X206574087Y-89039860D01*
X206759860Y-88854086D01*
X206860400Y-88611361D01*
X206860400Y-87896700D01*
X206695300Y-87731600D01*
X205301600Y-87731600D01*
X205098400Y-87731600D01*
X203704700Y-87731600D01*
X203539600Y-87896700D01*
X202873338Y-87896700D01*
X202873338Y-86780000D01*
X202848621Y-86648639D01*
X203539600Y-86648639D01*
X203539600Y-87363300D01*
X203704700Y-87528400D01*
X205098400Y-87528400D01*
X205098400Y-86284700D01*
X205301600Y-86284700D01*
X205301600Y-87528400D01*
X206695300Y-87528400D01*
X206860400Y-87363300D01*
X206860400Y-86648639D01*
X206759860Y-86405914D01*
X206574087Y-86220140D01*
X206331362Y-86119600D01*
X205466700Y-86119600D01*
X205301600Y-86284700D01*
X205098400Y-86284700D01*
X204933300Y-86119600D01*
X204068638Y-86119600D01*
X203825913Y-86220140D01*
X203640140Y-86405914D01*
X203539600Y-86648639D01*
X202848621Y-86648639D01*
X202827289Y-86535270D01*
X202682654Y-86310501D01*
X202461966Y-86159712D01*
X202200000Y-86106662D01*
X200200000Y-86106662D01*
X199955270Y-86152711D01*
X199730501Y-86297346D01*
X199579712Y-86518034D01*
X199565422Y-86588600D01*
X176530000Y-86588600D01*
X176131473Y-86667872D01*
X175881515Y-86834889D01*
X175793619Y-86893619D01*
X172923638Y-89763600D01*
X172572288Y-89763600D01*
X172164124Y-89490874D01*
X171619795Y-89382600D01*
X170010205Y-89382600D01*
X169465876Y-89490874D01*
X169004416Y-89799211D01*
X168696079Y-90260671D01*
X168587805Y-90805000D01*
X168696079Y-91349329D01*
X169004416Y-91810789D01*
X169399837Y-92075000D01*
X169004416Y-92339211D01*
X168696079Y-92800671D01*
X168587805Y-93345000D01*
X168696079Y-93889329D01*
X169004416Y-94350789D01*
X169399837Y-94615000D01*
X169004416Y-94879211D01*
X168696079Y-95340671D01*
X168587805Y-95885000D01*
X168696079Y-96429329D01*
X169004416Y-96890789D01*
X169399837Y-97155000D01*
X169004416Y-97419211D01*
X168696079Y-97880671D01*
X168587805Y-98425000D01*
X168696079Y-98969329D01*
X169004416Y-99430789D01*
X169399837Y-99695000D01*
X169004416Y-99959211D01*
X168696079Y-100420671D01*
X168587805Y-100965000D01*
X168696079Y-101509329D01*
X169004416Y-101970789D01*
X169399837Y-102235000D01*
X169057712Y-102463600D01*
X165735000Y-102463600D01*
X165336473Y-102542872D01*
X165168662Y-102655000D01*
X164998619Y-102768619D01*
X160858638Y-106908600D01*
X159486600Y-106908600D01*
X159296255Y-106946462D01*
X158470600Y-106946462D01*
X158225870Y-106992511D01*
X158001101Y-107137146D01*
X157850312Y-107357834D01*
X157797262Y-107619800D01*
X157797262Y-108111847D01*
X157591503Y-108026408D01*
X157116580Y-108025993D01*
X156817036Y-108149762D01*
X156802496Y-106578998D01*
X156894129Y-106520034D01*
X157044918Y-106299346D01*
X157097968Y-106037380D01*
X157097968Y-104239060D01*
X157051919Y-103994330D01*
X156907284Y-103769561D01*
X156686596Y-103618772D01*
X156424630Y-103565722D01*
X155324810Y-103565722D01*
X155080080Y-103611771D01*
X154855311Y-103756406D01*
X154704522Y-103977094D01*
X154651472Y-104239060D01*
X154651472Y-106037380D01*
X154697521Y-106282110D01*
X154842156Y-106506879D01*
X154973782Y-106596815D01*
X155031013Y-112779573D01*
X155002654Y-112735501D01*
X154781966Y-112584712D01*
X154520000Y-112531662D01*
X152820000Y-112531662D01*
X152575270Y-112577711D01*
X152350501Y-112722346D01*
X152199712Y-112943034D01*
X152146662Y-113205000D01*
X152146662Y-113510060D01*
X151364090Y-113510060D01*
X151336919Y-113365660D01*
X151192284Y-113140891D01*
X151028657Y-113029090D01*
X151179129Y-112932264D01*
X151329918Y-112711576D01*
X151382968Y-112449610D01*
X151382968Y-110948470D01*
X151361140Y-110832464D01*
X151361140Y-108922214D01*
X151624997Y-108658357D01*
X151809449Y-108382305D01*
X151874220Y-108056680D01*
X151874220Y-106564187D01*
X152011034Y-106657668D01*
X152273000Y-106710718D01*
X153172160Y-106710718D01*
X153416890Y-106664669D01*
X153641659Y-106520034D01*
X153792448Y-106299346D01*
X153845498Y-106037380D01*
X153845498Y-104239060D01*
X153799449Y-103994330D01*
X153654814Y-103769561D01*
X153434126Y-103618772D01*
X153172160Y-103565722D01*
X152273000Y-103565722D01*
X152028270Y-103611771D01*
X151871892Y-103712398D01*
X151734866Y-103618772D01*
X151472900Y-103565722D01*
X150573740Y-103565722D01*
X150329010Y-103611771D01*
X150104241Y-103756406D01*
X149953452Y-103977094D01*
X149900402Y-104239060D01*
X149900402Y-106037380D01*
X149946451Y-106282110D01*
X150091086Y-106506879D01*
X150172420Y-106562452D01*
X150172420Y-107704226D01*
X149908563Y-107968083D01*
X149724111Y-108244134D01*
X149689069Y-108420301D01*
X149659340Y-108569760D01*
X149659340Y-109085986D01*
X149191677Y-108618323D01*
X148915626Y-108433871D01*
X148590000Y-108369100D01*
X148157401Y-108369100D01*
X147997116Y-108208536D01*
X147558503Y-108026408D01*
X147083580Y-108025993D01*
X146914628Y-108095802D01*
X146954240Y-107896660D01*
X146954240Y-106563906D01*
X147022419Y-106520034D01*
X147173208Y-106299346D01*
X147226258Y-106037380D01*
X147226258Y-105404920D01*
X147492720Y-105404920D01*
X147492720Y-106168742D01*
X147593260Y-106411467D01*
X147779034Y-106597240D01*
X148021759Y-106697780D01*
X148336000Y-106697780D01*
X148501100Y-106532680D01*
X148501100Y-105239820D01*
X148704300Y-105239820D01*
X148704300Y-106532680D01*
X148869400Y-106697780D01*
X149183641Y-106697780D01*
X149426366Y-106597240D01*
X149612140Y-106411467D01*
X149712680Y-106168742D01*
X149712680Y-105404920D01*
X149547580Y-105239820D01*
X148704300Y-105239820D01*
X148501100Y-105239820D01*
X147657820Y-105239820D01*
X147492720Y-105404920D01*
X147226258Y-105404920D01*
X147226258Y-104239060D01*
X147201541Y-104107698D01*
X147492720Y-104107698D01*
X147492720Y-104871520D01*
X147657820Y-105036620D01*
X148501100Y-105036620D01*
X148501100Y-103743760D01*
X148704300Y-103743760D01*
X148704300Y-105036620D01*
X149547580Y-105036620D01*
X149712680Y-104871520D01*
X149712680Y-104107698D01*
X149612140Y-103864973D01*
X149426366Y-103679200D01*
X149183641Y-103578660D01*
X148869400Y-103578660D01*
X148704300Y-103743760D01*
X148501100Y-103743760D01*
X148336000Y-103578660D01*
X148021759Y-103578660D01*
X147779034Y-103679200D01*
X147593260Y-103864973D01*
X147492720Y-104107698D01*
X147201541Y-104107698D01*
X147180209Y-103994330D01*
X147035574Y-103769561D01*
X146814886Y-103618772D01*
X146552920Y-103565722D01*
X145653760Y-103565722D01*
X145409030Y-103611771D01*
X145184261Y-103756406D01*
X145033472Y-103977094D01*
X144980422Y-104239060D01*
X144980422Y-106037380D01*
X145026471Y-106282110D01*
X145171106Y-106506879D01*
X145252440Y-106562452D01*
X145252440Y-107544206D01*
X144703675Y-108092971D01*
X144704007Y-107713580D01*
X144522645Y-107274650D01*
X144454880Y-107206767D01*
X144454880Y-106563906D01*
X144523059Y-106520034D01*
X144673848Y-106299346D01*
X144726898Y-106037380D01*
X144726898Y-104239060D01*
X144680849Y-103994330D01*
X144536214Y-103769561D01*
X144315526Y-103618772D01*
X144053560Y-103565722D01*
X143154400Y-103565722D01*
X142909670Y-103611771D01*
X142728973Y-103728047D01*
X142680126Y-103679200D01*
X142437401Y-103578660D01*
X142123160Y-103578660D01*
X141958060Y-103743760D01*
X141958060Y-105036620D01*
X141978060Y-105036620D01*
X141978060Y-105239820D01*
X141958060Y-105239820D01*
X141958060Y-106532680D01*
X142123160Y-106697780D01*
X142437401Y-106697780D01*
X142680126Y-106597240D01*
X142730406Y-106546960D01*
X142753080Y-106562452D01*
X142753080Y-107018783D01*
X142498536Y-107272884D01*
X142316408Y-107711497D01*
X142315993Y-108186420D01*
X142497355Y-108625350D01*
X142643860Y-108772110D01*
X142643860Y-110840681D01*
X142622032Y-110948470D01*
X142622032Y-112449610D01*
X142668081Y-112694340D01*
X142812716Y-112919109D01*
X142824520Y-112927174D01*
X142708631Y-113100614D01*
X142659339Y-113348424D01*
X142643860Y-113426240D01*
X142643860Y-113502601D01*
X142622032Y-113610390D01*
X142622032Y-115111530D01*
X142668081Y-115356260D01*
X142812716Y-115581029D01*
X143033404Y-115731818D01*
X143295370Y-115784868D01*
X143694150Y-115784868D01*
X143798212Y-115765288D01*
X143814248Y-115771930D01*
X143880205Y-115771930D01*
X143907391Y-115744744D01*
X143938880Y-115738819D01*
X143944340Y-115735306D01*
X143944340Y-118775183D01*
X141269720Y-116100564D01*
X141269720Y-106695378D01*
X141275519Y-106697780D01*
X141589760Y-106697780D01*
X141754860Y-106532680D01*
X141754860Y-105239820D01*
X141734860Y-105239820D01*
X141734860Y-105036620D01*
X141754860Y-105036620D01*
X141754860Y-103743760D01*
X141589760Y-103578660D01*
X141275519Y-103578660D01*
X141109067Y-103647607D01*
X141066866Y-103618772D01*
X140804900Y-103565722D01*
X139905740Y-103565722D01*
X139661010Y-103611771D01*
X139478470Y-103729232D01*
X139316806Y-103618772D01*
X139054840Y-103565722D01*
X138155680Y-103565722D01*
X137910950Y-103611771D01*
X137686181Y-103756406D01*
X137535392Y-103977094D01*
X137482342Y-104239060D01*
X137482342Y-106037380D01*
X137528391Y-106282110D01*
X137673026Y-106506879D01*
X137754360Y-106562452D01*
X137754360Y-107539173D01*
X137398503Y-107391408D01*
X136956800Y-107391022D01*
X136956800Y-106563906D01*
X137024979Y-106520034D01*
X137175768Y-106299346D01*
X137228818Y-106037380D01*
X137228818Y-104239060D01*
X137182769Y-103994330D01*
X137038134Y-103769561D01*
X136817446Y-103618772D01*
X136555480Y-103565722D01*
X135656320Y-103565722D01*
X135411590Y-103611771D01*
X135186821Y-103756406D01*
X135036032Y-103977094D01*
X134982982Y-104239060D01*
X134982982Y-106037380D01*
X135029031Y-106282110D01*
X135173666Y-106506879D01*
X135255000Y-106562452D01*
X135255000Y-107381646D01*
X132915660Y-109720986D01*
X132915660Y-109437614D01*
X133091464Y-109262116D01*
X133273592Y-108823503D01*
X133274007Y-108348580D01*
X133092645Y-107909650D01*
X132757116Y-107573536D01*
X132318503Y-107391408D01*
X131843580Y-107390993D01*
X131474242Y-107543600D01*
X129992916Y-107543600D01*
X129992289Y-107540270D01*
X129847654Y-107315501D01*
X129626966Y-107164712D01*
X129365000Y-107111662D01*
X127365000Y-107111662D01*
X127120270Y-107157711D01*
X126895501Y-107302346D01*
X126744712Y-107523034D01*
X126691662Y-107785000D01*
X126691662Y-109385000D01*
X126737711Y-109629730D01*
X126882346Y-109854499D01*
X127103034Y-110005288D01*
X127296126Y-110044391D01*
X127238690Y-113115726D01*
X126894337Y-113356773D01*
X126742645Y-112989650D01*
X126407116Y-112653536D01*
X126038047Y-112500285D01*
X124561381Y-111023619D01*
X124450798Y-110949730D01*
X124223527Y-110797872D01*
X123825000Y-110718600D01*
X118715022Y-110718600D01*
X118348503Y-110566408D01*
X117873580Y-110565993D01*
X117434650Y-110747355D01*
X117098536Y-111082884D01*
X116916408Y-111521497D01*
X116915993Y-111996420D01*
X117097355Y-112435350D01*
X117432884Y-112771464D01*
X117651317Y-112862165D01*
X117595270Y-112872711D01*
X117370501Y-113017346D01*
X117219712Y-113238034D01*
X117166662Y-113500000D01*
X117166662Y-115100000D01*
X117212711Y-115344730D01*
X117357346Y-115569499D01*
X117578034Y-115720288D01*
X117798600Y-115764954D01*
X117798600Y-119488638D01*
X115725576Y-121561662D01*
X114135000Y-121561662D01*
X113890270Y-121607711D01*
X113665501Y-121752346D01*
X113514712Y-121973034D01*
X113461662Y-122235000D01*
X113461662Y-122368301D01*
X111531400Y-122128117D01*
X111531400Y-121890022D01*
X111683592Y-121523503D01*
X111684007Y-121048580D01*
X111502645Y-120609650D01*
X111167116Y-120273536D01*
X110728503Y-120091408D01*
X110253580Y-120090993D01*
X109814650Y-120272355D01*
X109478536Y-120607884D01*
X109372400Y-120863488D01*
X109372400Y-118851700D01*
X113474600Y-118851700D01*
X113474600Y-120466362D01*
X113575140Y-120709087D01*
X113760914Y-120894860D01*
X114003639Y-120995400D01*
X114668300Y-120995400D01*
X114833400Y-120830300D01*
X114833400Y-118686600D01*
X115036600Y-118686600D01*
X115036600Y-120830300D01*
X115201700Y-120995400D01*
X115866361Y-120995400D01*
X116109086Y-120894860D01*
X116294860Y-120709087D01*
X116395400Y-120466362D01*
X116395400Y-118851700D01*
X116230300Y-118686600D01*
X115036600Y-118686600D01*
X114833400Y-118686600D01*
X113639700Y-118686600D01*
X113474600Y-118851700D01*
X109372400Y-118851700D01*
X109372400Y-118110000D01*
X109361977Y-118054609D01*
X109329242Y-118003736D01*
X109279292Y-117969607D01*
X109220000Y-117957600D01*
X108599586Y-117957600D01*
X108609954Y-117906400D01*
X111850185Y-117906400D01*
X112156497Y-118033592D01*
X112631420Y-118034007D01*
X113070350Y-117852645D01*
X113406464Y-117517116D01*
X113474600Y-117353026D01*
X113474600Y-118318300D01*
X113639700Y-118483400D01*
X114833400Y-118483400D01*
X114833400Y-116339700D01*
X115036600Y-116339700D01*
X115036600Y-118483400D01*
X116230300Y-118483400D01*
X116395400Y-118318300D01*
X116395400Y-116703638D01*
X116294860Y-116460913D01*
X116109086Y-116275140D01*
X115866361Y-116174600D01*
X115201700Y-116174600D01*
X115036600Y-116339700D01*
X114833400Y-116339700D01*
X114668300Y-116174600D01*
X114003639Y-116174600D01*
X113760914Y-116275140D01*
X113575140Y-116460913D01*
X113552571Y-116515399D01*
X113407645Y-116164650D01*
X113072116Y-115828536D01*
X112633503Y-115646408D01*
X112158580Y-115645993D01*
X111728738Y-115823600D01*
X108610548Y-115823600D01*
X108572289Y-115620270D01*
X108427654Y-115395501D01*
X108206966Y-115244712D01*
X107945000Y-115191662D01*
X104145000Y-115191662D01*
X103900270Y-115237711D01*
X103675501Y-115382346D01*
X103524712Y-115603034D01*
X103480046Y-115823600D01*
X101575000Y-115823600D01*
X101176474Y-115902871D01*
X100838619Y-116128619D01*
X100058638Y-116908600D01*
X99263338Y-116908600D01*
X99263338Y-116200000D01*
X99217289Y-115955270D01*
X99072654Y-115730501D01*
X98851966Y-115579712D01*
X98831400Y-115575547D01*
X98831400Y-115570000D01*
X98752128Y-115171473D01*
X98526381Y-114833619D01*
X98259462Y-114566700D01*
X113179600Y-114566700D01*
X113179600Y-115231361D01*
X113280140Y-115474086D01*
X113465913Y-115659860D01*
X113708638Y-115760400D01*
X114573300Y-115760400D01*
X114738400Y-115595300D01*
X114738400Y-114401600D01*
X114941600Y-114401600D01*
X114941600Y-115595300D01*
X115106700Y-115760400D01*
X115971362Y-115760400D01*
X116214087Y-115659860D01*
X116399860Y-115474086D01*
X116500400Y-115231361D01*
X116500400Y-114566700D01*
X116335300Y-114401600D01*
X114941600Y-114401600D01*
X114738400Y-114401600D01*
X113344700Y-114401600D01*
X113179600Y-114566700D01*
X98259462Y-114566700D01*
X97061401Y-113368639D01*
X113179600Y-113368639D01*
X113179600Y-114033300D01*
X113344700Y-114198400D01*
X114738400Y-114198400D01*
X114738400Y-113004700D01*
X114941600Y-113004700D01*
X114941600Y-114198400D01*
X116335300Y-114198400D01*
X116500400Y-114033300D01*
X116500400Y-113368639D01*
X116399860Y-113125914D01*
X116214087Y-112940140D01*
X115971362Y-112839600D01*
X115106700Y-112839600D01*
X114941600Y-113004700D01*
X114738400Y-113004700D01*
X114573300Y-112839600D01*
X113708638Y-112839600D01*
X113465913Y-112940140D01*
X113280140Y-113125914D01*
X113179600Y-113368639D01*
X97061401Y-113368639D01*
X96291400Y-112598638D01*
X96291400Y-112026700D01*
X96669600Y-112026700D01*
X96669600Y-112741361D01*
X96770140Y-112984086D01*
X96955913Y-113169860D01*
X97198638Y-113270400D01*
X98063300Y-113270400D01*
X98228400Y-113105300D01*
X98228400Y-111861600D01*
X98431600Y-111861600D01*
X98431600Y-113105300D01*
X98596700Y-113270400D01*
X99461362Y-113270400D01*
X99704087Y-113169860D01*
X99889860Y-112984086D01*
X99990400Y-112741361D01*
X99990400Y-112026700D01*
X99825300Y-111861600D01*
X98431600Y-111861600D01*
X98228400Y-111861600D01*
X96834700Y-111861600D01*
X96669600Y-112026700D01*
X96291400Y-112026700D01*
X96291400Y-111587324D01*
X96344730Y-111577289D01*
X96569499Y-111432654D01*
X96669600Y-111286151D01*
X96669600Y-111493300D01*
X96834700Y-111658400D01*
X98228400Y-111658400D01*
X98228400Y-111638400D01*
X98431600Y-111638400D01*
X98431600Y-111658400D01*
X99825300Y-111658400D01*
X99990400Y-111493300D01*
X99990400Y-110910000D01*
X100656662Y-110910000D01*
X100656662Y-112610000D01*
X100702711Y-112854730D01*
X100847346Y-113079499D01*
X101068034Y-113230288D01*
X101330000Y-113283338D01*
X103330000Y-113283338D01*
X103574730Y-113237289D01*
X103799499Y-113092654D01*
X103950288Y-112871966D01*
X104003338Y-112610000D01*
X104003338Y-110910000D01*
X103957289Y-110665270D01*
X103812654Y-110440501D01*
X103711196Y-110371178D01*
X103864730Y-110342289D01*
X104089499Y-110197654D01*
X104240288Y-109976966D01*
X104293338Y-109715000D01*
X104293338Y-108215000D01*
X105256662Y-108215000D01*
X105256662Y-109715000D01*
X105302711Y-109959730D01*
X105447346Y-110184499D01*
X105668034Y-110335288D01*
X105839578Y-110370027D01*
X105750501Y-110427346D01*
X105599712Y-110648034D01*
X105546662Y-110910000D01*
X105546662Y-112610000D01*
X105592711Y-112854730D01*
X105737346Y-113079499D01*
X105958034Y-113230288D01*
X106220000Y-113283338D01*
X108220000Y-113283338D01*
X108464730Y-113237289D01*
X108689499Y-113092654D01*
X108840288Y-112871966D01*
X108893338Y-112610000D01*
X108893338Y-112026700D01*
X109559600Y-112026700D01*
X109559600Y-112741361D01*
X109660140Y-112984086D01*
X109845913Y-113169860D01*
X110088638Y-113270400D01*
X110953300Y-113270400D01*
X111118400Y-113105300D01*
X111118400Y-111861600D01*
X111321600Y-111861600D01*
X111321600Y-113105300D01*
X111486700Y-113270400D01*
X112351362Y-113270400D01*
X112594087Y-113169860D01*
X112779860Y-112984086D01*
X112880400Y-112741361D01*
X112880400Y-112026700D01*
X112715300Y-111861600D01*
X111321600Y-111861600D01*
X111118400Y-111861600D01*
X109724700Y-111861600D01*
X109559600Y-112026700D01*
X108893338Y-112026700D01*
X108893338Y-110910000D01*
X108868621Y-110778639D01*
X109559600Y-110778639D01*
X109559600Y-111493300D01*
X109724700Y-111658400D01*
X111118400Y-111658400D01*
X111118400Y-110414700D01*
X111321600Y-110414700D01*
X111321600Y-111658400D01*
X112715300Y-111658400D01*
X112880400Y-111493300D01*
X112880400Y-110778639D01*
X112779860Y-110535914D01*
X112594087Y-110350140D01*
X112351362Y-110249600D01*
X111486700Y-110249600D01*
X111321600Y-110414700D01*
X111118400Y-110414700D01*
X110953300Y-110249600D01*
X110088638Y-110249600D01*
X109845913Y-110350140D01*
X109660140Y-110535914D01*
X109559600Y-110778639D01*
X108868621Y-110778639D01*
X108847289Y-110665270D01*
X108702654Y-110440501D01*
X108481966Y-110289712D01*
X108220000Y-110236662D01*
X108036849Y-110236662D01*
X107995924Y-110056530D01*
X108050288Y-109976966D01*
X108103338Y-109715000D01*
X108103338Y-108215000D01*
X108057289Y-107970270D01*
X107938071Y-107785000D01*
X109356662Y-107785000D01*
X109356662Y-109385000D01*
X109402711Y-109629730D01*
X109547346Y-109854499D01*
X109768034Y-110005288D01*
X110030000Y-110058338D01*
X112030000Y-110058338D01*
X112274730Y-110012289D01*
X112499499Y-109867654D01*
X112650288Y-109646966D01*
X112703338Y-109385000D01*
X112703338Y-108851700D01*
X113369600Y-108851700D01*
X113369600Y-109516361D01*
X113470140Y-109759086D01*
X113655913Y-109944860D01*
X113898638Y-110045400D01*
X114763300Y-110045400D01*
X114928400Y-109880300D01*
X114928400Y-108686600D01*
X115131600Y-108686600D01*
X115131600Y-109880300D01*
X115296700Y-110045400D01*
X116161362Y-110045400D01*
X116404087Y-109944860D01*
X116589860Y-109759086D01*
X116690400Y-109516361D01*
X116690400Y-108851700D01*
X122704600Y-108851700D01*
X122704600Y-109516361D01*
X122805140Y-109759086D01*
X122990913Y-109944860D01*
X123233638Y-110045400D01*
X124098300Y-110045400D01*
X124263400Y-109880300D01*
X124263400Y-108686600D01*
X124466600Y-108686600D01*
X124466600Y-109880300D01*
X124631700Y-110045400D01*
X125496362Y-110045400D01*
X125739087Y-109944860D01*
X125924860Y-109759086D01*
X126025400Y-109516361D01*
X126025400Y-108851700D01*
X125860300Y-108686600D01*
X124466600Y-108686600D01*
X124263400Y-108686600D01*
X122869700Y-108686600D01*
X122704600Y-108851700D01*
X116690400Y-108851700D01*
X116525300Y-108686600D01*
X115131600Y-108686600D01*
X114928400Y-108686600D01*
X113534700Y-108686600D01*
X113369600Y-108851700D01*
X112703338Y-108851700D01*
X112703338Y-107785000D01*
X112678621Y-107653639D01*
X113369600Y-107653639D01*
X113369600Y-108318300D01*
X113534700Y-108483400D01*
X114928400Y-108483400D01*
X114928400Y-107289700D01*
X115131600Y-107289700D01*
X115131600Y-108483400D01*
X116525300Y-108483400D01*
X116690400Y-108318300D01*
X116690400Y-107653639D01*
X122704600Y-107653639D01*
X122704600Y-108318300D01*
X122869700Y-108483400D01*
X124263400Y-108483400D01*
X124263400Y-107289700D01*
X124466600Y-107289700D01*
X124466600Y-108483400D01*
X125860300Y-108483400D01*
X126025400Y-108318300D01*
X126025400Y-107653639D01*
X125924860Y-107410914D01*
X125739087Y-107225140D01*
X125496362Y-107124600D01*
X124631700Y-107124600D01*
X124466600Y-107289700D01*
X124263400Y-107289700D01*
X124098300Y-107124600D01*
X123233638Y-107124600D01*
X122990913Y-107225140D01*
X122805140Y-107410914D01*
X122704600Y-107653639D01*
X116690400Y-107653639D01*
X116589860Y-107410914D01*
X116404087Y-107225140D01*
X116161362Y-107124600D01*
X115296700Y-107124600D01*
X115131600Y-107289700D01*
X114928400Y-107289700D01*
X114763300Y-107124600D01*
X113898638Y-107124600D01*
X113655913Y-107225140D01*
X113470140Y-107410914D01*
X113369600Y-107653639D01*
X112678621Y-107653639D01*
X112657289Y-107540270D01*
X112512654Y-107315501D01*
X112291966Y-107164712D01*
X112222222Y-107150588D01*
X112318592Y-106918503D01*
X112319007Y-106443580D01*
X112137645Y-106004650D01*
X111802116Y-105668536D01*
X111363503Y-105486408D01*
X110888580Y-105485993D01*
X110449650Y-105667355D01*
X110113536Y-106002884D01*
X109931408Y-106441497D01*
X109930993Y-106916420D01*
X109988600Y-107055840D01*
X109988600Y-107119452D01*
X109785270Y-107157711D01*
X109560501Y-107302346D01*
X109409712Y-107523034D01*
X109356662Y-107785000D01*
X107938071Y-107785000D01*
X107912654Y-107745501D01*
X107691966Y-107594712D01*
X107430000Y-107541662D01*
X105930000Y-107541662D01*
X105685270Y-107587711D01*
X105460501Y-107732346D01*
X105309712Y-107953034D01*
X105256662Y-108215000D01*
X104293338Y-108215000D01*
X104247289Y-107970270D01*
X104102654Y-107745501D01*
X103881966Y-107594712D01*
X103620000Y-107541662D01*
X102120000Y-107541662D01*
X101875270Y-107587711D01*
X101650501Y-107732346D01*
X101499712Y-107953034D01*
X101446662Y-108215000D01*
X101446662Y-109715000D01*
X101492711Y-109959730D01*
X101588421Y-110108468D01*
X101563654Y-110236662D01*
X101330000Y-110236662D01*
X101085270Y-110282711D01*
X100860501Y-110427346D01*
X100709712Y-110648034D01*
X100656662Y-110910000D01*
X99990400Y-110910000D01*
X99990400Y-110778639D01*
X99889860Y-110535914D01*
X99729347Y-110375400D01*
X99941361Y-110375400D01*
X100184086Y-110274860D01*
X100369860Y-110089087D01*
X100470400Y-109846362D01*
X100470400Y-109231700D01*
X100305300Y-109066600D01*
X99161600Y-109066600D01*
X99161600Y-109086600D01*
X98958400Y-109086600D01*
X98958400Y-109066600D01*
X97814700Y-109066600D01*
X97649600Y-109231700D01*
X97649600Y-109846362D01*
X97750140Y-110089087D01*
X97910654Y-110249600D01*
X97198638Y-110249600D01*
X96955913Y-110350140D01*
X96773338Y-110532716D01*
X96773338Y-108950000D01*
X96727289Y-108705270D01*
X96582654Y-108480501D01*
X96361966Y-108329712D01*
X96100000Y-108276662D01*
X94400000Y-108276662D01*
X94155270Y-108322711D01*
X93930501Y-108467346D01*
X93779712Y-108688034D01*
X93774000Y-108716238D01*
X93548338Y-108490576D01*
X93548338Y-108083638D01*
X97649600Y-108083638D01*
X97649600Y-108698300D01*
X97814700Y-108863400D01*
X98958400Y-108863400D01*
X98958400Y-107719700D01*
X99161600Y-107719700D01*
X99161600Y-108863400D01*
X100305300Y-108863400D01*
X100470400Y-108698300D01*
X100470400Y-108083638D01*
X100369860Y-107840913D01*
X100184086Y-107655140D01*
X99941361Y-107554600D01*
X99326700Y-107554600D01*
X99161600Y-107719700D01*
X98958400Y-107719700D01*
X98793300Y-107554600D01*
X98178639Y-107554600D01*
X97935914Y-107655140D01*
X97750140Y-107840913D01*
X97649600Y-108083638D01*
X93548338Y-108083638D01*
X93548338Y-107490000D01*
X93502289Y-107245270D01*
X93357654Y-107020501D01*
X93136966Y-106869712D01*
X92875000Y-106816662D01*
X91275000Y-106816662D01*
X91030270Y-106862711D01*
X90805501Y-107007346D01*
X90654712Y-107228034D01*
X90610046Y-107448600D01*
X90365548Y-107448600D01*
X90327289Y-107245270D01*
X90182654Y-107020501D01*
X89961966Y-106869712D01*
X89700000Y-106816662D01*
X88100000Y-106816662D01*
X87855270Y-106862711D01*
X87630501Y-107007346D01*
X87479712Y-107228034D01*
X87426662Y-107490000D01*
X87426662Y-109490000D01*
X87472711Y-109734730D01*
X87617346Y-109959499D01*
X87838034Y-110110288D01*
X88100000Y-110163338D01*
X89700000Y-110163338D01*
X89944730Y-110117289D01*
X90169499Y-109972654D01*
X90320288Y-109751966D01*
X90364954Y-109531400D01*
X90609452Y-109531400D01*
X90647711Y-109734730D01*
X90792346Y-109959499D01*
X91013034Y-110110288D01*
X91275000Y-110163338D01*
X92275576Y-110163338D01*
X92798619Y-110686381D01*
X93023725Y-110836792D01*
X93006361Y-110829600D01*
X92341700Y-110829600D01*
X92176600Y-110994700D01*
X92176600Y-112388400D01*
X93370300Y-112388400D01*
X93535400Y-112223300D01*
X93535400Y-111358638D01*
X93434860Y-111115913D01*
X93254564Y-110935618D01*
X93535000Y-110991400D01*
X93734452Y-110991400D01*
X93772711Y-111194730D01*
X93917346Y-111419499D01*
X94138034Y-111570288D01*
X94208600Y-111584578D01*
X94208600Y-113030000D01*
X94287872Y-113428527D01*
X94456233Y-113680497D01*
X94513619Y-113766381D01*
X96497803Y-115750565D01*
X96369712Y-115938034D01*
X96316662Y-116200000D01*
X96316662Y-119700000D01*
X96362711Y-119944730D01*
X96507346Y-120169499D01*
X96728034Y-120320288D01*
X96990000Y-120373338D01*
X98590000Y-120373338D01*
X98834730Y-120327289D01*
X99059499Y-120182654D01*
X99210288Y-119961966D01*
X99263338Y-119700000D01*
X99263338Y-118991400D01*
X100490000Y-118991400D01*
X100888527Y-118912128D01*
X101226381Y-118686381D01*
X102006362Y-117906400D01*
X103479452Y-117906400D01*
X103489086Y-117957600D01*
X102870000Y-117957600D01*
X102814609Y-117968023D01*
X102763736Y-118000758D01*
X102729607Y-118050708D01*
X102717600Y-118110000D01*
X102717600Y-121565091D01*
X102620914Y-121605140D01*
X102435140Y-121790913D01*
X102334600Y-122033638D01*
X102334600Y-122898300D01*
X102499700Y-123063400D01*
X103643400Y-123063400D01*
X103643400Y-123043400D01*
X103846600Y-123043400D01*
X103846600Y-123063400D01*
X103866600Y-123063400D01*
X103866600Y-123266600D01*
X103846600Y-123266600D01*
X103846600Y-124660300D01*
X104011700Y-124825400D01*
X104626361Y-124825400D01*
X104869086Y-124724860D01*
X104899736Y-124694210D01*
X105033034Y-124785288D01*
X105295000Y-124838338D01*
X106795000Y-124838338D01*
X107039730Y-124792289D01*
X107196056Y-124691696D01*
X107333034Y-124785288D01*
X107595000Y-124838338D01*
X109095000Y-124838338D01*
X109339730Y-124792289D01*
X109431074Y-124733511D01*
X110314364Y-124843419D01*
X113461662Y-125235041D01*
X113461662Y-125735000D01*
X113507711Y-125979730D01*
X113652346Y-126204499D01*
X113873034Y-126355288D01*
X114135000Y-126408338D01*
X115346761Y-126408338D01*
X115674209Y-126735786D01*
X115674211Y-126735789D01*
X115956787Y-126924600D01*
X76910400Y-126924600D01*
X76910400Y-115570000D01*
X83667600Y-115570000D01*
X83667600Y-125730000D01*
X83678023Y-125785391D01*
X83710758Y-125836264D01*
X83760708Y-125870393D01*
X83820000Y-125882400D01*
X93980000Y-125882400D01*
X94035391Y-125871977D01*
X94086264Y-125839242D01*
X94120393Y-125789292D01*
X94132400Y-125730000D01*
X94132400Y-123616700D01*
X96329600Y-123616700D01*
X96329600Y-125231362D01*
X96430140Y-125474087D01*
X96615914Y-125659860D01*
X96858639Y-125760400D01*
X97523300Y-125760400D01*
X97688400Y-125595300D01*
X97688400Y-123451600D01*
X97891600Y-123451600D01*
X97891600Y-125595300D01*
X98056700Y-125760400D01*
X98721361Y-125760400D01*
X98964086Y-125659860D01*
X99149860Y-125474087D01*
X99250400Y-125231362D01*
X99250400Y-123616700D01*
X99085300Y-123451600D01*
X97891600Y-123451600D01*
X97688400Y-123451600D01*
X96494700Y-123451600D01*
X96329600Y-123616700D01*
X94132400Y-123616700D01*
X94132400Y-123431700D01*
X102334600Y-123431700D01*
X102334600Y-124296362D01*
X102435140Y-124539087D01*
X102620914Y-124724860D01*
X102863639Y-124825400D01*
X103478300Y-124825400D01*
X103643400Y-124660300D01*
X103643400Y-123266600D01*
X102499700Y-123266600D01*
X102334600Y-123431700D01*
X94132400Y-123431700D01*
X94132400Y-121468638D01*
X96329600Y-121468638D01*
X96329600Y-123083300D01*
X96494700Y-123248400D01*
X97688400Y-123248400D01*
X97688400Y-121104700D01*
X97891600Y-121104700D01*
X97891600Y-123248400D01*
X99085300Y-123248400D01*
X99250400Y-123083300D01*
X99250400Y-121468638D01*
X99149860Y-121225913D01*
X98964086Y-121040140D01*
X98721361Y-120939600D01*
X98056700Y-120939600D01*
X97891600Y-121104700D01*
X97688400Y-121104700D01*
X97523300Y-120939600D01*
X96858639Y-120939600D01*
X96615914Y-121040140D01*
X96430140Y-121225913D01*
X96329600Y-121468638D01*
X94132400Y-121468638D01*
X94132400Y-115570000D01*
X94121977Y-115514609D01*
X94089242Y-115463736D01*
X94039292Y-115429607D01*
X93980000Y-115417600D01*
X83820000Y-115417600D01*
X83764609Y-115428023D01*
X83713736Y-115460758D01*
X83679607Y-115510708D01*
X83667600Y-115570000D01*
X76910400Y-115570000D01*
X76910400Y-112756700D01*
X87439600Y-112756700D01*
X87439600Y-113621362D01*
X87540140Y-113864087D01*
X87725914Y-114049860D01*
X87968639Y-114150400D01*
X88633300Y-114150400D01*
X88798400Y-113985300D01*
X88798400Y-112591600D01*
X89001600Y-112591600D01*
X89001600Y-113985300D01*
X89166700Y-114150400D01*
X89831361Y-114150400D01*
X90074086Y-114049860D01*
X90259860Y-113864087D01*
X90360400Y-113621362D01*
X90360400Y-112756700D01*
X90614600Y-112756700D01*
X90614600Y-113621362D01*
X90715140Y-113864087D01*
X90900914Y-114049860D01*
X91143639Y-114150400D01*
X91808300Y-114150400D01*
X91973400Y-113985300D01*
X91973400Y-112591600D01*
X92176600Y-112591600D01*
X92176600Y-113985300D01*
X92341700Y-114150400D01*
X93006361Y-114150400D01*
X93249086Y-114049860D01*
X93434860Y-113864087D01*
X93535400Y-113621362D01*
X93535400Y-112756700D01*
X93370300Y-112591600D01*
X92176600Y-112591600D01*
X91973400Y-112591600D01*
X90779700Y-112591600D01*
X90614600Y-112756700D01*
X90360400Y-112756700D01*
X90195300Y-112591600D01*
X89001600Y-112591600D01*
X88798400Y-112591600D01*
X87604700Y-112591600D01*
X87439600Y-112756700D01*
X76910400Y-112756700D01*
X76910400Y-111358638D01*
X87439600Y-111358638D01*
X87439600Y-112223300D01*
X87604700Y-112388400D01*
X88798400Y-112388400D01*
X88798400Y-110994700D01*
X89001600Y-110994700D01*
X89001600Y-112388400D01*
X90195300Y-112388400D01*
X90360400Y-112223300D01*
X90360400Y-111358638D01*
X90614600Y-111358638D01*
X90614600Y-112223300D01*
X90779700Y-112388400D01*
X91973400Y-112388400D01*
X91973400Y-110994700D01*
X91808300Y-110829600D01*
X91143639Y-110829600D01*
X90900914Y-110930140D01*
X90715140Y-111115913D01*
X90614600Y-111358638D01*
X90360400Y-111358638D01*
X90259860Y-111115913D01*
X90074086Y-110930140D01*
X89831361Y-110829600D01*
X89166700Y-110829600D01*
X89001600Y-110994700D01*
X88798400Y-110994700D01*
X88633300Y-110829600D01*
X87968639Y-110829600D01*
X87725914Y-110930140D01*
X87540140Y-111115913D01*
X87439600Y-111358638D01*
X76910400Y-111358638D01*
X76910400Y-104950000D01*
X93726662Y-104950000D01*
X93726662Y-106950000D01*
X93772711Y-107194730D01*
X93917346Y-107419499D01*
X94138034Y-107570288D01*
X94400000Y-107623338D01*
X96100000Y-107623338D01*
X96344730Y-107577289D01*
X96569499Y-107432654D01*
X96720288Y-107211966D01*
X96773338Y-106950000D01*
X96773338Y-106884884D01*
X97777998Y-106807810D01*
X97827346Y-106884499D01*
X98048034Y-107035288D01*
X98310000Y-107088338D01*
X99810000Y-107088338D01*
X100054730Y-107042289D01*
X100279499Y-106897654D01*
X100430288Y-106676966D01*
X100483338Y-106415000D01*
X100483338Y-104915000D01*
X100437289Y-104670270D01*
X100292654Y-104445501D01*
X100071966Y-104294712D01*
X99810000Y-104241662D01*
X98310000Y-104241662D01*
X98065270Y-104287711D01*
X97840501Y-104432346D01*
X97689712Y-104653034D01*
X97674772Y-104726809D01*
X96744767Y-104798155D01*
X96727289Y-104705270D01*
X96582654Y-104480501D01*
X96361966Y-104329712D01*
X96100000Y-104276662D01*
X94400000Y-104276662D01*
X94155270Y-104322711D01*
X93930501Y-104467346D01*
X93779712Y-104688034D01*
X93726662Y-104950000D01*
X76910400Y-104950000D01*
X76910400Y-96431700D01*
X77349600Y-96431700D01*
X77349600Y-96896361D01*
X77450140Y-97139086D01*
X77635913Y-97324860D01*
X77878638Y-97425400D01*
X78343300Y-97425400D01*
X78508400Y-97260300D01*
X78508400Y-96266600D01*
X78711600Y-96266600D01*
X78711600Y-97260300D01*
X78876700Y-97425400D01*
X79341362Y-97425400D01*
X79584087Y-97324860D01*
X79769860Y-97139086D01*
X79870400Y-96896361D01*
X79870400Y-96431700D01*
X79705300Y-96266600D01*
X78711600Y-96266600D01*
X78508400Y-96266600D01*
X77514700Y-96266600D01*
X77349600Y-96431700D01*
X76910400Y-96431700D01*
X76910400Y-95433639D01*
X77349600Y-95433639D01*
X77349600Y-95898300D01*
X77514700Y-96063400D01*
X78508400Y-96063400D01*
X78508400Y-95069700D01*
X78711600Y-95069700D01*
X78711600Y-96063400D01*
X79705300Y-96063400D01*
X79870400Y-95898300D01*
X79870400Y-95433639D01*
X79769860Y-95190914D01*
X79584087Y-95005140D01*
X79341362Y-94904600D01*
X78876700Y-94904600D01*
X78711600Y-95069700D01*
X78508400Y-95069700D01*
X78343300Y-94904600D01*
X77878638Y-94904600D01*
X77635913Y-95005140D01*
X77450140Y-95190914D01*
X77349600Y-95433639D01*
X76910400Y-95433639D01*
X76910400Y-92463827D01*
X76993034Y-92520288D01*
X77255000Y-92573338D01*
X78955000Y-92573338D01*
X79199730Y-92527289D01*
X79424499Y-92382654D01*
X79575288Y-92161966D01*
X79619954Y-91941400D01*
X80399452Y-91941400D01*
X80437711Y-92144730D01*
X80576516Y-92360440D01*
X80268536Y-92667884D01*
X80086408Y-93106497D01*
X80085993Y-93581420D01*
X80238600Y-93950758D01*
X80238600Y-93980000D01*
X80317872Y-94378527D01*
X80368600Y-94454447D01*
X80368600Y-95064265D01*
X80340501Y-95082346D01*
X80189712Y-95303034D01*
X80136662Y-95565000D01*
X80136662Y-96765000D01*
X80182711Y-97009730D01*
X80327346Y-97234499D01*
X80548034Y-97385288D01*
X80810000Y-97438338D01*
X82010000Y-97438338D01*
X82254730Y-97392289D01*
X82479499Y-97247654D01*
X82630288Y-97026966D01*
X82683338Y-96765000D01*
X82683338Y-95565000D01*
X82637289Y-95320270D01*
X82492654Y-95095501D01*
X82451400Y-95067313D01*
X82451400Y-94110000D01*
X82433919Y-94022116D01*
X82387780Y-93790160D01*
X82473592Y-93583503D01*
X82474007Y-93108580D01*
X82349509Y-92807271D01*
X82778600Y-93236362D01*
X82778600Y-97358638D01*
X81763638Y-98373600D01*
X81407258Y-98373600D01*
X81292654Y-98195501D01*
X81071966Y-98044712D01*
X80810000Y-97991662D01*
X79210000Y-97991662D01*
X78965270Y-98037711D01*
X78740501Y-98182346D01*
X78589712Y-98403034D01*
X78536662Y-98665000D01*
X78536662Y-100165000D01*
X78582711Y-100409730D01*
X78727346Y-100634499D01*
X78948034Y-100785288D01*
X79210000Y-100838338D01*
X80810000Y-100838338D01*
X81054730Y-100792289D01*
X81279499Y-100647654D01*
X81410177Y-100456400D01*
X82195000Y-100456400D01*
X82593527Y-100377128D01*
X82931381Y-100151381D01*
X84556381Y-98526381D01*
X84573808Y-98500300D01*
X84782128Y-98188527D01*
X84861400Y-97790000D01*
X84861400Y-96756420D01*
X99770993Y-96756420D01*
X99952355Y-97195350D01*
X100287884Y-97531464D01*
X100726497Y-97713592D01*
X101201420Y-97714007D01*
X101640350Y-97532645D01*
X101917850Y-97255628D01*
X102057146Y-97472099D01*
X102277834Y-97622888D01*
X102539800Y-97675938D01*
X103200200Y-97675938D01*
X103225600Y-97671159D01*
X103225600Y-99695000D01*
X103295205Y-100044926D01*
X103400162Y-100202006D01*
X102793887Y-99595731D01*
X102794007Y-99458580D01*
X102612645Y-99019650D01*
X102277116Y-98683536D01*
X101838503Y-98501408D01*
X101363580Y-98500993D01*
X100924650Y-98682355D01*
X100588536Y-99017884D01*
X100406408Y-99456497D01*
X100405993Y-99931420D01*
X100587355Y-100370350D01*
X100922884Y-100706464D01*
X101361497Y-100888592D01*
X101500557Y-100888714D01*
X101866462Y-101254619D01*
X101866462Y-103149400D01*
X101912511Y-103394130D01*
X101955600Y-103461092D01*
X101955600Y-104272596D01*
X101875270Y-104287711D01*
X101650501Y-104432346D01*
X101499712Y-104653034D01*
X101446662Y-104915000D01*
X101446662Y-106415000D01*
X101492711Y-106659730D01*
X101637346Y-106884499D01*
X101858034Y-107035288D01*
X102120000Y-107088338D01*
X103620000Y-107088338D01*
X103864730Y-107042289D01*
X104089499Y-106897654D01*
X104240288Y-106676966D01*
X104293338Y-106415000D01*
X104293338Y-105232624D01*
X104536497Y-105333592D01*
X105011420Y-105334007D01*
X105256662Y-105232675D01*
X105256662Y-106415000D01*
X105302711Y-106659730D01*
X105447346Y-106884499D01*
X105668034Y-107035288D01*
X105930000Y-107088338D01*
X107430000Y-107088338D01*
X107674730Y-107042289D01*
X107899499Y-106897654D01*
X108050288Y-106676966D01*
X108103338Y-106415000D01*
X108103338Y-104915000D01*
X108057289Y-104670270D01*
X107912654Y-104445501D01*
X107691966Y-104294712D01*
X107594400Y-104274954D01*
X107594400Y-104239060D01*
X132483622Y-104239060D01*
X132483622Y-106037380D01*
X132529671Y-106282110D01*
X132674306Y-106506879D01*
X132894994Y-106657668D01*
X133156960Y-106710718D01*
X134056120Y-106710718D01*
X134300850Y-106664669D01*
X134525619Y-106520034D01*
X134676408Y-106299346D01*
X134729458Y-106037380D01*
X134729458Y-104239060D01*
X134683409Y-103994330D01*
X134538774Y-103769561D01*
X134318086Y-103618772D01*
X134056120Y-103565722D01*
X133156960Y-103565722D01*
X132912230Y-103611771D01*
X132687461Y-103756406D01*
X132536672Y-103977094D01*
X132483622Y-104239060D01*
X107594400Y-104239060D01*
X107594400Y-103464183D01*
X107630488Y-103411366D01*
X107683538Y-103149400D01*
X119380000Y-103149400D01*
X119729926Y-103079795D01*
X120026578Y-102881578D01*
X122019270Y-100888887D01*
X122156420Y-100889007D01*
X122595350Y-100707645D01*
X122931464Y-100372116D01*
X123113592Y-99933503D01*
X123114007Y-99458580D01*
X122932645Y-99019650D01*
X122597116Y-98683536D01*
X122158503Y-98501408D01*
X121683580Y-98500993D01*
X121244650Y-98682355D01*
X120908536Y-99017884D01*
X120726408Y-99456497D01*
X120726286Y-99595557D01*
X119001244Y-101320600D01*
X116902433Y-101320600D01*
X117216464Y-101007116D01*
X117398592Y-100568503D01*
X117399007Y-100093580D01*
X117349763Y-99974400D01*
X117970989Y-99974400D01*
X118067884Y-100071464D01*
X118506497Y-100253592D01*
X118981420Y-100254007D01*
X119420350Y-100072645D01*
X119756464Y-99737116D01*
X119938592Y-99298503D01*
X119939007Y-98823580D01*
X119757645Y-98384650D01*
X119422116Y-98048536D01*
X118983503Y-97866408D01*
X118508580Y-97865993D01*
X118069650Y-98047355D01*
X117971234Y-98145600D01*
X116714969Y-98145600D01*
X116763592Y-98028503D01*
X116764007Y-97553580D01*
X116582645Y-97114650D01*
X116247116Y-96778536D01*
X115808503Y-96596408D01*
X115333580Y-96595993D01*
X114894650Y-96777355D01*
X114796234Y-96875600D01*
X112904969Y-96875600D01*
X112953592Y-96758503D01*
X112954007Y-96283580D01*
X112801400Y-95914242D01*
X112801400Y-93980000D01*
X130657600Y-93980000D01*
X130657600Y-101600000D01*
X130668023Y-101655391D01*
X130700758Y-101706264D01*
X130750708Y-101740393D01*
X130810000Y-101752400D01*
X154940000Y-101752400D01*
X154995391Y-101741977D01*
X155046264Y-101709242D01*
X155080393Y-101659292D01*
X155092400Y-101600000D01*
X155092400Y-93980000D01*
X155081977Y-93924609D01*
X155049242Y-93873736D01*
X154999292Y-93839607D01*
X154940000Y-93827600D01*
X130810000Y-93827600D01*
X130754609Y-93838023D01*
X130703736Y-93870758D01*
X130669607Y-93920708D01*
X130657600Y-93980000D01*
X112801400Y-93980000D01*
X112801400Y-92976700D01*
X112928400Y-92849700D01*
X112928400Y-91440000D01*
X113131600Y-91440000D01*
X113131600Y-92849700D01*
X113296700Y-93014800D01*
X113491562Y-93014800D01*
X113734287Y-92914260D01*
X113920060Y-92728486D01*
X114020600Y-92485761D01*
X114020600Y-91605100D01*
X113855500Y-91440000D01*
X113131600Y-91440000D01*
X112928400Y-91440000D01*
X112908400Y-91440000D01*
X112908400Y-91236800D01*
X112928400Y-91236800D01*
X112928400Y-89827100D01*
X113131600Y-89827100D01*
X113131600Y-91236800D01*
X113855500Y-91236800D01*
X114020600Y-91071700D01*
X114020600Y-90805000D01*
X156692600Y-90805000D01*
X156692600Y-97790000D01*
X156703023Y-97845391D01*
X156735758Y-97896264D01*
X156785708Y-97930393D01*
X156845000Y-97942400D01*
X159385000Y-97942400D01*
X159440391Y-97931977D01*
X159491264Y-97899242D01*
X159525393Y-97849292D01*
X159537400Y-97790000D01*
X159537400Y-90805000D01*
X159526977Y-90749609D01*
X159494242Y-90698736D01*
X159444292Y-90664607D01*
X159385000Y-90652600D01*
X156845000Y-90652600D01*
X156789609Y-90663023D01*
X156738736Y-90695758D01*
X156704607Y-90745708D01*
X156692600Y-90805000D01*
X114020600Y-90805000D01*
X114020600Y-90191039D01*
X113920060Y-89948314D01*
X113734287Y-89762540D01*
X113491562Y-89662000D01*
X113296700Y-89662000D01*
X113131600Y-89827100D01*
X112928400Y-89827100D01*
X112763300Y-89662000D01*
X112568438Y-89662000D01*
X112397243Y-89732911D01*
X112352166Y-89702112D01*
X112090200Y-89649062D01*
X111429800Y-89649062D01*
X111185070Y-89695111D01*
X111126798Y-89732608D01*
X111082166Y-89702112D01*
X110820200Y-89649062D01*
X110159800Y-89649062D01*
X109915070Y-89695111D01*
X109856798Y-89732608D01*
X109812166Y-89702112D01*
X109550200Y-89649062D01*
X108889800Y-89649062D01*
X108645070Y-89695111D01*
X108586798Y-89732608D01*
X108542166Y-89702112D01*
X108280200Y-89649062D01*
X107619800Y-89649062D01*
X107375070Y-89695111D01*
X107316798Y-89732608D01*
X107272166Y-89702112D01*
X107010200Y-89649062D01*
X106349800Y-89649062D01*
X106105070Y-89695111D01*
X106046798Y-89732608D01*
X106002166Y-89702112D01*
X105740200Y-89649062D01*
X105079800Y-89649062D01*
X104835070Y-89695111D01*
X104776798Y-89732608D01*
X104732166Y-89702112D01*
X104470200Y-89649062D01*
X103809800Y-89649062D01*
X103565070Y-89695111D01*
X103340301Y-89839746D01*
X103189512Y-90060434D01*
X103136462Y-90322400D01*
X103136462Y-92354400D01*
X103182511Y-92599130D01*
X103225600Y-92666092D01*
X103225600Y-94302406D01*
X103200200Y-94297262D01*
X102539800Y-94297262D01*
X102295070Y-94343311D01*
X102070301Y-94487946D01*
X101919512Y-94708634D01*
X101871606Y-94945200D01*
X101498400Y-94945200D01*
X101099874Y-95024471D01*
X100762019Y-95250219D01*
X100656436Y-95355802D01*
X100289650Y-95507355D01*
X99953536Y-95842884D01*
X99771408Y-96281497D01*
X99770993Y-96756420D01*
X84861400Y-96756420D01*
X84861400Y-95402400D01*
X93980000Y-95402400D01*
X94035391Y-95391977D01*
X94086264Y-95359242D01*
X94120393Y-95309292D01*
X94132400Y-95250000D01*
X94132400Y-90531700D01*
X100139600Y-90531700D01*
X100139600Y-91396362D01*
X100240140Y-91639087D01*
X100425914Y-91824860D01*
X100668639Y-91925400D01*
X101333300Y-91925400D01*
X101498400Y-91760300D01*
X101498400Y-90366600D01*
X101701600Y-90366600D01*
X101701600Y-91760300D01*
X101866700Y-91925400D01*
X102531361Y-91925400D01*
X102774086Y-91824860D01*
X102959860Y-91639087D01*
X103060400Y-91396362D01*
X103060400Y-90531700D01*
X102895300Y-90366600D01*
X101701600Y-90366600D01*
X101498400Y-90366600D01*
X100304700Y-90366600D01*
X100139600Y-90531700D01*
X94132400Y-90531700D01*
X94132400Y-89133638D01*
X100139600Y-89133638D01*
X100139600Y-89998300D01*
X100304700Y-90163400D01*
X101498400Y-90163400D01*
X101498400Y-88769700D01*
X101701600Y-88769700D01*
X101701600Y-90163400D01*
X102895300Y-90163400D01*
X103060400Y-89998300D01*
X103060400Y-89133638D01*
X102959860Y-88890913D01*
X102774086Y-88705140D01*
X102531361Y-88604600D01*
X101866700Y-88604600D01*
X101701600Y-88769700D01*
X101498400Y-88769700D01*
X101333300Y-88604600D01*
X100668639Y-88604600D01*
X100425914Y-88705140D01*
X100240140Y-88890913D01*
X100139600Y-89133638D01*
X94132400Y-89133638D01*
X94132400Y-85090000D01*
X94121977Y-85034609D01*
X94089242Y-84983736D01*
X94039292Y-84949607D01*
X93980000Y-84937600D01*
X84861400Y-84937600D01*
X84861400Y-79227288D01*
X85090000Y-78885163D01*
X85354211Y-79280584D01*
X85815671Y-79588921D01*
X86360000Y-79697195D01*
X86904329Y-79588921D01*
X87365789Y-79280584D01*
X87630000Y-78885163D01*
X87894211Y-79280584D01*
X88355671Y-79588921D01*
X88900000Y-79697195D01*
X89444329Y-79588921D01*
X89905789Y-79280584D01*
X90170000Y-78885163D01*
X90434211Y-79280584D01*
X90895671Y-79588921D01*
X91440000Y-79697195D01*
X91984329Y-79588921D01*
X92445789Y-79280584D01*
X92710000Y-78885163D01*
X92974211Y-79280584D01*
X93435671Y-79588921D01*
X93980000Y-79697195D01*
X94524329Y-79588921D01*
X94985789Y-79280584D01*
X95250000Y-78885163D01*
X95514211Y-79280584D01*
X95975671Y-79588921D01*
X96520000Y-79697195D01*
X97064329Y-79588921D01*
X97525789Y-79280584D01*
X97790000Y-78885163D01*
X98054211Y-79280584D01*
X98515671Y-79588921D01*
X99060000Y-79697195D01*
X99604329Y-79588921D01*
X100065789Y-79280584D01*
X100330000Y-78885163D01*
X100594211Y-79280584D01*
X101055671Y-79588921D01*
X101600000Y-79697195D01*
X102144329Y-79588921D01*
X102605789Y-79280584D01*
X102870000Y-78885163D01*
X103098600Y-79227288D01*
X103098600Y-81280000D01*
X103177872Y-81678527D01*
X103403619Y-82016381D01*
X104919637Y-83532399D01*
X104835070Y-83548311D01*
X104776798Y-83585808D01*
X104732166Y-83555312D01*
X104470200Y-83502262D01*
X103809800Y-83502262D01*
X103565070Y-83548311D01*
X103340301Y-83692946D01*
X103189512Y-83913634D01*
X103136462Y-84175600D01*
X103136462Y-84277200D01*
X102673400Y-84277200D01*
X102323474Y-84346805D01*
X102295440Y-84365537D01*
X102026822Y-84545021D01*
X101980181Y-84591662D01*
X100800000Y-84591662D01*
X100555270Y-84637711D01*
X100330501Y-84782346D01*
X100179712Y-85003034D01*
X100135046Y-85223600D01*
X100031362Y-85223600D01*
X99589198Y-84781436D01*
X99437645Y-84414650D01*
X99102116Y-84078536D01*
X98663503Y-83896408D01*
X98188580Y-83895993D01*
X97749650Y-84077355D01*
X97413536Y-84412884D01*
X97231408Y-84851497D01*
X97230993Y-85326420D01*
X97412355Y-85765350D01*
X97747884Y-86101464D01*
X98116953Y-86254715D01*
X98863619Y-87001381D01*
X99201473Y-87227128D01*
X99600000Y-87306400D01*
X100134452Y-87306400D01*
X100172711Y-87509730D01*
X100317346Y-87734499D01*
X100538034Y-87885288D01*
X100800000Y-87938338D01*
X102400000Y-87938338D01*
X102644730Y-87892289D01*
X102869499Y-87747654D01*
X103020288Y-87526966D01*
X103073338Y-87265000D01*
X103073338Y-86106000D01*
X103136462Y-86106000D01*
X103136462Y-86207600D01*
X103182511Y-86452330D01*
X103225600Y-86519292D01*
X103225600Y-86995000D01*
X103295205Y-87344926D01*
X103405324Y-87509730D01*
X103493422Y-87641578D01*
X104128422Y-88276579D01*
X104425075Y-88474796D01*
X104775000Y-88544400D01*
X113665000Y-88544400D01*
X114014926Y-88474795D01*
X114311578Y-88276578D01*
X115581578Y-87006579D01*
X115732973Y-86780000D01*
X115779795Y-86709926D01*
X115849400Y-86360000D01*
X115849400Y-84406740D01*
X126765050Y-84406740D01*
X126765050Y-85270892D01*
X126865590Y-85513617D01*
X127051364Y-85699390D01*
X127294089Y-85799930D01*
X127858520Y-85799930D01*
X128023620Y-85634830D01*
X128023620Y-84241640D01*
X128226820Y-84241640D01*
X128226820Y-85634830D01*
X128391920Y-85799930D01*
X128956351Y-85799930D01*
X129199076Y-85699390D01*
X129384850Y-85513617D01*
X129485390Y-85270892D01*
X129485390Y-84406740D01*
X129320290Y-84241640D01*
X128226820Y-84241640D01*
X128023620Y-84241640D01*
X126930150Y-84241640D01*
X126765050Y-84406740D01*
X115849400Y-84406740D01*
X115849400Y-83009188D01*
X126765050Y-83009188D01*
X126765050Y-83873340D01*
X126930150Y-84038440D01*
X128023620Y-84038440D01*
X128023620Y-82645250D01*
X128226820Y-82645250D01*
X128226820Y-84038440D01*
X129320290Y-84038440D01*
X129485390Y-83873340D01*
X129485390Y-83258660D01*
X156264610Y-83258660D01*
X156264610Y-84122812D01*
X156365150Y-84365537D01*
X156550924Y-84551310D01*
X156793649Y-84651850D01*
X157358080Y-84651850D01*
X157523180Y-84486750D01*
X157523180Y-83093560D01*
X156429710Y-83093560D01*
X156264610Y-83258660D01*
X129485390Y-83258660D01*
X129485390Y-83009188D01*
X129384850Y-82766463D01*
X129199076Y-82580690D01*
X128956351Y-82480150D01*
X128391920Y-82480150D01*
X128226820Y-82645250D01*
X128023620Y-82645250D01*
X127858520Y-82480150D01*
X127294089Y-82480150D01*
X127051364Y-82580690D01*
X126865590Y-82766463D01*
X126765050Y-83009188D01*
X115849400Y-83009188D01*
X115849400Y-82550000D01*
X115835506Y-82480150D01*
X115779796Y-82200075D01*
X115581579Y-81903422D01*
X115214400Y-81536244D01*
X115214400Y-81117191D01*
X129514354Y-81117191D01*
X129730445Y-81640172D01*
X130130223Y-82040649D01*
X130652826Y-82257652D01*
X131218691Y-82258146D01*
X131741672Y-82042055D01*
X132142149Y-81642277D01*
X132359152Y-81119674D01*
X132359154Y-81117191D01*
X153771354Y-81117191D01*
X153987445Y-81640172D01*
X154387223Y-82040649D01*
X154909826Y-82257652D01*
X155475691Y-82258146D01*
X155998672Y-82042055D01*
X156324306Y-81716990D01*
X156264610Y-81861108D01*
X156264610Y-82725260D01*
X156429710Y-82890360D01*
X157523180Y-82890360D01*
X157523180Y-81497170D01*
X157358080Y-81332070D01*
X156793649Y-81332070D01*
X156550924Y-81432610D01*
X156440258Y-81543276D01*
X156616152Y-81119674D01*
X156616646Y-80553809D01*
X156400555Y-80030828D01*
X156000777Y-79630351D01*
X155478174Y-79413348D01*
X154912309Y-79412854D01*
X154389328Y-79628945D01*
X153988851Y-80028723D01*
X153771848Y-80551326D01*
X153771354Y-81117191D01*
X132359154Y-81117191D01*
X132359646Y-80553809D01*
X132143555Y-80030828D01*
X131743777Y-79630351D01*
X131221174Y-79413348D01*
X130655309Y-79412854D01*
X130132328Y-79628945D01*
X129731851Y-80028723D01*
X129514848Y-80551326D01*
X129514354Y-81117191D01*
X115214400Y-81117191D01*
X115214400Y-79341648D01*
X115305789Y-79280584D01*
X115572950Y-78880748D01*
X115906053Y-79309631D01*
X116389537Y-79585007D01*
X116517707Y-79617406D01*
X116738400Y-79485188D01*
X116738400Y-77571600D01*
X116941600Y-77571600D01*
X116941600Y-79485188D01*
X117162293Y-79617406D01*
X117290463Y-79585007D01*
X117773947Y-79309631D01*
X118115246Y-78870195D01*
X118262400Y-78333600D01*
X118262400Y-77571600D01*
X116941600Y-77571600D01*
X116738400Y-77571600D01*
X116718400Y-77571600D01*
X116718400Y-77368400D01*
X116738400Y-77368400D01*
X116738400Y-77348400D01*
X116941600Y-77348400D01*
X116941600Y-77368400D01*
X118262400Y-77368400D01*
X118262400Y-76606400D01*
X118115246Y-76069805D01*
X117781738Y-75640400D01*
X158674600Y-75640400D01*
X158674600Y-81422654D01*
X158674600Y-81422654D01*
G37*
X158674600Y-81422654D02*
X158455911Y-81332070D01*
X157891480Y-81332070D01*
X157726380Y-81497170D01*
X157726380Y-82890360D01*
X157746380Y-82890360D01*
X157746380Y-83093560D01*
X157726380Y-83093560D01*
X157726380Y-84486750D01*
X157891480Y-84651850D01*
X158455911Y-84651850D01*
X158698636Y-84551310D01*
X158884410Y-84365537D01*
X158898051Y-84332605D01*
X159113142Y-84476324D01*
X159385000Y-84530400D01*
X212649600Y-84530400D01*
X212649600Y-135814600D01*
X168350400Y-135814600D01*
X168350400Y-127635000D01*
X168296324Y-127363142D01*
X168155511Y-127152400D01*
X168955822Y-127152400D01*
X174889211Y-133085789D01*
X175350671Y-133394126D01*
X175895000Y-133502400D01*
X203835000Y-133502400D01*
X204379329Y-133394126D01*
X204840789Y-133085789D01*
X207380786Y-130545791D01*
X207380789Y-130545789D01*
X207689126Y-130084329D01*
X207797400Y-129540000D01*
X207797400Y-127614749D01*
X207924131Y-127309547D01*
X207924669Y-126693157D01*
X207797400Y-126385143D01*
X207797400Y-125738131D01*
X207884288Y-125610966D01*
X207937338Y-125349000D01*
X207937338Y-123571000D01*
X207891289Y-123326270D01*
X207746654Y-123101501D01*
X207525966Y-122950712D01*
X207416400Y-122928524D01*
X207416400Y-117380000D01*
X207337128Y-116981473D01*
X207111381Y-116643619D01*
X206873338Y-116405576D01*
X206873338Y-115355000D01*
X206827289Y-115110270D01*
X206682654Y-114885501D01*
X206461966Y-114734712D01*
X206241400Y-114690046D01*
X206241400Y-114545548D01*
X206444730Y-114507289D01*
X206669499Y-114362654D01*
X206820288Y-114141966D01*
X206873338Y-113880000D01*
X206873338Y-112180000D01*
X206827289Y-111935270D01*
X206682654Y-111710501D01*
X206461966Y-111559712D01*
X206241400Y-111515046D01*
X206241400Y-111370548D01*
X206444730Y-111332289D01*
X206669499Y-111187654D01*
X206820288Y-110966966D01*
X206873338Y-110705000D01*
X206873338Y-109005000D01*
X206827289Y-108760270D01*
X206682654Y-108535501D01*
X206461966Y-108384712D01*
X206241400Y-108340046D01*
X206241400Y-108195548D01*
X206444730Y-108157289D01*
X206669499Y-108012654D01*
X206820288Y-107791966D01*
X206873338Y-107530000D01*
X206873338Y-105830000D01*
X206827289Y-105585270D01*
X206682654Y-105360501D01*
X206461966Y-105209712D01*
X206241400Y-105165046D01*
X206241400Y-105020548D01*
X206444730Y-104982289D01*
X206669499Y-104837654D01*
X206820288Y-104616966D01*
X206873338Y-104355000D01*
X206873338Y-102655000D01*
X206827289Y-102410270D01*
X206682654Y-102185501D01*
X206461966Y-102034712D01*
X206200000Y-101981662D01*
X204200000Y-101981662D01*
X203955270Y-102027711D01*
X203730501Y-102172346D01*
X203579712Y-102393034D01*
X203526662Y-102655000D01*
X203526662Y-104355000D01*
X203572711Y-104599730D01*
X203717346Y-104824499D01*
X203938034Y-104975288D01*
X204158600Y-105019954D01*
X204158600Y-105164452D01*
X203955270Y-105202711D01*
X203730501Y-105347346D01*
X203579712Y-105568034D01*
X203526662Y-105830000D01*
X203526662Y-107530000D01*
X203572711Y-107774730D01*
X203717346Y-107999499D01*
X203938034Y-108150288D01*
X204158600Y-108194954D01*
X204158600Y-108339452D01*
X203955270Y-108377711D01*
X203730501Y-108522346D01*
X203579712Y-108743034D01*
X203526662Y-109005000D01*
X203526662Y-110705000D01*
X203572711Y-110949730D01*
X203717346Y-111174499D01*
X203938034Y-111325288D01*
X204158600Y-111369954D01*
X204158600Y-111514452D01*
X203955270Y-111552711D01*
X203730501Y-111697346D01*
X203579712Y-111918034D01*
X203526662Y-112180000D01*
X203526662Y-113880000D01*
X203572711Y-114124730D01*
X203717346Y-114349499D01*
X203938034Y-114500288D01*
X204158600Y-114544954D01*
X204158600Y-114689452D01*
X203955270Y-114727711D01*
X203730501Y-114872346D01*
X203579712Y-115093034D01*
X203526662Y-115355000D01*
X203526662Y-117055000D01*
X203572711Y-117299730D01*
X203717346Y-117524499D01*
X203938034Y-117675288D01*
X204200000Y-117728338D01*
X205250576Y-117728338D01*
X205333600Y-117811362D01*
X205333600Y-122926338D01*
X205241270Y-122943711D01*
X205095362Y-123037600D01*
X204449749Y-123037600D01*
X204144547Y-122910869D01*
X203528157Y-122910331D01*
X202958482Y-123145716D01*
X202564695Y-123538816D01*
X202336400Y-123310121D01*
X202336400Y-120650000D01*
X202257128Y-120251473D01*
X202031381Y-119913619D01*
X201955400Y-119837638D01*
X201955400Y-117728338D01*
X202200000Y-117728338D01*
X202444730Y-117682289D01*
X202669499Y-117537654D01*
X202820288Y-117316966D01*
X202873338Y-117055000D01*
X202873338Y-115355000D01*
X202827289Y-115110270D01*
X202682654Y-114885501D01*
X202461966Y-114734712D01*
X202200000Y-114681662D01*
X200200000Y-114681662D01*
X199955270Y-114727711D01*
X199730501Y-114872346D01*
X199579712Y-115093034D01*
X199565422Y-115163600D01*
X198551362Y-115163600D01*
X198302596Y-114914834D01*
X198314119Y-114897589D01*
X198416456Y-114765728D01*
X198763620Y-114071400D01*
X199562676Y-114071400D01*
X199572711Y-114124730D01*
X199717346Y-114349499D01*
X199938034Y-114500288D01*
X200200000Y-114553338D01*
X202200000Y-114553338D01*
X202444730Y-114507289D01*
X202669499Y-114362654D01*
X202820288Y-114141966D01*
X202873338Y-113880000D01*
X202873338Y-112180000D01*
X202827289Y-111935270D01*
X202682654Y-111710501D01*
X202461966Y-111559712D01*
X202200000Y-111506662D01*
X200200000Y-111506662D01*
X199955270Y-111552711D01*
X199730501Y-111697346D01*
X199579712Y-111918034D01*
X199565422Y-111988600D01*
X198120000Y-111988600D01*
X198045408Y-112003437D01*
X198709631Y-110896400D01*
X199562676Y-110896400D01*
X199572711Y-110949730D01*
X199717346Y-111174499D01*
X199938034Y-111325288D01*
X200200000Y-111378338D01*
X202200000Y-111378338D01*
X202444730Y-111332289D01*
X202669499Y-111187654D01*
X202820288Y-110966966D01*
X202873338Y-110705000D01*
X202873338Y-109005000D01*
X202827289Y-108760270D01*
X202682654Y-108535501D01*
X202461966Y-108384712D01*
X202200000Y-108331662D01*
X200200000Y-108331662D01*
X199955270Y-108377711D01*
X199730501Y-108522346D01*
X199579712Y-108743034D01*
X199565422Y-108813600D01*
X198120000Y-108813600D01*
X197999600Y-108837549D01*
X198697193Y-107721400D01*
X199562676Y-107721400D01*
X199572711Y-107774730D01*
X199717346Y-107999499D01*
X199938034Y-108150288D01*
X200200000Y-108203338D01*
X202200000Y-108203338D01*
X202444730Y-108157289D01*
X202669499Y-108012654D01*
X202820288Y-107791966D01*
X202873338Y-107530000D01*
X202873338Y-105830000D01*
X202827289Y-105585270D01*
X202682654Y-105360501D01*
X202461966Y-105209712D01*
X202200000Y-105156662D01*
X200200000Y-105156662D01*
X199955270Y-105202711D01*
X199730501Y-105347346D01*
X199579712Y-105568034D01*
X199565422Y-105638600D01*
X198120000Y-105638600D01*
X198004025Y-105661669D01*
X197885831Y-105665269D01*
X197806647Y-105700930D01*
X197721473Y-105717872D01*
X197623154Y-105783567D01*
X197515336Y-105832123D01*
X197455827Y-105895371D01*
X197383619Y-105943619D01*
X197317923Y-106041940D01*
X197236895Y-106128059D01*
X194367850Y-110718531D01*
X193192400Y-110718392D01*
X193192400Y-101371400D01*
X194513638Y-101371400D01*
X197383619Y-104241381D01*
X197721473Y-104467128D01*
X198120000Y-104546400D01*
X199562676Y-104546400D01*
X199572711Y-104599730D01*
X199717346Y-104824499D01*
X199938034Y-104975288D01*
X200200000Y-105028338D01*
X202200000Y-105028338D01*
X202444730Y-104982289D01*
X202669499Y-104837654D01*
X202820288Y-104616966D01*
X202873338Y-104355000D01*
X202873338Y-102655000D01*
X202827289Y-102410270D01*
X202682654Y-102185501D01*
X202461966Y-102034712D01*
X202200000Y-101981662D01*
X200200000Y-101981662D01*
X199955270Y-102027711D01*
X199730501Y-102172346D01*
X199579712Y-102393034D01*
X199565422Y-102463600D01*
X198551362Y-102463600D01*
X195681381Y-99593619D01*
X195490984Y-99466400D01*
X196418638Y-99466400D01*
X198018619Y-101066381D01*
X198356473Y-101292128D01*
X198755000Y-101371400D01*
X199562676Y-101371400D01*
X199572711Y-101424730D01*
X199717346Y-101649499D01*
X199938034Y-101800288D01*
X200200000Y-101853338D01*
X202200000Y-101853338D01*
X202444730Y-101807289D01*
X202669499Y-101662654D01*
X202820288Y-101441966D01*
X202873338Y-101180000D01*
X202873338Y-100596700D01*
X203539600Y-100596700D01*
X203539600Y-101311361D01*
X203640140Y-101554086D01*
X203825913Y-101739860D01*
X204068638Y-101840400D01*
X204933300Y-101840400D01*
X205098400Y-101675300D01*
X205098400Y-100431600D01*
X205301600Y-100431600D01*
X205301600Y-101675300D01*
X205466700Y-101840400D01*
X206331362Y-101840400D01*
X206574087Y-101739860D01*
X206759860Y-101554086D01*
X206860400Y-101311361D01*
X206860400Y-100596700D01*
X206695300Y-100431600D01*
X205301600Y-100431600D01*
X205098400Y-100431600D01*
X203704700Y-100431600D01*
X203539600Y-100596700D01*
X202873338Y-100596700D01*
X202873338Y-99480000D01*
X202848621Y-99348639D01*
X203539600Y-99348639D01*
X203539600Y-100063300D01*
X203704700Y-100228400D01*
X205098400Y-100228400D01*
X205098400Y-98984700D01*
X205301600Y-98984700D01*
X205301600Y-100228400D01*
X206695300Y-100228400D01*
X206860400Y-100063300D01*
X206860400Y-99348639D01*
X206759860Y-99105914D01*
X206574087Y-98920140D01*
X206331362Y-98819600D01*
X205466700Y-98819600D01*
X205301600Y-98984700D01*
X205098400Y-98984700D01*
X204933300Y-98819600D01*
X204068638Y-98819600D01*
X203825913Y-98920140D01*
X203640140Y-99105914D01*
X203539600Y-99348639D01*
X202848621Y-99348639D01*
X202827289Y-99235270D01*
X202682654Y-99010501D01*
X202461966Y-98859712D01*
X202200000Y-98806662D01*
X200200000Y-98806662D01*
X199955270Y-98852711D01*
X199730501Y-98997346D01*
X199579712Y-99218034D01*
X199565422Y-99288600D01*
X199186362Y-99288600D01*
X197586381Y-97688619D01*
X197498485Y-97629889D01*
X197395984Y-97561400D01*
X198323638Y-97561400D01*
X198653619Y-97891381D01*
X198991474Y-98117129D01*
X199390000Y-98196400D01*
X199562676Y-98196400D01*
X199572711Y-98249730D01*
X199717346Y-98474499D01*
X199938034Y-98625288D01*
X200200000Y-98678338D01*
X202200000Y-98678338D01*
X202444730Y-98632289D01*
X202669499Y-98487654D01*
X202820288Y-98266966D01*
X202873338Y-98005000D01*
X202873338Y-97421700D01*
X203539600Y-97421700D01*
X203539600Y-98136361D01*
X203640140Y-98379086D01*
X203825913Y-98564860D01*
X204068638Y-98665400D01*
X204933300Y-98665400D01*
X205098400Y-98500300D01*
X205098400Y-97256600D01*
X205301600Y-97256600D01*
X205301600Y-98500300D01*
X205466700Y-98665400D01*
X206331362Y-98665400D01*
X206574087Y-98564860D01*
X206759860Y-98379086D01*
X206860400Y-98136361D01*
X206860400Y-97421700D01*
X206695300Y-97256600D01*
X205301600Y-97256600D01*
X205098400Y-97256600D01*
X203704700Y-97256600D01*
X203539600Y-97421700D01*
X202873338Y-97421700D01*
X202873338Y-96305000D01*
X202848621Y-96173639D01*
X203539600Y-96173639D01*
X203539600Y-96888300D01*
X203704700Y-97053400D01*
X205098400Y-97053400D01*
X205098400Y-95809700D01*
X205301600Y-95809700D01*
X205301600Y-97053400D01*
X206695300Y-97053400D01*
X206860400Y-96888300D01*
X206860400Y-96173639D01*
X206759860Y-95930914D01*
X206574087Y-95745140D01*
X206331362Y-95644600D01*
X205466700Y-95644600D01*
X205301600Y-95809700D01*
X205098400Y-95809700D01*
X204933300Y-95644600D01*
X204068638Y-95644600D01*
X203825913Y-95745140D01*
X203640140Y-95930914D01*
X203539600Y-96173639D01*
X202848621Y-96173639D01*
X202827289Y-96060270D01*
X202682654Y-95835501D01*
X202461966Y-95684712D01*
X202200000Y-95631662D01*
X200200000Y-95631662D01*
X199955270Y-95677711D01*
X199730501Y-95822346D01*
X199649158Y-95941396D01*
X199491381Y-95783619D01*
X199343356Y-95684712D01*
X199153527Y-95557872D01*
X198755000Y-95478600D01*
X177165000Y-95478600D01*
X176766473Y-95557872D01*
X176576644Y-95684712D01*
X176428619Y-95783619D01*
X174828638Y-97383600D01*
X172572288Y-97383600D01*
X172230163Y-97155000D01*
X172572288Y-96926400D01*
X174625000Y-96926400D01*
X175023527Y-96847128D01*
X175361381Y-96621381D01*
X176961362Y-95021400D01*
X199562676Y-95021400D01*
X199572711Y-95074730D01*
X199717346Y-95299499D01*
X199938034Y-95450288D01*
X200200000Y-95503338D01*
X202200000Y-95503338D01*
X202444730Y-95457289D01*
X202669499Y-95312654D01*
X202820288Y-95091966D01*
X202873338Y-94830000D01*
X202873338Y-94246700D01*
X203539600Y-94246700D01*
X203539600Y-94961361D01*
X203640140Y-95204086D01*
X203825913Y-95389860D01*
X204068638Y-95490400D01*
X204933300Y-95490400D01*
X205098400Y-95325300D01*
X205098400Y-94081600D01*
X205301600Y-94081600D01*
X205301600Y-95325300D01*
X205466700Y-95490400D01*
X206331362Y-95490400D01*
X206574087Y-95389860D01*
X206759860Y-95204086D01*
X206860400Y-94961361D01*
X206860400Y-94246700D01*
X206695300Y-94081600D01*
X205301600Y-94081600D01*
X205098400Y-94081600D01*
X203704700Y-94081600D01*
X203539600Y-94246700D01*
X202873338Y-94246700D01*
X202873338Y-93130000D01*
X202848621Y-92998639D01*
X203539600Y-92998639D01*
X203539600Y-93713300D01*
X203704700Y-93878400D01*
X205098400Y-93878400D01*
X205098400Y-92634700D01*
X205301600Y-92634700D01*
X205301600Y-93878400D01*
X206695300Y-93878400D01*
X206860400Y-93713300D01*
X206860400Y-92998639D01*
X206759860Y-92755914D01*
X206574087Y-92570140D01*
X206331362Y-92469600D01*
X205466700Y-92469600D01*
X205301600Y-92634700D01*
X205098400Y-92634700D01*
X204933300Y-92469600D01*
X204068638Y-92469600D01*
X203825913Y-92570140D01*
X203640140Y-92755914D01*
X203539600Y-92998639D01*
X202848621Y-92998639D01*
X202827289Y-92885270D01*
X202682654Y-92660501D01*
X202461966Y-92509712D01*
X202200000Y-92456662D01*
X200200000Y-92456662D01*
X199955270Y-92502711D01*
X199730501Y-92647346D01*
X199579712Y-92868034D01*
X199565422Y-92938600D01*
X176530000Y-92938600D01*
X176131473Y-93017872D01*
X175793619Y-93243619D01*
X174193638Y-94843600D01*
X172572288Y-94843600D01*
X172230163Y-94615000D01*
X172572288Y-94386400D01*
X173990000Y-94386400D01*
X174388527Y-94307128D01*
X174726381Y-94081381D01*
X176961362Y-91846400D01*
X199562676Y-91846400D01*
X199572711Y-91899730D01*
X199717346Y-92124499D01*
X199938034Y-92275288D01*
X200200000Y-92328338D01*
X202200000Y-92328338D01*
X202444730Y-92282289D01*
X202669499Y-92137654D01*
X202820288Y-91916966D01*
X202873338Y-91655000D01*
X202873338Y-91071700D01*
X203539600Y-91071700D01*
X203539600Y-91786361D01*
X203640140Y-92029086D01*
X203825913Y-92214860D01*
X204068638Y-92315400D01*
X204933300Y-92315400D01*
X205098400Y-92150300D01*
X205098400Y-90906600D01*
X205301600Y-90906600D01*
X205301600Y-92150300D01*
X205466700Y-92315400D01*
X206331362Y-92315400D01*
X206574087Y-92214860D01*
X206759860Y-92029086D01*
X206860400Y-91786361D01*
X206860400Y-91071700D01*
X206695300Y-90906600D01*
X205301600Y-90906600D01*
X205098400Y-90906600D01*
X203704700Y-90906600D01*
X203539600Y-91071700D01*
X202873338Y-91071700D01*
X202873338Y-89955000D01*
X202848621Y-89823639D01*
X203539600Y-89823639D01*
X203539600Y-90538300D01*
X203704700Y-90703400D01*
X205098400Y-90703400D01*
X205098400Y-89459700D01*
X205301600Y-89459700D01*
X205301600Y-90703400D01*
X206695300Y-90703400D01*
X206860400Y-90538300D01*
X206860400Y-89823639D01*
X206759860Y-89580914D01*
X206574087Y-89395140D01*
X206331362Y-89294600D01*
X205466700Y-89294600D01*
X205301600Y-89459700D01*
X205098400Y-89459700D01*
X204933300Y-89294600D01*
X204068638Y-89294600D01*
X203825913Y-89395140D01*
X203640140Y-89580914D01*
X203539600Y-89823639D01*
X202848621Y-89823639D01*
X202827289Y-89710270D01*
X202682654Y-89485501D01*
X202461966Y-89334712D01*
X202200000Y-89281662D01*
X200200000Y-89281662D01*
X199955270Y-89327711D01*
X199730501Y-89472346D01*
X199579712Y-89693034D01*
X199565422Y-89763600D01*
X176530000Y-89763600D01*
X176131473Y-89842872D01*
X175963662Y-89955000D01*
X175793619Y-90068619D01*
X173558638Y-92303600D01*
X172572288Y-92303600D01*
X172230163Y-92075000D01*
X172572288Y-91846400D01*
X173355000Y-91846400D01*
X173753527Y-91767128D01*
X174091381Y-91541381D01*
X176961362Y-88671400D01*
X199562676Y-88671400D01*
X199572711Y-88724730D01*
X199717346Y-88949499D01*
X199938034Y-89100288D01*
X200200000Y-89153338D01*
X202200000Y-89153338D01*
X202444730Y-89107289D01*
X202669499Y-88962654D01*
X202820288Y-88741966D01*
X202873338Y-88480000D01*
X202873338Y-87896700D01*
X203539600Y-87896700D01*
X203539600Y-88611361D01*
X203640140Y-88854086D01*
X203825913Y-89039860D01*
X204068638Y-89140400D01*
X204933300Y-89140400D01*
X205098400Y-88975300D01*
X205098400Y-87731600D01*
X205301600Y-87731600D01*
X205301600Y-88975300D01*
X205466700Y-89140400D01*
X206331362Y-89140400D01*
X206574087Y-89039860D01*
X206759860Y-88854086D01*
X206860400Y-88611361D01*
X206860400Y-87896700D01*
X206695300Y-87731600D01*
X205301600Y-87731600D01*
X205098400Y-87731600D01*
X203704700Y-87731600D01*
X203539600Y-87896700D01*
X202873338Y-87896700D01*
X202873338Y-86780000D01*
X202848621Y-86648639D01*
X203539600Y-86648639D01*
X203539600Y-87363300D01*
X203704700Y-87528400D01*
X205098400Y-87528400D01*
X205098400Y-86284700D01*
X205301600Y-86284700D01*
X205301600Y-87528400D01*
X206695300Y-87528400D01*
X206860400Y-87363300D01*
X206860400Y-86648639D01*
X206759860Y-86405914D01*
X206574087Y-86220140D01*
X206331362Y-86119600D01*
X205466700Y-86119600D01*
X205301600Y-86284700D01*
X205098400Y-86284700D01*
X204933300Y-86119600D01*
X204068638Y-86119600D01*
X203825913Y-86220140D01*
X203640140Y-86405914D01*
X203539600Y-86648639D01*
X202848621Y-86648639D01*
X202827289Y-86535270D01*
X202682654Y-86310501D01*
X202461966Y-86159712D01*
X202200000Y-86106662D01*
X200200000Y-86106662D01*
X199955270Y-86152711D01*
X199730501Y-86297346D01*
X199579712Y-86518034D01*
X199565422Y-86588600D01*
X176530000Y-86588600D01*
X176131473Y-86667872D01*
X175881515Y-86834889D01*
X175793619Y-86893619D01*
X172923638Y-89763600D01*
X172572288Y-89763600D01*
X172164124Y-89490874D01*
X171619795Y-89382600D01*
X170010205Y-89382600D01*
X169465876Y-89490874D01*
X169004416Y-89799211D01*
X168696079Y-90260671D01*
X168587805Y-90805000D01*
X168696079Y-91349329D01*
X169004416Y-91810789D01*
X169399837Y-92075000D01*
X169004416Y-92339211D01*
X168696079Y-92800671D01*
X168587805Y-93345000D01*
X168696079Y-93889329D01*
X169004416Y-94350789D01*
X169399837Y-94615000D01*
X169004416Y-94879211D01*
X168696079Y-95340671D01*
X168587805Y-95885000D01*
X168696079Y-96429329D01*
X169004416Y-96890789D01*
X169399837Y-97155000D01*
X169004416Y-97419211D01*
X168696079Y-97880671D01*
X168587805Y-98425000D01*
X168696079Y-98969329D01*
X169004416Y-99430789D01*
X169399837Y-99695000D01*
X169004416Y-99959211D01*
X168696079Y-100420671D01*
X168587805Y-100965000D01*
X168696079Y-101509329D01*
X169004416Y-101970789D01*
X169399837Y-102235000D01*
X169057712Y-102463600D01*
X165735000Y-102463600D01*
X165336473Y-102542872D01*
X165168662Y-102655000D01*
X164998619Y-102768619D01*
X160858638Y-106908600D01*
X159486600Y-106908600D01*
X159296255Y-106946462D01*
X158470600Y-106946462D01*
X158225870Y-106992511D01*
X158001101Y-107137146D01*
X157850312Y-107357834D01*
X157797262Y-107619800D01*
X157797262Y-108111847D01*
X157591503Y-108026408D01*
X157116580Y-108025993D01*
X156817036Y-108149762D01*
X156802496Y-106578998D01*
X156894129Y-106520034D01*
X157044918Y-106299346D01*
X157097968Y-106037380D01*
X157097968Y-104239060D01*
X157051919Y-103994330D01*
X156907284Y-103769561D01*
X156686596Y-103618772D01*
X156424630Y-103565722D01*
X155324810Y-103565722D01*
X155080080Y-103611771D01*
X154855311Y-103756406D01*
X154704522Y-103977094D01*
X154651472Y-104239060D01*
X154651472Y-106037380D01*
X154697521Y-106282110D01*
X154842156Y-106506879D01*
X154973782Y-106596815D01*
X155031013Y-112779573D01*
X155002654Y-112735501D01*
X154781966Y-112584712D01*
X154520000Y-112531662D01*
X152820000Y-112531662D01*
X152575270Y-112577711D01*
X152350501Y-112722346D01*
X152199712Y-112943034D01*
X152146662Y-113205000D01*
X152146662Y-113510060D01*
X151364090Y-113510060D01*
X151336919Y-113365660D01*
X151192284Y-113140891D01*
X151028657Y-113029090D01*
X151179129Y-112932264D01*
X151329918Y-112711576D01*
X151382968Y-112449610D01*
X151382968Y-110948470D01*
X151361140Y-110832464D01*
X151361140Y-108922214D01*
X151624997Y-108658357D01*
X151809449Y-108382305D01*
X151874220Y-108056680D01*
X151874220Y-106564187D01*
X152011034Y-106657668D01*
X152273000Y-106710718D01*
X153172160Y-106710718D01*
X153416890Y-106664669D01*
X153641659Y-106520034D01*
X153792448Y-106299346D01*
X153845498Y-106037380D01*
X153845498Y-104239060D01*
X153799449Y-103994330D01*
X153654814Y-103769561D01*
X153434126Y-103618772D01*
X153172160Y-103565722D01*
X152273000Y-103565722D01*
X152028270Y-103611771D01*
X151871892Y-103712398D01*
X151734866Y-103618772D01*
X151472900Y-103565722D01*
X150573740Y-103565722D01*
X150329010Y-103611771D01*
X150104241Y-103756406D01*
X149953452Y-103977094D01*
X149900402Y-104239060D01*
X149900402Y-106037380D01*
X149946451Y-106282110D01*
X150091086Y-106506879D01*
X150172420Y-106562452D01*
X150172420Y-107704226D01*
X149908563Y-107968083D01*
X149724111Y-108244134D01*
X149689069Y-108420301D01*
X149659340Y-108569760D01*
X149659340Y-109085986D01*
X149191677Y-108618323D01*
X148915626Y-108433871D01*
X148590000Y-108369100D01*
X148157401Y-108369100D01*
X147997116Y-108208536D01*
X147558503Y-108026408D01*
X147083580Y-108025993D01*
X146914628Y-108095802D01*
X146954240Y-107896660D01*
X146954240Y-106563906D01*
X147022419Y-106520034D01*
X147173208Y-106299346D01*
X147226258Y-106037380D01*
X147226258Y-105404920D01*
X147492720Y-105404920D01*
X147492720Y-106168742D01*
X147593260Y-106411467D01*
X147779034Y-106597240D01*
X148021759Y-106697780D01*
X148336000Y-106697780D01*
X148501100Y-106532680D01*
X148501100Y-105239820D01*
X148704300Y-105239820D01*
X148704300Y-106532680D01*
X148869400Y-106697780D01*
X149183641Y-106697780D01*
X149426366Y-106597240D01*
X149612140Y-106411467D01*
X149712680Y-106168742D01*
X149712680Y-105404920D01*
X149547580Y-105239820D01*
X148704300Y-105239820D01*
X148501100Y-105239820D01*
X147657820Y-105239820D01*
X147492720Y-105404920D01*
X147226258Y-105404920D01*
X147226258Y-104239060D01*
X147201541Y-104107698D01*
X147492720Y-104107698D01*
X147492720Y-104871520D01*
X147657820Y-105036620D01*
X148501100Y-105036620D01*
X148501100Y-103743760D01*
X148704300Y-103743760D01*
X148704300Y-105036620D01*
X149547580Y-105036620D01*
X149712680Y-104871520D01*
X149712680Y-104107698D01*
X149612140Y-103864973D01*
X149426366Y-103679200D01*
X149183641Y-103578660D01*
X148869400Y-103578660D01*
X148704300Y-103743760D01*
X148501100Y-103743760D01*
X148336000Y-103578660D01*
X148021759Y-103578660D01*
X147779034Y-103679200D01*
X147593260Y-103864973D01*
X147492720Y-104107698D01*
X147201541Y-104107698D01*
X147180209Y-103994330D01*
X147035574Y-103769561D01*
X146814886Y-103618772D01*
X146552920Y-103565722D01*
X145653760Y-103565722D01*
X145409030Y-103611771D01*
X145184261Y-103756406D01*
X145033472Y-103977094D01*
X144980422Y-104239060D01*
X144980422Y-106037380D01*
X145026471Y-106282110D01*
X145171106Y-106506879D01*
X145252440Y-106562452D01*
X145252440Y-107544206D01*
X144703675Y-108092971D01*
X144704007Y-107713580D01*
X144522645Y-107274650D01*
X144454880Y-107206767D01*
X144454880Y-106563906D01*
X144523059Y-106520034D01*
X144673848Y-106299346D01*
X144726898Y-106037380D01*
X144726898Y-104239060D01*
X144680849Y-103994330D01*
X144536214Y-103769561D01*
X144315526Y-103618772D01*
X144053560Y-103565722D01*
X143154400Y-103565722D01*
X142909670Y-103611771D01*
X142728973Y-103728047D01*
X142680126Y-103679200D01*
X142437401Y-103578660D01*
X142123160Y-103578660D01*
X141958060Y-103743760D01*
X141958060Y-105036620D01*
X141978060Y-105036620D01*
X141978060Y-105239820D01*
X141958060Y-105239820D01*
X141958060Y-106532680D01*
X142123160Y-106697780D01*
X142437401Y-106697780D01*
X142680126Y-106597240D01*
X142730406Y-106546960D01*
X142753080Y-106562452D01*
X142753080Y-107018783D01*
X142498536Y-107272884D01*
X142316408Y-107711497D01*
X142315993Y-108186420D01*
X142497355Y-108625350D01*
X142643860Y-108772110D01*
X142643860Y-110840681D01*
X142622032Y-110948470D01*
X142622032Y-112449610D01*
X142668081Y-112694340D01*
X142812716Y-112919109D01*
X142824520Y-112927174D01*
X142708631Y-113100614D01*
X142659339Y-113348424D01*
X142643860Y-113426240D01*
X142643860Y-113502601D01*
X142622032Y-113610390D01*
X142622032Y-115111530D01*
X142668081Y-115356260D01*
X142812716Y-115581029D01*
X143033404Y-115731818D01*
X143295370Y-115784868D01*
X143694150Y-115784868D01*
X143798212Y-115765288D01*
X143814248Y-115771930D01*
X143880205Y-115771930D01*
X143907391Y-115744744D01*
X143938880Y-115738819D01*
X143944340Y-115735306D01*
X143944340Y-118775183D01*
X141269720Y-116100564D01*
X141269720Y-106695378D01*
X141275519Y-106697780D01*
X141589760Y-106697780D01*
X141754860Y-106532680D01*
X141754860Y-105239820D01*
X141734860Y-105239820D01*
X141734860Y-105036620D01*
X141754860Y-105036620D01*
X141754860Y-103743760D01*
X141589760Y-103578660D01*
X141275519Y-103578660D01*
X141109067Y-103647607D01*
X141066866Y-103618772D01*
X140804900Y-103565722D01*
X139905740Y-103565722D01*
X139661010Y-103611771D01*
X139478470Y-103729232D01*
X139316806Y-103618772D01*
X139054840Y-103565722D01*
X138155680Y-103565722D01*
X137910950Y-103611771D01*
X137686181Y-103756406D01*
X137535392Y-103977094D01*
X137482342Y-104239060D01*
X137482342Y-106037380D01*
X137528391Y-106282110D01*
X137673026Y-106506879D01*
X137754360Y-106562452D01*
X137754360Y-107539173D01*
X137398503Y-107391408D01*
X136956800Y-107391022D01*
X136956800Y-106563906D01*
X137024979Y-106520034D01*
X137175768Y-106299346D01*
X137228818Y-106037380D01*
X137228818Y-104239060D01*
X137182769Y-103994330D01*
X137038134Y-103769561D01*
X136817446Y-103618772D01*
X136555480Y-103565722D01*
X135656320Y-103565722D01*
X135411590Y-103611771D01*
X135186821Y-103756406D01*
X135036032Y-103977094D01*
X134982982Y-104239060D01*
X134982982Y-106037380D01*
X135029031Y-106282110D01*
X135173666Y-106506879D01*
X135255000Y-106562452D01*
X135255000Y-107381646D01*
X132915660Y-109720986D01*
X132915660Y-109437614D01*
X133091464Y-109262116D01*
X133273592Y-108823503D01*
X133274007Y-108348580D01*
X133092645Y-107909650D01*
X132757116Y-107573536D01*
X132318503Y-107391408D01*
X131843580Y-107390993D01*
X131474242Y-107543600D01*
X129992916Y-107543600D01*
X129992289Y-107540270D01*
X129847654Y-107315501D01*
X129626966Y-107164712D01*
X129365000Y-107111662D01*
X127365000Y-107111662D01*
X127120270Y-107157711D01*
X126895501Y-107302346D01*
X126744712Y-107523034D01*
X126691662Y-107785000D01*
X126691662Y-109385000D01*
X126737711Y-109629730D01*
X126882346Y-109854499D01*
X127103034Y-110005288D01*
X127296126Y-110044391D01*
X127238690Y-113115726D01*
X126894337Y-113356773D01*
X126742645Y-112989650D01*
X126407116Y-112653536D01*
X126038047Y-112500285D01*
X124561381Y-111023619D01*
X124450798Y-110949730D01*
X124223527Y-110797872D01*
X123825000Y-110718600D01*
X118715022Y-110718600D01*
X118348503Y-110566408D01*
X117873580Y-110565993D01*
X117434650Y-110747355D01*
X117098536Y-111082884D01*
X116916408Y-111521497D01*
X116915993Y-111996420D01*
X117097355Y-112435350D01*
X117432884Y-112771464D01*
X117651317Y-112862165D01*
X117595270Y-112872711D01*
X117370501Y-113017346D01*
X117219712Y-113238034D01*
X117166662Y-113500000D01*
X117166662Y-115100000D01*
X117212711Y-115344730D01*
X117357346Y-115569499D01*
X117578034Y-115720288D01*
X117798600Y-115764954D01*
X117798600Y-119488638D01*
X115725576Y-121561662D01*
X114135000Y-121561662D01*
X113890270Y-121607711D01*
X113665501Y-121752346D01*
X113514712Y-121973034D01*
X113461662Y-122235000D01*
X113461662Y-122368301D01*
X111531400Y-122128117D01*
X111531400Y-121890022D01*
X111683592Y-121523503D01*
X111684007Y-121048580D01*
X111502645Y-120609650D01*
X111167116Y-120273536D01*
X110728503Y-120091408D01*
X110253580Y-120090993D01*
X109814650Y-120272355D01*
X109478536Y-120607884D01*
X109372400Y-120863488D01*
X109372400Y-118851700D01*
X113474600Y-118851700D01*
X113474600Y-120466362D01*
X113575140Y-120709087D01*
X113760914Y-120894860D01*
X114003639Y-120995400D01*
X114668300Y-120995400D01*
X114833400Y-120830300D01*
X114833400Y-118686600D01*
X115036600Y-118686600D01*
X115036600Y-120830300D01*
X115201700Y-120995400D01*
X115866361Y-120995400D01*
X116109086Y-120894860D01*
X116294860Y-120709087D01*
X116395400Y-120466362D01*
X116395400Y-118851700D01*
X116230300Y-118686600D01*
X115036600Y-118686600D01*
X114833400Y-118686600D01*
X113639700Y-118686600D01*
X113474600Y-118851700D01*
X109372400Y-118851700D01*
X109372400Y-118110000D01*
X109361977Y-118054609D01*
X109329242Y-118003736D01*
X109279292Y-117969607D01*
X109220000Y-117957600D01*
X108599586Y-117957600D01*
X108609954Y-117906400D01*
X111850185Y-117906400D01*
X112156497Y-118033592D01*
X112631420Y-118034007D01*
X113070350Y-117852645D01*
X113406464Y-117517116D01*
X113474600Y-117353026D01*
X113474600Y-118318300D01*
X113639700Y-118483400D01*
X114833400Y-118483400D01*
X114833400Y-116339700D01*
X115036600Y-116339700D01*
X115036600Y-118483400D01*
X116230300Y-118483400D01*
X116395400Y-118318300D01*
X116395400Y-116703638D01*
X116294860Y-116460913D01*
X116109086Y-116275140D01*
X115866361Y-116174600D01*
X115201700Y-116174600D01*
X115036600Y-116339700D01*
X114833400Y-116339700D01*
X114668300Y-116174600D01*
X114003639Y-116174600D01*
X113760914Y-116275140D01*
X113575140Y-116460913D01*
X113552571Y-116515399D01*
X113407645Y-116164650D01*
X113072116Y-115828536D01*
X112633503Y-115646408D01*
X112158580Y-115645993D01*
X111728738Y-115823600D01*
X108610548Y-115823600D01*
X108572289Y-115620270D01*
X108427654Y-115395501D01*
X108206966Y-115244712D01*
X107945000Y-115191662D01*
X104145000Y-115191662D01*
X103900270Y-115237711D01*
X103675501Y-115382346D01*
X103524712Y-115603034D01*
X103480046Y-115823600D01*
X101575000Y-115823600D01*
X101176474Y-115902871D01*
X100838619Y-116128619D01*
X100058638Y-116908600D01*
X99263338Y-116908600D01*
X99263338Y-116200000D01*
X99217289Y-115955270D01*
X99072654Y-115730501D01*
X98851966Y-115579712D01*
X98831400Y-115575547D01*
X98831400Y-115570000D01*
X98752128Y-115171473D01*
X98526381Y-114833619D01*
X98259462Y-114566700D01*
X113179600Y-114566700D01*
X113179600Y-115231361D01*
X113280140Y-115474086D01*
X113465913Y-115659860D01*
X113708638Y-115760400D01*
X114573300Y-115760400D01*
X114738400Y-115595300D01*
X114738400Y-114401600D01*
X114941600Y-114401600D01*
X114941600Y-115595300D01*
X115106700Y-115760400D01*
X115971362Y-115760400D01*
X116214087Y-115659860D01*
X116399860Y-115474086D01*
X116500400Y-115231361D01*
X116500400Y-114566700D01*
X116335300Y-114401600D01*
X114941600Y-114401600D01*
X114738400Y-114401600D01*
X113344700Y-114401600D01*
X113179600Y-114566700D01*
X98259462Y-114566700D01*
X97061401Y-113368639D01*
X113179600Y-113368639D01*
X113179600Y-114033300D01*
X113344700Y-114198400D01*
X114738400Y-114198400D01*
X114738400Y-113004700D01*
X114941600Y-113004700D01*
X114941600Y-114198400D01*
X116335300Y-114198400D01*
X116500400Y-114033300D01*
X116500400Y-113368639D01*
X116399860Y-113125914D01*
X116214087Y-112940140D01*
X115971362Y-112839600D01*
X115106700Y-112839600D01*
X114941600Y-113004700D01*
X114738400Y-113004700D01*
X114573300Y-112839600D01*
X113708638Y-112839600D01*
X113465913Y-112940140D01*
X113280140Y-113125914D01*
X113179600Y-113368639D01*
X97061401Y-113368639D01*
X96291400Y-112598638D01*
X96291400Y-112026700D01*
X96669600Y-112026700D01*
X96669600Y-112741361D01*
X96770140Y-112984086D01*
X96955913Y-113169860D01*
X97198638Y-113270400D01*
X98063300Y-113270400D01*
X98228400Y-113105300D01*
X98228400Y-111861600D01*
X98431600Y-111861600D01*
X98431600Y-113105300D01*
X98596700Y-113270400D01*
X99461362Y-113270400D01*
X99704087Y-113169860D01*
X99889860Y-112984086D01*
X99990400Y-112741361D01*
X99990400Y-112026700D01*
X99825300Y-111861600D01*
X98431600Y-111861600D01*
X98228400Y-111861600D01*
X96834700Y-111861600D01*
X96669600Y-112026700D01*
X96291400Y-112026700D01*
X96291400Y-111587324D01*
X96344730Y-111577289D01*
X96569499Y-111432654D01*
X96669600Y-111286151D01*
X96669600Y-111493300D01*
X96834700Y-111658400D01*
X98228400Y-111658400D01*
X98228400Y-111638400D01*
X98431600Y-111638400D01*
X98431600Y-111658400D01*
X99825300Y-111658400D01*
X99990400Y-111493300D01*
X99990400Y-110910000D01*
X100656662Y-110910000D01*
X100656662Y-112610000D01*
X100702711Y-112854730D01*
X100847346Y-113079499D01*
X101068034Y-113230288D01*
X101330000Y-113283338D01*
X103330000Y-113283338D01*
X103574730Y-113237289D01*
X103799499Y-113092654D01*
X103950288Y-112871966D01*
X104003338Y-112610000D01*
X104003338Y-110910000D01*
X103957289Y-110665270D01*
X103812654Y-110440501D01*
X103711196Y-110371178D01*
X103864730Y-110342289D01*
X104089499Y-110197654D01*
X104240288Y-109976966D01*
X104293338Y-109715000D01*
X104293338Y-108215000D01*
X105256662Y-108215000D01*
X105256662Y-109715000D01*
X105302711Y-109959730D01*
X105447346Y-110184499D01*
X105668034Y-110335288D01*
X105839578Y-110370027D01*
X105750501Y-110427346D01*
X105599712Y-110648034D01*
X105546662Y-110910000D01*
X105546662Y-112610000D01*
X105592711Y-112854730D01*
X105737346Y-113079499D01*
X105958034Y-113230288D01*
X106220000Y-113283338D01*
X108220000Y-113283338D01*
X108464730Y-113237289D01*
X108689499Y-113092654D01*
X108840288Y-112871966D01*
X108893338Y-112610000D01*
X108893338Y-112026700D01*
X109559600Y-112026700D01*
X109559600Y-112741361D01*
X109660140Y-112984086D01*
X109845913Y-113169860D01*
X110088638Y-113270400D01*
X110953300Y-113270400D01*
X111118400Y-113105300D01*
X111118400Y-111861600D01*
X111321600Y-111861600D01*
X111321600Y-113105300D01*
X111486700Y-113270400D01*
X112351362Y-113270400D01*
X112594087Y-113169860D01*
X112779860Y-112984086D01*
X112880400Y-112741361D01*
X112880400Y-112026700D01*
X112715300Y-111861600D01*
X111321600Y-111861600D01*
X111118400Y-111861600D01*
X109724700Y-111861600D01*
X109559600Y-112026700D01*
X108893338Y-112026700D01*
X108893338Y-110910000D01*
X108868621Y-110778639D01*
X109559600Y-110778639D01*
X109559600Y-111493300D01*
X109724700Y-111658400D01*
X111118400Y-111658400D01*
X111118400Y-110414700D01*
X111321600Y-110414700D01*
X111321600Y-111658400D01*
X112715300Y-111658400D01*
X112880400Y-111493300D01*
X112880400Y-110778639D01*
X112779860Y-110535914D01*
X112594087Y-110350140D01*
X112351362Y-110249600D01*
X111486700Y-110249600D01*
X111321600Y-110414700D01*
X111118400Y-110414700D01*
X110953300Y-110249600D01*
X110088638Y-110249600D01*
X109845913Y-110350140D01*
X109660140Y-110535914D01*
X109559600Y-110778639D01*
X108868621Y-110778639D01*
X108847289Y-110665270D01*
X108702654Y-110440501D01*
X108481966Y-110289712D01*
X108220000Y-110236662D01*
X108036849Y-110236662D01*
X107995924Y-110056530D01*
X108050288Y-109976966D01*
X108103338Y-109715000D01*
X108103338Y-108215000D01*
X108057289Y-107970270D01*
X107938071Y-107785000D01*
X109356662Y-107785000D01*
X109356662Y-109385000D01*
X109402711Y-109629730D01*
X109547346Y-109854499D01*
X109768034Y-110005288D01*
X110030000Y-110058338D01*
X112030000Y-110058338D01*
X112274730Y-110012289D01*
X112499499Y-109867654D01*
X112650288Y-109646966D01*
X112703338Y-109385000D01*
X112703338Y-108851700D01*
X113369600Y-108851700D01*
X113369600Y-109516361D01*
X113470140Y-109759086D01*
X113655913Y-109944860D01*
X113898638Y-110045400D01*
X114763300Y-110045400D01*
X114928400Y-109880300D01*
X114928400Y-108686600D01*
X115131600Y-108686600D01*
X115131600Y-109880300D01*
X115296700Y-110045400D01*
X116161362Y-110045400D01*
X116404087Y-109944860D01*
X116589860Y-109759086D01*
X116690400Y-109516361D01*
X116690400Y-108851700D01*
X122704600Y-108851700D01*
X122704600Y-109516361D01*
X122805140Y-109759086D01*
X122990913Y-109944860D01*
X123233638Y-110045400D01*
X124098300Y-110045400D01*
X124263400Y-109880300D01*
X124263400Y-108686600D01*
X124466600Y-108686600D01*
X124466600Y-109880300D01*
X124631700Y-110045400D01*
X125496362Y-110045400D01*
X125739087Y-109944860D01*
X125924860Y-109759086D01*
X126025400Y-109516361D01*
X126025400Y-108851700D01*
X125860300Y-108686600D01*
X124466600Y-108686600D01*
X124263400Y-108686600D01*
X122869700Y-108686600D01*
X122704600Y-108851700D01*
X116690400Y-108851700D01*
X116525300Y-108686600D01*
X115131600Y-108686600D01*
X114928400Y-108686600D01*
X113534700Y-108686600D01*
X113369600Y-108851700D01*
X112703338Y-108851700D01*
X112703338Y-107785000D01*
X112678621Y-107653639D01*
X113369600Y-107653639D01*
X113369600Y-108318300D01*
X113534700Y-108483400D01*
X114928400Y-108483400D01*
X114928400Y-107289700D01*
X115131600Y-107289700D01*
X115131600Y-108483400D01*
X116525300Y-108483400D01*
X116690400Y-108318300D01*
X116690400Y-107653639D01*
X122704600Y-107653639D01*
X122704600Y-108318300D01*
X122869700Y-108483400D01*
X124263400Y-108483400D01*
X124263400Y-107289700D01*
X124466600Y-107289700D01*
X124466600Y-108483400D01*
X125860300Y-108483400D01*
X126025400Y-108318300D01*
X126025400Y-107653639D01*
X125924860Y-107410914D01*
X125739087Y-107225140D01*
X125496362Y-107124600D01*
X124631700Y-107124600D01*
X124466600Y-107289700D01*
X124263400Y-107289700D01*
X124098300Y-107124600D01*
X123233638Y-107124600D01*
X122990913Y-107225140D01*
X122805140Y-107410914D01*
X122704600Y-107653639D01*
X116690400Y-107653639D01*
X116589860Y-107410914D01*
X116404087Y-107225140D01*
X116161362Y-107124600D01*
X115296700Y-107124600D01*
X115131600Y-107289700D01*
X114928400Y-107289700D01*
X114763300Y-107124600D01*
X113898638Y-107124600D01*
X113655913Y-107225140D01*
X113470140Y-107410914D01*
X113369600Y-107653639D01*
X112678621Y-107653639D01*
X112657289Y-107540270D01*
X112512654Y-107315501D01*
X112291966Y-107164712D01*
X112222222Y-107150588D01*
X112318592Y-106918503D01*
X112319007Y-106443580D01*
X112137645Y-106004650D01*
X111802116Y-105668536D01*
X111363503Y-105486408D01*
X110888580Y-105485993D01*
X110449650Y-105667355D01*
X110113536Y-106002884D01*
X109931408Y-106441497D01*
X109930993Y-106916420D01*
X109988600Y-107055840D01*
X109988600Y-107119452D01*
X109785270Y-107157711D01*
X109560501Y-107302346D01*
X109409712Y-107523034D01*
X109356662Y-107785000D01*
X107938071Y-107785000D01*
X107912654Y-107745501D01*
X107691966Y-107594712D01*
X107430000Y-107541662D01*
X105930000Y-107541662D01*
X105685270Y-107587711D01*
X105460501Y-107732346D01*
X105309712Y-107953034D01*
X105256662Y-108215000D01*
X104293338Y-108215000D01*
X104247289Y-107970270D01*
X104102654Y-107745501D01*
X103881966Y-107594712D01*
X103620000Y-107541662D01*
X102120000Y-107541662D01*
X101875270Y-107587711D01*
X101650501Y-107732346D01*
X101499712Y-107953034D01*
X101446662Y-108215000D01*
X101446662Y-109715000D01*
X101492711Y-109959730D01*
X101588421Y-110108468D01*
X101563654Y-110236662D01*
X101330000Y-110236662D01*
X101085270Y-110282711D01*
X100860501Y-110427346D01*
X100709712Y-110648034D01*
X100656662Y-110910000D01*
X99990400Y-110910000D01*
X99990400Y-110778639D01*
X99889860Y-110535914D01*
X99729347Y-110375400D01*
X99941361Y-110375400D01*
X100184086Y-110274860D01*
X100369860Y-110089087D01*
X100470400Y-109846362D01*
X100470400Y-109231700D01*
X100305300Y-109066600D01*
X99161600Y-109066600D01*
X99161600Y-109086600D01*
X98958400Y-109086600D01*
X98958400Y-109066600D01*
X97814700Y-109066600D01*
X97649600Y-109231700D01*
X97649600Y-109846362D01*
X97750140Y-110089087D01*
X97910654Y-110249600D01*
X97198638Y-110249600D01*
X96955913Y-110350140D01*
X96773338Y-110532716D01*
X96773338Y-108950000D01*
X96727289Y-108705270D01*
X96582654Y-108480501D01*
X96361966Y-108329712D01*
X96100000Y-108276662D01*
X94400000Y-108276662D01*
X94155270Y-108322711D01*
X93930501Y-108467346D01*
X93779712Y-108688034D01*
X93774000Y-108716238D01*
X93548338Y-108490576D01*
X93548338Y-108083638D01*
X97649600Y-108083638D01*
X97649600Y-108698300D01*
X97814700Y-108863400D01*
X98958400Y-108863400D01*
X98958400Y-107719700D01*
X99161600Y-107719700D01*
X99161600Y-108863400D01*
X100305300Y-108863400D01*
X100470400Y-108698300D01*
X100470400Y-108083638D01*
X100369860Y-107840913D01*
X100184086Y-107655140D01*
X99941361Y-107554600D01*
X99326700Y-107554600D01*
X99161600Y-107719700D01*
X98958400Y-107719700D01*
X98793300Y-107554600D01*
X98178639Y-107554600D01*
X97935914Y-107655140D01*
X97750140Y-107840913D01*
X97649600Y-108083638D01*
X93548338Y-108083638D01*
X93548338Y-107490000D01*
X93502289Y-107245270D01*
X93357654Y-107020501D01*
X93136966Y-106869712D01*
X92875000Y-106816662D01*
X91275000Y-106816662D01*
X91030270Y-106862711D01*
X90805501Y-107007346D01*
X90654712Y-107228034D01*
X90610046Y-107448600D01*
X90365548Y-107448600D01*
X90327289Y-107245270D01*
X90182654Y-107020501D01*
X89961966Y-106869712D01*
X89700000Y-106816662D01*
X88100000Y-106816662D01*
X87855270Y-106862711D01*
X87630501Y-107007346D01*
X87479712Y-107228034D01*
X87426662Y-107490000D01*
X87426662Y-109490000D01*
X87472711Y-109734730D01*
X87617346Y-109959499D01*
X87838034Y-110110288D01*
X88100000Y-110163338D01*
X89700000Y-110163338D01*
X89944730Y-110117289D01*
X90169499Y-109972654D01*
X90320288Y-109751966D01*
X90364954Y-109531400D01*
X90609452Y-109531400D01*
X90647711Y-109734730D01*
X90792346Y-109959499D01*
X91013034Y-110110288D01*
X91275000Y-110163338D01*
X92275576Y-110163338D01*
X92798619Y-110686381D01*
X93023725Y-110836792D01*
X93006361Y-110829600D01*
X92341700Y-110829600D01*
X92176600Y-110994700D01*
X92176600Y-112388400D01*
X93370300Y-112388400D01*
X93535400Y-112223300D01*
X93535400Y-111358638D01*
X93434860Y-111115913D01*
X93254564Y-110935618D01*
X93535000Y-110991400D01*
X93734452Y-110991400D01*
X93772711Y-111194730D01*
X93917346Y-111419499D01*
X94138034Y-111570288D01*
X94208600Y-111584578D01*
X94208600Y-113030000D01*
X94287872Y-113428527D01*
X94456233Y-113680497D01*
X94513619Y-113766381D01*
X96497803Y-115750565D01*
X96369712Y-115938034D01*
X96316662Y-116200000D01*
X96316662Y-119700000D01*
X96362711Y-119944730D01*
X96507346Y-120169499D01*
X96728034Y-120320288D01*
X96990000Y-120373338D01*
X98590000Y-120373338D01*
X98834730Y-120327289D01*
X99059499Y-120182654D01*
X99210288Y-119961966D01*
X99263338Y-119700000D01*
X99263338Y-118991400D01*
X100490000Y-118991400D01*
X100888527Y-118912128D01*
X101226381Y-118686381D01*
X102006362Y-117906400D01*
X103479452Y-117906400D01*
X103489086Y-117957600D01*
X102870000Y-117957600D01*
X102814609Y-117968023D01*
X102763736Y-118000758D01*
X102729607Y-118050708D01*
X102717600Y-118110000D01*
X102717600Y-121565091D01*
X102620914Y-121605140D01*
X102435140Y-121790913D01*
X102334600Y-122033638D01*
X102334600Y-122898300D01*
X102499700Y-123063400D01*
X103643400Y-123063400D01*
X103643400Y-123043400D01*
X103846600Y-123043400D01*
X103846600Y-123063400D01*
X103866600Y-123063400D01*
X103866600Y-123266600D01*
X103846600Y-123266600D01*
X103846600Y-124660300D01*
X104011700Y-124825400D01*
X104626361Y-124825400D01*
X104869086Y-124724860D01*
X104899736Y-124694210D01*
X105033034Y-124785288D01*
X105295000Y-124838338D01*
X106795000Y-124838338D01*
X107039730Y-124792289D01*
X107196056Y-124691696D01*
X107333034Y-124785288D01*
X107595000Y-124838338D01*
X109095000Y-124838338D01*
X109339730Y-124792289D01*
X109431074Y-124733511D01*
X110314364Y-124843419D01*
X113461662Y-125235041D01*
X113461662Y-125735000D01*
X113507711Y-125979730D01*
X113652346Y-126204499D01*
X113873034Y-126355288D01*
X114135000Y-126408338D01*
X115346761Y-126408338D01*
X115674209Y-126735786D01*
X115674211Y-126735789D01*
X115956787Y-126924600D01*
X76910400Y-126924600D01*
X76910400Y-115570000D01*
X83667600Y-115570000D01*
X83667600Y-125730000D01*
X83678023Y-125785391D01*
X83710758Y-125836264D01*
X83760708Y-125870393D01*
X83820000Y-125882400D01*
X93980000Y-125882400D01*
X94035391Y-125871977D01*
X94086264Y-125839242D01*
X94120393Y-125789292D01*
X94132400Y-125730000D01*
X94132400Y-123616700D01*
X96329600Y-123616700D01*
X96329600Y-125231362D01*
X96430140Y-125474087D01*
X96615914Y-125659860D01*
X96858639Y-125760400D01*
X97523300Y-125760400D01*
X97688400Y-125595300D01*
X97688400Y-123451600D01*
X97891600Y-123451600D01*
X97891600Y-125595300D01*
X98056700Y-125760400D01*
X98721361Y-125760400D01*
X98964086Y-125659860D01*
X99149860Y-125474087D01*
X99250400Y-125231362D01*
X99250400Y-123616700D01*
X99085300Y-123451600D01*
X97891600Y-123451600D01*
X97688400Y-123451600D01*
X96494700Y-123451600D01*
X96329600Y-123616700D01*
X94132400Y-123616700D01*
X94132400Y-123431700D01*
X102334600Y-123431700D01*
X102334600Y-124296362D01*
X102435140Y-124539087D01*
X102620914Y-124724860D01*
X102863639Y-124825400D01*
X103478300Y-124825400D01*
X103643400Y-124660300D01*
X103643400Y-123266600D01*
X102499700Y-123266600D01*
X102334600Y-123431700D01*
X94132400Y-123431700D01*
X94132400Y-121468638D01*
X96329600Y-121468638D01*
X96329600Y-123083300D01*
X96494700Y-123248400D01*
X97688400Y-123248400D01*
X97688400Y-121104700D01*
X97891600Y-121104700D01*
X97891600Y-123248400D01*
X99085300Y-123248400D01*
X99250400Y-123083300D01*
X99250400Y-121468638D01*
X99149860Y-121225913D01*
X98964086Y-121040140D01*
X98721361Y-120939600D01*
X98056700Y-120939600D01*
X97891600Y-121104700D01*
X97688400Y-121104700D01*
X97523300Y-120939600D01*
X96858639Y-120939600D01*
X96615914Y-121040140D01*
X96430140Y-121225913D01*
X96329600Y-121468638D01*
X94132400Y-121468638D01*
X94132400Y-115570000D01*
X94121977Y-115514609D01*
X94089242Y-115463736D01*
X94039292Y-115429607D01*
X93980000Y-115417600D01*
X83820000Y-115417600D01*
X83764609Y-115428023D01*
X83713736Y-115460758D01*
X83679607Y-115510708D01*
X83667600Y-115570000D01*
X76910400Y-115570000D01*
X76910400Y-112756700D01*
X87439600Y-112756700D01*
X87439600Y-113621362D01*
X87540140Y-113864087D01*
X87725914Y-114049860D01*
X87968639Y-114150400D01*
X88633300Y-114150400D01*
X88798400Y-113985300D01*
X88798400Y-112591600D01*
X89001600Y-112591600D01*
X89001600Y-113985300D01*
X89166700Y-114150400D01*
X89831361Y-114150400D01*
X90074086Y-114049860D01*
X90259860Y-113864087D01*
X90360400Y-113621362D01*
X90360400Y-112756700D01*
X90614600Y-112756700D01*
X90614600Y-113621362D01*
X90715140Y-113864087D01*
X90900914Y-114049860D01*
X91143639Y-114150400D01*
X91808300Y-114150400D01*
X91973400Y-113985300D01*
X91973400Y-112591600D01*
X92176600Y-112591600D01*
X92176600Y-113985300D01*
X92341700Y-114150400D01*
X93006361Y-114150400D01*
X93249086Y-114049860D01*
X93434860Y-113864087D01*
X93535400Y-113621362D01*
X93535400Y-112756700D01*
X93370300Y-112591600D01*
X92176600Y-112591600D01*
X91973400Y-112591600D01*
X90779700Y-112591600D01*
X90614600Y-112756700D01*
X90360400Y-112756700D01*
X90195300Y-112591600D01*
X89001600Y-112591600D01*
X88798400Y-112591600D01*
X87604700Y-112591600D01*
X87439600Y-112756700D01*
X76910400Y-112756700D01*
X76910400Y-111358638D01*
X87439600Y-111358638D01*
X87439600Y-112223300D01*
X87604700Y-112388400D01*
X88798400Y-112388400D01*
X88798400Y-110994700D01*
X89001600Y-110994700D01*
X89001600Y-112388400D01*
X90195300Y-112388400D01*
X90360400Y-112223300D01*
X90360400Y-111358638D01*
X90614600Y-111358638D01*
X90614600Y-112223300D01*
X90779700Y-112388400D01*
X91973400Y-112388400D01*
X91973400Y-110994700D01*
X91808300Y-110829600D01*
X91143639Y-110829600D01*
X90900914Y-110930140D01*
X90715140Y-111115913D01*
X90614600Y-111358638D01*
X90360400Y-111358638D01*
X90259860Y-111115913D01*
X90074086Y-110930140D01*
X89831361Y-110829600D01*
X89166700Y-110829600D01*
X89001600Y-110994700D01*
X88798400Y-110994700D01*
X88633300Y-110829600D01*
X87968639Y-110829600D01*
X87725914Y-110930140D01*
X87540140Y-111115913D01*
X87439600Y-111358638D01*
X76910400Y-111358638D01*
X76910400Y-104950000D01*
X93726662Y-104950000D01*
X93726662Y-106950000D01*
X93772711Y-107194730D01*
X93917346Y-107419499D01*
X94138034Y-107570288D01*
X94400000Y-107623338D01*
X96100000Y-107623338D01*
X96344730Y-107577289D01*
X96569499Y-107432654D01*
X96720288Y-107211966D01*
X96773338Y-106950000D01*
X96773338Y-106884884D01*
X97777998Y-106807810D01*
X97827346Y-106884499D01*
X98048034Y-107035288D01*
X98310000Y-107088338D01*
X99810000Y-107088338D01*
X100054730Y-107042289D01*
X100279499Y-106897654D01*
X100430288Y-106676966D01*
X100483338Y-106415000D01*
X100483338Y-104915000D01*
X100437289Y-104670270D01*
X100292654Y-104445501D01*
X100071966Y-104294712D01*
X99810000Y-104241662D01*
X98310000Y-104241662D01*
X98065270Y-104287711D01*
X97840501Y-104432346D01*
X97689712Y-104653034D01*
X97674772Y-104726809D01*
X96744767Y-104798155D01*
X96727289Y-104705270D01*
X96582654Y-104480501D01*
X96361966Y-104329712D01*
X96100000Y-104276662D01*
X94400000Y-104276662D01*
X94155270Y-104322711D01*
X93930501Y-104467346D01*
X93779712Y-104688034D01*
X93726662Y-104950000D01*
X76910400Y-104950000D01*
X76910400Y-96431700D01*
X77349600Y-96431700D01*
X77349600Y-96896361D01*
X77450140Y-97139086D01*
X77635913Y-97324860D01*
X77878638Y-97425400D01*
X78343300Y-97425400D01*
X78508400Y-97260300D01*
X78508400Y-96266600D01*
X78711600Y-96266600D01*
X78711600Y-97260300D01*
X78876700Y-97425400D01*
X79341362Y-97425400D01*
X79584087Y-97324860D01*
X79769860Y-97139086D01*
X79870400Y-96896361D01*
X79870400Y-96431700D01*
X79705300Y-96266600D01*
X78711600Y-96266600D01*
X78508400Y-96266600D01*
X77514700Y-96266600D01*
X77349600Y-96431700D01*
X76910400Y-96431700D01*
X76910400Y-95433639D01*
X77349600Y-95433639D01*
X77349600Y-95898300D01*
X77514700Y-96063400D01*
X78508400Y-96063400D01*
X78508400Y-95069700D01*
X78711600Y-95069700D01*
X78711600Y-96063400D01*
X79705300Y-96063400D01*
X79870400Y-95898300D01*
X79870400Y-95433639D01*
X79769860Y-95190914D01*
X79584087Y-95005140D01*
X79341362Y-94904600D01*
X78876700Y-94904600D01*
X78711600Y-95069700D01*
X78508400Y-95069700D01*
X78343300Y-94904600D01*
X77878638Y-94904600D01*
X77635913Y-95005140D01*
X77450140Y-95190914D01*
X77349600Y-95433639D01*
X76910400Y-95433639D01*
X76910400Y-92463827D01*
X76993034Y-92520288D01*
X77255000Y-92573338D01*
X78955000Y-92573338D01*
X79199730Y-92527289D01*
X79424499Y-92382654D01*
X79575288Y-92161966D01*
X79619954Y-91941400D01*
X80399452Y-91941400D01*
X80437711Y-92144730D01*
X80576516Y-92360440D01*
X80268536Y-92667884D01*
X80086408Y-93106497D01*
X80085993Y-93581420D01*
X80238600Y-93950758D01*
X80238600Y-93980000D01*
X80317872Y-94378527D01*
X80368600Y-94454447D01*
X80368600Y-95064265D01*
X80340501Y-95082346D01*
X80189712Y-95303034D01*
X80136662Y-95565000D01*
X80136662Y-96765000D01*
X80182711Y-97009730D01*
X80327346Y-97234499D01*
X80548034Y-97385288D01*
X80810000Y-97438338D01*
X82010000Y-97438338D01*
X82254730Y-97392289D01*
X82479499Y-97247654D01*
X82630288Y-97026966D01*
X82683338Y-96765000D01*
X82683338Y-95565000D01*
X82637289Y-95320270D01*
X82492654Y-95095501D01*
X82451400Y-95067313D01*
X82451400Y-94110000D01*
X82433919Y-94022116D01*
X82387780Y-93790160D01*
X82473592Y-93583503D01*
X82474007Y-93108580D01*
X82349509Y-92807271D01*
X82778600Y-93236362D01*
X82778600Y-97358638D01*
X81763638Y-98373600D01*
X81407258Y-98373600D01*
X81292654Y-98195501D01*
X81071966Y-98044712D01*
X80810000Y-97991662D01*
X79210000Y-97991662D01*
X78965270Y-98037711D01*
X78740501Y-98182346D01*
X78589712Y-98403034D01*
X78536662Y-98665000D01*
X78536662Y-100165000D01*
X78582711Y-100409730D01*
X78727346Y-100634499D01*
X78948034Y-100785288D01*
X79210000Y-100838338D01*
X80810000Y-100838338D01*
X81054730Y-100792289D01*
X81279499Y-100647654D01*
X81410177Y-100456400D01*
X82195000Y-100456400D01*
X82593527Y-100377128D01*
X82931381Y-100151381D01*
X84556381Y-98526381D01*
X84573808Y-98500300D01*
X84782128Y-98188527D01*
X84861400Y-97790000D01*
X84861400Y-96756420D01*
X99770993Y-96756420D01*
X99952355Y-97195350D01*
X100287884Y-97531464D01*
X100726497Y-97713592D01*
X101201420Y-97714007D01*
X101640350Y-97532645D01*
X101917850Y-97255628D01*
X102057146Y-97472099D01*
X102277834Y-97622888D01*
X102539800Y-97675938D01*
X103200200Y-97675938D01*
X103225600Y-97671159D01*
X103225600Y-99695000D01*
X103295205Y-100044926D01*
X103400162Y-100202006D01*
X102793887Y-99595731D01*
X102794007Y-99458580D01*
X102612645Y-99019650D01*
X102277116Y-98683536D01*
X101838503Y-98501408D01*
X101363580Y-98500993D01*
X100924650Y-98682355D01*
X100588536Y-99017884D01*
X100406408Y-99456497D01*
X100405993Y-99931420D01*
X100587355Y-100370350D01*
X100922884Y-100706464D01*
X101361497Y-100888592D01*
X101500557Y-100888714D01*
X101866462Y-101254619D01*
X101866462Y-103149400D01*
X101912511Y-103394130D01*
X101955600Y-103461092D01*
X101955600Y-104272596D01*
X101875270Y-104287711D01*
X101650501Y-104432346D01*
X101499712Y-104653034D01*
X101446662Y-104915000D01*
X101446662Y-106415000D01*
X101492711Y-106659730D01*
X101637346Y-106884499D01*
X101858034Y-107035288D01*
X102120000Y-107088338D01*
X103620000Y-107088338D01*
X103864730Y-107042289D01*
X104089499Y-106897654D01*
X104240288Y-106676966D01*
X104293338Y-106415000D01*
X104293338Y-105232624D01*
X104536497Y-105333592D01*
X105011420Y-105334007D01*
X105256662Y-105232675D01*
X105256662Y-106415000D01*
X105302711Y-106659730D01*
X105447346Y-106884499D01*
X105668034Y-107035288D01*
X105930000Y-107088338D01*
X107430000Y-107088338D01*
X107674730Y-107042289D01*
X107899499Y-106897654D01*
X108050288Y-106676966D01*
X108103338Y-106415000D01*
X108103338Y-104915000D01*
X108057289Y-104670270D01*
X107912654Y-104445501D01*
X107691966Y-104294712D01*
X107594400Y-104274954D01*
X107594400Y-104239060D01*
X132483622Y-104239060D01*
X132483622Y-106037380D01*
X132529671Y-106282110D01*
X132674306Y-106506879D01*
X132894994Y-106657668D01*
X133156960Y-106710718D01*
X134056120Y-106710718D01*
X134300850Y-106664669D01*
X134525619Y-106520034D01*
X134676408Y-106299346D01*
X134729458Y-106037380D01*
X134729458Y-104239060D01*
X134683409Y-103994330D01*
X134538774Y-103769561D01*
X134318086Y-103618772D01*
X134056120Y-103565722D01*
X133156960Y-103565722D01*
X132912230Y-103611771D01*
X132687461Y-103756406D01*
X132536672Y-103977094D01*
X132483622Y-104239060D01*
X107594400Y-104239060D01*
X107594400Y-103464183D01*
X107630488Y-103411366D01*
X107683538Y-103149400D01*
X119380000Y-103149400D01*
X119729926Y-103079795D01*
X120026578Y-102881578D01*
X122019270Y-100888887D01*
X122156420Y-100889007D01*
X122595350Y-100707645D01*
X122931464Y-100372116D01*
X123113592Y-99933503D01*
X123114007Y-99458580D01*
X122932645Y-99019650D01*
X122597116Y-98683536D01*
X122158503Y-98501408D01*
X121683580Y-98500993D01*
X121244650Y-98682355D01*
X120908536Y-99017884D01*
X120726408Y-99456497D01*
X120726286Y-99595557D01*
X119001244Y-101320600D01*
X116902433Y-101320600D01*
X117216464Y-101007116D01*
X117398592Y-100568503D01*
X117399007Y-100093580D01*
X117349763Y-99974400D01*
X117970989Y-99974400D01*
X118067884Y-100071464D01*
X118506497Y-100253592D01*
X118981420Y-100254007D01*
X119420350Y-100072645D01*
X119756464Y-99737116D01*
X119938592Y-99298503D01*
X119939007Y-98823580D01*
X119757645Y-98384650D01*
X119422116Y-98048536D01*
X118983503Y-97866408D01*
X118508580Y-97865993D01*
X118069650Y-98047355D01*
X117971234Y-98145600D01*
X116714969Y-98145600D01*
X116763592Y-98028503D01*
X116764007Y-97553580D01*
X116582645Y-97114650D01*
X116247116Y-96778536D01*
X115808503Y-96596408D01*
X115333580Y-96595993D01*
X114894650Y-96777355D01*
X114796234Y-96875600D01*
X112904969Y-96875600D01*
X112953592Y-96758503D01*
X112954007Y-96283580D01*
X112801400Y-95914242D01*
X112801400Y-93980000D01*
X130657600Y-93980000D01*
X130657600Y-101600000D01*
X130668023Y-101655391D01*
X130700758Y-101706264D01*
X130750708Y-101740393D01*
X130810000Y-101752400D01*
X154940000Y-101752400D01*
X154995391Y-101741977D01*
X155046264Y-101709242D01*
X155080393Y-101659292D01*
X155092400Y-101600000D01*
X155092400Y-93980000D01*
X155081977Y-93924609D01*
X155049242Y-93873736D01*
X154999292Y-93839607D01*
X154940000Y-93827600D01*
X130810000Y-93827600D01*
X130754609Y-93838023D01*
X130703736Y-93870758D01*
X130669607Y-93920708D01*
X130657600Y-93980000D01*
X112801400Y-93980000D01*
X112801400Y-92976700D01*
X112928400Y-92849700D01*
X112928400Y-91440000D01*
X113131600Y-91440000D01*
X113131600Y-92849700D01*
X113296700Y-93014800D01*
X113491562Y-93014800D01*
X113734287Y-92914260D01*
X113920060Y-92728486D01*
X114020600Y-92485761D01*
X114020600Y-91605100D01*
X113855500Y-91440000D01*
X113131600Y-91440000D01*
X112928400Y-91440000D01*
X112908400Y-91440000D01*
X112908400Y-91236800D01*
X112928400Y-91236800D01*
X112928400Y-89827100D01*
X113131600Y-89827100D01*
X113131600Y-91236800D01*
X113855500Y-91236800D01*
X114020600Y-91071700D01*
X114020600Y-90805000D01*
X156692600Y-90805000D01*
X156692600Y-97790000D01*
X156703023Y-97845391D01*
X156735758Y-97896264D01*
X156785708Y-97930393D01*
X156845000Y-97942400D01*
X159385000Y-97942400D01*
X159440391Y-97931977D01*
X159491264Y-97899242D01*
X159525393Y-97849292D01*
X159537400Y-97790000D01*
X159537400Y-90805000D01*
X159526977Y-90749609D01*
X159494242Y-90698736D01*
X159444292Y-90664607D01*
X159385000Y-90652600D01*
X156845000Y-90652600D01*
X156789609Y-90663023D01*
X156738736Y-90695758D01*
X156704607Y-90745708D01*
X156692600Y-90805000D01*
X114020600Y-90805000D01*
X114020600Y-90191039D01*
X113920060Y-89948314D01*
X113734287Y-89762540D01*
X113491562Y-89662000D01*
X113296700Y-89662000D01*
X113131600Y-89827100D01*
X112928400Y-89827100D01*
X112763300Y-89662000D01*
X112568438Y-89662000D01*
X112397243Y-89732911D01*
X112352166Y-89702112D01*
X112090200Y-89649062D01*
X111429800Y-89649062D01*
X111185070Y-89695111D01*
X111126798Y-89732608D01*
X111082166Y-89702112D01*
X110820200Y-89649062D01*
X110159800Y-89649062D01*
X109915070Y-89695111D01*
X109856798Y-89732608D01*
X109812166Y-89702112D01*
X109550200Y-89649062D01*
X108889800Y-89649062D01*
X108645070Y-89695111D01*
X108586798Y-89732608D01*
X108542166Y-89702112D01*
X108280200Y-89649062D01*
X107619800Y-89649062D01*
X107375070Y-89695111D01*
X107316798Y-89732608D01*
X107272166Y-89702112D01*
X107010200Y-89649062D01*
X106349800Y-89649062D01*
X106105070Y-89695111D01*
X106046798Y-89732608D01*
X106002166Y-89702112D01*
X105740200Y-89649062D01*
X105079800Y-89649062D01*
X104835070Y-89695111D01*
X104776798Y-89732608D01*
X104732166Y-89702112D01*
X104470200Y-89649062D01*
X103809800Y-89649062D01*
X103565070Y-89695111D01*
X103340301Y-89839746D01*
X103189512Y-90060434D01*
X103136462Y-90322400D01*
X103136462Y-92354400D01*
X103182511Y-92599130D01*
X103225600Y-92666092D01*
X103225600Y-94302406D01*
X103200200Y-94297262D01*
X102539800Y-94297262D01*
X102295070Y-94343311D01*
X102070301Y-94487946D01*
X101919512Y-94708634D01*
X101871606Y-94945200D01*
X101498400Y-94945200D01*
X101099874Y-95024471D01*
X100762019Y-95250219D01*
X100656436Y-95355802D01*
X100289650Y-95507355D01*
X99953536Y-95842884D01*
X99771408Y-96281497D01*
X99770993Y-96756420D01*
X84861400Y-96756420D01*
X84861400Y-95402400D01*
X93980000Y-95402400D01*
X94035391Y-95391977D01*
X94086264Y-95359242D01*
X94120393Y-95309292D01*
X94132400Y-95250000D01*
X94132400Y-90531700D01*
X100139600Y-90531700D01*
X100139600Y-91396362D01*
X100240140Y-91639087D01*
X100425914Y-91824860D01*
X100668639Y-91925400D01*
X101333300Y-91925400D01*
X101498400Y-91760300D01*
X101498400Y-90366600D01*
X101701600Y-90366600D01*
X101701600Y-91760300D01*
X101866700Y-91925400D01*
X102531361Y-91925400D01*
X102774086Y-91824860D01*
X102959860Y-91639087D01*
X103060400Y-91396362D01*
X103060400Y-90531700D01*
X102895300Y-90366600D01*
X101701600Y-90366600D01*
X101498400Y-90366600D01*
X100304700Y-90366600D01*
X100139600Y-90531700D01*
X94132400Y-90531700D01*
X94132400Y-89133638D01*
X100139600Y-89133638D01*
X100139600Y-89998300D01*
X100304700Y-90163400D01*
X101498400Y-90163400D01*
X101498400Y-88769700D01*
X101701600Y-88769700D01*
X101701600Y-90163400D01*
X102895300Y-90163400D01*
X103060400Y-89998300D01*
X103060400Y-89133638D01*
X102959860Y-88890913D01*
X102774086Y-88705140D01*
X102531361Y-88604600D01*
X101866700Y-88604600D01*
X101701600Y-88769700D01*
X101498400Y-88769700D01*
X101333300Y-88604600D01*
X100668639Y-88604600D01*
X100425914Y-88705140D01*
X100240140Y-88890913D01*
X100139600Y-89133638D01*
X94132400Y-89133638D01*
X94132400Y-85090000D01*
X94121977Y-85034609D01*
X94089242Y-84983736D01*
X94039292Y-84949607D01*
X93980000Y-84937600D01*
X84861400Y-84937600D01*
X84861400Y-79227288D01*
X85090000Y-78885163D01*
X85354211Y-79280584D01*
X85815671Y-79588921D01*
X86360000Y-79697195D01*
X86904329Y-79588921D01*
X87365789Y-79280584D01*
X87630000Y-78885163D01*
X87894211Y-79280584D01*
X88355671Y-79588921D01*
X88900000Y-79697195D01*
X89444329Y-79588921D01*
X89905789Y-79280584D01*
X90170000Y-78885163D01*
X90434211Y-79280584D01*
X90895671Y-79588921D01*
X91440000Y-79697195D01*
X91984329Y-79588921D01*
X92445789Y-79280584D01*
X92710000Y-78885163D01*
X92974211Y-79280584D01*
X93435671Y-79588921D01*
X93980000Y-79697195D01*
X94524329Y-79588921D01*
X94985789Y-79280584D01*
X95250000Y-78885163D01*
X95514211Y-79280584D01*
X95975671Y-79588921D01*
X96520000Y-79697195D01*
X97064329Y-79588921D01*
X97525789Y-79280584D01*
X97790000Y-78885163D01*
X98054211Y-79280584D01*
X98515671Y-79588921D01*
X99060000Y-79697195D01*
X99604329Y-79588921D01*
X100065789Y-79280584D01*
X100330000Y-78885163D01*
X100594211Y-79280584D01*
X101055671Y-79588921D01*
X101600000Y-79697195D01*
X102144329Y-79588921D01*
X102605789Y-79280584D01*
X102870000Y-78885163D01*
X103098600Y-79227288D01*
X103098600Y-81280000D01*
X103177872Y-81678527D01*
X103403619Y-82016381D01*
X104919637Y-83532399D01*
X104835070Y-83548311D01*
X104776798Y-83585808D01*
X104732166Y-83555312D01*
X104470200Y-83502262D01*
X103809800Y-83502262D01*
X103565070Y-83548311D01*
X103340301Y-83692946D01*
X103189512Y-83913634D01*
X103136462Y-84175600D01*
X103136462Y-84277200D01*
X102673400Y-84277200D01*
X102323474Y-84346805D01*
X102295440Y-84365537D01*
X102026822Y-84545021D01*
X101980181Y-84591662D01*
X100800000Y-84591662D01*
X100555270Y-84637711D01*
X100330501Y-84782346D01*
X100179712Y-85003034D01*
X100135046Y-85223600D01*
X100031362Y-85223600D01*
X99589198Y-84781436D01*
X99437645Y-84414650D01*
X99102116Y-84078536D01*
X98663503Y-83896408D01*
X98188580Y-83895993D01*
X97749650Y-84077355D01*
X97413536Y-84412884D01*
X97231408Y-84851497D01*
X97230993Y-85326420D01*
X97412355Y-85765350D01*
X97747884Y-86101464D01*
X98116953Y-86254715D01*
X98863619Y-87001381D01*
X99201473Y-87227128D01*
X99600000Y-87306400D01*
X100134452Y-87306400D01*
X100172711Y-87509730D01*
X100317346Y-87734499D01*
X100538034Y-87885288D01*
X100800000Y-87938338D01*
X102400000Y-87938338D01*
X102644730Y-87892289D01*
X102869499Y-87747654D01*
X103020288Y-87526966D01*
X103073338Y-87265000D01*
X103073338Y-86106000D01*
X103136462Y-86106000D01*
X103136462Y-86207600D01*
X103182511Y-86452330D01*
X103225600Y-86519292D01*
X103225600Y-86995000D01*
X103295205Y-87344926D01*
X103405324Y-87509730D01*
X103493422Y-87641578D01*
X104128422Y-88276579D01*
X104425075Y-88474796D01*
X104775000Y-88544400D01*
X113665000Y-88544400D01*
X114014926Y-88474795D01*
X114311578Y-88276578D01*
X115581578Y-87006579D01*
X115732973Y-86780000D01*
X115779795Y-86709926D01*
X115849400Y-86360000D01*
X115849400Y-84406740D01*
X126765050Y-84406740D01*
X126765050Y-85270892D01*
X126865590Y-85513617D01*
X127051364Y-85699390D01*
X127294089Y-85799930D01*
X127858520Y-85799930D01*
X128023620Y-85634830D01*
X128023620Y-84241640D01*
X128226820Y-84241640D01*
X128226820Y-85634830D01*
X128391920Y-85799930D01*
X128956351Y-85799930D01*
X129199076Y-85699390D01*
X129384850Y-85513617D01*
X129485390Y-85270892D01*
X129485390Y-84406740D01*
X129320290Y-84241640D01*
X128226820Y-84241640D01*
X128023620Y-84241640D01*
X126930150Y-84241640D01*
X126765050Y-84406740D01*
X115849400Y-84406740D01*
X115849400Y-83009188D01*
X126765050Y-83009188D01*
X126765050Y-83873340D01*
X126930150Y-84038440D01*
X128023620Y-84038440D01*
X128023620Y-82645250D01*
X128226820Y-82645250D01*
X128226820Y-84038440D01*
X129320290Y-84038440D01*
X129485390Y-83873340D01*
X129485390Y-83258660D01*
X156264610Y-83258660D01*
X156264610Y-84122812D01*
X156365150Y-84365537D01*
X156550924Y-84551310D01*
X156793649Y-84651850D01*
X157358080Y-84651850D01*
X157523180Y-84486750D01*
X157523180Y-83093560D01*
X156429710Y-83093560D01*
X156264610Y-83258660D01*
X129485390Y-83258660D01*
X129485390Y-83009188D01*
X129384850Y-82766463D01*
X129199076Y-82580690D01*
X128956351Y-82480150D01*
X128391920Y-82480150D01*
X128226820Y-82645250D01*
X128023620Y-82645250D01*
X127858520Y-82480150D01*
X127294089Y-82480150D01*
X127051364Y-82580690D01*
X126865590Y-82766463D01*
X126765050Y-83009188D01*
X115849400Y-83009188D01*
X115849400Y-82550000D01*
X115835506Y-82480150D01*
X115779796Y-82200075D01*
X115581579Y-81903422D01*
X115214400Y-81536244D01*
X115214400Y-81117191D01*
X129514354Y-81117191D01*
X129730445Y-81640172D01*
X130130223Y-82040649D01*
X130652826Y-82257652D01*
X131218691Y-82258146D01*
X131741672Y-82042055D01*
X132142149Y-81642277D01*
X132359152Y-81119674D01*
X132359154Y-81117191D01*
X153771354Y-81117191D01*
X153987445Y-81640172D01*
X154387223Y-82040649D01*
X154909826Y-82257652D01*
X155475691Y-82258146D01*
X155998672Y-82042055D01*
X156324306Y-81716990D01*
X156264610Y-81861108D01*
X156264610Y-82725260D01*
X156429710Y-82890360D01*
X157523180Y-82890360D01*
X157523180Y-81497170D01*
X157358080Y-81332070D01*
X156793649Y-81332070D01*
X156550924Y-81432610D01*
X156440258Y-81543276D01*
X156616152Y-81119674D01*
X156616646Y-80553809D01*
X156400555Y-80030828D01*
X156000777Y-79630351D01*
X155478174Y-79413348D01*
X154912309Y-79412854D01*
X154389328Y-79628945D01*
X153988851Y-80028723D01*
X153771848Y-80551326D01*
X153771354Y-81117191D01*
X132359154Y-81117191D01*
X132359646Y-80553809D01*
X132143555Y-80030828D01*
X131743777Y-79630351D01*
X131221174Y-79413348D01*
X130655309Y-79412854D01*
X130132328Y-79628945D01*
X129731851Y-80028723D01*
X129514848Y-80551326D01*
X129514354Y-81117191D01*
X115214400Y-81117191D01*
X115214400Y-79341648D01*
X115305789Y-79280584D01*
X115572950Y-78880748D01*
X115906053Y-79309631D01*
X116389537Y-79585007D01*
X116517707Y-79617406D01*
X116738400Y-79485188D01*
X116738400Y-77571600D01*
X116941600Y-77571600D01*
X116941600Y-79485188D01*
X117162293Y-79617406D01*
X117290463Y-79585007D01*
X117773947Y-79309631D01*
X118115246Y-78870195D01*
X118262400Y-78333600D01*
X118262400Y-77571600D01*
X116941600Y-77571600D01*
X116738400Y-77571600D01*
X116718400Y-77571600D01*
X116718400Y-77368400D01*
X116738400Y-77368400D01*
X116738400Y-77348400D01*
X116941600Y-77348400D01*
X116941600Y-77368400D01*
X118262400Y-77368400D01*
X118262400Y-76606400D01*
X118115246Y-76069805D01*
X117781738Y-75640400D01*
X158674600Y-75640400D01*
X158674600Y-81422654D01*
G36*
X151795979Y-123379113D02*
X151805608Y-123394841D01*
X151809205Y-123412926D01*
X151898418Y-123546442D01*
X151982264Y-123683401D01*
X151997178Y-123694246D01*
X152007422Y-123709578D01*
X152140943Y-123798794D01*
X152270813Y-123893237D01*
X152288740Y-123897549D01*
X152304074Y-123907795D01*
X152461580Y-123939125D01*
X152617700Y-123976679D01*
X152635914Y-123973802D01*
X152654000Y-123977400D01*
X174417727Y-123977400D01*
X174345869Y-124150453D01*
X174345331Y-124766843D01*
X174580716Y-125336518D01*
X175016189Y-125772752D01*
X175017330Y-125773226D01*
X174969113Y-125930429D01*
X175895000Y-126856316D01*
X176820887Y-125930429D01*
X176772649Y-125773155D01*
X177165305Y-125381184D01*
X177556189Y-125772752D01*
X177557330Y-125773226D01*
X177509113Y-125930429D01*
X178435000Y-126856316D01*
X179360887Y-125930429D01*
X179312649Y-125773155D01*
X179705305Y-125381184D01*
X180096189Y-125772752D01*
X180097330Y-125773226D01*
X180049113Y-125930429D01*
X180975000Y-126856316D01*
X181900887Y-125930429D01*
X181852649Y-125773155D01*
X182245305Y-125381184D01*
X182593816Y-125730305D01*
X182202248Y-126121189D01*
X182201774Y-126122330D01*
X182044571Y-126074113D01*
X181118684Y-127000000D01*
X182044571Y-127925887D01*
X182201845Y-127877649D01*
X182636189Y-128312752D01*
X183205453Y-128549131D01*
X183821843Y-128549669D01*
X184391518Y-128314284D01*
X184785305Y-127921184D01*
X185176189Y-128312752D01*
X185745453Y-128549131D01*
X186361843Y-128549669D01*
X186931518Y-128314284D01*
X187325305Y-127921184D01*
X187716189Y-128312752D01*
X188285453Y-128549131D01*
X188901843Y-128549669D01*
X189471518Y-128314284D01*
X189865305Y-127921184D01*
X190256189Y-128312752D01*
X190825453Y-128549131D01*
X191441843Y-128549669D01*
X192011518Y-128314284D01*
X192405305Y-127921184D01*
X192796189Y-128312752D01*
X193365453Y-128549131D01*
X193981843Y-128549669D01*
X194551518Y-128314284D01*
X194945305Y-127921184D01*
X195336189Y-128312752D01*
X195905453Y-128549131D01*
X196521843Y-128549669D01*
X197091518Y-128314284D01*
X197485305Y-127921184D01*
X197876189Y-128312752D01*
X198445453Y-128549131D01*
X199061843Y-128549669D01*
X199631518Y-128314284D01*
X200025305Y-127921184D01*
X200416189Y-128312752D01*
X200985453Y-128549131D01*
X201601843Y-128549669D01*
X202171518Y-128314284D01*
X202565305Y-127921184D01*
X202956189Y-128312752D01*
X203525453Y-128549131D01*
X204141843Y-128549669D01*
X204711518Y-128314284D01*
X204952600Y-128073623D01*
X204952600Y-128950823D01*
X203245822Y-130657600D01*
X176484178Y-130657600D01*
X173896149Y-128069571D01*
X174969113Y-128069571D01*
X175050562Y-128335122D01*
X175625771Y-128556643D01*
X176241966Y-128541180D01*
X176739438Y-128335122D01*
X176820887Y-128069571D01*
X177509113Y-128069571D01*
X177590562Y-128335122D01*
X178165771Y-128556643D01*
X178781966Y-128541180D01*
X179279438Y-128335122D01*
X179360887Y-128069571D01*
X180049113Y-128069571D01*
X180130562Y-128335122D01*
X180705771Y-128556643D01*
X181321966Y-128541180D01*
X181819438Y-128335122D01*
X181900887Y-128069571D01*
X180975000Y-127143684D01*
X180049113Y-128069571D01*
X179360887Y-128069571D01*
X178435000Y-127143684D01*
X177509113Y-128069571D01*
X176820887Y-128069571D01*
X175895000Y-127143684D01*
X174969113Y-128069571D01*
X173896149Y-128069571D01*
X172557349Y-126730771D01*
X174338357Y-126730771D01*
X174353820Y-127346966D01*
X174559878Y-127844438D01*
X174825429Y-127925887D01*
X175751316Y-127000000D01*
X176038684Y-127000000D01*
X176964571Y-127925887D01*
X177165000Y-127864412D01*
X177365429Y-127925887D01*
X178291316Y-127000000D01*
X178578684Y-127000000D01*
X179504571Y-127925887D01*
X179705000Y-127864412D01*
X179905429Y-127925887D01*
X180831316Y-127000000D01*
X179905429Y-126074113D01*
X179705000Y-126135588D01*
X179504571Y-126074113D01*
X178578684Y-127000000D01*
X178291316Y-127000000D01*
X177365429Y-126074113D01*
X177165000Y-126135588D01*
X176964571Y-126074113D01*
X176038684Y-127000000D01*
X175751316Y-127000000D01*
X174825429Y-126074113D01*
X174559878Y-126155562D01*
X174338357Y-126730771D01*
X172557349Y-126730771D01*
X170550789Y-124724211D01*
X170089329Y-124415874D01*
X169545000Y-124307600D01*
X150670556Y-124307600D01*
X151141579Y-123836578D01*
X151339796Y-123539925D01*
X151409400Y-123190000D01*
X151409400Y-122329827D01*
X151795979Y-123379113D01*
X151795979Y-123379113D01*
G37*
X151795979Y-123379113D02*
X151805608Y-123394841D01*
X151809205Y-123412926D01*
X151898418Y-123546442D01*
X151982264Y-123683401D01*
X151997178Y-123694246D01*
X152007422Y-123709578D01*
X152140943Y-123798794D01*
X152270813Y-123893237D01*
X152288740Y-123897549D01*
X152304074Y-123907795D01*
X152461580Y-123939125D01*
X152617700Y-123976679D01*
X152635914Y-123973802D01*
X152654000Y-123977400D01*
X174417727Y-123977400D01*
X174345869Y-124150453D01*
X174345331Y-124766843D01*
X174580716Y-125336518D01*
X175016189Y-125772752D01*
X175017330Y-125773226D01*
X174969113Y-125930429D01*
X175895000Y-126856316D01*
X176820887Y-125930429D01*
X176772649Y-125773155D01*
X177165305Y-125381184D01*
X177556189Y-125772752D01*
X177557330Y-125773226D01*
X177509113Y-125930429D01*
X178435000Y-126856316D01*
X179360887Y-125930429D01*
X179312649Y-125773155D01*
X179705305Y-125381184D01*
X180096189Y-125772752D01*
X180097330Y-125773226D01*
X180049113Y-125930429D01*
X180975000Y-126856316D01*
X181900887Y-125930429D01*
X181852649Y-125773155D01*
X182245305Y-125381184D01*
X182593816Y-125730305D01*
X182202248Y-126121189D01*
X182201774Y-126122330D01*
X182044571Y-126074113D01*
X181118684Y-127000000D01*
X182044571Y-127925887D01*
X182201845Y-127877649D01*
X182636189Y-128312752D01*
X183205453Y-128549131D01*
X183821843Y-128549669D01*
X184391518Y-128314284D01*
X184785305Y-127921184D01*
X185176189Y-128312752D01*
X185745453Y-128549131D01*
X186361843Y-128549669D01*
X186931518Y-128314284D01*
X187325305Y-127921184D01*
X187716189Y-128312752D01*
X188285453Y-128549131D01*
X188901843Y-128549669D01*
X189471518Y-128314284D01*
X189865305Y-127921184D01*
X190256189Y-128312752D01*
X190825453Y-128549131D01*
X191441843Y-128549669D01*
X192011518Y-128314284D01*
X192405305Y-127921184D01*
X192796189Y-128312752D01*
X193365453Y-128549131D01*
X193981843Y-128549669D01*
X194551518Y-128314284D01*
X194945305Y-127921184D01*
X195336189Y-128312752D01*
X195905453Y-128549131D01*
X196521843Y-128549669D01*
X197091518Y-128314284D01*
X197485305Y-127921184D01*
X197876189Y-128312752D01*
X198445453Y-128549131D01*
X199061843Y-128549669D01*
X199631518Y-128314284D01*
X200025305Y-127921184D01*
X200416189Y-128312752D01*
X200985453Y-128549131D01*
X201601843Y-128549669D01*
X202171518Y-128314284D01*
X202565305Y-127921184D01*
X202956189Y-128312752D01*
X203525453Y-128549131D01*
X204141843Y-128549669D01*
X204711518Y-128314284D01*
X204952600Y-128073623D01*
X204952600Y-128950823D01*
X203245822Y-130657600D01*
X176484178Y-130657600D01*
X173896149Y-128069571D01*
X174969113Y-128069571D01*
X175050562Y-128335122D01*
X175625771Y-128556643D01*
X176241966Y-128541180D01*
X176739438Y-128335122D01*
X176820887Y-128069571D01*
X177509113Y-128069571D01*
X177590562Y-128335122D01*
X178165771Y-128556643D01*
X178781966Y-128541180D01*
X179279438Y-128335122D01*
X179360887Y-128069571D01*
X180049113Y-128069571D01*
X180130562Y-128335122D01*
X180705771Y-128556643D01*
X181321966Y-128541180D01*
X181819438Y-128335122D01*
X181900887Y-128069571D01*
X180975000Y-127143684D01*
X180049113Y-128069571D01*
X179360887Y-128069571D01*
X178435000Y-127143684D01*
X177509113Y-128069571D01*
X176820887Y-128069571D01*
X175895000Y-127143684D01*
X174969113Y-128069571D01*
X173896149Y-128069571D01*
X172557349Y-126730771D01*
X174338357Y-126730771D01*
X174353820Y-127346966D01*
X174559878Y-127844438D01*
X174825429Y-127925887D01*
X175751316Y-127000000D01*
X176038684Y-127000000D01*
X176964571Y-127925887D01*
X177165000Y-127864412D01*
X177365429Y-127925887D01*
X178291316Y-127000000D01*
X178578684Y-127000000D01*
X179504571Y-127925887D01*
X179705000Y-127864412D01*
X179905429Y-127925887D01*
X180831316Y-127000000D01*
X179905429Y-126074113D01*
X179705000Y-126135588D01*
X179504571Y-126074113D01*
X178578684Y-127000000D01*
X178291316Y-127000000D01*
X177365429Y-126074113D01*
X177165000Y-126135588D01*
X176964571Y-126074113D01*
X176038684Y-127000000D01*
X175751316Y-127000000D01*
X174825429Y-126074113D01*
X174559878Y-126155562D01*
X174338357Y-126730771D01*
X172557349Y-126730771D01*
X170550789Y-124724211D01*
X170089329Y-124415874D01*
X169545000Y-124307600D01*
X150670556Y-124307600D01*
X151141579Y-123836578D01*
X151339796Y-123539925D01*
X151409400Y-123190000D01*
X151409400Y-122329827D01*
X151795979Y-123379113D01*
G36*
X124565802Y-113973564D02*
X124717355Y-114340350D01*
X125034859Y-114658408D01*
X121809580Y-116916103D01*
X121683580Y-116915993D01*
X121244650Y-117097355D01*
X120908536Y-117432884D01*
X120726408Y-117871497D01*
X120725993Y-118346420D01*
X120907355Y-118785350D01*
X121242884Y-119121464D01*
X121681497Y-119303592D01*
X122156420Y-119304007D01*
X122595350Y-119122645D01*
X122754075Y-118964197D01*
X122704600Y-119083639D01*
X122704600Y-119748300D01*
X122869700Y-119913400D01*
X124263400Y-119913400D01*
X124263400Y-118719700D01*
X124466600Y-118719700D01*
X124466600Y-119913400D01*
X125860300Y-119913400D01*
X126025400Y-119748300D01*
X126025400Y-119083639D01*
X125924860Y-118840914D01*
X125739087Y-118655140D01*
X125496362Y-118554600D01*
X124631700Y-118554600D01*
X124466600Y-118719700D01*
X124263400Y-118719700D01*
X124098300Y-118554600D01*
X123233638Y-118554600D01*
X122990913Y-118655140D01*
X122982965Y-118663088D01*
X122998169Y-118626473D01*
X128054100Y-115087321D01*
X128054100Y-116002599D01*
X127893536Y-116162884D01*
X127740285Y-116531953D01*
X127533619Y-116738619D01*
X127307872Y-117076473D01*
X127228600Y-117475000D01*
X127228600Y-118567327D01*
X127120270Y-118587711D01*
X126895501Y-118732346D01*
X126744712Y-118953034D01*
X126691662Y-119215000D01*
X126691662Y-120815000D01*
X126737711Y-121059730D01*
X126882346Y-121284499D01*
X127103034Y-121435288D01*
X127365000Y-121488338D01*
X129365000Y-121488338D01*
X129609730Y-121442289D01*
X129834499Y-121297654D01*
X129839205Y-121290767D01*
X129867346Y-121334499D01*
X130088034Y-121485288D01*
X130350000Y-121538338D01*
X132350000Y-121538338D01*
X132435600Y-121522231D01*
X132435600Y-121920000D01*
X132442801Y-121956202D01*
X132387654Y-121870501D01*
X132166966Y-121719712D01*
X131905000Y-121666662D01*
X129905000Y-121666662D01*
X129660270Y-121712711D01*
X129435501Y-121857346D01*
X129284712Y-122078034D01*
X129231662Y-122340000D01*
X129231662Y-124040000D01*
X129277711Y-124284730D01*
X129292427Y-124307600D01*
X128521438Y-124307600D01*
X128525288Y-124301966D01*
X128578338Y-124040000D01*
X128578338Y-122340000D01*
X128532289Y-122095270D01*
X128387654Y-121870501D01*
X128166966Y-121719712D01*
X127905000Y-121666662D01*
X125905000Y-121666662D01*
X125660270Y-121712711D01*
X125435501Y-121857346D01*
X125395629Y-121915701D01*
X125181966Y-121769712D01*
X124920000Y-121716662D01*
X122920000Y-121716662D01*
X122675270Y-121762711D01*
X122450501Y-121907346D01*
X122299712Y-122128034D01*
X122246662Y-122390000D01*
X122246662Y-123990000D01*
X122292711Y-124234730D01*
X122339602Y-124307600D01*
X121503257Y-124307600D01*
X121580400Y-124121361D01*
X121580400Y-123456700D01*
X121415300Y-123291600D01*
X120021600Y-123291600D01*
X120021600Y-123311600D01*
X119818400Y-123311600D01*
X119818400Y-123291600D01*
X118424700Y-123291600D01*
X118259600Y-123456700D01*
X118259600Y-124121361D01*
X118336743Y-124307600D01*
X117269177Y-124307600D01*
X116597170Y-123635592D01*
X117974123Y-122258639D01*
X118259600Y-122258639D01*
X118259600Y-122923300D01*
X118424700Y-123088400D01*
X119818400Y-123088400D01*
X119818400Y-121894700D01*
X120021600Y-121894700D01*
X120021600Y-123088400D01*
X121415300Y-123088400D01*
X121580400Y-122923300D01*
X121580400Y-122258639D01*
X121479860Y-122015914D01*
X121294087Y-121830140D01*
X121051362Y-121729600D01*
X120186700Y-121729600D01*
X120021600Y-121894700D01*
X119818400Y-121894700D01*
X119653300Y-121729600D01*
X118788638Y-121729600D01*
X118545913Y-121830140D01*
X118360140Y-122015914D01*
X118259600Y-122258639D01*
X117974123Y-122258639D01*
X119576381Y-120656381D01*
X119602910Y-120616677D01*
X119802128Y-120318527D01*
X119809453Y-120281700D01*
X122704600Y-120281700D01*
X122704600Y-120946361D01*
X122805140Y-121189086D01*
X122990913Y-121374860D01*
X123233638Y-121475400D01*
X124098300Y-121475400D01*
X124263400Y-121310300D01*
X124263400Y-120116600D01*
X124466600Y-120116600D01*
X124466600Y-121310300D01*
X124631700Y-121475400D01*
X125496362Y-121475400D01*
X125739087Y-121374860D01*
X125924860Y-121189086D01*
X126025400Y-120946361D01*
X126025400Y-120281700D01*
X125860300Y-120116600D01*
X124466600Y-120116600D01*
X124263400Y-120116600D01*
X122869700Y-120116600D01*
X122704600Y-120281700D01*
X119809453Y-120281700D01*
X119881400Y-119920000D01*
X119881400Y-115765548D01*
X120084730Y-115727289D01*
X120309499Y-115582654D01*
X120460288Y-115361966D01*
X120513338Y-115100000D01*
X120513338Y-113500000D01*
X120467289Y-113255270D01*
X120322654Y-113030501D01*
X120101966Y-112879712D01*
X119840000Y-112826662D01*
X118654619Y-112826662D01*
X118715758Y-112801400D01*
X123393638Y-112801400D01*
X124565802Y-113973564D01*
X124565802Y-113973564D01*
G37*
X124565802Y-113973564D02*
X124717355Y-114340350D01*
X125034859Y-114658408D01*
X121809580Y-116916103D01*
X121683580Y-116915993D01*
X121244650Y-117097355D01*
X120908536Y-117432884D01*
X120726408Y-117871497D01*
X120725993Y-118346420D01*
X120907355Y-118785350D01*
X121242884Y-119121464D01*
X121681497Y-119303592D01*
X122156420Y-119304007D01*
X122595350Y-119122645D01*
X122754075Y-118964197D01*
X122704600Y-119083639D01*
X122704600Y-119748300D01*
X122869700Y-119913400D01*
X124263400Y-119913400D01*
X124263400Y-118719700D01*
X124466600Y-118719700D01*
X124466600Y-119913400D01*
X125860300Y-119913400D01*
X126025400Y-119748300D01*
X126025400Y-119083639D01*
X125924860Y-118840914D01*
X125739087Y-118655140D01*
X125496362Y-118554600D01*
X124631700Y-118554600D01*
X124466600Y-118719700D01*
X124263400Y-118719700D01*
X124098300Y-118554600D01*
X123233638Y-118554600D01*
X122990913Y-118655140D01*
X122982965Y-118663088D01*
X122998169Y-118626473D01*
X128054100Y-115087321D01*
X128054100Y-116002599D01*
X127893536Y-116162884D01*
X127740285Y-116531953D01*
X127533619Y-116738619D01*
X127307872Y-117076473D01*
X127228600Y-117475000D01*
X127228600Y-118567327D01*
X127120270Y-118587711D01*
X126895501Y-118732346D01*
X126744712Y-118953034D01*
X126691662Y-119215000D01*
X126691662Y-120815000D01*
X126737711Y-121059730D01*
X126882346Y-121284499D01*
X127103034Y-121435288D01*
X127365000Y-121488338D01*
X129365000Y-121488338D01*
X129609730Y-121442289D01*
X129834499Y-121297654D01*
X129839205Y-121290767D01*
X129867346Y-121334499D01*
X130088034Y-121485288D01*
X130350000Y-121538338D01*
X132350000Y-121538338D01*
X132435600Y-121522231D01*
X132435600Y-121920000D01*
X132442801Y-121956202D01*
X132387654Y-121870501D01*
X132166966Y-121719712D01*
X131905000Y-121666662D01*
X129905000Y-121666662D01*
X129660270Y-121712711D01*
X129435501Y-121857346D01*
X129284712Y-122078034D01*
X129231662Y-122340000D01*
X129231662Y-124040000D01*
X129277711Y-124284730D01*
X129292427Y-124307600D01*
X128521438Y-124307600D01*
X128525288Y-124301966D01*
X128578338Y-124040000D01*
X128578338Y-122340000D01*
X128532289Y-122095270D01*
X128387654Y-121870501D01*
X128166966Y-121719712D01*
X127905000Y-121666662D01*
X125905000Y-121666662D01*
X125660270Y-121712711D01*
X125435501Y-121857346D01*
X125395629Y-121915701D01*
X125181966Y-121769712D01*
X124920000Y-121716662D01*
X122920000Y-121716662D01*
X122675270Y-121762711D01*
X122450501Y-121907346D01*
X122299712Y-122128034D01*
X122246662Y-122390000D01*
X122246662Y-123990000D01*
X122292711Y-124234730D01*
X122339602Y-124307600D01*
X121503257Y-124307600D01*
X121580400Y-124121361D01*
X121580400Y-123456700D01*
X121415300Y-123291600D01*
X120021600Y-123291600D01*
X120021600Y-123311600D01*
X119818400Y-123311600D01*
X119818400Y-123291600D01*
X118424700Y-123291600D01*
X118259600Y-123456700D01*
X118259600Y-124121361D01*
X118336743Y-124307600D01*
X117269177Y-124307600D01*
X116597170Y-123635592D01*
X117974123Y-122258639D01*
X118259600Y-122258639D01*
X118259600Y-122923300D01*
X118424700Y-123088400D01*
X119818400Y-123088400D01*
X119818400Y-121894700D01*
X120021600Y-121894700D01*
X120021600Y-123088400D01*
X121415300Y-123088400D01*
X121580400Y-122923300D01*
X121580400Y-122258639D01*
X121479860Y-122015914D01*
X121294087Y-121830140D01*
X121051362Y-121729600D01*
X120186700Y-121729600D01*
X120021600Y-121894700D01*
X119818400Y-121894700D01*
X119653300Y-121729600D01*
X118788638Y-121729600D01*
X118545913Y-121830140D01*
X118360140Y-122015914D01*
X118259600Y-122258639D01*
X117974123Y-122258639D01*
X119576381Y-120656381D01*
X119602910Y-120616677D01*
X119802128Y-120318527D01*
X119809453Y-120281700D01*
X122704600Y-120281700D01*
X122704600Y-120946361D01*
X122805140Y-121189086D01*
X122990913Y-121374860D01*
X123233638Y-121475400D01*
X124098300Y-121475400D01*
X124263400Y-121310300D01*
X124263400Y-120116600D01*
X124466600Y-120116600D01*
X124466600Y-121310300D01*
X124631700Y-121475400D01*
X125496362Y-121475400D01*
X125739087Y-121374860D01*
X125924860Y-121189086D01*
X126025400Y-120946361D01*
X126025400Y-120281700D01*
X125860300Y-120116600D01*
X124466600Y-120116600D01*
X124263400Y-120116600D01*
X122869700Y-120116600D01*
X122704600Y-120281700D01*
X119809453Y-120281700D01*
X119881400Y-119920000D01*
X119881400Y-115765548D01*
X120084730Y-115727289D01*
X120309499Y-115582654D01*
X120460288Y-115361966D01*
X120513338Y-115100000D01*
X120513338Y-113500000D01*
X120467289Y-113255270D01*
X120322654Y-113030501D01*
X120101966Y-112879712D01*
X119840000Y-112826662D01*
X118654619Y-112826662D01*
X118715758Y-112801400D01*
X123393638Y-112801400D01*
X124565802Y-113973564D01*
G36*
X169399837Y-104775000D02*
X169057712Y-105003600D01*
X168275000Y-105003600D01*
X168146932Y-105029074D01*
X168016545Y-105036181D01*
X167949451Y-105068356D01*
X167876473Y-105082872D01*
X167767901Y-105155418D01*
X167650160Y-105211880D01*
X165337384Y-106946462D01*
X164617400Y-106946462D01*
X164372670Y-106992511D01*
X164147901Y-107137146D01*
X163997112Y-107357834D01*
X163944062Y-107619800D01*
X163944062Y-108280200D01*
X163990111Y-108524930D01*
X164027608Y-108583202D01*
X163997112Y-108627834D01*
X163944062Y-108889800D01*
X163944062Y-109550200D01*
X163990111Y-109794930D01*
X164027608Y-109853202D01*
X163997112Y-109897834D01*
X163944062Y-110159800D01*
X163944062Y-110820200D01*
X163990111Y-111064930D01*
X164027608Y-111123202D01*
X163997112Y-111167834D01*
X163944062Y-111429800D01*
X163944062Y-112090200D01*
X163990111Y-112334930D01*
X164134746Y-112559699D01*
X164355434Y-112710488D01*
X164617400Y-112763538D01*
X165337384Y-112763538D01*
X167650160Y-114498120D01*
X167767901Y-114554582D01*
X167876473Y-114627128D01*
X167949451Y-114641644D01*
X168016545Y-114673819D01*
X168146932Y-114680926D01*
X168275000Y-114706400D01*
X169057712Y-114706400D01*
X169404252Y-114937950D01*
X168975369Y-115271053D01*
X168699993Y-115754537D01*
X168667594Y-115882707D01*
X168799812Y-116103400D01*
X170713400Y-116103400D01*
X170713400Y-116083400D01*
X170916600Y-116083400D01*
X170916600Y-116103400D01*
X172830188Y-116103400D01*
X172962406Y-115882707D01*
X172930007Y-115754537D01*
X172654631Y-115271053D01*
X172225748Y-114937950D01*
X172572288Y-114706400D01*
X176098638Y-114706400D01*
X177698619Y-116306381D01*
X178036473Y-116532128D01*
X178435000Y-116611400D01*
X197053638Y-116611400D01*
X197383619Y-116941381D01*
X197721474Y-117167129D01*
X198120000Y-117246400D01*
X199562676Y-117246400D01*
X199572711Y-117299730D01*
X199717346Y-117524499D01*
X199872600Y-117630579D01*
X199872600Y-118958661D01*
X199767645Y-118704650D01*
X199432116Y-118368536D01*
X198993503Y-118186408D01*
X198518580Y-118185993D01*
X198079650Y-118367355D01*
X197743536Y-118702884D01*
X197590285Y-119071953D01*
X195478619Y-121183619D01*
X195252872Y-121521473D01*
X195173600Y-121920000D01*
X195173600Y-123310310D01*
X194944695Y-123538816D01*
X194589400Y-123182899D01*
X194589400Y-121158000D01*
X194519795Y-120808074D01*
X194397201Y-120624600D01*
X194321578Y-120511421D01*
X193178578Y-119368422D01*
X193052344Y-119284075D01*
X192881926Y-119170205D01*
X192532000Y-119100600D01*
X173012338Y-119100600D01*
X173012338Y-117983000D01*
X172966289Y-117738270D01*
X172821654Y-117513501D01*
X172600966Y-117362712D01*
X172415010Y-117325055D01*
X172654631Y-117138947D01*
X172930007Y-116655463D01*
X172962406Y-116527293D01*
X172830188Y-116306600D01*
X170916600Y-116306600D01*
X170916600Y-116326600D01*
X170713400Y-116326600D01*
X170713400Y-116306600D01*
X168799812Y-116306600D01*
X168667594Y-116527293D01*
X168699993Y-116655463D01*
X168975369Y-117138947D01*
X169213860Y-117324177D01*
X169046270Y-117355711D01*
X168821501Y-117500346D01*
X168682624Y-117703600D01*
X167452690Y-117703600D01*
X167712764Y-117443979D01*
X168046020Y-116641410D01*
X168046778Y-115772402D01*
X167714924Y-114969253D01*
X167100979Y-114354236D01*
X166298410Y-114020980D01*
X165429402Y-114020222D01*
X165141813Y-114139051D01*
X162966400Y-111963638D01*
X162966400Y-111125000D01*
X162887129Y-110726474D01*
X162661381Y-110388619D01*
X162026381Y-109753619D01*
X161998112Y-109734730D01*
X161688527Y-109527872D01*
X161290000Y-109448600D01*
X161175938Y-109448600D01*
X161175938Y-108991400D01*
X161290000Y-108991400D01*
X161688527Y-108912128D01*
X162026381Y-108686381D01*
X166166362Y-104546400D01*
X169057712Y-104546400D01*
X169399837Y-104775000D01*
X169399837Y-104775000D01*
G37*
X169399837Y-104775000D02*
X169057712Y-105003600D01*
X168275000Y-105003600D01*
X168146932Y-105029074D01*
X168016545Y-105036181D01*
X167949451Y-105068356D01*
X167876473Y-105082872D01*
X167767901Y-105155418D01*
X167650160Y-105211880D01*
X165337384Y-106946462D01*
X164617400Y-106946462D01*
X164372670Y-106992511D01*
X164147901Y-107137146D01*
X163997112Y-107357834D01*
X163944062Y-107619800D01*
X163944062Y-108280200D01*
X163990111Y-108524930D01*
X164027608Y-108583202D01*
X163997112Y-108627834D01*
X163944062Y-108889800D01*
X163944062Y-109550200D01*
X163990111Y-109794930D01*
X164027608Y-109853202D01*
X163997112Y-109897834D01*
X163944062Y-110159800D01*
X163944062Y-110820200D01*
X163990111Y-111064930D01*
X164027608Y-111123202D01*
X163997112Y-111167834D01*
X163944062Y-111429800D01*
X163944062Y-112090200D01*
X163990111Y-112334930D01*
X164134746Y-112559699D01*
X164355434Y-112710488D01*
X164617400Y-112763538D01*
X165337384Y-112763538D01*
X167650160Y-114498120D01*
X167767901Y-114554582D01*
X167876473Y-114627128D01*
X167949451Y-114641644D01*
X168016545Y-114673819D01*
X168146932Y-114680926D01*
X168275000Y-114706400D01*
X169057712Y-114706400D01*
X169404252Y-114937950D01*
X168975369Y-115271053D01*
X168699993Y-115754537D01*
X168667594Y-115882707D01*
X168799812Y-116103400D01*
X170713400Y-116103400D01*
X170713400Y-116083400D01*
X170916600Y-116083400D01*
X170916600Y-116103400D01*
X172830188Y-116103400D01*
X172962406Y-115882707D01*
X172930007Y-115754537D01*
X172654631Y-115271053D01*
X172225748Y-114937950D01*
X172572288Y-114706400D01*
X176098638Y-114706400D01*
X177698619Y-116306381D01*
X178036473Y-116532128D01*
X178435000Y-116611400D01*
X197053638Y-116611400D01*
X197383619Y-116941381D01*
X197721474Y-117167129D01*
X198120000Y-117246400D01*
X199562676Y-117246400D01*
X199572711Y-117299730D01*
X199717346Y-117524499D01*
X199872600Y-117630579D01*
X199872600Y-118958661D01*
X199767645Y-118704650D01*
X199432116Y-118368536D01*
X198993503Y-118186408D01*
X198518580Y-118185993D01*
X198079650Y-118367355D01*
X197743536Y-118702884D01*
X197590285Y-119071953D01*
X195478619Y-121183619D01*
X195252872Y-121521473D01*
X195173600Y-121920000D01*
X195173600Y-123310310D01*
X194944695Y-123538816D01*
X194589400Y-123182899D01*
X194589400Y-121158000D01*
X194519795Y-120808074D01*
X194397201Y-120624600D01*
X194321578Y-120511421D01*
X193178578Y-119368422D01*
X193052344Y-119284075D01*
X192881926Y-119170205D01*
X192532000Y-119100600D01*
X173012338Y-119100600D01*
X173012338Y-117983000D01*
X172966289Y-117738270D01*
X172821654Y-117513501D01*
X172600966Y-117362712D01*
X172415010Y-117325055D01*
X172654631Y-117138947D01*
X172930007Y-116655463D01*
X172962406Y-116527293D01*
X172830188Y-116306600D01*
X170916600Y-116306600D01*
X170916600Y-116326600D01*
X170713400Y-116326600D01*
X170713400Y-116306600D01*
X168799812Y-116306600D01*
X168667594Y-116527293D01*
X168699993Y-116655463D01*
X168975369Y-117138947D01*
X169213860Y-117324177D01*
X169046270Y-117355711D01*
X168821501Y-117500346D01*
X168682624Y-117703600D01*
X167452690Y-117703600D01*
X167712764Y-117443979D01*
X168046020Y-116641410D01*
X168046778Y-115772402D01*
X167714924Y-114969253D01*
X167100979Y-114354236D01*
X166298410Y-114020980D01*
X165429402Y-114020222D01*
X165141813Y-114139051D01*
X162966400Y-111963638D01*
X162966400Y-111125000D01*
X162887129Y-110726474D01*
X162661381Y-110388619D01*
X162026381Y-109753619D01*
X161998112Y-109734730D01*
X161688527Y-109527872D01*
X161290000Y-109448600D01*
X161175938Y-109448600D01*
X161175938Y-108991400D01*
X161290000Y-108991400D01*
X161688527Y-108912128D01*
X162026381Y-108686381D01*
X166166362Y-104546400D01*
X169057712Y-104546400D01*
X169399837Y-104775000D01*
G36*
X136922060Y-115191399D02*
X136953081Y-115356260D01*
X137097716Y-115581029D01*
X137318404Y-115731818D01*
X137580370Y-115784868D01*
X137979150Y-115784868D01*
X138083212Y-115765288D01*
X138099248Y-115771930D01*
X138165205Y-115771930D01*
X138192391Y-115744744D01*
X138223880Y-115738819D01*
X138229340Y-115735306D01*
X138229340Y-118527386D01*
X138053536Y-118702884D01*
X137871408Y-119141497D01*
X137870993Y-119616420D01*
X138052355Y-120055350D01*
X138367056Y-120370600D01*
X137299011Y-120370600D01*
X137202116Y-120273536D01*
X137023338Y-120199301D01*
X137023338Y-119165000D01*
X136977289Y-118920270D01*
X136832654Y-118695501D01*
X136611966Y-118544712D01*
X136350000Y-118491662D01*
X134484147Y-118491662D01*
X134543592Y-118348503D01*
X134543867Y-118033734D01*
X134856420Y-118034007D01*
X135295350Y-117852645D01*
X135631464Y-117517116D01*
X135813592Y-117078503D01*
X135814007Y-116603580D01*
X135632645Y-116164650D01*
X135470900Y-116002623D01*
X135470900Y-115287454D01*
X135598903Y-115159451D01*
X136922060Y-115191399D01*
X136922060Y-115191399D01*
G37*
X136922060Y-115191399D02*
X136953081Y-115356260D01*
X137097716Y-115581029D01*
X137318404Y-115731818D01*
X137580370Y-115784868D01*
X137979150Y-115784868D01*
X138083212Y-115765288D01*
X138099248Y-115771930D01*
X138165205Y-115771930D01*
X138192391Y-115744744D01*
X138223880Y-115738819D01*
X138229340Y-115735306D01*
X138229340Y-118527386D01*
X138053536Y-118702884D01*
X137871408Y-119141497D01*
X137870993Y-119616420D01*
X138052355Y-120055350D01*
X138367056Y-120370600D01*
X137299011Y-120370600D01*
X137202116Y-120273536D01*
X137023338Y-120199301D01*
X137023338Y-119165000D01*
X136977289Y-118920270D01*
X136832654Y-118695501D01*
X136611966Y-118544712D01*
X136350000Y-118491662D01*
X134484147Y-118491662D01*
X134543592Y-118348503D01*
X134543867Y-118033734D01*
X134856420Y-118034007D01*
X135295350Y-117852645D01*
X135631464Y-117517116D01*
X135813592Y-117078503D01*
X135814007Y-116603580D01*
X135632645Y-116164650D01*
X135470900Y-116002623D01*
X135470900Y-115287454D01*
X135598903Y-115159451D01*
X136922060Y-115191399D01*
G36*
X148383081Y-115356260D02*
X148527716Y-115581029D01*
X148748404Y-115731818D01*
X149010370Y-115784868D01*
X149409150Y-115784868D01*
X149513212Y-115765288D01*
X149529248Y-115771930D01*
X149595205Y-115771930D01*
X149622391Y-115744744D01*
X149653880Y-115738819D01*
X149862581Y-115604523D01*
X150048884Y-115731818D01*
X150093773Y-115740908D01*
X150124795Y-115771930D01*
X150190752Y-115771930D01*
X150207841Y-115764851D01*
X147589607Y-119011462D01*
X146202400Y-119011462D01*
X145957670Y-119057511D01*
X145732901Y-119202146D01*
X145646140Y-119329125D01*
X145646140Y-117964930D01*
X145811497Y-118033592D01*
X146286420Y-118034007D01*
X146725350Y-117852645D01*
X147061464Y-117517116D01*
X147243592Y-117078503D01*
X147244007Y-116603580D01*
X147062645Y-116164650D01*
X146900900Y-116002623D01*
X146900900Y-115287454D01*
X147037454Y-115150900D01*
X148344440Y-115150900D01*
X148383081Y-115356260D01*
X148383081Y-115356260D01*
G37*
X148383081Y-115356260D02*
X148527716Y-115581029D01*
X148748404Y-115731818D01*
X149010370Y-115784868D01*
X149409150Y-115784868D01*
X149513212Y-115765288D01*
X149529248Y-115771930D01*
X149595205Y-115771930D01*
X149622391Y-115744744D01*
X149653880Y-115738819D01*
X149862581Y-115604523D01*
X150048884Y-115731818D01*
X150093773Y-115740908D01*
X150124795Y-115771930D01*
X150190752Y-115771930D01*
X150207841Y-115764851D01*
X147589607Y-119011462D01*
X146202400Y-119011462D01*
X145957670Y-119057511D01*
X145732901Y-119202146D01*
X145646140Y-119329125D01*
X145646140Y-117964930D01*
X145811497Y-118033592D01*
X146286420Y-118034007D01*
X146725350Y-117852645D01*
X147061464Y-117517116D01*
X147243592Y-117078503D01*
X147244007Y-116603580D01*
X147062645Y-116164650D01*
X146900900Y-116002623D01*
X146900900Y-115287454D01*
X147037454Y-115150900D01*
X148344440Y-115150900D01*
X148383081Y-115356260D01*
G36*
X131207060Y-115191399D02*
X131238081Y-115356260D01*
X131382716Y-115581029D01*
X131603404Y-115731818D01*
X131865370Y-115784868D01*
X132264150Y-115784868D01*
X132368212Y-115765288D01*
X132384248Y-115771930D01*
X132450205Y-115771930D01*
X132477391Y-115744744D01*
X132499100Y-115740659D01*
X132499100Y-117272599D01*
X132338536Y-117432884D01*
X132156408Y-117871497D01*
X132155993Y-118346420D01*
X132216006Y-118491662D01*
X130350000Y-118491662D01*
X130105270Y-118537711D01*
X129880501Y-118682346D01*
X129840629Y-118740701D01*
X129626966Y-118594712D01*
X129365000Y-118541662D01*
X129311400Y-118541662D01*
X129311400Y-117963773D01*
X129580350Y-117852645D01*
X129916464Y-117517116D01*
X130098592Y-117078503D01*
X130099007Y-116603580D01*
X129917645Y-116164650D01*
X129755900Y-116002623D01*
X129755900Y-115287454D01*
X129883903Y-115159451D01*
X131207060Y-115191399D01*
X131207060Y-115191399D01*
G37*
X131207060Y-115191399D02*
X131238081Y-115356260D01*
X131382716Y-115581029D01*
X131603404Y-115731818D01*
X131865370Y-115784868D01*
X132264150Y-115784868D01*
X132368212Y-115765288D01*
X132384248Y-115771930D01*
X132450205Y-115771930D01*
X132477391Y-115744744D01*
X132499100Y-115740659D01*
X132499100Y-117272599D01*
X132338536Y-117432884D01*
X132156408Y-117871497D01*
X132155993Y-118346420D01*
X132216006Y-118491662D01*
X130350000Y-118491662D01*
X130105270Y-118537711D01*
X129880501Y-118682346D01*
X129840629Y-118740701D01*
X129626966Y-118594712D01*
X129365000Y-118541662D01*
X129311400Y-118541662D01*
X129311400Y-117963773D01*
X129580350Y-117852645D01*
X129916464Y-117517116D01*
X130098592Y-117078503D01*
X130099007Y-116603580D01*
X129917645Y-116164650D01*
X129755900Y-116002623D01*
X129755900Y-115287454D01*
X129883903Y-115159451D01*
X131207060Y-115191399D01*
G36*
X77317600Y-75814639D02*
X77317600Y-77203300D01*
X77482700Y-77368400D01*
X78638400Y-77368400D01*
X78638400Y-77348400D01*
X78841600Y-77348400D01*
X78841600Y-77368400D01*
X78861600Y-77368400D01*
X78861600Y-77571600D01*
X78841600Y-77571600D01*
X78841600Y-79489300D01*
X79006700Y-79654400D01*
X79633362Y-79654400D01*
X79876087Y-79553860D01*
X80061860Y-79368086D01*
X80162400Y-79125361D01*
X80162400Y-79113247D01*
X80238600Y-79227288D01*
X80238600Y-79375000D01*
X80317872Y-79773527D01*
X80488389Y-80028723D01*
X80543619Y-80111381D01*
X80968600Y-80536362D01*
X80968600Y-81084452D01*
X80765270Y-81122711D01*
X80540501Y-81267346D01*
X80389712Y-81488034D01*
X80336662Y-81750000D01*
X80336662Y-83350000D01*
X80382711Y-83594730D01*
X80527346Y-83819499D01*
X80748034Y-83970288D01*
X80873600Y-83995716D01*
X80873600Y-85262676D01*
X80820270Y-85272711D01*
X80595501Y-85417346D01*
X80444712Y-85638034D01*
X80391662Y-85900000D01*
X80391662Y-87900000D01*
X80437711Y-88144730D01*
X80582346Y-88369499D01*
X80803034Y-88520288D01*
X81065000Y-88573338D01*
X82765000Y-88573338D01*
X82778600Y-88570779D01*
X82778600Y-89103638D01*
X82655576Y-89226662D01*
X81065000Y-89226662D01*
X80820270Y-89272711D01*
X80595501Y-89417346D01*
X80444712Y-89638034D01*
X80400046Y-89858600D01*
X79620548Y-89858600D01*
X79582289Y-89655270D01*
X79437654Y-89430501D01*
X79216966Y-89279712D01*
X78955000Y-89226662D01*
X77255000Y-89226662D01*
X77010270Y-89272711D01*
X76910400Y-89336976D01*
X76910400Y-88472074D01*
X77123639Y-88560400D01*
X77838300Y-88560400D01*
X78003400Y-88395300D01*
X78003400Y-87001600D01*
X78206600Y-87001600D01*
X78206600Y-88395300D01*
X78371700Y-88560400D01*
X79086361Y-88560400D01*
X79329086Y-88459860D01*
X79514860Y-88274087D01*
X79615400Y-88031362D01*
X79615400Y-87166700D01*
X79450300Y-87001600D01*
X78206600Y-87001600D01*
X78003400Y-87001600D01*
X77983400Y-87001600D01*
X77983400Y-86798400D01*
X78003400Y-86798400D01*
X78003400Y-85404700D01*
X78206600Y-85404700D01*
X78206600Y-86798400D01*
X79450300Y-86798400D01*
X79615400Y-86633300D01*
X79615400Y-85768638D01*
X79514860Y-85525913D01*
X79329086Y-85340140D01*
X79086361Y-85239600D01*
X78371700Y-85239600D01*
X78206600Y-85404700D01*
X78003400Y-85404700D01*
X77838300Y-85239600D01*
X77123639Y-85239600D01*
X76910400Y-85327926D01*
X76910400Y-84010400D01*
X77743300Y-84010400D01*
X77908400Y-83845300D01*
X77908400Y-82651600D01*
X78111600Y-82651600D01*
X78111600Y-83845300D01*
X78276700Y-84010400D01*
X79141362Y-84010400D01*
X79384087Y-83909860D01*
X79569860Y-83724086D01*
X79670400Y-83481361D01*
X79670400Y-82816700D01*
X79505300Y-82651600D01*
X78111600Y-82651600D01*
X77908400Y-82651600D01*
X77888400Y-82651600D01*
X77888400Y-82448400D01*
X77908400Y-82448400D01*
X77908400Y-81254700D01*
X78111600Y-81254700D01*
X78111600Y-82448400D01*
X79505300Y-82448400D01*
X79670400Y-82283300D01*
X79670400Y-81618639D01*
X79569860Y-81375914D01*
X79384087Y-81190140D01*
X79141362Y-81089600D01*
X78276700Y-81089600D01*
X78111600Y-81254700D01*
X77908400Y-81254700D01*
X77743300Y-81089600D01*
X76910400Y-81089600D01*
X76910400Y-77736700D01*
X77317600Y-77736700D01*
X77317600Y-79125361D01*
X77418140Y-79368086D01*
X77603913Y-79553860D01*
X77846638Y-79654400D01*
X78473300Y-79654400D01*
X78638400Y-79489300D01*
X78638400Y-77571600D01*
X77482700Y-77571600D01*
X77317600Y-77736700D01*
X76910400Y-77736700D01*
X76910400Y-75640400D01*
X77389772Y-75640400D01*
X77317600Y-75814639D01*
X77317600Y-75814639D01*
G37*
X77317600Y-75814639D02*
X77317600Y-77203300D01*
X77482700Y-77368400D01*
X78638400Y-77368400D01*
X78638400Y-77348400D01*
X78841600Y-77348400D01*
X78841600Y-77368400D01*
X78861600Y-77368400D01*
X78861600Y-77571600D01*
X78841600Y-77571600D01*
X78841600Y-79489300D01*
X79006700Y-79654400D01*
X79633362Y-79654400D01*
X79876087Y-79553860D01*
X80061860Y-79368086D01*
X80162400Y-79125361D01*
X80162400Y-79113247D01*
X80238600Y-79227288D01*
X80238600Y-79375000D01*
X80317872Y-79773527D01*
X80488389Y-80028723D01*
X80543619Y-80111381D01*
X80968600Y-80536362D01*
X80968600Y-81084452D01*
X80765270Y-81122711D01*
X80540501Y-81267346D01*
X80389712Y-81488034D01*
X80336662Y-81750000D01*
X80336662Y-83350000D01*
X80382711Y-83594730D01*
X80527346Y-83819499D01*
X80748034Y-83970288D01*
X80873600Y-83995716D01*
X80873600Y-85262676D01*
X80820270Y-85272711D01*
X80595501Y-85417346D01*
X80444712Y-85638034D01*
X80391662Y-85900000D01*
X80391662Y-87900000D01*
X80437711Y-88144730D01*
X80582346Y-88369499D01*
X80803034Y-88520288D01*
X81065000Y-88573338D01*
X82765000Y-88573338D01*
X82778600Y-88570779D01*
X82778600Y-89103638D01*
X82655576Y-89226662D01*
X81065000Y-89226662D01*
X80820270Y-89272711D01*
X80595501Y-89417346D01*
X80444712Y-89638034D01*
X80400046Y-89858600D01*
X79620548Y-89858600D01*
X79582289Y-89655270D01*
X79437654Y-89430501D01*
X79216966Y-89279712D01*
X78955000Y-89226662D01*
X77255000Y-89226662D01*
X77010270Y-89272711D01*
X76910400Y-89336976D01*
X76910400Y-88472074D01*
X77123639Y-88560400D01*
X77838300Y-88560400D01*
X78003400Y-88395300D01*
X78003400Y-87001600D01*
X78206600Y-87001600D01*
X78206600Y-88395300D01*
X78371700Y-88560400D01*
X79086361Y-88560400D01*
X79329086Y-88459860D01*
X79514860Y-88274087D01*
X79615400Y-88031362D01*
X79615400Y-87166700D01*
X79450300Y-87001600D01*
X78206600Y-87001600D01*
X78003400Y-87001600D01*
X77983400Y-87001600D01*
X77983400Y-86798400D01*
X78003400Y-86798400D01*
X78003400Y-85404700D01*
X78206600Y-85404700D01*
X78206600Y-86798400D01*
X79450300Y-86798400D01*
X79615400Y-86633300D01*
X79615400Y-85768638D01*
X79514860Y-85525913D01*
X79329086Y-85340140D01*
X79086361Y-85239600D01*
X78371700Y-85239600D01*
X78206600Y-85404700D01*
X78003400Y-85404700D01*
X77838300Y-85239600D01*
X77123639Y-85239600D01*
X76910400Y-85327926D01*
X76910400Y-84010400D01*
X77743300Y-84010400D01*
X77908400Y-83845300D01*
X77908400Y-82651600D01*
X78111600Y-82651600D01*
X78111600Y-83845300D01*
X78276700Y-84010400D01*
X79141362Y-84010400D01*
X79384087Y-83909860D01*
X79569860Y-83724086D01*
X79670400Y-83481361D01*
X79670400Y-82816700D01*
X79505300Y-82651600D01*
X78111600Y-82651600D01*
X77908400Y-82651600D01*
X77888400Y-82651600D01*
X77888400Y-82448400D01*
X77908400Y-82448400D01*
X77908400Y-81254700D01*
X78111600Y-81254700D01*
X78111600Y-82448400D01*
X79505300Y-82448400D01*
X79670400Y-82283300D01*
X79670400Y-81618639D01*
X79569860Y-81375914D01*
X79384087Y-81190140D01*
X79141362Y-81089600D01*
X78276700Y-81089600D01*
X78111600Y-81254700D01*
X77908400Y-81254700D01*
X77743300Y-81089600D01*
X76910400Y-81089600D01*
X76910400Y-77736700D01*
X77317600Y-77736700D01*
X77317600Y-79125361D01*
X77418140Y-79368086D01*
X77603913Y-79553860D01*
X77846638Y-79654400D01*
X78473300Y-79654400D01*
X78638400Y-79489300D01*
X78638400Y-77571600D01*
X77482700Y-77571600D01*
X77317600Y-77736700D01*
X76910400Y-77736700D01*
X76910400Y-75640400D01*
X77389772Y-75640400D01*
X77317600Y-75814639D01*
M02*
