G04 #@! TF.FileFunction,Legend,Top*
%FSLAX46Y46*%
G04 Gerber Fmt 4.6, Leading zero omitted, Abs format (unit mm)*
G04 Created by KiCad (PCBNEW 4.0.5-e0-6337~49~ubuntu14.04.1) date Fri Dec 30 14:23:34 2016*
%MOMM*%
%LPD*%
G01*
G04 APERTURE LIST*
%ADD10C,0.150000*%
%ADD11C,0.200000*%
%ADD12C,0.254000*%
%ADD13C,0.203200*%
%ADD14C,0.101600*%
%ADD15C,1.587500*%
%ADD16C,0.120000*%
%ADD17C,0.127000*%
%ADD18C,0.066040*%
%ADD19C,0.050800*%
%ADD20C,0.152400*%
G04 APERTURE END LIST*
D10*
D11*
X106172000Y-107823000D02*
X107188000Y-107823000D01*
X106680000Y-107823000D02*
X106172000Y-106934000D01*
X107188000Y-106934000D02*
X106680000Y-107823000D01*
X106172000Y-106934000D02*
X107188000Y-106934000D01*
X102362000Y-107823000D02*
X103378000Y-107823000D01*
X102870000Y-107823000D02*
X102362000Y-106934000D01*
X103378000Y-106934000D02*
X102870000Y-107823000D01*
X102362000Y-106934000D02*
X103378000Y-106934000D01*
X98552000Y-107823000D02*
X99568000Y-107823000D01*
X99060000Y-107823000D02*
X98552000Y-106934000D01*
X99060000Y-107823000D02*
X99568000Y-106934000D01*
X98552000Y-106934000D02*
X99568000Y-106934000D01*
D12*
X127870857Y-99822000D02*
X127943429Y-99604286D01*
X127943429Y-99241429D01*
X127870857Y-99096286D01*
X127798286Y-99023715D01*
X127653143Y-98951143D01*
X127508000Y-98951143D01*
X127362857Y-99023715D01*
X127290286Y-99096286D01*
X127217714Y-99241429D01*
X127145143Y-99531715D01*
X127072571Y-99676857D01*
X127000000Y-99749429D01*
X126854857Y-99822000D01*
X126709714Y-99822000D01*
X126564571Y-99749429D01*
X126492000Y-99676857D01*
X126419429Y-99531715D01*
X126419429Y-99168857D01*
X126492000Y-98951143D01*
X127943429Y-98298000D02*
X126419429Y-98298000D01*
X126419429Y-97935143D01*
X126492000Y-97717428D01*
X126637143Y-97572286D01*
X126782286Y-97499714D01*
X127072571Y-97427143D01*
X127290286Y-97427143D01*
X127580571Y-97499714D01*
X127725714Y-97572286D01*
X127870857Y-97717428D01*
X127943429Y-97935143D01*
X127943429Y-98298000D01*
X127798286Y-95903143D02*
X127870857Y-95975714D01*
X127943429Y-96193428D01*
X127943429Y-96338571D01*
X127870857Y-96556286D01*
X127725714Y-96701428D01*
X127580571Y-96774000D01*
X127290286Y-96846571D01*
X127072571Y-96846571D01*
X126782286Y-96774000D01*
X126637143Y-96701428D01*
X126492000Y-96556286D01*
X126419429Y-96338571D01*
X126419429Y-96193428D01*
X126492000Y-95975714D01*
X126564571Y-95903143D01*
X127943429Y-94596857D02*
X127145143Y-94596857D01*
X127000000Y-94669428D01*
X126927429Y-94814571D01*
X126927429Y-95104857D01*
X127000000Y-95250000D01*
X127870857Y-94596857D02*
X127943429Y-94742000D01*
X127943429Y-95104857D01*
X127870857Y-95250000D01*
X127725714Y-95322571D01*
X127580571Y-95322571D01*
X127435429Y-95250000D01*
X127362857Y-95104857D01*
X127362857Y-94742000D01*
X127290286Y-94596857D01*
X127943429Y-93871143D02*
X126927429Y-93871143D01*
X127217714Y-93871143D02*
X127072571Y-93798571D01*
X127000000Y-93726000D01*
X126927429Y-93580857D01*
X126927429Y-93435714D01*
X127943429Y-92274571D02*
X126419429Y-92274571D01*
X127870857Y-92274571D02*
X127943429Y-92419714D01*
X127943429Y-92710000D01*
X127870857Y-92855142D01*
X127798286Y-92927714D01*
X127653143Y-93000285D01*
X127217714Y-93000285D01*
X127072571Y-92927714D01*
X127000000Y-92855142D01*
X126927429Y-92710000D01*
X126927429Y-92419714D01*
X127000000Y-92274571D01*
X168728571Y-125512286D02*
X170252571Y-125512286D01*
X169164000Y-126020286D01*
X170252571Y-126528286D01*
X168728571Y-126528286D01*
X169526857Y-127762000D02*
X169454286Y-127979714D01*
X169381714Y-128052286D01*
X169236571Y-128124857D01*
X169018857Y-128124857D01*
X168873714Y-128052286D01*
X168801143Y-127979714D01*
X168728571Y-127834572D01*
X168728571Y-127254000D01*
X170252571Y-127254000D01*
X170252571Y-127762000D01*
X170180000Y-127907143D01*
X170107429Y-127979714D01*
X169962286Y-128052286D01*
X169817143Y-128052286D01*
X169672000Y-127979714D01*
X169599429Y-127907143D01*
X169526857Y-127762000D01*
X169526857Y-127254000D01*
X168873714Y-130810000D02*
X168801143Y-130737429D01*
X168728571Y-130519715D01*
X168728571Y-130374572D01*
X168801143Y-130156857D01*
X168946286Y-130011715D01*
X169091429Y-129939143D01*
X169381714Y-129866572D01*
X169599429Y-129866572D01*
X169889714Y-129939143D01*
X170034857Y-130011715D01*
X170180000Y-130156857D01*
X170252571Y-130374572D01*
X170252571Y-130519715D01*
X170180000Y-130737429D01*
X170107429Y-130810000D01*
X168728571Y-132116286D02*
X169526857Y-132116286D01*
X169672000Y-132043715D01*
X169744571Y-131898572D01*
X169744571Y-131608286D01*
X169672000Y-131463143D01*
X168801143Y-132116286D02*
X168728571Y-131971143D01*
X168728571Y-131608286D01*
X168801143Y-131463143D01*
X168946286Y-131390572D01*
X169091429Y-131390572D01*
X169236571Y-131463143D01*
X169309143Y-131608286D01*
X169309143Y-131971143D01*
X169381714Y-132116286D01*
X168728571Y-132842000D02*
X170252571Y-132842000D01*
X169672000Y-132842000D02*
X169744571Y-132987143D01*
X169744571Y-133277429D01*
X169672000Y-133422572D01*
X169599429Y-133495143D01*
X169454286Y-133567714D01*
X169018857Y-133567714D01*
X168873714Y-133495143D01*
X168801143Y-133422572D01*
X168728571Y-133277429D01*
X168728571Y-132987143D01*
X168801143Y-132842000D01*
X168728571Y-134438571D02*
X168801143Y-134293429D01*
X168946286Y-134220857D01*
X170252571Y-134220857D01*
X168801143Y-135599715D02*
X168728571Y-135454572D01*
X168728571Y-135164286D01*
X168801143Y-135019143D01*
X168946286Y-134946572D01*
X169526857Y-134946572D01*
X169672000Y-135019143D01*
X169744571Y-135164286D01*
X169744571Y-135454572D01*
X169672000Y-135599715D01*
X169526857Y-135672286D01*
X169381714Y-135672286D01*
X169236571Y-134946572D01*
X177110571Y-122065143D02*
X177038000Y-122186095D01*
X176820286Y-122307048D01*
X176675143Y-122307048D01*
X176457428Y-122186095D01*
X176312286Y-121944190D01*
X176239714Y-121702286D01*
X176167143Y-121218476D01*
X176167143Y-120855619D01*
X176239714Y-120371810D01*
X176312286Y-120129905D01*
X176457428Y-119888000D01*
X176675143Y-119767048D01*
X176820286Y-119767048D01*
X177038000Y-119888000D01*
X177110571Y-120008952D01*
X177981428Y-122307048D02*
X177836286Y-122186095D01*
X177763714Y-122065143D01*
X177691143Y-121823238D01*
X177691143Y-121097524D01*
X177763714Y-120855619D01*
X177836286Y-120734667D01*
X177981428Y-120613714D01*
X178199143Y-120613714D01*
X178344286Y-120734667D01*
X178416857Y-120855619D01*
X178489428Y-121097524D01*
X178489428Y-121823238D01*
X178416857Y-122065143D01*
X178344286Y-122186095D01*
X178199143Y-122307048D01*
X177981428Y-122307048D01*
X179142571Y-120613714D02*
X179142571Y-123153714D01*
X179142571Y-120734667D02*
X179287714Y-120613714D01*
X179578000Y-120613714D01*
X179723143Y-120734667D01*
X179795714Y-120855619D01*
X179868285Y-121097524D01*
X179868285Y-121823238D01*
X179795714Y-122065143D01*
X179723143Y-122186095D01*
X179578000Y-122307048D01*
X179287714Y-122307048D01*
X179142571Y-122186095D01*
X180376285Y-120613714D02*
X180739142Y-122307048D01*
X181102000Y-120613714D02*
X180739142Y-122307048D01*
X180594000Y-122911810D01*
X180521428Y-123032762D01*
X180376285Y-123153714D01*
X181682571Y-122307048D02*
X181682571Y-120613714D01*
X181682571Y-121097524D02*
X181755143Y-120855619D01*
X181827714Y-120734667D01*
X181972857Y-120613714D01*
X182118000Y-120613714D01*
X182626000Y-122307048D02*
X182626000Y-120613714D01*
X182626000Y-119767048D02*
X182553429Y-119888000D01*
X182626000Y-120008952D01*
X182698572Y-119888000D01*
X182626000Y-119767048D01*
X182626000Y-120008952D01*
X184004857Y-120613714D02*
X184004857Y-122669905D01*
X183932286Y-122911810D01*
X183859714Y-123032762D01*
X183714571Y-123153714D01*
X183496857Y-123153714D01*
X183351714Y-123032762D01*
X184004857Y-122186095D02*
X183859714Y-122307048D01*
X183569428Y-122307048D01*
X183424286Y-122186095D01*
X183351714Y-122065143D01*
X183279143Y-121823238D01*
X183279143Y-121097524D01*
X183351714Y-120855619D01*
X183424286Y-120734667D01*
X183569428Y-120613714D01*
X183859714Y-120613714D01*
X184004857Y-120734667D01*
X184730571Y-122307048D02*
X184730571Y-119767048D01*
X185383714Y-122307048D02*
X185383714Y-120976571D01*
X185311143Y-120734667D01*
X185166000Y-120613714D01*
X184948285Y-120613714D01*
X184803143Y-120734667D01*
X184730571Y-120855619D01*
X185891714Y-120613714D02*
X186472285Y-120613714D01*
X186109428Y-119767048D02*
X186109428Y-121944190D01*
X186182000Y-122186095D01*
X186327142Y-122307048D01*
X186472285Y-122307048D01*
X187415714Y-123274667D02*
X187343142Y-123153714D01*
X187197999Y-122790857D01*
X187125428Y-122548952D01*
X187052857Y-122186095D01*
X186980285Y-121581333D01*
X186980285Y-121097524D01*
X187052857Y-120492762D01*
X187125428Y-120129905D01*
X187197999Y-119888000D01*
X187343142Y-119525143D01*
X187415714Y-119404190D01*
X188649428Y-122186095D02*
X188504285Y-122307048D01*
X188213999Y-122307048D01*
X188068857Y-122186095D01*
X187996285Y-122065143D01*
X187923714Y-121823238D01*
X187923714Y-121097524D01*
X187996285Y-120855619D01*
X188068857Y-120734667D01*
X188213999Y-120613714D01*
X188504285Y-120613714D01*
X188649428Y-120734667D01*
X189157428Y-123274667D02*
X189230000Y-123153714D01*
X189375143Y-122790857D01*
X189447714Y-122548952D01*
X189520285Y-122186095D01*
X189592857Y-121581333D01*
X189592857Y-121097524D01*
X189520285Y-120492762D01*
X189447714Y-120129905D01*
X189375143Y-119888000D01*
X189230000Y-119525143D01*
X189157428Y-119404190D01*
X190246000Y-120008952D02*
X190318571Y-119888000D01*
X190463714Y-119767048D01*
X190826571Y-119767048D01*
X190971714Y-119888000D01*
X191044285Y-120008952D01*
X191116857Y-120250857D01*
X191116857Y-120492762D01*
X191044285Y-120855619D01*
X190173428Y-122307048D01*
X191116857Y-122307048D01*
X192060286Y-119767048D02*
X192205429Y-119767048D01*
X192350572Y-119888000D01*
X192423143Y-120008952D01*
X192495714Y-120250857D01*
X192568286Y-120734667D01*
X192568286Y-121339429D01*
X192495714Y-121823238D01*
X192423143Y-122065143D01*
X192350572Y-122186095D01*
X192205429Y-122307048D01*
X192060286Y-122307048D01*
X191915143Y-122186095D01*
X191842572Y-122065143D01*
X191770000Y-121823238D01*
X191697429Y-121339429D01*
X191697429Y-120734667D01*
X191770000Y-120250857D01*
X191842572Y-120008952D01*
X191915143Y-119888000D01*
X192060286Y-119767048D01*
X194019715Y-122307048D02*
X193148858Y-122307048D01*
X193584286Y-122307048D02*
X193584286Y-119767048D01*
X193439143Y-120129905D01*
X193294001Y-120371810D01*
X193148858Y-120492762D01*
X195326001Y-119767048D02*
X195035715Y-119767048D01*
X194890572Y-119888000D01*
X194818001Y-120008952D01*
X194672858Y-120371810D01*
X194600287Y-120855619D01*
X194600287Y-121823238D01*
X194672858Y-122065143D01*
X194745430Y-122186095D01*
X194890572Y-122307048D01*
X195180858Y-122307048D01*
X195326001Y-122186095D01*
X195398572Y-122065143D01*
X195471144Y-121823238D01*
X195471144Y-121218476D01*
X195398572Y-120976571D01*
X195326001Y-120855619D01*
X195180858Y-120734667D01*
X194890572Y-120734667D01*
X194745430Y-120855619D01*
X194672858Y-120976571D01*
X194600287Y-121218476D01*
X197285430Y-122307048D02*
X197285430Y-119767048D01*
X197648287Y-119767048D01*
X197866002Y-119888000D01*
X198011144Y-120129905D01*
X198083716Y-120371810D01*
X198156287Y-120855619D01*
X198156287Y-121218476D01*
X198083716Y-121702286D01*
X198011144Y-121944190D01*
X197866002Y-122186095D01*
X197648287Y-122307048D01*
X197285430Y-122307048D01*
X199390002Y-122186095D02*
X199244859Y-122307048D01*
X198954573Y-122307048D01*
X198809430Y-122186095D01*
X198736859Y-121944190D01*
X198736859Y-120976571D01*
X198809430Y-120734667D01*
X198954573Y-120613714D01*
X199244859Y-120613714D01*
X199390002Y-120734667D01*
X199462573Y-120976571D01*
X199462573Y-121218476D01*
X198736859Y-121460381D01*
X199970573Y-120613714D02*
X200260859Y-122307048D01*
X200551145Y-121097524D01*
X200841430Y-122307048D01*
X201131716Y-120613714D01*
X201494573Y-120613714D02*
X202075144Y-120613714D01*
X201712287Y-119767048D02*
X201712287Y-121944190D01*
X201784859Y-122186095D01*
X201930001Y-122307048D01*
X202075144Y-122307048D01*
X202583144Y-122307048D02*
X202583144Y-120613714D01*
X202583144Y-121097524D02*
X202655716Y-120855619D01*
X202728287Y-120734667D01*
X202873430Y-120613714D01*
X203018573Y-120613714D01*
X203744287Y-122307048D02*
X203599145Y-122186095D01*
X203526573Y-122065143D01*
X203454002Y-121823238D01*
X203454002Y-121097524D01*
X203526573Y-120855619D01*
X203599145Y-120734667D01*
X203744287Y-120613714D01*
X203962002Y-120613714D01*
X204107145Y-120734667D01*
X204179716Y-120855619D01*
X204252287Y-121097524D01*
X204252287Y-121823238D01*
X204179716Y-122065143D01*
X204107145Y-122186095D01*
X203962002Y-122307048D01*
X203744287Y-122307048D01*
X204905430Y-120613714D02*
X204905430Y-122307048D01*
X204905430Y-120855619D02*
X204978002Y-120734667D01*
X205123144Y-120613714D01*
X205340859Y-120613714D01*
X205486002Y-120734667D01*
X205558573Y-120976571D01*
X205558573Y-122307048D01*
X206284287Y-122307048D02*
X206284287Y-120613714D01*
X206284287Y-119767048D02*
X206211716Y-119888000D01*
X206284287Y-120008952D01*
X206356859Y-119888000D01*
X206284287Y-119767048D01*
X206284287Y-120008952D01*
X207663144Y-122186095D02*
X207518001Y-122307048D01*
X207227715Y-122307048D01*
X207082573Y-122186095D01*
X207010001Y-122065143D01*
X206937430Y-121823238D01*
X206937430Y-121097524D01*
X207010001Y-120855619D01*
X207082573Y-120734667D01*
X207227715Y-120613714D01*
X207518001Y-120613714D01*
X207663144Y-120734667D01*
X208243716Y-122186095D02*
X208388859Y-122307048D01*
X208679144Y-122307048D01*
X208824287Y-122186095D01*
X208896859Y-121944190D01*
X208896859Y-121823238D01*
X208824287Y-121581333D01*
X208679144Y-121460381D01*
X208461430Y-121460381D01*
X208316287Y-121339429D01*
X208243716Y-121097524D01*
X208243716Y-120976571D01*
X208316287Y-120734667D01*
X208461430Y-120613714D01*
X208679144Y-120613714D01*
X208824287Y-120734667D01*
X162777714Y-121049143D02*
X163285714Y-121049143D01*
X163503428Y-121847429D02*
X162777714Y-121847429D01*
X162777714Y-120323429D01*
X163503428Y-120323429D01*
X164084000Y-121774857D02*
X164301714Y-121847429D01*
X164664571Y-121847429D01*
X164809714Y-121774857D01*
X164882285Y-121702286D01*
X164954857Y-121557143D01*
X164954857Y-121412000D01*
X164882285Y-121266857D01*
X164809714Y-121194286D01*
X164664571Y-121121714D01*
X164374285Y-121049143D01*
X164229143Y-120976571D01*
X164156571Y-120904000D01*
X164084000Y-120758857D01*
X164084000Y-120613714D01*
X164156571Y-120468571D01*
X164229143Y-120396000D01*
X164374285Y-120323429D01*
X164737143Y-120323429D01*
X164954857Y-120396000D01*
X165608000Y-121847429D02*
X165608000Y-120323429D01*
X165970857Y-120323429D01*
X166188572Y-120396000D01*
X166333714Y-120541143D01*
X166406286Y-120686286D01*
X166478857Y-120976571D01*
X166478857Y-121194286D01*
X166406286Y-121484571D01*
X166333714Y-121629714D01*
X166188572Y-121774857D01*
X165970857Y-121847429D01*
X165608000Y-121847429D01*
X161761715Y-122936000D02*
X161616572Y-122863429D01*
X161398858Y-122863429D01*
X161181143Y-122936000D01*
X161036001Y-123081143D01*
X160963429Y-123226286D01*
X160890858Y-123516571D01*
X160890858Y-123734286D01*
X160963429Y-124024571D01*
X161036001Y-124169714D01*
X161181143Y-124314857D01*
X161398858Y-124387429D01*
X161544001Y-124387429D01*
X161761715Y-124314857D01*
X161834286Y-124242286D01*
X161834286Y-123734286D01*
X161544001Y-123734286D01*
X162487429Y-124387429D02*
X162487429Y-123371429D01*
X162487429Y-123661714D02*
X162560001Y-123516571D01*
X162632572Y-123444000D01*
X162777715Y-123371429D01*
X162922858Y-123371429D01*
X163648572Y-124387429D02*
X163503430Y-124314857D01*
X163430858Y-124242286D01*
X163358287Y-124097143D01*
X163358287Y-123661714D01*
X163430858Y-123516571D01*
X163503430Y-123444000D01*
X163648572Y-123371429D01*
X163866287Y-123371429D01*
X164011430Y-123444000D01*
X164084001Y-123516571D01*
X164156572Y-123661714D01*
X164156572Y-124097143D01*
X164084001Y-124242286D01*
X164011430Y-124314857D01*
X163866287Y-124387429D01*
X163648572Y-124387429D01*
X165462858Y-123371429D02*
X165462858Y-124387429D01*
X164809715Y-123371429D02*
X164809715Y-124169714D01*
X164882287Y-124314857D01*
X165027429Y-124387429D01*
X165245144Y-124387429D01*
X165390287Y-124314857D01*
X165462858Y-124242286D01*
X166188572Y-123371429D02*
X166188572Y-124387429D01*
X166188572Y-123516571D02*
X166261144Y-123444000D01*
X166406286Y-123371429D01*
X166624001Y-123371429D01*
X166769144Y-123444000D01*
X166841715Y-123589143D01*
X166841715Y-124387429D01*
X168220572Y-124387429D02*
X168220572Y-122863429D01*
X168220572Y-124314857D02*
X168075429Y-124387429D01*
X167785143Y-124387429D01*
X167640001Y-124314857D01*
X167567429Y-124242286D01*
X167494858Y-124097143D01*
X167494858Y-123661714D01*
X167567429Y-123516571D01*
X167640001Y-123444000D01*
X167785143Y-123371429D01*
X168075429Y-123371429D01*
X168220572Y-123444000D01*
X79429429Y-125548574D02*
X78703714Y-126056574D01*
X79429429Y-126419431D02*
X77905429Y-126419431D01*
X77905429Y-125838859D01*
X77978000Y-125693717D01*
X78050571Y-125621145D01*
X78195714Y-125548574D01*
X78413429Y-125548574D01*
X78558571Y-125621145D01*
X78631143Y-125693717D01*
X78703714Y-125838859D01*
X78703714Y-126419431D01*
X79356857Y-124314859D02*
X79429429Y-124460002D01*
X79429429Y-124750288D01*
X79356857Y-124895431D01*
X79211714Y-124968002D01*
X78631143Y-124968002D01*
X78486000Y-124895431D01*
X78413429Y-124750288D01*
X78413429Y-124460002D01*
X78486000Y-124314859D01*
X78631143Y-124242288D01*
X78776286Y-124242288D01*
X78921429Y-124968002D01*
X78413429Y-123734288D02*
X79429429Y-123371431D01*
X78413429Y-123008573D01*
X79429429Y-120468573D02*
X79429429Y-121339430D01*
X79429429Y-120904002D02*
X77905429Y-120904002D01*
X78123143Y-121049145D01*
X78268286Y-121194287D01*
X78340857Y-121339430D01*
X78848857Y-118654287D02*
X78848857Y-117493144D01*
X78050571Y-115678858D02*
X77978000Y-115606287D01*
X77905429Y-115461144D01*
X77905429Y-115098287D01*
X77978000Y-114953144D01*
X78050571Y-114880573D01*
X78195714Y-114808001D01*
X78340857Y-114808001D01*
X78558571Y-114880573D01*
X79429429Y-115751430D01*
X79429429Y-114808001D01*
X77905429Y-113864572D02*
X77905429Y-113719429D01*
X77978000Y-113574286D01*
X78050571Y-113501715D01*
X78195714Y-113429144D01*
X78486000Y-113356572D01*
X78848857Y-113356572D01*
X79139143Y-113429144D01*
X79284286Y-113501715D01*
X79356857Y-113574286D01*
X79429429Y-113719429D01*
X79429429Y-113864572D01*
X79356857Y-114009715D01*
X79284286Y-114082286D01*
X79139143Y-114154858D01*
X78848857Y-114227429D01*
X78486000Y-114227429D01*
X78195714Y-114154858D01*
X78050571Y-114082286D01*
X77978000Y-114009715D01*
X77905429Y-113864572D01*
X79429429Y-111905143D02*
X79429429Y-112776000D01*
X79429429Y-112340572D02*
X77905429Y-112340572D01*
X78123143Y-112485715D01*
X78268286Y-112630857D01*
X78340857Y-112776000D01*
X77905429Y-110598857D02*
X77905429Y-110889143D01*
X77978000Y-111034286D01*
X78050571Y-111106857D01*
X78268286Y-111252000D01*
X78558571Y-111324571D01*
X79139143Y-111324571D01*
X79284286Y-111252000D01*
X79356857Y-111179428D01*
X79429429Y-111034286D01*
X79429429Y-110744000D01*
X79356857Y-110598857D01*
X79284286Y-110526286D01*
X79139143Y-110453714D01*
X78776286Y-110453714D01*
X78631143Y-110526286D01*
X78558571Y-110598857D01*
X78486000Y-110744000D01*
X78486000Y-111034286D01*
X78558571Y-111179428D01*
X78631143Y-111252000D01*
X78776286Y-111324571D01*
X79429429Y-109002285D02*
X79429429Y-109873142D01*
X79429429Y-109437714D02*
X77905429Y-109437714D01*
X78123143Y-109582857D01*
X78268286Y-109727999D01*
X78340857Y-109873142D01*
X78050571Y-108421713D02*
X77978000Y-108349142D01*
X77905429Y-108203999D01*
X77905429Y-107841142D01*
X77978000Y-107695999D01*
X78050571Y-107623428D01*
X78195714Y-107550856D01*
X78340857Y-107550856D01*
X78558571Y-107623428D01*
X79429429Y-108494285D01*
X79429429Y-107550856D01*
X77905429Y-107042856D02*
X77905429Y-106099427D01*
X78486000Y-106607427D01*
X78486000Y-106389713D01*
X78558571Y-106244570D01*
X78631143Y-106171999D01*
X78776286Y-106099427D01*
X79139143Y-106099427D01*
X79284286Y-106171999D01*
X79356857Y-106244570D01*
X79429429Y-106389713D01*
X79429429Y-106825141D01*
X79356857Y-106970284D01*
X79284286Y-107042856D01*
X77905429Y-105155998D02*
X77905429Y-105010855D01*
X77978000Y-104865712D01*
X78050571Y-104793141D01*
X78195714Y-104720570D01*
X78486000Y-104647998D01*
X78848857Y-104647998D01*
X79139143Y-104720570D01*
X79284286Y-104793141D01*
X79356857Y-104865712D01*
X79429429Y-105010855D01*
X79429429Y-105155998D01*
X79356857Y-105301141D01*
X79284286Y-105373712D01*
X79139143Y-105446284D01*
X78848857Y-105518855D01*
X78486000Y-105518855D01*
X78195714Y-105446284D01*
X78050571Y-105373712D01*
X77978000Y-105301141D01*
X77905429Y-105155998D01*
X181546500Y-88464571D02*
X181080833Y-88464571D01*
X181080833Y-89795048D02*
X181080833Y-87255048D01*
X181746071Y-87255048D01*
X182477833Y-89795048D02*
X182344786Y-89674095D01*
X182278262Y-89432190D01*
X182278262Y-87255048D01*
X183608738Y-89795048D02*
X183608738Y-88464571D01*
X183542215Y-88222667D01*
X183409167Y-88101714D01*
X183143072Y-88101714D01*
X183010024Y-88222667D01*
X183608738Y-89674095D02*
X183475691Y-89795048D01*
X183143072Y-89795048D01*
X183010024Y-89674095D01*
X182943500Y-89432190D01*
X182943500Y-89190286D01*
X183010024Y-88948381D01*
X183143072Y-88827429D01*
X183475691Y-88827429D01*
X183608738Y-88706476D01*
X184207452Y-89674095D02*
X184340500Y-89795048D01*
X184606595Y-89795048D01*
X184739643Y-89674095D01*
X184806167Y-89432190D01*
X184806167Y-89311238D01*
X184739643Y-89069333D01*
X184606595Y-88948381D01*
X184407024Y-88948381D01*
X184273976Y-88827429D01*
X184207452Y-88585524D01*
X184207452Y-88464571D01*
X184273976Y-88222667D01*
X184407024Y-88101714D01*
X184606595Y-88101714D01*
X184739643Y-88222667D01*
X185404881Y-89795048D02*
X185404881Y-87255048D01*
X186003595Y-89795048D02*
X186003595Y-88464571D01*
X185937072Y-88222667D01*
X185804024Y-88101714D01*
X185604452Y-88101714D01*
X185471405Y-88222667D01*
X185404881Y-88343619D01*
X187134500Y-88464571D02*
X186668833Y-88464571D01*
X186668833Y-89795048D02*
X186668833Y-87255048D01*
X187334071Y-87255048D01*
X188065833Y-89795048D02*
X187932786Y-89674095D01*
X187866262Y-89553143D01*
X187799738Y-89311238D01*
X187799738Y-88585524D01*
X187866262Y-88343619D01*
X187932786Y-88222667D01*
X188065833Y-88101714D01*
X188265405Y-88101714D01*
X188398453Y-88222667D01*
X188464976Y-88343619D01*
X188531500Y-88585524D01*
X188531500Y-89311238D01*
X188464976Y-89553143D01*
X188398453Y-89674095D01*
X188265405Y-89795048D01*
X188065833Y-89795048D01*
X189130214Y-89795048D02*
X189130214Y-88101714D01*
X189130214Y-88585524D02*
X189196738Y-88343619D01*
X189263262Y-88222667D01*
X189396309Y-88101714D01*
X189529357Y-88101714D01*
X190593738Y-88101714D02*
X190593738Y-90157905D01*
X190527215Y-90399810D01*
X190460691Y-90520762D01*
X190327643Y-90641714D01*
X190128072Y-90641714D01*
X189995024Y-90520762D01*
X190593738Y-89674095D02*
X190460691Y-89795048D01*
X190194595Y-89795048D01*
X190061548Y-89674095D01*
X189995024Y-89553143D01*
X189928500Y-89311238D01*
X189928500Y-88585524D01*
X189995024Y-88343619D01*
X190061548Y-88222667D01*
X190194595Y-88101714D01*
X190460691Y-88101714D01*
X190593738Y-88222667D01*
X191791167Y-89674095D02*
X191658119Y-89795048D01*
X191392024Y-89795048D01*
X191258976Y-89674095D01*
X191192452Y-89432190D01*
X191192452Y-88464571D01*
X191258976Y-88222667D01*
X191392024Y-88101714D01*
X191658119Y-88101714D01*
X191791167Y-88222667D01*
X191857690Y-88464571D01*
X191857690Y-88706476D01*
X191192452Y-88948381D01*
X176523953Y-93859048D02*
X175858715Y-93859048D01*
X175858715Y-91319048D01*
X177787906Y-93617143D02*
X177721382Y-93738095D01*
X177521811Y-93859048D01*
X177388763Y-93859048D01*
X177189191Y-93738095D01*
X177056144Y-93496190D01*
X176989620Y-93254286D01*
X176923096Y-92770476D01*
X176923096Y-92407619D01*
X176989620Y-91923810D01*
X177056144Y-91681905D01*
X177189191Y-91440000D01*
X177388763Y-91319048D01*
X177521811Y-91319048D01*
X177721382Y-91440000D01*
X177787906Y-91560952D01*
X178386620Y-93859048D02*
X178386620Y-91319048D01*
X178719239Y-91319048D01*
X178918811Y-91440000D01*
X179051858Y-91681905D01*
X179118382Y-91923810D01*
X179184906Y-92407619D01*
X179184906Y-92770476D01*
X179118382Y-93254286D01*
X179051858Y-93496190D01*
X178918811Y-93738095D01*
X178719239Y-93859048D01*
X178386620Y-93859048D01*
X180781477Y-91198095D02*
X179584049Y-94463810D01*
X181180620Y-93738095D02*
X181380192Y-93859048D01*
X181712811Y-93859048D01*
X181845858Y-93738095D01*
X181912382Y-93617143D01*
X181978906Y-93375238D01*
X181978906Y-93133333D01*
X181912382Y-92891429D01*
X181845858Y-92770476D01*
X181712811Y-92649524D01*
X181446715Y-92528571D01*
X181313668Y-92407619D01*
X181247144Y-92286667D01*
X181180620Y-92044762D01*
X181180620Y-91802857D01*
X181247144Y-91560952D01*
X181313668Y-91440000D01*
X181446715Y-91319048D01*
X181779335Y-91319048D01*
X181978906Y-91440000D01*
X182577620Y-93859048D02*
X182577620Y-91319048D01*
X182910239Y-91319048D01*
X183109811Y-91440000D01*
X183242858Y-91681905D01*
X183309382Y-91923810D01*
X183375906Y-92407619D01*
X183375906Y-92770476D01*
X183309382Y-93254286D01*
X183242858Y-93496190D01*
X183109811Y-93738095D01*
X182910239Y-93859048D01*
X182577620Y-93859048D01*
X184772906Y-93617143D02*
X184706382Y-93738095D01*
X184506811Y-93859048D01*
X184373763Y-93859048D01*
X184174191Y-93738095D01*
X184041144Y-93496190D01*
X183974620Y-93254286D01*
X183908096Y-92770476D01*
X183908096Y-92407619D01*
X183974620Y-91923810D01*
X184041144Y-91681905D01*
X184174191Y-91440000D01*
X184373763Y-91319048D01*
X184506811Y-91319048D01*
X184706382Y-91440000D01*
X184772906Y-91560952D01*
X185970334Y-93859048D02*
X185970334Y-92528571D01*
X185903811Y-92286667D01*
X185770763Y-92165714D01*
X185504668Y-92165714D01*
X185371620Y-92286667D01*
X185970334Y-93738095D02*
X185837287Y-93859048D01*
X185504668Y-93859048D01*
X185371620Y-93738095D01*
X185305096Y-93496190D01*
X185305096Y-93254286D01*
X185371620Y-93012381D01*
X185504668Y-92891429D01*
X185837287Y-92891429D01*
X185970334Y-92770476D01*
X186635572Y-93859048D02*
X186635572Y-92165714D01*
X186635572Y-92649524D02*
X186702096Y-92407619D01*
X186768620Y-92286667D01*
X186901667Y-92165714D01*
X187034715Y-92165714D01*
X188099096Y-93859048D02*
X188099096Y-91319048D01*
X188099096Y-93738095D02*
X187966049Y-93859048D01*
X187699953Y-93859048D01*
X187566906Y-93738095D01*
X187500382Y-93617143D01*
X187433858Y-93375238D01*
X187433858Y-92649524D01*
X187500382Y-92407619D01*
X187566906Y-92286667D01*
X187699953Y-92165714D01*
X187966049Y-92165714D01*
X188099096Y-92286667D01*
X189762191Y-91198095D02*
X188564763Y-94463810D01*
X190227858Y-93859048D02*
X190227858Y-91319048D01*
X191026144Y-93859048D02*
X190427429Y-92407619D01*
X191026144Y-91319048D02*
X190227858Y-92770476D01*
X192157049Y-93738095D02*
X192024001Y-93859048D01*
X191757906Y-93859048D01*
X191624858Y-93738095D01*
X191558334Y-93496190D01*
X191558334Y-92528571D01*
X191624858Y-92286667D01*
X191757906Y-92165714D01*
X192024001Y-92165714D01*
X192157049Y-92286667D01*
X192223572Y-92528571D01*
X192223572Y-92770476D01*
X191558334Y-93012381D01*
X192689239Y-92165714D02*
X193021858Y-93859048D01*
X193354478Y-92165714D02*
X193021858Y-93859048D01*
X192888811Y-94463810D01*
X192822287Y-94584762D01*
X192689239Y-94705714D01*
X193886668Y-92165714D02*
X193886668Y-94705714D01*
X193886668Y-92286667D02*
X194019716Y-92165714D01*
X194285811Y-92165714D01*
X194418859Y-92286667D01*
X194485382Y-92407619D01*
X194551906Y-92649524D01*
X194551906Y-93375238D01*
X194485382Y-93617143D01*
X194418859Y-93738095D01*
X194285811Y-93859048D01*
X194019716Y-93859048D01*
X193886668Y-93738095D01*
X195749334Y-93859048D02*
X195749334Y-92528571D01*
X195682811Y-92286667D01*
X195549763Y-92165714D01*
X195283668Y-92165714D01*
X195150620Y-92286667D01*
X195749334Y-93738095D02*
X195616287Y-93859048D01*
X195283668Y-93859048D01*
X195150620Y-93738095D01*
X195084096Y-93496190D01*
X195084096Y-93254286D01*
X195150620Y-93012381D01*
X195283668Y-92891429D01*
X195616287Y-92891429D01*
X195749334Y-92770476D01*
X197013286Y-93859048D02*
X197013286Y-91319048D01*
X197013286Y-93738095D02*
X196880239Y-93859048D01*
X196614143Y-93859048D01*
X196481096Y-93738095D01*
X196414572Y-93617143D01*
X196348048Y-93375238D01*
X196348048Y-92649524D01*
X196414572Y-92407619D01*
X196481096Y-92286667D01*
X196614143Y-92165714D01*
X196880239Y-92165714D01*
X197013286Y-92286667D01*
X182145214Y-97923048D02*
X182145214Y-95383048D01*
X182810452Y-96229714D02*
X182810452Y-97923048D01*
X182810452Y-96471619D02*
X182876976Y-96350667D01*
X183010023Y-96229714D01*
X183209595Y-96229714D01*
X183342643Y-96350667D01*
X183409166Y-96592571D01*
X183409166Y-97923048D01*
X183874833Y-96229714D02*
X184407023Y-96229714D01*
X184074404Y-95383048D02*
X184074404Y-97560190D01*
X184140928Y-97802095D01*
X184273975Y-97923048D01*
X184407023Y-97923048D01*
X185404881Y-97802095D02*
X185271833Y-97923048D01*
X185005738Y-97923048D01*
X184872690Y-97802095D01*
X184806166Y-97560190D01*
X184806166Y-96592571D01*
X184872690Y-96350667D01*
X185005738Y-96229714D01*
X185271833Y-96229714D01*
X185404881Y-96350667D01*
X185471404Y-96592571D01*
X185471404Y-96834476D01*
X184806166Y-97076381D01*
X186070119Y-97923048D02*
X186070119Y-96229714D01*
X186070119Y-96713524D02*
X186136643Y-96471619D01*
X186203167Y-96350667D01*
X186336214Y-96229714D01*
X186469262Y-96229714D01*
X186735358Y-96229714D02*
X187267548Y-96229714D01*
X186934929Y-97923048D02*
X186934929Y-95745905D01*
X187001453Y-95504000D01*
X187134500Y-95383048D01*
X187267548Y-95383048D01*
X188331929Y-97923048D02*
X188331929Y-96592571D01*
X188265406Y-96350667D01*
X188132358Y-96229714D01*
X187866263Y-96229714D01*
X187733215Y-96350667D01*
X188331929Y-97802095D02*
X188198882Y-97923048D01*
X187866263Y-97923048D01*
X187733215Y-97802095D01*
X187666691Y-97560190D01*
X187666691Y-97318286D01*
X187733215Y-97076381D01*
X187866263Y-96955429D01*
X188198882Y-96955429D01*
X188331929Y-96834476D01*
X189595881Y-97802095D02*
X189462834Y-97923048D01*
X189196738Y-97923048D01*
X189063691Y-97802095D01*
X188997167Y-97681143D01*
X188930643Y-97439238D01*
X188930643Y-96713524D01*
X188997167Y-96471619D01*
X189063691Y-96350667D01*
X189196738Y-96229714D01*
X189462834Y-96229714D01*
X189595881Y-96350667D01*
X190726787Y-97802095D02*
X190593739Y-97923048D01*
X190327644Y-97923048D01*
X190194596Y-97802095D01*
X190128072Y-97560190D01*
X190128072Y-96592571D01*
X190194596Y-96350667D01*
X190327644Y-96229714D01*
X190593739Y-96229714D01*
X190726787Y-96350667D01*
X190793310Y-96592571D01*
X190793310Y-96834476D01*
X190128072Y-97076381D01*
X167240857Y-87303429D02*
X167240857Y-85779429D01*
X168111714Y-87303429D02*
X167458571Y-86432571D01*
X168111714Y-85779429D02*
X167240857Y-86650286D01*
X169345429Y-87230857D02*
X169200286Y-87303429D01*
X168910000Y-87303429D01*
X168764857Y-87230857D01*
X168692286Y-87085714D01*
X168692286Y-86505143D01*
X168764857Y-86360000D01*
X168910000Y-86287429D01*
X169200286Y-86287429D01*
X169345429Y-86360000D01*
X169418000Y-86505143D01*
X169418000Y-86650286D01*
X168692286Y-86795429D01*
X169926000Y-86287429D02*
X170288857Y-87303429D01*
X170651715Y-86287429D02*
X170288857Y-87303429D01*
X170143715Y-87666286D01*
X170071143Y-87738857D01*
X169926000Y-87811429D01*
X171232286Y-86287429D02*
X171232286Y-87811429D01*
X171232286Y-86360000D02*
X171377429Y-86287429D01*
X171667715Y-86287429D01*
X171812858Y-86360000D01*
X171885429Y-86432571D01*
X171958000Y-86577714D01*
X171958000Y-87013143D01*
X171885429Y-87158286D01*
X171812858Y-87230857D01*
X171667715Y-87303429D01*
X171377429Y-87303429D01*
X171232286Y-87230857D01*
X173264286Y-87303429D02*
X173264286Y-86505143D01*
X173191715Y-86360000D01*
X173046572Y-86287429D01*
X172756286Y-86287429D01*
X172611143Y-86360000D01*
X173264286Y-87230857D02*
X173119143Y-87303429D01*
X172756286Y-87303429D01*
X172611143Y-87230857D01*
X172538572Y-87085714D01*
X172538572Y-86940571D01*
X172611143Y-86795429D01*
X172756286Y-86722857D01*
X173119143Y-86722857D01*
X173264286Y-86650286D01*
X174643143Y-87303429D02*
X174643143Y-85779429D01*
X174643143Y-87230857D02*
X174498000Y-87303429D01*
X174207714Y-87303429D01*
X174062572Y-87230857D01*
X173990000Y-87158286D01*
X173917429Y-87013143D01*
X173917429Y-86577714D01*
X173990000Y-86432571D01*
X174062572Y-86360000D01*
X174207714Y-86287429D01*
X174498000Y-86287429D01*
X174643143Y-86360000D01*
X116549714Y-82477429D02*
X115824000Y-82477429D01*
X115824000Y-80953429D01*
X117928571Y-82332286D02*
X117856000Y-82404857D01*
X117638286Y-82477429D01*
X117493143Y-82477429D01*
X117275428Y-82404857D01*
X117130286Y-82259714D01*
X117057714Y-82114571D01*
X116985143Y-81824286D01*
X116985143Y-81606571D01*
X117057714Y-81316286D01*
X117130286Y-81171143D01*
X117275428Y-81026000D01*
X117493143Y-80953429D01*
X117638286Y-80953429D01*
X117856000Y-81026000D01*
X117928571Y-81098571D01*
X118581714Y-82477429D02*
X118581714Y-80953429D01*
X118944571Y-80953429D01*
X119162286Y-81026000D01*
X119307428Y-81171143D01*
X119380000Y-81316286D01*
X119452571Y-81606571D01*
X119452571Y-81824286D01*
X119380000Y-82114571D01*
X119307428Y-82259714D01*
X119162286Y-82404857D01*
X118944571Y-82477429D01*
X118581714Y-82477429D01*
X83312000Y-99096286D02*
X83239429Y-99168857D01*
X83021715Y-99241429D01*
X82876572Y-99241429D01*
X82658857Y-99168857D01*
X82513715Y-99023714D01*
X82441143Y-98878571D01*
X82368572Y-98588286D01*
X82368572Y-98370571D01*
X82441143Y-98080286D01*
X82513715Y-97935143D01*
X82658857Y-97790000D01*
X82876572Y-97717429D01*
X83021715Y-97717429D01*
X83239429Y-97790000D01*
X83312000Y-97862571D01*
X84182857Y-99241429D02*
X84037715Y-99168857D01*
X83965143Y-99096286D01*
X83892572Y-98951143D01*
X83892572Y-98515714D01*
X83965143Y-98370571D01*
X84037715Y-98298000D01*
X84182857Y-98225429D01*
X84400572Y-98225429D01*
X84545715Y-98298000D01*
X84618286Y-98370571D01*
X84690857Y-98515714D01*
X84690857Y-98951143D01*
X84618286Y-99096286D01*
X84545715Y-99168857D01*
X84400572Y-99241429D01*
X84182857Y-99241429D01*
X85344000Y-98225429D02*
X85344000Y-99241429D01*
X85344000Y-98370571D02*
X85416572Y-98298000D01*
X85561714Y-98225429D01*
X85779429Y-98225429D01*
X85924572Y-98298000D01*
X85997143Y-98443143D01*
X85997143Y-99241429D01*
X86505143Y-98225429D02*
X87085714Y-98225429D01*
X86722857Y-97717429D02*
X86722857Y-99023714D01*
X86795429Y-99168857D01*
X86940571Y-99241429D01*
X87085714Y-99241429D01*
X87593714Y-99241429D02*
X87593714Y-98225429D01*
X87593714Y-98515714D02*
X87666286Y-98370571D01*
X87738857Y-98298000D01*
X87884000Y-98225429D01*
X88029143Y-98225429D01*
X89190286Y-99241429D02*
X89190286Y-98443143D01*
X89117715Y-98298000D01*
X88972572Y-98225429D01*
X88682286Y-98225429D01*
X88537143Y-98298000D01*
X89190286Y-99168857D02*
X89045143Y-99241429D01*
X88682286Y-99241429D01*
X88537143Y-99168857D01*
X88464572Y-99023714D01*
X88464572Y-98878571D01*
X88537143Y-98733429D01*
X88682286Y-98660857D01*
X89045143Y-98660857D01*
X89190286Y-98588286D01*
X89843429Y-99168857D02*
X89988572Y-99241429D01*
X90278857Y-99241429D01*
X90424000Y-99168857D01*
X90496572Y-99023714D01*
X90496572Y-98951143D01*
X90424000Y-98806000D01*
X90278857Y-98733429D01*
X90061143Y-98733429D01*
X89916000Y-98660857D01*
X89843429Y-98515714D01*
X89843429Y-98443143D01*
X89916000Y-98298000D01*
X90061143Y-98225429D01*
X90278857Y-98225429D01*
X90424000Y-98298000D01*
X90932000Y-98225429D02*
X91512571Y-98225429D01*
X91149714Y-97717429D02*
X91149714Y-99023714D01*
X91222286Y-99168857D01*
X91367428Y-99241429D01*
X91512571Y-99241429D01*
D11*
X83820000Y-95250000D02*
X93980000Y-95250000D01*
X83820000Y-85090000D02*
X83820000Y-95250000D01*
X93980000Y-85090000D02*
X83820000Y-85090000D01*
X93980000Y-95250000D02*
X93980000Y-85090000D01*
X182880000Y-111125000D02*
X193040000Y-111125000D01*
X182880000Y-100965000D02*
X182880000Y-111125000D01*
X193040000Y-100965000D02*
X182880000Y-100965000D01*
X193040000Y-111125000D02*
X193040000Y-100965000D01*
X83820000Y-115570000D02*
X83820000Y-125730000D01*
X93980000Y-115570000D02*
X83820000Y-115570000D01*
X93980000Y-125730000D02*
X93980000Y-115570000D01*
X83820000Y-125730000D02*
X93980000Y-125730000D01*
D13*
X170975020Y-127604520D02*
X170975020Y-136804400D01*
X170975020Y-136804400D02*
X176309020Y-136804400D01*
X177787300Y-136804400D02*
X176309020Y-136804400D01*
X176309020Y-136804400D02*
X176309020Y-135834120D01*
X176309020Y-135834120D02*
X177787300Y-135834120D01*
X177787300Y-135834120D02*
X177787300Y-136804400D01*
X177787300Y-136804400D02*
X189252860Y-136804400D01*
X189252860Y-136804400D02*
X189252860Y-129738120D01*
X189252860Y-129738120D02*
X193017140Y-129738120D01*
X193017140Y-129738120D02*
X193017140Y-136804400D01*
X189252860Y-136804400D02*
X193017140Y-136804400D01*
X193017140Y-136804400D02*
X201706480Y-136804400D01*
X203184760Y-136804400D02*
X201706480Y-136804400D01*
X203184760Y-136804400D02*
X211294980Y-136804400D01*
X211294980Y-136804400D02*
X211294980Y-127604520D01*
X201706480Y-136804400D02*
X201706480Y-135834120D01*
X201706480Y-135834120D02*
X203184760Y-135834120D01*
X203184760Y-135834120D02*
X203184760Y-136804400D01*
X207749140Y-127604520D02*
X211294980Y-127604520D01*
X174536100Y-127604520D02*
X207746600Y-127604520D01*
X170975020Y-127604520D02*
X174533560Y-127604520D01*
X207652620Y-136674860D02*
X205105000Y-136674860D01*
X205105000Y-136674860D02*
X206377540Y-134099300D01*
X206377540Y-134099300D02*
X207652620Y-136674860D01*
D10*
X151010000Y-112480000D02*
X151010000Y-113580000D01*
X148710000Y-112530000D02*
X148710000Y-114530000D01*
X148539200Y-115008660D02*
X148539200Y-115577620D01*
X148539200Y-115577620D02*
X148950680Y-115577620D01*
D14*
X167640000Y-116205000D02*
G75*
G03X167640000Y-116205000I-1778000J0D01*
G01*
D15*
X91186000Y-120650000D02*
G75*
G03X91186000Y-120650000I-2286000J0D01*
G01*
X91186000Y-90170000D02*
G75*
G03X91186000Y-90170000I-2286000J0D01*
G01*
X190246000Y-106045000D02*
G75*
G03X190246000Y-106045000I-2286000J0D01*
G01*
D10*
X125365000Y-109610000D02*
X127365000Y-109610000D01*
X127365000Y-107560000D02*
X125365000Y-107560000D01*
X122920000Y-122165000D02*
X120920000Y-122165000D01*
X120920000Y-124215000D02*
X122920000Y-124215000D01*
X79010000Y-83575000D02*
X81010000Y-83575000D01*
X81010000Y-81525000D02*
X79010000Y-81525000D01*
X116050606Y-124117886D02*
G75*
G03X116052600Y-118452900I-1115606J2832886D01*
G01*
X113817400Y-118452900D02*
G75*
G03X113817400Y-124117100I1117600J-2832100D01*
G01*
X118237000Y-117983000D02*
X116052600Y-117983000D01*
X111633000Y-117983000D02*
X113817400Y-117983000D01*
X117475000Y-124587000D02*
X116052600Y-124587000D01*
X112395000Y-124587000D02*
X113817400Y-124587000D01*
X118237000Y-117983000D02*
X118237000Y-123825000D01*
X118237000Y-123825000D02*
X117475000Y-124587000D01*
X112395000Y-124587000D02*
X111633000Y-123825000D01*
X111633000Y-123825000D02*
X111633000Y-117983000D01*
X115840000Y-115325000D02*
X117840000Y-115325000D01*
X117840000Y-113275000D02*
X115840000Y-113275000D01*
X102625000Y-89265000D02*
X102625000Y-87265000D01*
X100575000Y-87265000D02*
X100575000Y-89265000D01*
X125365000Y-121040000D02*
X127365000Y-121040000D01*
X127365000Y-118990000D02*
X125365000Y-118990000D01*
X96674394Y-117817114D02*
G75*
G03X96672400Y-123482100I1115606J-2832886D01*
G01*
X98907600Y-123482100D02*
G75*
G03X98907600Y-117817900I-1117600J2832100D01*
G01*
X94488000Y-123952000D02*
X96672400Y-123952000D01*
X101092000Y-123952000D02*
X98907600Y-123952000D01*
X95250000Y-117348000D02*
X96672400Y-117348000D01*
X100330000Y-117348000D02*
X98907600Y-117348000D01*
X94488000Y-123952000D02*
X94488000Y-118110000D01*
X94488000Y-118110000D02*
X95250000Y-117348000D01*
X100330000Y-117348000D02*
X101092000Y-118110000D01*
X101092000Y-118110000D02*
X101092000Y-123952000D01*
X93100000Y-111490000D02*
X93100000Y-109490000D01*
X91050000Y-109490000D02*
X91050000Y-111490000D01*
X114030000Y-107560000D02*
X112030000Y-107560000D01*
X112030000Y-109610000D02*
X114030000Y-109610000D01*
X89925000Y-111490000D02*
X89925000Y-109490000D01*
X87875000Y-109490000D02*
X87875000Y-111490000D01*
D16*
X102020000Y-109815000D02*
X103720000Y-109815000D01*
X103720000Y-109765000D02*
X103720000Y-105715000D01*
X102020000Y-109765000D02*
X102020000Y-105715000D01*
X105830000Y-109815000D02*
X107530000Y-109815000D01*
X107530000Y-109765000D02*
X107530000Y-105715000D01*
X105830000Y-109765000D02*
X105830000Y-105715000D01*
X98210000Y-109815000D02*
X99910000Y-109815000D01*
X99910000Y-109765000D02*
X99910000Y-105715000D01*
X98210000Y-109765000D02*
X98210000Y-105715000D01*
D17*
X128625600Y-104140000D02*
X128625600Y-75341480D01*
X128625600Y-75341480D02*
X132875020Y-75341480D01*
X132875020Y-75341480D02*
X150873460Y-75341480D01*
X150873460Y-75341480D02*
X153372820Y-75341480D01*
X153372820Y-75341480D02*
X157124400Y-75341480D01*
X157124400Y-75341480D02*
X157124400Y-104140000D01*
X157124400Y-104140000D02*
X128625600Y-104140000D01*
D12*
X132857240Y-104233980D02*
X128457960Y-104233980D01*
X128457960Y-104233980D02*
X128457960Y-98902520D01*
X128557020Y-82293460D02*
X128557020Y-75252580D01*
X128557020Y-75252580D02*
X129976880Y-75242420D01*
X157200600Y-81130140D02*
X157200600Y-75252580D01*
X157200600Y-75252580D02*
X156222700Y-75252580D01*
X157111700Y-104233980D02*
X157200600Y-104233980D01*
X157200600Y-104233980D02*
X157200600Y-98902520D01*
D17*
X130876040Y-68541900D02*
X155874720Y-68541900D01*
X132875020Y-75341480D02*
X132875020Y-76141580D01*
X142875000Y-86141560D02*
X143372840Y-86141560D01*
X153372820Y-76141580D02*
X153372820Y-75341480D01*
X131483000Y-80840580D02*
G75*
G03X131483000Y-80840580I-546000J0D01*
G01*
X130937000Y-81615280D02*
X130937000Y-80065880D01*
X131711700Y-80840580D02*
X130162300Y-80840580D01*
X155740000Y-80840580D02*
G75*
G03X155740000Y-80840580I-546000J0D01*
G01*
X155194000Y-81615280D02*
X155194000Y-80065880D01*
X155968700Y-80840580D02*
X154419300Y-80840580D01*
X132875020Y-76141580D02*
G75*
G03X142875000Y-86141560I9999980J0D01*
G01*
X143372840Y-86141560D02*
G75*
G03X153372820Y-76141580I0J9999980D01*
G01*
D18*
X81043780Y-77706220D02*
X81518760Y-77706220D01*
X81518760Y-77706220D02*
X81518760Y-77233780D01*
X81043780Y-77233780D02*
X81518760Y-77233780D01*
X81043780Y-77706220D02*
X81043780Y-77233780D01*
X78503780Y-77706220D02*
X78978760Y-77706220D01*
X78978760Y-77706220D02*
X78978760Y-77233780D01*
X78503780Y-77233780D02*
X78978760Y-77233780D01*
X78503780Y-77706220D02*
X78503780Y-77233780D01*
X86123780Y-77706220D02*
X86598760Y-77706220D01*
X86598760Y-77706220D02*
X86598760Y-77233780D01*
X86123780Y-77233780D02*
X86598760Y-77233780D01*
X86123780Y-77706220D02*
X86123780Y-77233780D01*
X83583780Y-77706220D02*
X84058760Y-77706220D01*
X84058760Y-77706220D02*
X84058760Y-77233780D01*
X83583780Y-77233780D02*
X84058760Y-77233780D01*
X83583780Y-77706220D02*
X83583780Y-77233780D01*
X91203780Y-77706220D02*
X91678760Y-77706220D01*
X91678760Y-77706220D02*
X91678760Y-77233780D01*
X91203780Y-77233780D02*
X91678760Y-77233780D01*
X91203780Y-77706220D02*
X91203780Y-77233780D01*
X88663780Y-77706220D02*
X89138760Y-77706220D01*
X89138760Y-77706220D02*
X89138760Y-77233780D01*
X88663780Y-77233780D02*
X89138760Y-77233780D01*
X88663780Y-77706220D02*
X88663780Y-77233780D01*
X96283780Y-77706220D02*
X96758760Y-77706220D01*
X96758760Y-77706220D02*
X96758760Y-77233780D01*
X96283780Y-77233780D02*
X96758760Y-77233780D01*
X96283780Y-77706220D02*
X96283780Y-77233780D01*
X93743780Y-77706220D02*
X94218760Y-77706220D01*
X94218760Y-77706220D02*
X94218760Y-77233780D01*
X93743780Y-77233780D02*
X94218760Y-77233780D01*
X93743780Y-77706220D02*
X93743780Y-77233780D01*
X101361240Y-77706220D02*
X101836220Y-77706220D01*
X101836220Y-77706220D02*
X101836220Y-77233780D01*
X101361240Y-77233780D02*
X101836220Y-77233780D01*
X101361240Y-77706220D02*
X101361240Y-77233780D01*
X98821240Y-77706220D02*
X99296220Y-77706220D01*
X99296220Y-77706220D02*
X99296220Y-77233780D01*
X98821240Y-77233780D02*
X99296220Y-77233780D01*
X98821240Y-77706220D02*
X98821240Y-77233780D01*
X106441240Y-77706220D02*
X106916220Y-77706220D01*
X106916220Y-77706220D02*
X106916220Y-77233780D01*
X106441240Y-77233780D02*
X106916220Y-77233780D01*
X106441240Y-77706220D02*
X106441240Y-77233780D01*
X103901240Y-77706220D02*
X104376220Y-77706220D01*
X104376220Y-77706220D02*
X104376220Y-77233780D01*
X103901240Y-77233780D02*
X104376220Y-77233780D01*
X103901240Y-77706220D02*
X103901240Y-77233780D01*
X108981240Y-77706220D02*
X109456220Y-77706220D01*
X109456220Y-77706220D02*
X109456220Y-77233780D01*
X108981240Y-77233780D02*
X109456220Y-77233780D01*
X108981240Y-77706220D02*
X108981240Y-77233780D01*
X111521240Y-77706220D02*
X111996220Y-77706220D01*
X111996220Y-77706220D02*
X111996220Y-77233780D01*
X111521240Y-77233780D02*
X111996220Y-77233780D01*
X111521240Y-77706220D02*
X111521240Y-77233780D01*
X114061240Y-77706220D02*
X114536220Y-77706220D01*
X114536220Y-77706220D02*
X114536220Y-77233780D01*
X114061240Y-77233780D02*
X114536220Y-77233780D01*
X114061240Y-77706220D02*
X114061240Y-77233780D01*
X116601240Y-77706220D02*
X117076220Y-77706220D01*
X117076220Y-77706220D02*
X117076220Y-77233780D01*
X116601240Y-77233780D02*
X117076220Y-77233780D01*
X116601240Y-77706220D02*
X116601240Y-77233780D01*
D12*
X119380000Y-80327500D02*
X119380000Y-74612500D01*
X119380000Y-74612500D02*
X76200000Y-74612500D01*
X76200000Y-74612500D02*
X76200000Y-80327500D01*
X76200000Y-80327500D02*
X94297500Y-80327500D01*
X94297500Y-80327500D02*
X94297500Y-81280000D01*
X94297500Y-81280000D02*
X101282500Y-81280000D01*
X101282500Y-81280000D02*
X101282500Y-80327500D01*
X101282500Y-80327500D02*
X119380000Y-80327500D01*
D19*
X76835000Y-75247500D02*
X76835000Y-79692500D01*
X118745000Y-75247500D02*
X118745000Y-79692500D01*
X76835000Y-75247500D02*
X118745000Y-75247500D01*
X76835000Y-79692500D02*
X94932500Y-79692500D01*
X94932500Y-79692500D02*
X100647500Y-79692500D01*
X100647500Y-79692500D02*
X118745000Y-79692500D01*
X100647500Y-80645000D02*
X94932500Y-80645000D01*
X94932500Y-79692500D02*
X94932500Y-80645000D01*
X100647500Y-79692500D02*
X100647500Y-80645000D01*
D18*
X171051220Y-116441220D02*
X171051220Y-115966240D01*
X171051220Y-115966240D02*
X170578780Y-115966240D01*
X170578780Y-116441220D02*
X170578780Y-115966240D01*
X171051220Y-116441220D02*
X170578780Y-116441220D01*
X171051220Y-118981220D02*
X171051220Y-118506240D01*
X171051220Y-118506240D02*
X170578780Y-118506240D01*
X170578780Y-118981220D02*
X170578780Y-118506240D01*
X171051220Y-118981220D02*
X170578780Y-118981220D01*
X171051220Y-111361220D02*
X171051220Y-110886240D01*
X171051220Y-110886240D02*
X170578780Y-110886240D01*
X170578780Y-111361220D02*
X170578780Y-110886240D01*
X171051220Y-111361220D02*
X170578780Y-111361220D01*
X171051220Y-113901220D02*
X171051220Y-113426240D01*
X171051220Y-113426240D02*
X170578780Y-113426240D01*
X170578780Y-113901220D02*
X170578780Y-113426240D01*
X171051220Y-113901220D02*
X170578780Y-113901220D01*
X171051220Y-106281220D02*
X171051220Y-105806240D01*
X171051220Y-105806240D02*
X170578780Y-105806240D01*
X170578780Y-106281220D02*
X170578780Y-105806240D01*
X171051220Y-106281220D02*
X170578780Y-106281220D01*
X171051220Y-108821220D02*
X171051220Y-108346240D01*
X171051220Y-108346240D02*
X170578780Y-108346240D01*
X170578780Y-108821220D02*
X170578780Y-108346240D01*
X171051220Y-108821220D02*
X170578780Y-108821220D01*
X171051220Y-101203760D02*
X171051220Y-100728780D01*
X171051220Y-100728780D02*
X170578780Y-100728780D01*
X170578780Y-101203760D02*
X170578780Y-100728780D01*
X171051220Y-101203760D02*
X170578780Y-101203760D01*
X171051220Y-103743760D02*
X171051220Y-103268780D01*
X171051220Y-103268780D02*
X170578780Y-103268780D01*
X170578780Y-103743760D02*
X170578780Y-103268780D01*
X171051220Y-103743760D02*
X170578780Y-103743760D01*
X171051220Y-96123760D02*
X171051220Y-95648780D01*
X171051220Y-95648780D02*
X170578780Y-95648780D01*
X170578780Y-96123760D02*
X170578780Y-95648780D01*
X171051220Y-96123760D02*
X170578780Y-96123760D01*
X171051220Y-98663760D02*
X171051220Y-98188780D01*
X171051220Y-98188780D02*
X170578780Y-98188780D01*
X170578780Y-98663760D02*
X170578780Y-98188780D01*
X171051220Y-98663760D02*
X170578780Y-98663760D01*
X171051220Y-91043760D02*
X171051220Y-90568780D01*
X171051220Y-90568780D02*
X170578780Y-90568780D01*
X170578780Y-91043760D02*
X170578780Y-90568780D01*
X171051220Y-91043760D02*
X170578780Y-91043760D01*
X171051220Y-93583760D02*
X171051220Y-93108780D01*
X171051220Y-93108780D02*
X170578780Y-93108780D01*
X170578780Y-93583760D02*
X170578780Y-93108780D01*
X171051220Y-93583760D02*
X170578780Y-93583760D01*
D12*
X173672500Y-88265000D02*
X167957500Y-88265000D01*
X167957500Y-88265000D02*
X167957500Y-121285000D01*
X167957500Y-121285000D02*
X173672500Y-121285000D01*
X173672500Y-121285000D02*
X173672500Y-108267500D01*
X173672500Y-108267500D02*
X174625000Y-108267500D01*
X174625000Y-108267500D02*
X174625000Y-101282500D01*
X174625000Y-101282500D02*
X173672500Y-101282500D01*
X173672500Y-101282500D02*
X173672500Y-88265000D01*
D19*
X168592500Y-120650000D02*
X173037500Y-120650000D01*
X168592500Y-88900000D02*
X173037500Y-88900000D01*
X168592500Y-120650000D02*
X168592500Y-88900000D01*
X173037500Y-120650000D02*
X173037500Y-107632500D01*
X173037500Y-107632500D02*
X173037500Y-101917500D01*
X173037500Y-101917500D02*
X173037500Y-88900000D01*
X173990000Y-101917500D02*
X173990000Y-107632500D01*
X173037500Y-107632500D02*
X173990000Y-107632500D01*
X173037500Y-101917500D02*
X173990000Y-101917500D01*
D10*
X157877000Y-115130000D02*
X159877000Y-115130000D01*
X159877000Y-117280000D02*
X157877000Y-117280000D01*
X134350000Y-121090000D02*
X132350000Y-121090000D01*
X132350000Y-118940000D02*
X134350000Y-118940000D01*
X152595000Y-117205000D02*
X152595000Y-115205000D01*
X154745000Y-115205000D02*
X154745000Y-117205000D01*
X80840000Y-89900000D02*
X80840000Y-87900000D01*
X82990000Y-87900000D02*
X82990000Y-89900000D01*
X99330000Y-110685000D02*
X101330000Y-110685000D01*
X101330000Y-112835000D02*
X99330000Y-112835000D01*
X129905000Y-124265000D02*
X127905000Y-124265000D01*
X127905000Y-122115000D02*
X129905000Y-122115000D01*
X110220000Y-112835000D02*
X108220000Y-112835000D01*
X108220000Y-110685000D02*
X110220000Y-110685000D01*
X79180000Y-87900000D02*
X79180000Y-89900000D01*
X77030000Y-89900000D02*
X77030000Y-87900000D01*
X204200000Y-117280000D02*
X202200000Y-117280000D01*
X202200000Y-115130000D02*
X204200000Y-115130000D01*
X204200000Y-114105000D02*
X202200000Y-114105000D01*
X202200000Y-111955000D02*
X204200000Y-111955000D01*
X204200000Y-110930000D02*
X202200000Y-110930000D01*
X202200000Y-108780000D02*
X204200000Y-108780000D01*
X204200000Y-107755000D02*
X202200000Y-107755000D01*
X202200000Y-105605000D02*
X204200000Y-105605000D01*
X204200000Y-104580000D02*
X202200000Y-104580000D01*
X202200000Y-102430000D02*
X204200000Y-102430000D01*
X204200000Y-101405000D02*
X202200000Y-101405000D01*
X202200000Y-99255000D02*
X204200000Y-99255000D01*
X204200000Y-98230000D02*
X202200000Y-98230000D01*
X202200000Y-96080000D02*
X204200000Y-96080000D01*
X204200000Y-95055000D02*
X202200000Y-95055000D01*
X202200000Y-92905000D02*
X204200000Y-92905000D01*
X204200000Y-91880000D02*
X202200000Y-91880000D01*
X202200000Y-89730000D02*
X204200000Y-89730000D01*
X204200000Y-88705000D02*
X202200000Y-88705000D01*
X202200000Y-86555000D02*
X204200000Y-86555000D01*
X96325000Y-106950000D02*
X96325000Y-108950000D01*
X94175000Y-108950000D02*
X94175000Y-106950000D01*
X78232000Y-99543000D02*
X78232000Y-97257000D01*
X78740000Y-99543000D02*
X78232000Y-99543000D01*
X81788000Y-99543000D02*
X81280000Y-99543000D01*
X81788000Y-97257000D02*
X81788000Y-99543000D01*
D18*
X103124000Y-101015800D02*
X102616000Y-101015800D01*
X102616000Y-101015800D02*
X102616000Y-102158800D01*
X103124000Y-102158800D02*
X102616000Y-102158800D01*
X103124000Y-101015800D02*
X103124000Y-102158800D01*
X106934000Y-95961200D02*
X106426000Y-95961200D01*
X106426000Y-95961200D02*
X106426000Y-97104200D01*
X106934000Y-97104200D02*
X106426000Y-97104200D01*
X106934000Y-95961200D02*
X106934000Y-97104200D01*
X105664000Y-95961200D02*
X105156000Y-95961200D01*
X105156000Y-95961200D02*
X105156000Y-97104200D01*
X105664000Y-97104200D02*
X105156000Y-97104200D01*
X105664000Y-95961200D02*
X105664000Y-97104200D01*
X104394000Y-95986600D02*
X103886000Y-95986600D01*
X103886000Y-95986600D02*
X103886000Y-97129600D01*
X104394000Y-97129600D02*
X103886000Y-97129600D01*
X104394000Y-95986600D02*
X104394000Y-97129600D01*
X103124000Y-95961200D02*
X102616000Y-95961200D01*
X102616000Y-95961200D02*
X102616000Y-97104200D01*
X103124000Y-97104200D02*
X102616000Y-97104200D01*
X103124000Y-95961200D02*
X103124000Y-97104200D01*
X104394000Y-101015800D02*
X103886000Y-101015800D01*
X103886000Y-101015800D02*
X103886000Y-102158800D01*
X104394000Y-102158800D02*
X103886000Y-102158800D01*
X104394000Y-101015800D02*
X104394000Y-102158800D01*
X105664000Y-101015800D02*
X105156000Y-101015800D01*
X105156000Y-101015800D02*
X105156000Y-102158800D01*
X105664000Y-102158800D02*
X105156000Y-102158800D01*
X105664000Y-101015800D02*
X105664000Y-102158800D01*
X106934000Y-101015800D02*
X106426000Y-101015800D01*
X106426000Y-101015800D02*
X106426000Y-102158800D01*
X106934000Y-102158800D02*
X106426000Y-102158800D01*
X106934000Y-101015800D02*
X106934000Y-102158800D01*
D20*
X102616000Y-101015800D02*
X106934000Y-101015800D01*
X106934000Y-97104200D02*
X102616000Y-97104200D01*
X102235000Y-97485200D02*
X102235000Y-100634800D01*
X107315000Y-100634800D02*
X107315000Y-99568000D01*
X107315000Y-99568000D02*
X107315000Y-98552000D01*
X107315000Y-98552000D02*
X107315000Y-97485200D01*
D19*
X107315000Y-97459800D02*
X102235000Y-97459800D01*
D20*
X102616000Y-97104200D02*
G75*
G03X102235000Y-97485200I0J-381000D01*
G01*
X106934000Y-101015800D02*
G75*
G03X107315000Y-100634800I0J381000D01*
G01*
X102235000Y-100634800D02*
G75*
G03X102616000Y-101015800I381000J0D01*
G01*
X107315000Y-97485200D02*
G75*
G03X106934000Y-97104200I-381000J0D01*
G01*
X107315000Y-98552000D02*
G75*
G03X107315000Y-99568000I0J-508000D01*
G01*
D18*
X146100800Y-123571000D02*
X146100800Y-124079000D01*
X146100800Y-124079000D02*
X147243800Y-124079000D01*
X147243800Y-123571000D02*
X147243800Y-124079000D01*
X146100800Y-123571000D02*
X147243800Y-123571000D01*
X141046200Y-119761000D02*
X141046200Y-120269000D01*
X141046200Y-120269000D02*
X142189200Y-120269000D01*
X142189200Y-119761000D02*
X142189200Y-120269000D01*
X141046200Y-119761000D02*
X142189200Y-119761000D01*
X141046200Y-121031000D02*
X141046200Y-121539000D01*
X141046200Y-121539000D02*
X142189200Y-121539000D01*
X142189200Y-121031000D02*
X142189200Y-121539000D01*
X141046200Y-121031000D02*
X142189200Y-121031000D01*
X141071600Y-122301000D02*
X141071600Y-122809000D01*
X141071600Y-122809000D02*
X142214600Y-122809000D01*
X142214600Y-122301000D02*
X142214600Y-122809000D01*
X141071600Y-122301000D02*
X142214600Y-122301000D01*
X141046200Y-123571000D02*
X141046200Y-124079000D01*
X141046200Y-124079000D02*
X142189200Y-124079000D01*
X142189200Y-123571000D02*
X142189200Y-124079000D01*
X141046200Y-123571000D02*
X142189200Y-123571000D01*
X146100800Y-122301000D02*
X146100800Y-122809000D01*
X146100800Y-122809000D02*
X147243800Y-122809000D01*
X147243800Y-122301000D02*
X147243800Y-122809000D01*
X146100800Y-122301000D02*
X147243800Y-122301000D01*
X146100800Y-121031000D02*
X146100800Y-121539000D01*
X146100800Y-121539000D02*
X147243800Y-121539000D01*
X147243800Y-121031000D02*
X147243800Y-121539000D01*
X146100800Y-121031000D02*
X147243800Y-121031000D01*
X146100800Y-119761000D02*
X146100800Y-120269000D01*
X146100800Y-120269000D02*
X147243800Y-120269000D01*
X147243800Y-119761000D02*
X147243800Y-120269000D01*
X146100800Y-119761000D02*
X147243800Y-119761000D01*
D20*
X146100800Y-124079000D02*
X146100800Y-119761000D01*
X142189200Y-119761000D02*
X142189200Y-124079000D01*
X142570200Y-124460000D02*
X145719800Y-124460000D01*
X145719800Y-119380000D02*
X144653000Y-119380000D01*
X144653000Y-119380000D02*
X143637000Y-119380000D01*
X143637000Y-119380000D02*
X142570200Y-119380000D01*
D19*
X142544800Y-119380000D02*
X142544800Y-124460000D01*
D20*
X142189200Y-124079000D02*
G75*
G03X142570200Y-124460000I381000J0D01*
G01*
X146100800Y-119761000D02*
G75*
G03X145719800Y-119380000I-381000J0D01*
G01*
X145719800Y-124460000D02*
G75*
G03X146100800Y-124079000I0J381000D01*
G01*
X142570200Y-119380000D02*
G75*
G03X142189200Y-119761000I0J-381000D01*
G01*
X143637000Y-119380000D02*
G75*
G03X144653000Y-119380000I508000J0D01*
G01*
D18*
X160604200Y-108204000D02*
X160604200Y-107696000D01*
X160604200Y-107696000D02*
X159461200Y-107696000D01*
X159461200Y-108204000D02*
X159461200Y-107696000D01*
X160604200Y-108204000D02*
X159461200Y-108204000D01*
X165658800Y-112014000D02*
X165658800Y-111506000D01*
X165658800Y-111506000D02*
X164515800Y-111506000D01*
X164515800Y-112014000D02*
X164515800Y-111506000D01*
X165658800Y-112014000D02*
X164515800Y-112014000D01*
X165658800Y-110744000D02*
X165658800Y-110236000D01*
X165658800Y-110236000D02*
X164515800Y-110236000D01*
X164515800Y-110744000D02*
X164515800Y-110236000D01*
X165658800Y-110744000D02*
X164515800Y-110744000D01*
X165633400Y-109474000D02*
X165633400Y-108966000D01*
X165633400Y-108966000D02*
X164490400Y-108966000D01*
X164490400Y-109474000D02*
X164490400Y-108966000D01*
X165633400Y-109474000D02*
X164490400Y-109474000D01*
X165658800Y-108204000D02*
X165658800Y-107696000D01*
X165658800Y-107696000D02*
X164515800Y-107696000D01*
X164515800Y-108204000D02*
X164515800Y-107696000D01*
X165658800Y-108204000D02*
X164515800Y-108204000D01*
X160604200Y-109474000D02*
X160604200Y-108966000D01*
X160604200Y-108966000D02*
X159461200Y-108966000D01*
X159461200Y-109474000D02*
X159461200Y-108966000D01*
X160604200Y-109474000D02*
X159461200Y-109474000D01*
X160604200Y-110744000D02*
X160604200Y-110236000D01*
X160604200Y-110236000D02*
X159461200Y-110236000D01*
X159461200Y-110744000D02*
X159461200Y-110236000D01*
X160604200Y-110744000D02*
X159461200Y-110744000D01*
X160604200Y-112014000D02*
X160604200Y-111506000D01*
X160604200Y-111506000D02*
X159461200Y-111506000D01*
X159461200Y-112014000D02*
X159461200Y-111506000D01*
X160604200Y-112014000D02*
X159461200Y-112014000D01*
D20*
X160604200Y-107696000D02*
X160604200Y-112014000D01*
X164515800Y-112014000D02*
X164515800Y-107696000D01*
X164134800Y-107315000D02*
X160985200Y-107315000D01*
X160985200Y-112395000D02*
X162052000Y-112395000D01*
X162052000Y-112395000D02*
X163068000Y-112395000D01*
X163068000Y-112395000D02*
X164134800Y-112395000D01*
D19*
X164160200Y-112395000D02*
X164160200Y-107315000D01*
D20*
X164515800Y-107696000D02*
G75*
G03X164134800Y-107315000I-381000J0D01*
G01*
X160604200Y-112014000D02*
G75*
G03X160985200Y-112395000I381000J0D01*
G01*
X160985200Y-107315000D02*
G75*
G03X160604200Y-107696000I0J-381000D01*
G01*
X164134800Y-112395000D02*
G75*
G03X164515800Y-112014000I0J381000D01*
G01*
X163068000Y-112395000D02*
G75*
G03X162052000Y-112395000I-508000J0D01*
G01*
D18*
X107696000Y-86309200D02*
X108204000Y-86309200D01*
X108204000Y-86309200D02*
X108204000Y-85166200D01*
X107696000Y-85166200D02*
X108204000Y-85166200D01*
X107696000Y-86309200D02*
X107696000Y-85166200D01*
X103886000Y-91363800D02*
X104394000Y-91363800D01*
X104394000Y-91363800D02*
X104394000Y-90220800D01*
X103886000Y-90220800D02*
X104394000Y-90220800D01*
X103886000Y-91363800D02*
X103886000Y-90220800D01*
X105156000Y-91363800D02*
X105664000Y-91363800D01*
X105664000Y-91363800D02*
X105664000Y-90220800D01*
X105156000Y-90220800D02*
X105664000Y-90220800D01*
X105156000Y-91363800D02*
X105156000Y-90220800D01*
X106426000Y-91338400D02*
X106934000Y-91338400D01*
X106934000Y-91338400D02*
X106934000Y-90195400D01*
X106426000Y-90195400D02*
X106934000Y-90195400D01*
X106426000Y-91338400D02*
X106426000Y-90195400D01*
X107696000Y-91363800D02*
X108204000Y-91363800D01*
X108204000Y-91363800D02*
X108204000Y-90220800D01*
X107696000Y-90220800D02*
X108204000Y-90220800D01*
X107696000Y-91363800D02*
X107696000Y-90220800D01*
X106426000Y-86309200D02*
X106934000Y-86309200D01*
X106934000Y-86309200D02*
X106934000Y-85166200D01*
X106426000Y-85166200D02*
X106934000Y-85166200D01*
X106426000Y-86309200D02*
X106426000Y-85166200D01*
X105156000Y-86309200D02*
X105664000Y-86309200D01*
X105664000Y-86309200D02*
X105664000Y-85166200D01*
X105156000Y-85166200D02*
X105664000Y-85166200D01*
X105156000Y-86309200D02*
X105156000Y-85166200D01*
X103886000Y-86309200D02*
X104394000Y-86309200D01*
X104394000Y-86309200D02*
X104394000Y-85166200D01*
X103886000Y-85166200D02*
X104394000Y-85166200D01*
X103886000Y-86309200D02*
X103886000Y-85166200D01*
X108966000Y-91363800D02*
X109474000Y-91363800D01*
X109474000Y-91363800D02*
X109474000Y-90220800D01*
X108966000Y-90220800D02*
X109474000Y-90220800D01*
X108966000Y-91363800D02*
X108966000Y-90220800D01*
X110236000Y-91363800D02*
X110744000Y-91363800D01*
X110744000Y-91363800D02*
X110744000Y-90220800D01*
X110236000Y-90220800D02*
X110744000Y-90220800D01*
X110236000Y-91363800D02*
X110236000Y-90220800D01*
X111506000Y-91363800D02*
X112014000Y-91363800D01*
X112014000Y-91363800D02*
X112014000Y-90220800D01*
X111506000Y-90220800D02*
X112014000Y-90220800D01*
X111506000Y-91363800D02*
X111506000Y-90220800D01*
X112776000Y-91363800D02*
X113284000Y-91363800D01*
X113284000Y-91363800D02*
X113284000Y-90220800D01*
X112776000Y-90220800D02*
X113284000Y-90220800D01*
X112776000Y-91363800D02*
X112776000Y-90220800D01*
X108966000Y-86309200D02*
X109474000Y-86309200D01*
X109474000Y-86309200D02*
X109474000Y-85166200D01*
X108966000Y-85166200D02*
X109474000Y-85166200D01*
X108966000Y-86309200D02*
X108966000Y-85166200D01*
X110236000Y-86309200D02*
X110744000Y-86309200D01*
X110744000Y-86309200D02*
X110744000Y-85166200D01*
X110236000Y-85166200D02*
X110744000Y-85166200D01*
X110236000Y-86309200D02*
X110236000Y-85166200D01*
X111506000Y-86309200D02*
X112014000Y-86309200D01*
X112014000Y-86309200D02*
X112014000Y-85166200D01*
X111506000Y-85166200D02*
X112014000Y-85166200D01*
X111506000Y-86309200D02*
X111506000Y-85166200D01*
X112776000Y-86309200D02*
X113284000Y-86309200D01*
X113284000Y-86309200D02*
X113284000Y-85166200D01*
X112776000Y-85166200D02*
X113284000Y-85166200D01*
X112776000Y-86309200D02*
X112776000Y-85166200D01*
D20*
X113284000Y-86309200D02*
X103886000Y-86309200D01*
X103886000Y-90220800D02*
X113284000Y-90220800D01*
X113665000Y-89839800D02*
X113665000Y-86690200D01*
X103505000Y-86690200D02*
X103505000Y-87757000D01*
X103505000Y-87757000D02*
X103505000Y-88773000D01*
X103505000Y-88773000D02*
X103505000Y-89839800D01*
D19*
X103505000Y-89865200D02*
X113665000Y-89865200D01*
D20*
X113284000Y-90220800D02*
G75*
G03X113665000Y-89839800I0J381000D01*
G01*
X103886000Y-86309200D02*
G75*
G03X103505000Y-86690200I0J-381000D01*
G01*
X113665000Y-86690200D02*
G75*
G03X113284000Y-86309200I-381000J0D01*
G01*
X103505000Y-89839800D02*
G75*
G03X103886000Y-90220800I381000J0D01*
G01*
X103505000Y-88773000D02*
G75*
G03X103505000Y-87757000I0J508000D01*
G01*
D16*
X109455000Y-118105000D02*
X108195000Y-118105000D01*
X102635000Y-118105000D02*
X103895000Y-118105000D01*
X109455000Y-121865000D02*
X109455000Y-118105000D01*
X102635000Y-124115000D02*
X102635000Y-118105000D01*
D10*
X139580000Y-112480000D02*
X139580000Y-113580000D01*
X137280000Y-112530000D02*
X137280000Y-114530000D01*
X137109200Y-115008660D02*
X137109200Y-115577620D01*
X137109200Y-115577620D02*
X137520680Y-115577620D01*
X145295000Y-112480000D02*
X145295000Y-113580000D01*
X142995000Y-112530000D02*
X142995000Y-114530000D01*
X142824200Y-115008660D02*
X142824200Y-115577620D01*
X142824200Y-115577620D02*
X143235680Y-115577620D01*
X133865000Y-112480000D02*
X133865000Y-113580000D01*
X131565000Y-112530000D02*
X131565000Y-114530000D01*
X131394200Y-115008660D02*
X131394200Y-115577620D01*
X131394200Y-115577620D02*
X131805680Y-115577620D01*
D17*
X209374619Y-126812524D02*
X209374619Y-125542524D01*
X209858428Y-125542524D01*
X209979381Y-125603000D01*
X210039857Y-125663476D01*
X210100333Y-125784429D01*
X210100333Y-125965857D01*
X210039857Y-126086810D01*
X209979381Y-126147286D01*
X209858428Y-126207762D01*
X209374619Y-126207762D01*
X211309857Y-126812524D02*
X210584143Y-126812524D01*
X210947000Y-126812524D02*
X210947000Y-125542524D01*
X210826048Y-125723952D01*
X210705095Y-125844905D01*
X210584143Y-125905381D01*
X149279429Y-109818714D02*
X149279429Y-110435571D01*
X149315714Y-110508143D01*
X149352000Y-110544429D01*
X149424571Y-110580714D01*
X149569714Y-110580714D01*
X149642286Y-110544429D01*
X149678571Y-110508143D01*
X149714857Y-110435571D01*
X149714857Y-109818714D01*
X150476857Y-110580714D02*
X150041429Y-110580714D01*
X150259143Y-110580714D02*
X150259143Y-109818714D01*
X150186572Y-109927571D01*
X150114000Y-110000143D01*
X150041429Y-110036429D01*
X151220714Y-116041713D02*
X151220714Y-115533713D01*
X151982714Y-115860284D01*
X151474714Y-114916856D02*
X151982714Y-114916856D01*
X151184429Y-115098285D02*
X151728714Y-115279713D01*
X151728714Y-114807999D01*
X151982714Y-114154856D02*
X151982714Y-114517713D01*
X151220714Y-114517713D01*
X151220714Y-114009714D02*
X151982714Y-113755714D01*
X151220714Y-113501714D01*
X151910143Y-112812285D02*
X151946429Y-112848571D01*
X151982714Y-112957428D01*
X151982714Y-113029999D01*
X151946429Y-113138856D01*
X151873857Y-113211428D01*
X151801286Y-113247713D01*
X151656143Y-113283999D01*
X151547286Y-113283999D01*
X151402143Y-113247713D01*
X151329571Y-113211428D01*
X151257000Y-113138856D01*
X151220714Y-113029999D01*
X151220714Y-112957428D01*
X151257000Y-112848571D01*
X151293286Y-112812285D01*
X151982714Y-112086571D02*
X151982714Y-112521999D01*
X151982714Y-112304285D02*
X151220714Y-112304285D01*
X151329571Y-112376856D01*
X151402143Y-112449428D01*
X151438429Y-112521999D01*
X151220714Y-111868857D02*
X151220714Y-111433428D01*
X151982714Y-111651142D02*
X151220714Y-111651142D01*
X151474714Y-110852857D02*
X151982714Y-110852857D01*
X151184429Y-111034286D02*
X151728714Y-111215714D01*
X151728714Y-110744000D01*
X151220714Y-110090857D02*
X151220714Y-110453714D01*
X151583571Y-110490000D01*
X151547286Y-110453714D01*
X151511000Y-110381143D01*
X151511000Y-110199714D01*
X151547286Y-110127143D01*
X151583571Y-110090857D01*
X151656143Y-110054572D01*
X151837571Y-110054572D01*
X151910143Y-110090857D01*
X151946429Y-110127143D01*
X151982714Y-110199714D01*
X151982714Y-110381143D01*
X151946429Y-110453714D01*
X151910143Y-110490000D01*
X164924619Y-119446524D02*
X164924619Y-118176524D01*
X165408428Y-118176524D01*
X165529381Y-118237000D01*
X165589857Y-118297476D01*
X165650333Y-118418429D01*
X165650333Y-118599857D01*
X165589857Y-118720810D01*
X165529381Y-118781286D01*
X165408428Y-118841762D01*
X164924619Y-118841762D01*
X166738905Y-118599857D02*
X166738905Y-119446524D01*
X166436524Y-118116048D02*
X166134143Y-119023190D01*
X166920333Y-119023190D01*
X126365000Y-110762143D02*
X126328714Y-110798429D01*
X126219857Y-110834714D01*
X126147286Y-110834714D01*
X126038429Y-110798429D01*
X125965857Y-110725857D01*
X125929572Y-110653286D01*
X125893286Y-110508143D01*
X125893286Y-110399286D01*
X125929572Y-110254143D01*
X125965857Y-110181571D01*
X126038429Y-110109000D01*
X126147286Y-110072714D01*
X126219857Y-110072714D01*
X126328714Y-110109000D01*
X126365000Y-110145286D01*
X127090714Y-110834714D02*
X126655286Y-110834714D01*
X126873000Y-110834714D02*
X126873000Y-110072714D01*
X126800429Y-110181571D01*
X126727857Y-110254143D01*
X126655286Y-110290429D01*
X125240143Y-111088714D02*
X125312715Y-111088714D01*
X125385286Y-111125000D01*
X125421572Y-111161286D01*
X125457858Y-111233857D01*
X125494143Y-111379000D01*
X125494143Y-111560429D01*
X125457858Y-111705571D01*
X125421572Y-111778143D01*
X125385286Y-111814429D01*
X125312715Y-111850714D01*
X125240143Y-111850714D01*
X125167572Y-111814429D01*
X125131286Y-111778143D01*
X125095001Y-111705571D01*
X125058715Y-111560429D01*
X125058715Y-111379000D01*
X125095001Y-111233857D01*
X125131286Y-111161286D01*
X125167572Y-111125000D01*
X125240143Y-111088714D01*
X125820715Y-111778143D02*
X125857000Y-111814429D01*
X125820715Y-111850714D01*
X125784429Y-111814429D01*
X125820715Y-111778143D01*
X125820715Y-111850714D01*
X126582714Y-111850714D02*
X126147286Y-111850714D01*
X126365000Y-111850714D02*
X126365000Y-111088714D01*
X126292429Y-111197571D01*
X126219857Y-111270143D01*
X126147286Y-111306429D01*
X127235857Y-111342714D02*
X127235857Y-111850714D01*
X126909286Y-111342714D02*
X126909286Y-111741857D01*
X126945571Y-111814429D01*
X127018143Y-111850714D01*
X127127000Y-111850714D01*
X127199571Y-111814429D01*
X127235857Y-111778143D01*
X127852715Y-111451571D02*
X127598715Y-111451571D01*
X127598715Y-111850714D02*
X127598715Y-111088714D01*
X127961572Y-111088714D01*
X121793000Y-125240143D02*
X121756714Y-125276429D01*
X121647857Y-125312714D01*
X121575286Y-125312714D01*
X121466429Y-125276429D01*
X121393857Y-125203857D01*
X121357572Y-125131286D01*
X121321286Y-124986143D01*
X121321286Y-124877286D01*
X121357572Y-124732143D01*
X121393857Y-124659571D01*
X121466429Y-124587000D01*
X121575286Y-124550714D01*
X121647857Y-124550714D01*
X121756714Y-124587000D01*
X121793000Y-124623286D01*
X122083286Y-124623286D02*
X122119572Y-124587000D01*
X122192143Y-124550714D01*
X122373572Y-124550714D01*
X122446143Y-124587000D01*
X122482429Y-124623286D01*
X122518714Y-124695857D01*
X122518714Y-124768429D01*
X122482429Y-124877286D01*
X122047000Y-125312714D01*
X122518714Y-125312714D01*
X120668143Y-125820714D02*
X120740715Y-125820714D01*
X120813286Y-125857000D01*
X120849572Y-125893286D01*
X120885858Y-125965857D01*
X120922143Y-126111000D01*
X120922143Y-126292429D01*
X120885858Y-126437571D01*
X120849572Y-126510143D01*
X120813286Y-126546429D01*
X120740715Y-126582714D01*
X120668143Y-126582714D01*
X120595572Y-126546429D01*
X120559286Y-126510143D01*
X120523001Y-126437571D01*
X120486715Y-126292429D01*
X120486715Y-126111000D01*
X120523001Y-125965857D01*
X120559286Y-125893286D01*
X120595572Y-125857000D01*
X120668143Y-125820714D01*
X121248715Y-126510143D02*
X121285000Y-126546429D01*
X121248715Y-126582714D01*
X121212429Y-126546429D01*
X121248715Y-126510143D01*
X121248715Y-126582714D01*
X122010714Y-126582714D02*
X121575286Y-126582714D01*
X121793000Y-126582714D02*
X121793000Y-125820714D01*
X121720429Y-125929571D01*
X121647857Y-126002143D01*
X121575286Y-126038429D01*
X122663857Y-126074714D02*
X122663857Y-126582714D01*
X122337286Y-126074714D02*
X122337286Y-126473857D01*
X122373571Y-126546429D01*
X122446143Y-126582714D01*
X122555000Y-126582714D01*
X122627571Y-126546429D01*
X122663857Y-126510143D01*
X123280715Y-126183571D02*
X123026715Y-126183571D01*
X123026715Y-126582714D02*
X123026715Y-125820714D01*
X123389572Y-125820714D01*
X83947000Y-82314143D02*
X83910714Y-82350429D01*
X83801857Y-82386714D01*
X83729286Y-82386714D01*
X83620429Y-82350429D01*
X83547857Y-82277857D01*
X83511572Y-82205286D01*
X83475286Y-82060143D01*
X83475286Y-81951286D01*
X83511572Y-81806143D01*
X83547857Y-81733571D01*
X83620429Y-81661000D01*
X83729286Y-81624714D01*
X83801857Y-81624714D01*
X83910714Y-81661000D01*
X83947000Y-81697286D01*
X84201000Y-81624714D02*
X84672714Y-81624714D01*
X84418714Y-81915000D01*
X84527572Y-81915000D01*
X84600143Y-81951286D01*
X84636429Y-81987571D01*
X84672714Y-82060143D01*
X84672714Y-82241571D01*
X84636429Y-82314143D01*
X84600143Y-82350429D01*
X84527572Y-82386714D01*
X84309857Y-82386714D01*
X84237286Y-82350429D01*
X84201000Y-82314143D01*
X83838143Y-82640714D02*
X83910715Y-82640714D01*
X83983286Y-82677000D01*
X84019572Y-82713286D01*
X84055858Y-82785857D01*
X84092143Y-82931000D01*
X84092143Y-83112429D01*
X84055858Y-83257571D01*
X84019572Y-83330143D01*
X83983286Y-83366429D01*
X83910715Y-83402714D01*
X83838143Y-83402714D01*
X83765572Y-83366429D01*
X83729286Y-83330143D01*
X83693001Y-83257571D01*
X83656715Y-83112429D01*
X83656715Y-82931000D01*
X83693001Y-82785857D01*
X83729286Y-82713286D01*
X83765572Y-82677000D01*
X83838143Y-82640714D01*
X84418715Y-83330143D02*
X84455000Y-83366429D01*
X84418715Y-83402714D01*
X84382429Y-83366429D01*
X84418715Y-83330143D01*
X84418715Y-83402714D01*
X85180714Y-83402714D02*
X84745286Y-83402714D01*
X84963000Y-83402714D02*
X84963000Y-82640714D01*
X84890429Y-82749571D01*
X84817857Y-82822143D01*
X84745286Y-82858429D01*
X85833857Y-82894714D02*
X85833857Y-83402714D01*
X85507286Y-82894714D02*
X85507286Y-83293857D01*
X85543571Y-83366429D01*
X85616143Y-83402714D01*
X85725000Y-83402714D01*
X85797571Y-83366429D01*
X85833857Y-83330143D01*
X86450715Y-83003571D02*
X86196715Y-83003571D01*
X86196715Y-83402714D02*
X86196715Y-82640714D01*
X86559572Y-82640714D01*
X112649000Y-125748143D02*
X112612714Y-125784429D01*
X112503857Y-125820714D01*
X112431286Y-125820714D01*
X112322429Y-125784429D01*
X112249857Y-125711857D01*
X112213572Y-125639286D01*
X112177286Y-125494143D01*
X112177286Y-125385286D01*
X112213572Y-125240143D01*
X112249857Y-125167571D01*
X112322429Y-125095000D01*
X112431286Y-125058714D01*
X112503857Y-125058714D01*
X112612714Y-125095000D01*
X112649000Y-125131286D01*
X113302143Y-125312714D02*
X113302143Y-125820714D01*
X113120714Y-125022429D02*
X112939286Y-125566714D01*
X113411000Y-125566714D01*
X112576429Y-126582714D02*
X112576429Y-127090714D01*
X112395000Y-126292429D02*
X112213572Y-126836714D01*
X112685286Y-126836714D01*
X112903000Y-126328714D02*
X113411000Y-126328714D01*
X113084429Y-127090714D01*
X114027857Y-126582714D02*
X114027857Y-127090714D01*
X113701286Y-126582714D02*
X113701286Y-126981857D01*
X113737571Y-127054429D01*
X113810143Y-127090714D01*
X113919000Y-127090714D01*
X113991571Y-127054429D01*
X114027857Y-127018143D01*
X114644715Y-126691571D02*
X114390715Y-126691571D01*
X114390715Y-127090714D02*
X114390715Y-126328714D01*
X114753572Y-126328714D01*
X116023571Y-127090714D02*
X115588143Y-127090714D01*
X115805857Y-127090714D02*
X115805857Y-126328714D01*
X115733286Y-126437571D01*
X115660714Y-126510143D01*
X115588143Y-126546429D01*
X116495285Y-126328714D02*
X116567857Y-126328714D01*
X116640428Y-126365000D01*
X116676714Y-126401286D01*
X116713000Y-126473857D01*
X116749285Y-126619000D01*
X116749285Y-126800429D01*
X116713000Y-126945571D01*
X116676714Y-127018143D01*
X116640428Y-127054429D01*
X116567857Y-127090714D01*
X116495285Y-127090714D01*
X116422714Y-127054429D01*
X116386428Y-127018143D01*
X116350143Y-126945571D01*
X116313857Y-126800429D01*
X116313857Y-126619000D01*
X116350143Y-126473857D01*
X116386428Y-126401286D01*
X116422714Y-126365000D01*
X116495285Y-126328714D01*
X116966999Y-126328714D02*
X117220999Y-127090714D01*
X117474999Y-126328714D01*
D10*
X117165429Y-125856952D02*
X117165429Y-125095047D01*
X117546381Y-125475999D02*
X116784476Y-125475999D01*
D17*
X115951000Y-111778143D02*
X115914714Y-111814429D01*
X115805857Y-111850714D01*
X115733286Y-111850714D01*
X115624429Y-111814429D01*
X115551857Y-111741857D01*
X115515572Y-111669286D01*
X115479286Y-111524143D01*
X115479286Y-111415286D01*
X115515572Y-111270143D01*
X115551857Y-111197571D01*
X115624429Y-111125000D01*
X115733286Y-111088714D01*
X115805857Y-111088714D01*
X115914714Y-111125000D01*
X115951000Y-111161286D01*
X116640429Y-111088714D02*
X116277572Y-111088714D01*
X116241286Y-111451571D01*
X116277572Y-111415286D01*
X116350143Y-111379000D01*
X116531572Y-111379000D01*
X116604143Y-111415286D01*
X116640429Y-111451571D01*
X116676714Y-111524143D01*
X116676714Y-111705571D01*
X116640429Y-111778143D01*
X116604143Y-111814429D01*
X116531572Y-111850714D01*
X116350143Y-111850714D01*
X116277572Y-111814429D01*
X116241286Y-111778143D01*
X114826143Y-112104714D02*
X114898715Y-112104714D01*
X114971286Y-112141000D01*
X115007572Y-112177286D01*
X115043858Y-112249857D01*
X115080143Y-112395000D01*
X115080143Y-112576429D01*
X115043858Y-112721571D01*
X115007572Y-112794143D01*
X114971286Y-112830429D01*
X114898715Y-112866714D01*
X114826143Y-112866714D01*
X114753572Y-112830429D01*
X114717286Y-112794143D01*
X114681001Y-112721571D01*
X114644715Y-112576429D01*
X114644715Y-112395000D01*
X114681001Y-112249857D01*
X114717286Y-112177286D01*
X114753572Y-112141000D01*
X114826143Y-112104714D01*
X115406715Y-112794143D02*
X115443000Y-112830429D01*
X115406715Y-112866714D01*
X115370429Y-112830429D01*
X115406715Y-112794143D01*
X115406715Y-112866714D01*
X116168714Y-112866714D02*
X115733286Y-112866714D01*
X115951000Y-112866714D02*
X115951000Y-112104714D01*
X115878429Y-112213571D01*
X115805857Y-112286143D01*
X115733286Y-112322429D01*
X116821857Y-112358714D02*
X116821857Y-112866714D01*
X116495286Y-112358714D02*
X116495286Y-112757857D01*
X116531571Y-112830429D01*
X116604143Y-112866714D01*
X116713000Y-112866714D01*
X116785571Y-112830429D01*
X116821857Y-112794143D01*
X117438715Y-112467571D02*
X117184715Y-112467571D01*
X117184715Y-112866714D02*
X117184715Y-112104714D01*
X117547572Y-112104714D01*
X101473000Y-83584143D02*
X101436714Y-83620429D01*
X101327857Y-83656714D01*
X101255286Y-83656714D01*
X101146429Y-83620429D01*
X101073857Y-83547857D01*
X101037572Y-83475286D01*
X101001286Y-83330143D01*
X101001286Y-83221286D01*
X101037572Y-83076143D01*
X101073857Y-83003571D01*
X101146429Y-82931000D01*
X101255286Y-82894714D01*
X101327857Y-82894714D01*
X101436714Y-82931000D01*
X101473000Y-82967286D01*
X102126143Y-82894714D02*
X101981000Y-82894714D01*
X101908429Y-82931000D01*
X101872143Y-82967286D01*
X101799572Y-83076143D01*
X101763286Y-83221286D01*
X101763286Y-83511571D01*
X101799572Y-83584143D01*
X101835857Y-83620429D01*
X101908429Y-83656714D01*
X102053572Y-83656714D01*
X102126143Y-83620429D01*
X102162429Y-83584143D01*
X102198714Y-83511571D01*
X102198714Y-83330143D01*
X102162429Y-83257571D01*
X102126143Y-83221286D01*
X102053572Y-83185000D01*
X101908429Y-83185000D01*
X101835857Y-83221286D01*
X101799572Y-83257571D01*
X101763286Y-83330143D01*
X100348143Y-83910714D02*
X100420715Y-83910714D01*
X100493286Y-83947000D01*
X100529572Y-83983286D01*
X100565858Y-84055857D01*
X100602143Y-84201000D01*
X100602143Y-84382429D01*
X100565858Y-84527571D01*
X100529572Y-84600143D01*
X100493286Y-84636429D01*
X100420715Y-84672714D01*
X100348143Y-84672714D01*
X100275572Y-84636429D01*
X100239286Y-84600143D01*
X100203001Y-84527571D01*
X100166715Y-84382429D01*
X100166715Y-84201000D01*
X100203001Y-84055857D01*
X100239286Y-83983286D01*
X100275572Y-83947000D01*
X100348143Y-83910714D01*
X100928715Y-84600143D02*
X100965000Y-84636429D01*
X100928715Y-84672714D01*
X100892429Y-84636429D01*
X100928715Y-84600143D01*
X100928715Y-84672714D01*
X101690714Y-84672714D02*
X101255286Y-84672714D01*
X101473000Y-84672714D02*
X101473000Y-83910714D01*
X101400429Y-84019571D01*
X101327857Y-84092143D01*
X101255286Y-84128429D01*
X102343857Y-84164714D02*
X102343857Y-84672714D01*
X102017286Y-84164714D02*
X102017286Y-84563857D01*
X102053571Y-84636429D01*
X102126143Y-84672714D01*
X102235000Y-84672714D01*
X102307571Y-84636429D01*
X102343857Y-84600143D01*
X102960715Y-84273571D02*
X102706715Y-84273571D01*
X102706715Y-84672714D02*
X102706715Y-83910714D01*
X103069572Y-83910714D01*
X126365000Y-117366143D02*
X126328714Y-117402429D01*
X126219857Y-117438714D01*
X126147286Y-117438714D01*
X126038429Y-117402429D01*
X125965857Y-117329857D01*
X125929572Y-117257286D01*
X125893286Y-117112143D01*
X125893286Y-117003286D01*
X125929572Y-116858143D01*
X125965857Y-116785571D01*
X126038429Y-116713000D01*
X126147286Y-116676714D01*
X126219857Y-116676714D01*
X126328714Y-116713000D01*
X126365000Y-116749286D01*
X126619000Y-116676714D02*
X127127000Y-116676714D01*
X126800429Y-117438714D01*
X125240143Y-117692714D02*
X125312715Y-117692714D01*
X125385286Y-117729000D01*
X125421572Y-117765286D01*
X125457858Y-117837857D01*
X125494143Y-117983000D01*
X125494143Y-118164429D01*
X125457858Y-118309571D01*
X125421572Y-118382143D01*
X125385286Y-118418429D01*
X125312715Y-118454714D01*
X125240143Y-118454714D01*
X125167572Y-118418429D01*
X125131286Y-118382143D01*
X125095001Y-118309571D01*
X125058715Y-118164429D01*
X125058715Y-117983000D01*
X125095001Y-117837857D01*
X125131286Y-117765286D01*
X125167572Y-117729000D01*
X125240143Y-117692714D01*
X125820715Y-118382143D02*
X125857000Y-118418429D01*
X125820715Y-118454714D01*
X125784429Y-118418429D01*
X125820715Y-118382143D01*
X125820715Y-118454714D01*
X126582714Y-118454714D02*
X126147286Y-118454714D01*
X126365000Y-118454714D02*
X126365000Y-117692714D01*
X126292429Y-117801571D01*
X126219857Y-117874143D01*
X126147286Y-117910429D01*
X127235857Y-117946714D02*
X127235857Y-118454714D01*
X126909286Y-117946714D02*
X126909286Y-118345857D01*
X126945571Y-118418429D01*
X127018143Y-118454714D01*
X127127000Y-118454714D01*
X127199571Y-118418429D01*
X127235857Y-118382143D01*
X127852715Y-118055571D02*
X127598715Y-118055571D01*
X127598715Y-118454714D02*
X127598715Y-117692714D01*
X127961572Y-117692714D01*
X95377000Y-125748143D02*
X95340714Y-125784429D01*
X95231857Y-125820714D01*
X95159286Y-125820714D01*
X95050429Y-125784429D01*
X94977857Y-125711857D01*
X94941572Y-125639286D01*
X94905286Y-125494143D01*
X94905286Y-125385286D01*
X94941572Y-125240143D01*
X94977857Y-125167571D01*
X95050429Y-125095000D01*
X95159286Y-125058714D01*
X95231857Y-125058714D01*
X95340714Y-125095000D01*
X95377000Y-125131286D01*
X95812429Y-125385286D02*
X95739857Y-125349000D01*
X95703572Y-125312714D01*
X95667286Y-125240143D01*
X95667286Y-125203857D01*
X95703572Y-125131286D01*
X95739857Y-125095000D01*
X95812429Y-125058714D01*
X95957572Y-125058714D01*
X96030143Y-125095000D01*
X96066429Y-125131286D01*
X96102714Y-125203857D01*
X96102714Y-125240143D01*
X96066429Y-125312714D01*
X96030143Y-125349000D01*
X95957572Y-125385286D01*
X95812429Y-125385286D01*
X95739857Y-125421571D01*
X95703572Y-125457857D01*
X95667286Y-125530429D01*
X95667286Y-125675571D01*
X95703572Y-125748143D01*
X95739857Y-125784429D01*
X95812429Y-125820714D01*
X95957572Y-125820714D01*
X96030143Y-125784429D01*
X96066429Y-125748143D01*
X96102714Y-125675571D01*
X96102714Y-125530429D01*
X96066429Y-125457857D01*
X96030143Y-125421571D01*
X95957572Y-125385286D01*
X95304429Y-126582714D02*
X95304429Y-127090714D01*
X95123000Y-126292429D02*
X94941572Y-126836714D01*
X95413286Y-126836714D01*
X95631000Y-126328714D02*
X96139000Y-126328714D01*
X95812429Y-127090714D01*
X96755857Y-126582714D02*
X96755857Y-127090714D01*
X96429286Y-126582714D02*
X96429286Y-126981857D01*
X96465571Y-127054429D01*
X96538143Y-127090714D01*
X96647000Y-127090714D01*
X96719571Y-127054429D01*
X96755857Y-127018143D01*
X97372715Y-126691571D02*
X97118715Y-126691571D01*
X97118715Y-127090714D02*
X97118715Y-126328714D01*
X97481572Y-126328714D01*
X98751571Y-127090714D02*
X98316143Y-127090714D01*
X98533857Y-127090714D02*
X98533857Y-126328714D01*
X98461286Y-126437571D01*
X98388714Y-126510143D01*
X98316143Y-126546429D01*
X99223285Y-126328714D02*
X99295857Y-126328714D01*
X99368428Y-126365000D01*
X99404714Y-126401286D01*
X99441000Y-126473857D01*
X99477285Y-126619000D01*
X99477285Y-126800429D01*
X99441000Y-126945571D01*
X99404714Y-127018143D01*
X99368428Y-127054429D01*
X99295857Y-127090714D01*
X99223285Y-127090714D01*
X99150714Y-127054429D01*
X99114428Y-127018143D01*
X99078143Y-126945571D01*
X99041857Y-126800429D01*
X99041857Y-126619000D01*
X99078143Y-126473857D01*
X99114428Y-126401286D01*
X99150714Y-126365000D01*
X99223285Y-126328714D01*
X99694999Y-126328714D02*
X99948999Y-127090714D01*
X100202999Y-126328714D01*
D10*
X95575429Y-116712952D02*
X95575429Y-115951047D01*
X95956381Y-116331999D02*
X95194476Y-116331999D01*
D17*
X91821000Y-105682143D02*
X91784714Y-105718429D01*
X91675857Y-105754714D01*
X91603286Y-105754714D01*
X91494429Y-105718429D01*
X91421857Y-105645857D01*
X91385572Y-105573286D01*
X91349286Y-105428143D01*
X91349286Y-105319286D01*
X91385572Y-105174143D01*
X91421857Y-105101571D01*
X91494429Y-105029000D01*
X91603286Y-104992714D01*
X91675857Y-104992714D01*
X91784714Y-105029000D01*
X91821000Y-105065286D01*
X92183857Y-105754714D02*
X92329000Y-105754714D01*
X92401572Y-105718429D01*
X92437857Y-105682143D01*
X92510429Y-105573286D01*
X92546714Y-105428143D01*
X92546714Y-105137857D01*
X92510429Y-105065286D01*
X92474143Y-105029000D01*
X92401572Y-104992714D01*
X92256429Y-104992714D01*
X92183857Y-105029000D01*
X92147572Y-105065286D01*
X92111286Y-105137857D01*
X92111286Y-105319286D01*
X92147572Y-105391857D01*
X92183857Y-105428143D01*
X92256429Y-105464429D01*
X92401572Y-105464429D01*
X92474143Y-105428143D01*
X92510429Y-105391857D01*
X92546714Y-105319286D01*
X90950143Y-106008714D02*
X91022715Y-106008714D01*
X91095286Y-106045000D01*
X91131572Y-106081286D01*
X91167858Y-106153857D01*
X91204143Y-106299000D01*
X91204143Y-106480429D01*
X91167858Y-106625571D01*
X91131572Y-106698143D01*
X91095286Y-106734429D01*
X91022715Y-106770714D01*
X90950143Y-106770714D01*
X90877572Y-106734429D01*
X90841286Y-106698143D01*
X90805001Y-106625571D01*
X90768715Y-106480429D01*
X90768715Y-106299000D01*
X90805001Y-106153857D01*
X90841286Y-106081286D01*
X90877572Y-106045000D01*
X90950143Y-106008714D01*
X91530715Y-106698143D02*
X91567000Y-106734429D01*
X91530715Y-106770714D01*
X91494429Y-106734429D01*
X91530715Y-106698143D01*
X91530715Y-106770714D01*
X92292714Y-106770714D02*
X91857286Y-106770714D01*
X92075000Y-106770714D02*
X92075000Y-106008714D01*
X92002429Y-106117571D01*
X91929857Y-106190143D01*
X91857286Y-106226429D01*
X92945857Y-106262714D02*
X92945857Y-106770714D01*
X92619286Y-106262714D02*
X92619286Y-106661857D01*
X92655571Y-106734429D01*
X92728143Y-106770714D01*
X92837000Y-106770714D01*
X92909571Y-106734429D01*
X92945857Y-106698143D01*
X93562715Y-106371571D02*
X93308715Y-106371571D01*
X93308715Y-106770714D02*
X93308715Y-106008714D01*
X93671572Y-106008714D01*
X112540143Y-106190143D02*
X112503857Y-106226429D01*
X112395000Y-106262714D01*
X112322429Y-106262714D01*
X112213572Y-106226429D01*
X112141000Y-106153857D01*
X112104715Y-106081286D01*
X112068429Y-105936143D01*
X112068429Y-105827286D01*
X112104715Y-105682143D01*
X112141000Y-105609571D01*
X112213572Y-105537000D01*
X112322429Y-105500714D01*
X112395000Y-105500714D01*
X112503857Y-105537000D01*
X112540143Y-105573286D01*
X113265857Y-106262714D02*
X112830429Y-106262714D01*
X113048143Y-106262714D02*
X113048143Y-105500714D01*
X112975572Y-105609571D01*
X112903000Y-105682143D01*
X112830429Y-105718429D01*
X113737571Y-105500714D02*
X113810143Y-105500714D01*
X113882714Y-105537000D01*
X113919000Y-105573286D01*
X113955286Y-105645857D01*
X113991571Y-105791000D01*
X113991571Y-105972429D01*
X113955286Y-106117571D01*
X113919000Y-106190143D01*
X113882714Y-106226429D01*
X113810143Y-106262714D01*
X113737571Y-106262714D01*
X113665000Y-106226429D01*
X113628714Y-106190143D01*
X113592429Y-106117571D01*
X113556143Y-105972429D01*
X113556143Y-105791000D01*
X113592429Y-105645857D01*
X113628714Y-105573286D01*
X113665000Y-105537000D01*
X113737571Y-105500714D01*
X112032143Y-106516714D02*
X112104715Y-106516714D01*
X112177286Y-106553000D01*
X112213572Y-106589286D01*
X112249858Y-106661857D01*
X112286143Y-106807000D01*
X112286143Y-106988429D01*
X112249858Y-107133571D01*
X112213572Y-107206143D01*
X112177286Y-107242429D01*
X112104715Y-107278714D01*
X112032143Y-107278714D01*
X111959572Y-107242429D01*
X111923286Y-107206143D01*
X111887001Y-107133571D01*
X111850715Y-106988429D01*
X111850715Y-106807000D01*
X111887001Y-106661857D01*
X111923286Y-106589286D01*
X111959572Y-106553000D01*
X112032143Y-106516714D01*
X112612715Y-107206143D02*
X112649000Y-107242429D01*
X112612715Y-107278714D01*
X112576429Y-107242429D01*
X112612715Y-107206143D01*
X112612715Y-107278714D01*
X113374714Y-107278714D02*
X112939286Y-107278714D01*
X113157000Y-107278714D02*
X113157000Y-106516714D01*
X113084429Y-106625571D01*
X113011857Y-106698143D01*
X112939286Y-106734429D01*
X114027857Y-106770714D02*
X114027857Y-107278714D01*
X113701286Y-106770714D02*
X113701286Y-107169857D01*
X113737571Y-107242429D01*
X113810143Y-107278714D01*
X113919000Y-107278714D01*
X113991571Y-107242429D01*
X114027857Y-107206143D01*
X114644715Y-106879571D02*
X114390715Y-106879571D01*
X114390715Y-107278714D02*
X114390715Y-106516714D01*
X114753572Y-106516714D01*
X88410143Y-105682143D02*
X88373857Y-105718429D01*
X88265000Y-105754714D01*
X88192429Y-105754714D01*
X88083572Y-105718429D01*
X88011000Y-105645857D01*
X87974715Y-105573286D01*
X87938429Y-105428143D01*
X87938429Y-105319286D01*
X87974715Y-105174143D01*
X88011000Y-105101571D01*
X88083572Y-105029000D01*
X88192429Y-104992714D01*
X88265000Y-104992714D01*
X88373857Y-105029000D01*
X88410143Y-105065286D01*
X89135857Y-105754714D02*
X88700429Y-105754714D01*
X88918143Y-105754714D02*
X88918143Y-104992714D01*
X88845572Y-105101571D01*
X88773000Y-105174143D01*
X88700429Y-105210429D01*
X89861571Y-105754714D02*
X89426143Y-105754714D01*
X89643857Y-105754714D02*
X89643857Y-104992714D01*
X89571286Y-105101571D01*
X89498714Y-105174143D01*
X89426143Y-105210429D01*
X87394143Y-106008714D02*
X87466715Y-106008714D01*
X87539286Y-106045000D01*
X87575572Y-106081286D01*
X87611858Y-106153857D01*
X87648143Y-106299000D01*
X87648143Y-106480429D01*
X87611858Y-106625571D01*
X87575572Y-106698143D01*
X87539286Y-106734429D01*
X87466715Y-106770714D01*
X87394143Y-106770714D01*
X87321572Y-106734429D01*
X87285286Y-106698143D01*
X87249001Y-106625571D01*
X87212715Y-106480429D01*
X87212715Y-106299000D01*
X87249001Y-106153857D01*
X87285286Y-106081286D01*
X87321572Y-106045000D01*
X87394143Y-106008714D01*
X87974715Y-106698143D02*
X88011000Y-106734429D01*
X87974715Y-106770714D01*
X87938429Y-106734429D01*
X87974715Y-106698143D01*
X87974715Y-106770714D01*
X88736714Y-106770714D02*
X88301286Y-106770714D01*
X88519000Y-106770714D02*
X88519000Y-106008714D01*
X88446429Y-106117571D01*
X88373857Y-106190143D01*
X88301286Y-106226429D01*
X89389857Y-106262714D02*
X89389857Y-106770714D01*
X89063286Y-106262714D02*
X89063286Y-106661857D01*
X89099571Y-106734429D01*
X89172143Y-106770714D01*
X89281000Y-106770714D01*
X89353571Y-106734429D01*
X89389857Y-106698143D01*
X90006715Y-106371571D02*
X89752715Y-106371571D01*
X89752715Y-106770714D02*
X89752715Y-106008714D01*
X90115572Y-106008714D01*
X102307572Y-104484714D02*
X102307572Y-103722714D01*
X102489000Y-103722714D01*
X102597857Y-103759000D01*
X102670429Y-103831571D01*
X102706714Y-103904143D01*
X102743000Y-104049286D01*
X102743000Y-104158143D01*
X102706714Y-104303286D01*
X102670429Y-104375857D01*
X102597857Y-104448429D01*
X102489000Y-104484714D01*
X102307572Y-104484714D01*
X103468714Y-104484714D02*
X103033286Y-104484714D01*
X103251000Y-104484714D02*
X103251000Y-103722714D01*
X103178429Y-103831571D01*
X103105857Y-103904143D01*
X103033286Y-103940429D01*
X104189000Y-108585001D02*
X104152714Y-108657572D01*
X104152714Y-108766429D01*
X104189000Y-108875286D01*
X104261571Y-108947858D01*
X104334143Y-108984143D01*
X104479286Y-109020429D01*
X104588143Y-109020429D01*
X104733286Y-108984143D01*
X104805857Y-108947858D01*
X104878429Y-108875286D01*
X104914714Y-108766429D01*
X104914714Y-108693858D01*
X104878429Y-108585001D01*
X104842143Y-108548715D01*
X104588143Y-108548715D01*
X104588143Y-108693858D01*
X104914714Y-107786715D02*
X104551857Y-108040715D01*
X104914714Y-108222143D02*
X104152714Y-108222143D01*
X104152714Y-107931858D01*
X104189000Y-107859286D01*
X104225286Y-107823001D01*
X104297857Y-107786715D01*
X104406714Y-107786715D01*
X104479286Y-107823001D01*
X104515571Y-107859286D01*
X104551857Y-107931858D01*
X104551857Y-108222143D01*
X104515571Y-107460143D02*
X104515571Y-107206143D01*
X104914714Y-107097286D02*
X104914714Y-107460143D01*
X104152714Y-107460143D01*
X104152714Y-107097286D01*
X104515571Y-106770714D02*
X104515571Y-106516714D01*
X104914714Y-106407857D02*
X104914714Y-106770714D01*
X104152714Y-106770714D01*
X104152714Y-106407857D01*
X104914714Y-106081285D02*
X104152714Y-106081285D01*
X104914714Y-105645857D01*
X104152714Y-105645857D01*
X106117572Y-104484714D02*
X106117572Y-103722714D01*
X106299000Y-103722714D01*
X106407857Y-103759000D01*
X106480429Y-103831571D01*
X106516714Y-103904143D01*
X106553000Y-104049286D01*
X106553000Y-104158143D01*
X106516714Y-104303286D01*
X106480429Y-104375857D01*
X106407857Y-104448429D01*
X106299000Y-104484714D01*
X106117572Y-104484714D01*
X106843286Y-103795286D02*
X106879572Y-103759000D01*
X106952143Y-103722714D01*
X107133572Y-103722714D01*
X107206143Y-103759000D01*
X107242429Y-103795286D01*
X107278714Y-103867857D01*
X107278714Y-103940429D01*
X107242429Y-104049286D01*
X106807000Y-104484714D01*
X107278714Y-104484714D01*
X108724714Y-107804857D02*
X108361857Y-108058857D01*
X108724714Y-108240285D02*
X107962714Y-108240285D01*
X107962714Y-107950000D01*
X107999000Y-107877428D01*
X108035286Y-107841143D01*
X108107857Y-107804857D01*
X108216714Y-107804857D01*
X108289286Y-107841143D01*
X108325571Y-107877428D01*
X108361857Y-107950000D01*
X108361857Y-108240285D01*
X108325571Y-107478285D02*
X108325571Y-107224285D01*
X108724714Y-107115428D02*
X108724714Y-107478285D01*
X107962714Y-107478285D01*
X107962714Y-107115428D01*
X108724714Y-106788856D02*
X107962714Y-106788856D01*
X107962714Y-106607428D01*
X107999000Y-106498571D01*
X108071571Y-106425999D01*
X108144143Y-106389714D01*
X108289286Y-106353428D01*
X108398143Y-106353428D01*
X108543286Y-106389714D01*
X108615857Y-106425999D01*
X108688429Y-106498571D01*
X108724714Y-106607428D01*
X108724714Y-106788856D01*
X98497572Y-104484714D02*
X98497572Y-103722714D01*
X98679000Y-103722714D01*
X98787857Y-103759000D01*
X98860429Y-103831571D01*
X98896714Y-103904143D01*
X98933000Y-104049286D01*
X98933000Y-104158143D01*
X98896714Y-104303286D01*
X98860429Y-104375857D01*
X98787857Y-104448429D01*
X98679000Y-104484714D01*
X98497572Y-104484714D01*
X99187000Y-103722714D02*
X99658714Y-103722714D01*
X99404714Y-104013000D01*
X99513572Y-104013000D01*
X99586143Y-104049286D01*
X99622429Y-104085571D01*
X99658714Y-104158143D01*
X99658714Y-104339571D01*
X99622429Y-104412143D01*
X99586143Y-104448429D01*
X99513572Y-104484714D01*
X99295857Y-104484714D01*
X99223286Y-104448429D01*
X99187000Y-104412143D01*
X100379000Y-108585001D02*
X100342714Y-108657572D01*
X100342714Y-108766429D01*
X100379000Y-108875286D01*
X100451571Y-108947858D01*
X100524143Y-108984143D01*
X100669286Y-109020429D01*
X100778143Y-109020429D01*
X100923286Y-108984143D01*
X100995857Y-108947858D01*
X101068429Y-108875286D01*
X101104714Y-108766429D01*
X101104714Y-108693858D01*
X101068429Y-108585001D01*
X101032143Y-108548715D01*
X100778143Y-108548715D01*
X100778143Y-108693858D01*
X101104714Y-107786715D02*
X100741857Y-108040715D01*
X101104714Y-108222143D02*
X100342714Y-108222143D01*
X100342714Y-107931858D01*
X100379000Y-107859286D01*
X100415286Y-107823001D01*
X100487857Y-107786715D01*
X100596714Y-107786715D01*
X100669286Y-107823001D01*
X100705571Y-107859286D01*
X100741857Y-107931858D01*
X100741857Y-108222143D01*
X100705571Y-107460143D02*
X100705571Y-107206143D01*
X101104714Y-107097286D02*
X101104714Y-107460143D01*
X100342714Y-107460143D01*
X100342714Y-107097286D01*
X100705571Y-106770714D02*
X100705571Y-106516714D01*
X101104714Y-106407857D02*
X101104714Y-106770714D01*
X100342714Y-106770714D01*
X100342714Y-106407857D01*
X101104714Y-106081285D02*
X100342714Y-106081285D01*
X101104714Y-105645857D01*
X100342714Y-105645857D01*
X126304524Y-103293333D02*
X127211667Y-103293333D01*
X127393095Y-103353809D01*
X127514048Y-103474761D01*
X127574524Y-103656190D01*
X127574524Y-103777142D01*
X127574524Y-102023333D02*
X127574524Y-102749047D01*
X127574524Y-102386190D02*
X126304524Y-102386190D01*
X126485952Y-102507142D01*
X126606905Y-102628095D01*
X126667381Y-102749047D01*
X119966619Y-78298524D02*
X119966619Y-77028524D01*
X120450428Y-77028524D01*
X120571381Y-77089000D01*
X120631857Y-77149476D01*
X120692333Y-77270429D01*
X120692333Y-77451857D01*
X120631857Y-77572810D01*
X120571381Y-77633286D01*
X120450428Y-77693762D01*
X119966619Y-77693762D01*
X121176143Y-77149476D02*
X121236619Y-77089000D01*
X121357571Y-77028524D01*
X121659952Y-77028524D01*
X121780905Y-77089000D01*
X121841381Y-77149476D01*
X121901857Y-77270429D01*
X121901857Y-77391381D01*
X121841381Y-77572810D01*
X121115667Y-78298524D01*
X121901857Y-78298524D01*
X169877619Y-122999984D02*
X169877619Y-121729984D01*
X170361428Y-121729984D01*
X170482381Y-121790460D01*
X170542857Y-121850936D01*
X170603333Y-121971889D01*
X170603333Y-122153317D01*
X170542857Y-122274270D01*
X170482381Y-122334746D01*
X170361428Y-122395222D01*
X169877619Y-122395222D01*
X171026667Y-121729984D02*
X171812857Y-121729984D01*
X171389524Y-122213793D01*
X171570952Y-122213793D01*
X171691905Y-122274270D01*
X171752381Y-122334746D01*
X171812857Y-122455698D01*
X171812857Y-122758079D01*
X171752381Y-122879031D01*
X171691905Y-122939508D01*
X171570952Y-122999984D01*
X171208095Y-122999984D01*
X171087143Y-122939508D01*
X171026667Y-122879031D01*
X159893000Y-113628714D02*
X159639000Y-113265857D01*
X159457572Y-113628714D02*
X159457572Y-112866714D01*
X159747857Y-112866714D01*
X159820429Y-112903000D01*
X159856714Y-112939286D01*
X159893000Y-113011857D01*
X159893000Y-113120714D01*
X159856714Y-113193286D01*
X159820429Y-113229571D01*
X159747857Y-113265857D01*
X159457572Y-113265857D01*
X160618714Y-113628714D02*
X160183286Y-113628714D01*
X160401000Y-113628714D02*
X160401000Y-112866714D01*
X160328429Y-112975571D01*
X160255857Y-113048143D01*
X160183286Y-113084429D01*
X159493857Y-114644714D02*
X159058429Y-114644714D01*
X159276143Y-114644714D02*
X159276143Y-113882714D01*
X159203572Y-113991571D01*
X159131000Y-114064143D01*
X159058429Y-114100429D01*
X159965571Y-113882714D02*
X160038143Y-113882714D01*
X160110714Y-113919000D01*
X160147000Y-113955286D01*
X160183286Y-114027857D01*
X160219571Y-114173000D01*
X160219571Y-114354429D01*
X160183286Y-114499571D01*
X160147000Y-114572143D01*
X160110714Y-114608429D01*
X160038143Y-114644714D01*
X159965571Y-114644714D01*
X159893000Y-114608429D01*
X159856714Y-114572143D01*
X159820429Y-114499571D01*
X159784143Y-114354429D01*
X159784143Y-114173000D01*
X159820429Y-114027857D01*
X159856714Y-113955286D01*
X159893000Y-113919000D01*
X159965571Y-113882714D01*
X160546143Y-114644714D02*
X160546143Y-113882714D01*
X160981571Y-114644714D02*
X160655000Y-114209286D01*
X160981571Y-113882714D02*
X160546143Y-114318143D01*
X135001000Y-122264714D02*
X134747000Y-121901857D01*
X134565572Y-122264714D02*
X134565572Y-121502714D01*
X134855857Y-121502714D01*
X134928429Y-121539000D01*
X134964714Y-121575286D01*
X135001000Y-121647857D01*
X135001000Y-121756714D01*
X134964714Y-121829286D01*
X134928429Y-121865571D01*
X134855857Y-121901857D01*
X134565572Y-121901857D01*
X135291286Y-121575286D02*
X135327572Y-121539000D01*
X135400143Y-121502714D01*
X135581572Y-121502714D01*
X135654143Y-121539000D01*
X135690429Y-121575286D01*
X135726714Y-121647857D01*
X135726714Y-121720429D01*
X135690429Y-121829286D01*
X135255000Y-122264714D01*
X135726714Y-122264714D01*
X134601857Y-123534714D02*
X134166429Y-123534714D01*
X134384143Y-123534714D02*
X134384143Y-122772714D01*
X134311572Y-122881571D01*
X134239000Y-122954143D01*
X134166429Y-122990429D01*
X135073571Y-122772714D02*
X135146143Y-122772714D01*
X135218714Y-122809000D01*
X135255000Y-122845286D01*
X135291286Y-122917857D01*
X135327571Y-123063000D01*
X135327571Y-123244429D01*
X135291286Y-123389571D01*
X135255000Y-123462143D01*
X135218714Y-123498429D01*
X135146143Y-123534714D01*
X135073571Y-123534714D01*
X135001000Y-123498429D01*
X134964714Y-123462143D01*
X134928429Y-123389571D01*
X134892143Y-123244429D01*
X134892143Y-123063000D01*
X134928429Y-122917857D01*
X134964714Y-122845286D01*
X135001000Y-122809000D01*
X135073571Y-122772714D01*
X135654143Y-123534714D02*
X135654143Y-122772714D01*
X136089571Y-123534714D02*
X135763000Y-123099286D01*
X136089571Y-122772714D02*
X135654143Y-123208143D01*
X153543000Y-111596714D02*
X153289000Y-111233857D01*
X153107572Y-111596714D02*
X153107572Y-110834714D01*
X153397857Y-110834714D01*
X153470429Y-110871000D01*
X153506714Y-110907286D01*
X153543000Y-110979857D01*
X153543000Y-111088714D01*
X153506714Y-111161286D01*
X153470429Y-111197571D01*
X153397857Y-111233857D01*
X153107572Y-111233857D01*
X153797000Y-110834714D02*
X154268714Y-110834714D01*
X154014714Y-111125000D01*
X154123572Y-111125000D01*
X154196143Y-111161286D01*
X154232429Y-111197571D01*
X154268714Y-111270143D01*
X154268714Y-111451571D01*
X154232429Y-111524143D01*
X154196143Y-111560429D01*
X154123572Y-111596714D01*
X153905857Y-111596714D01*
X153833286Y-111560429D01*
X153797000Y-111524143D01*
X153089429Y-111923286D02*
X153125715Y-111887000D01*
X153198286Y-111850714D01*
X153379715Y-111850714D01*
X153452286Y-111887000D01*
X153488572Y-111923286D01*
X153524857Y-111995857D01*
X153524857Y-112068429D01*
X153488572Y-112177286D01*
X153053143Y-112612714D01*
X153524857Y-112612714D01*
X153815143Y-111923286D02*
X153851429Y-111887000D01*
X153924000Y-111850714D01*
X154105429Y-111850714D01*
X154178000Y-111887000D01*
X154214286Y-111923286D01*
X154250571Y-111995857D01*
X154250571Y-112068429D01*
X154214286Y-112177286D01*
X153778857Y-112612714D01*
X154250571Y-112612714D01*
X82423000Y-93308714D02*
X82169000Y-92945857D01*
X81987572Y-93308714D02*
X81987572Y-92546714D01*
X82277857Y-92546714D01*
X82350429Y-92583000D01*
X82386714Y-92619286D01*
X82423000Y-92691857D01*
X82423000Y-92800714D01*
X82386714Y-92873286D01*
X82350429Y-92909571D01*
X82277857Y-92945857D01*
X81987572Y-92945857D01*
X83076143Y-92800714D02*
X83076143Y-93308714D01*
X82894714Y-92510429D02*
X82713286Y-93054714D01*
X83185000Y-93054714D01*
X82023857Y-94578714D02*
X81588429Y-94578714D01*
X81806143Y-94578714D02*
X81806143Y-93816714D01*
X81733572Y-93925571D01*
X81661000Y-93998143D01*
X81588429Y-94034429D01*
X82495571Y-93816714D02*
X82568143Y-93816714D01*
X82640714Y-93853000D01*
X82677000Y-93889286D01*
X82713286Y-93961857D01*
X82749571Y-94107000D01*
X82749571Y-94288429D01*
X82713286Y-94433571D01*
X82677000Y-94506143D01*
X82640714Y-94542429D01*
X82568143Y-94578714D01*
X82495571Y-94578714D01*
X82423000Y-94542429D01*
X82386714Y-94506143D01*
X82350429Y-94433571D01*
X82314143Y-94288429D01*
X82314143Y-94107000D01*
X82350429Y-93961857D01*
X82386714Y-93889286D01*
X82423000Y-93853000D01*
X82495571Y-93816714D01*
X83076143Y-94578714D02*
X83076143Y-93816714D01*
X83511571Y-94578714D02*
X83185000Y-94143286D01*
X83511571Y-93816714D02*
X83076143Y-94252143D01*
X101981000Y-113882714D02*
X101727000Y-113519857D01*
X101545572Y-113882714D02*
X101545572Y-113120714D01*
X101835857Y-113120714D01*
X101908429Y-113157000D01*
X101944714Y-113193286D01*
X101981000Y-113265857D01*
X101981000Y-113374714D01*
X101944714Y-113447286D01*
X101908429Y-113483571D01*
X101835857Y-113519857D01*
X101545572Y-113519857D01*
X102670429Y-113120714D02*
X102307572Y-113120714D01*
X102271286Y-113483571D01*
X102307572Y-113447286D01*
X102380143Y-113411000D01*
X102561572Y-113411000D01*
X102634143Y-113447286D01*
X102670429Y-113483571D01*
X102706714Y-113556143D01*
X102706714Y-113737571D01*
X102670429Y-113810143D01*
X102634143Y-113846429D01*
X102561572Y-113882714D01*
X102380143Y-113882714D01*
X102307572Y-113846429D01*
X102271286Y-113810143D01*
X101817715Y-114390714D02*
X101454858Y-114390714D01*
X101418572Y-114753571D01*
X101454858Y-114717286D01*
X101527429Y-114681000D01*
X101708858Y-114681000D01*
X101781429Y-114717286D01*
X101817715Y-114753571D01*
X101854000Y-114826143D01*
X101854000Y-115007571D01*
X101817715Y-115080143D01*
X101781429Y-115116429D01*
X101708858Y-115152714D01*
X101527429Y-115152714D01*
X101454858Y-115116429D01*
X101418572Y-115080143D01*
X102507143Y-114390714D02*
X102362000Y-114390714D01*
X102289429Y-114427000D01*
X102253143Y-114463286D01*
X102180572Y-114572143D01*
X102144286Y-114717286D01*
X102144286Y-115007571D01*
X102180572Y-115080143D01*
X102216857Y-115116429D01*
X102289429Y-115152714D01*
X102434572Y-115152714D01*
X102507143Y-115116429D01*
X102543429Y-115080143D01*
X102579714Y-115007571D01*
X102579714Y-114826143D01*
X102543429Y-114753571D01*
X102507143Y-114717286D01*
X102434572Y-114681000D01*
X102289429Y-114681000D01*
X102216857Y-114717286D01*
X102180572Y-114753571D01*
X102144286Y-114826143D01*
X103051428Y-114390714D02*
X103124000Y-114390714D01*
X103196571Y-114427000D01*
X103232857Y-114463286D01*
X103269143Y-114535857D01*
X103305428Y-114681000D01*
X103305428Y-114862429D01*
X103269143Y-115007571D01*
X103232857Y-115080143D01*
X103196571Y-115116429D01*
X103124000Y-115152714D01*
X103051428Y-115152714D01*
X102978857Y-115116429D01*
X102942571Y-115080143D01*
X102906286Y-115007571D01*
X102870000Y-114862429D01*
X102870000Y-114681000D01*
X102906286Y-114535857D01*
X102942571Y-114463286D01*
X102978857Y-114427000D01*
X103051428Y-114390714D01*
X128651000Y-125312714D02*
X128397000Y-124949857D01*
X128215572Y-125312714D02*
X128215572Y-124550714D01*
X128505857Y-124550714D01*
X128578429Y-124587000D01*
X128614714Y-124623286D01*
X128651000Y-124695857D01*
X128651000Y-124804714D01*
X128614714Y-124877286D01*
X128578429Y-124913571D01*
X128505857Y-124949857D01*
X128215572Y-124949857D01*
X129304143Y-124550714D02*
X129159000Y-124550714D01*
X129086429Y-124587000D01*
X129050143Y-124623286D01*
X128977572Y-124732143D01*
X128941286Y-124877286D01*
X128941286Y-125167571D01*
X128977572Y-125240143D01*
X129013857Y-125276429D01*
X129086429Y-125312714D01*
X129231572Y-125312714D01*
X129304143Y-125276429D01*
X129340429Y-125240143D01*
X129376714Y-125167571D01*
X129376714Y-124986143D01*
X129340429Y-124913571D01*
X129304143Y-124877286D01*
X129231572Y-124841000D01*
X129086429Y-124841000D01*
X129013857Y-124877286D01*
X128977572Y-124913571D01*
X128941286Y-124986143D01*
X127834572Y-125893286D02*
X127870858Y-125857000D01*
X127943429Y-125820714D01*
X128124858Y-125820714D01*
X128197429Y-125857000D01*
X128233715Y-125893286D01*
X128270000Y-125965857D01*
X128270000Y-126038429D01*
X128233715Y-126147286D01*
X127798286Y-126582714D01*
X128270000Y-126582714D01*
X128560286Y-125893286D02*
X128596572Y-125857000D01*
X128669143Y-125820714D01*
X128850572Y-125820714D01*
X128923143Y-125857000D01*
X128959429Y-125893286D01*
X128995714Y-125965857D01*
X128995714Y-126038429D01*
X128959429Y-126147286D01*
X128524000Y-126582714D01*
X128995714Y-126582714D01*
X129467428Y-125820714D02*
X129540000Y-125820714D01*
X129612571Y-125857000D01*
X129648857Y-125893286D01*
X129685143Y-125965857D01*
X129721428Y-126111000D01*
X129721428Y-126292429D01*
X129685143Y-126437571D01*
X129648857Y-126510143D01*
X129612571Y-126546429D01*
X129540000Y-126582714D01*
X129467428Y-126582714D01*
X129394857Y-126546429D01*
X129358571Y-126510143D01*
X129322286Y-126437571D01*
X129286000Y-126292429D01*
X129286000Y-126111000D01*
X129322286Y-125965857D01*
X129358571Y-125893286D01*
X129394857Y-125857000D01*
X129467428Y-125820714D01*
X109093000Y-113882714D02*
X108839000Y-113519857D01*
X108657572Y-113882714D02*
X108657572Y-113120714D01*
X108947857Y-113120714D01*
X109020429Y-113157000D01*
X109056714Y-113193286D01*
X109093000Y-113265857D01*
X109093000Y-113374714D01*
X109056714Y-113447286D01*
X109020429Y-113483571D01*
X108947857Y-113519857D01*
X108657572Y-113519857D01*
X109347000Y-113120714D02*
X109855000Y-113120714D01*
X109528429Y-113882714D01*
X108675715Y-114390714D02*
X108312858Y-114390714D01*
X108276572Y-114753571D01*
X108312858Y-114717286D01*
X108385429Y-114681000D01*
X108566858Y-114681000D01*
X108639429Y-114717286D01*
X108675715Y-114753571D01*
X108712000Y-114826143D01*
X108712000Y-115007571D01*
X108675715Y-115080143D01*
X108639429Y-115116429D01*
X108566858Y-115152714D01*
X108385429Y-115152714D01*
X108312858Y-115116429D01*
X108276572Y-115080143D01*
X109365143Y-114390714D02*
X109220000Y-114390714D01*
X109147429Y-114427000D01*
X109111143Y-114463286D01*
X109038572Y-114572143D01*
X109002286Y-114717286D01*
X109002286Y-115007571D01*
X109038572Y-115080143D01*
X109074857Y-115116429D01*
X109147429Y-115152714D01*
X109292572Y-115152714D01*
X109365143Y-115116429D01*
X109401429Y-115080143D01*
X109437714Y-115007571D01*
X109437714Y-114826143D01*
X109401429Y-114753571D01*
X109365143Y-114717286D01*
X109292572Y-114681000D01*
X109147429Y-114681000D01*
X109074857Y-114717286D01*
X109038572Y-114753571D01*
X109002286Y-114826143D01*
X109909428Y-114390714D02*
X109982000Y-114390714D01*
X110054571Y-114427000D01*
X110090857Y-114463286D01*
X110127143Y-114535857D01*
X110163428Y-114681000D01*
X110163428Y-114862429D01*
X110127143Y-115007571D01*
X110090857Y-115080143D01*
X110054571Y-115116429D01*
X109982000Y-115152714D01*
X109909428Y-115152714D01*
X109836857Y-115116429D01*
X109800571Y-115080143D01*
X109764286Y-115007571D01*
X109728000Y-114862429D01*
X109728000Y-114681000D01*
X109764286Y-114535857D01*
X109800571Y-114463286D01*
X109836857Y-114427000D01*
X109909428Y-114390714D01*
X77089000Y-93562714D02*
X76835000Y-93199857D01*
X76653572Y-93562714D02*
X76653572Y-92800714D01*
X76943857Y-92800714D01*
X77016429Y-92837000D01*
X77052714Y-92873286D01*
X77089000Y-92945857D01*
X77089000Y-93054714D01*
X77052714Y-93127286D01*
X77016429Y-93163571D01*
X76943857Y-93199857D01*
X76653572Y-93199857D01*
X77524429Y-93127286D02*
X77451857Y-93091000D01*
X77415572Y-93054714D01*
X77379286Y-92982143D01*
X77379286Y-92945857D01*
X77415572Y-92873286D01*
X77451857Y-92837000D01*
X77524429Y-92800714D01*
X77669572Y-92800714D01*
X77742143Y-92837000D01*
X77778429Y-92873286D01*
X77814714Y-92945857D01*
X77814714Y-92982143D01*
X77778429Y-93054714D01*
X77742143Y-93091000D01*
X77669572Y-93127286D01*
X77524429Y-93127286D01*
X77451857Y-93163571D01*
X77415572Y-93199857D01*
X77379286Y-93272429D01*
X77379286Y-93417571D01*
X77415572Y-93490143D01*
X77451857Y-93526429D01*
X77524429Y-93562714D01*
X77669572Y-93562714D01*
X77742143Y-93526429D01*
X77778429Y-93490143D01*
X77814714Y-93417571D01*
X77814714Y-93272429D01*
X77778429Y-93199857D01*
X77742143Y-93163571D01*
X77669572Y-93127286D01*
X76581001Y-94143286D02*
X76617287Y-94107000D01*
X76689858Y-94070714D01*
X76871287Y-94070714D01*
X76943858Y-94107000D01*
X76980144Y-94143286D01*
X77016429Y-94215857D01*
X77016429Y-94288429D01*
X76980144Y-94397286D01*
X76544715Y-94832714D01*
X77016429Y-94832714D01*
X77343001Y-94760143D02*
X77379286Y-94796429D01*
X77343001Y-94832714D01*
X77306715Y-94796429D01*
X77343001Y-94760143D01*
X77343001Y-94832714D01*
X77669572Y-94143286D02*
X77705858Y-94107000D01*
X77778429Y-94070714D01*
X77959858Y-94070714D01*
X78032429Y-94107000D01*
X78068715Y-94143286D01*
X78105000Y-94215857D01*
X78105000Y-94288429D01*
X78068715Y-94397286D01*
X77633286Y-94832714D01*
X78105000Y-94832714D01*
X78431572Y-94832714D02*
X78431572Y-94070714D01*
X78867000Y-94832714D02*
X78540429Y-94397286D01*
X78867000Y-94070714D02*
X78431572Y-94506143D01*
X207137000Y-116422714D02*
X206883000Y-116059857D01*
X206701572Y-116422714D02*
X206701572Y-115660714D01*
X206991857Y-115660714D01*
X207064429Y-115697000D01*
X207100714Y-115733286D01*
X207137000Y-115805857D01*
X207137000Y-115914714D01*
X207100714Y-115987286D01*
X207064429Y-116023571D01*
X206991857Y-116059857D01*
X206701572Y-116059857D01*
X207499857Y-116422714D02*
X207645000Y-116422714D01*
X207717572Y-116386429D01*
X207753857Y-116350143D01*
X207826429Y-116241286D01*
X207862714Y-116096143D01*
X207862714Y-115805857D01*
X207826429Y-115733286D01*
X207790143Y-115697000D01*
X207717572Y-115660714D01*
X207572429Y-115660714D01*
X207499857Y-115697000D01*
X207463572Y-115733286D01*
X207427286Y-115805857D01*
X207427286Y-115987286D01*
X207463572Y-116059857D01*
X207499857Y-116096143D01*
X207572429Y-116132429D01*
X207717572Y-116132429D01*
X207790143Y-116096143D01*
X207826429Y-116059857D01*
X207862714Y-115987286D01*
X197847857Y-116676714D02*
X197412429Y-116676714D01*
X197630143Y-116676714D02*
X197630143Y-115914714D01*
X197557572Y-116023571D01*
X197485000Y-116096143D01*
X197412429Y-116132429D01*
X198319571Y-115914714D02*
X198392143Y-115914714D01*
X198464714Y-115951000D01*
X198501000Y-115987286D01*
X198537286Y-116059857D01*
X198573571Y-116205000D01*
X198573571Y-116386429D01*
X198537286Y-116531571D01*
X198501000Y-116604143D01*
X198464714Y-116640429D01*
X198392143Y-116676714D01*
X198319571Y-116676714D01*
X198247000Y-116640429D01*
X198210714Y-116604143D01*
X198174429Y-116531571D01*
X198138143Y-116386429D01*
X198138143Y-116205000D01*
X198174429Y-116059857D01*
X198210714Y-115987286D01*
X198247000Y-115951000D01*
X198319571Y-115914714D01*
X198900143Y-116676714D02*
X198900143Y-115914714D01*
X199335571Y-116676714D02*
X199009000Y-116241286D01*
X199335571Y-115914714D02*
X198900143Y-116350143D01*
X207282143Y-113374714D02*
X207028143Y-113011857D01*
X206846715Y-113374714D02*
X206846715Y-112612714D01*
X207137000Y-112612714D01*
X207209572Y-112649000D01*
X207245857Y-112685286D01*
X207282143Y-112757857D01*
X207282143Y-112866714D01*
X207245857Y-112939286D01*
X207209572Y-112975571D01*
X207137000Y-113011857D01*
X206846715Y-113011857D01*
X208007857Y-113374714D02*
X207572429Y-113374714D01*
X207790143Y-113374714D02*
X207790143Y-112612714D01*
X207717572Y-112721571D01*
X207645000Y-112794143D01*
X207572429Y-112830429D01*
X208479571Y-112612714D02*
X208552143Y-112612714D01*
X208624714Y-112649000D01*
X208661000Y-112685286D01*
X208697286Y-112757857D01*
X208733571Y-112903000D01*
X208733571Y-113084429D01*
X208697286Y-113229571D01*
X208661000Y-113302143D01*
X208624714Y-113338429D01*
X208552143Y-113374714D01*
X208479571Y-113374714D01*
X208407000Y-113338429D01*
X208370714Y-113302143D01*
X208334429Y-113229571D01*
X208298143Y-113084429D01*
X208298143Y-112903000D01*
X208334429Y-112757857D01*
X208370714Y-112685286D01*
X208407000Y-112649000D01*
X208479571Y-112612714D01*
X197847857Y-113374714D02*
X197412429Y-113374714D01*
X197630143Y-113374714D02*
X197630143Y-112612714D01*
X197557572Y-112721571D01*
X197485000Y-112794143D01*
X197412429Y-112830429D01*
X198319571Y-112612714D02*
X198392143Y-112612714D01*
X198464714Y-112649000D01*
X198501000Y-112685286D01*
X198537286Y-112757857D01*
X198573571Y-112903000D01*
X198573571Y-113084429D01*
X198537286Y-113229571D01*
X198501000Y-113302143D01*
X198464714Y-113338429D01*
X198392143Y-113374714D01*
X198319571Y-113374714D01*
X198247000Y-113338429D01*
X198210714Y-113302143D01*
X198174429Y-113229571D01*
X198138143Y-113084429D01*
X198138143Y-112903000D01*
X198174429Y-112757857D01*
X198210714Y-112685286D01*
X198247000Y-112649000D01*
X198319571Y-112612714D01*
X198900143Y-113374714D02*
X198900143Y-112612714D01*
X199335571Y-113374714D02*
X199009000Y-112939286D01*
X199335571Y-112612714D02*
X198900143Y-113048143D01*
X207282143Y-110326714D02*
X207028143Y-109963857D01*
X206846715Y-110326714D02*
X206846715Y-109564714D01*
X207137000Y-109564714D01*
X207209572Y-109601000D01*
X207245857Y-109637286D01*
X207282143Y-109709857D01*
X207282143Y-109818714D01*
X207245857Y-109891286D01*
X207209572Y-109927571D01*
X207137000Y-109963857D01*
X206846715Y-109963857D01*
X208007857Y-110326714D02*
X207572429Y-110326714D01*
X207790143Y-110326714D02*
X207790143Y-109564714D01*
X207717572Y-109673571D01*
X207645000Y-109746143D01*
X207572429Y-109782429D01*
X208733571Y-110326714D02*
X208298143Y-110326714D01*
X208515857Y-110326714D02*
X208515857Y-109564714D01*
X208443286Y-109673571D01*
X208370714Y-109746143D01*
X208298143Y-109782429D01*
X197847857Y-110326714D02*
X197412429Y-110326714D01*
X197630143Y-110326714D02*
X197630143Y-109564714D01*
X197557572Y-109673571D01*
X197485000Y-109746143D01*
X197412429Y-109782429D01*
X198319571Y-109564714D02*
X198392143Y-109564714D01*
X198464714Y-109601000D01*
X198501000Y-109637286D01*
X198537286Y-109709857D01*
X198573571Y-109855000D01*
X198573571Y-110036429D01*
X198537286Y-110181571D01*
X198501000Y-110254143D01*
X198464714Y-110290429D01*
X198392143Y-110326714D01*
X198319571Y-110326714D01*
X198247000Y-110290429D01*
X198210714Y-110254143D01*
X198174429Y-110181571D01*
X198138143Y-110036429D01*
X198138143Y-109855000D01*
X198174429Y-109709857D01*
X198210714Y-109637286D01*
X198247000Y-109601000D01*
X198319571Y-109564714D01*
X198900143Y-110326714D02*
X198900143Y-109564714D01*
X199335571Y-110326714D02*
X199009000Y-109891286D01*
X199335571Y-109564714D02*
X198900143Y-110000143D01*
X207282143Y-107024714D02*
X207028143Y-106661857D01*
X206846715Y-107024714D02*
X206846715Y-106262714D01*
X207137000Y-106262714D01*
X207209572Y-106299000D01*
X207245857Y-106335286D01*
X207282143Y-106407857D01*
X207282143Y-106516714D01*
X207245857Y-106589286D01*
X207209572Y-106625571D01*
X207137000Y-106661857D01*
X206846715Y-106661857D01*
X208007857Y-107024714D02*
X207572429Y-107024714D01*
X207790143Y-107024714D02*
X207790143Y-106262714D01*
X207717572Y-106371571D01*
X207645000Y-106444143D01*
X207572429Y-106480429D01*
X208298143Y-106335286D02*
X208334429Y-106299000D01*
X208407000Y-106262714D01*
X208588429Y-106262714D01*
X208661000Y-106299000D01*
X208697286Y-106335286D01*
X208733571Y-106407857D01*
X208733571Y-106480429D01*
X208697286Y-106589286D01*
X208261857Y-107024714D01*
X208733571Y-107024714D01*
X197847857Y-107024714D02*
X197412429Y-107024714D01*
X197630143Y-107024714D02*
X197630143Y-106262714D01*
X197557572Y-106371571D01*
X197485000Y-106444143D01*
X197412429Y-106480429D01*
X198319571Y-106262714D02*
X198392143Y-106262714D01*
X198464714Y-106299000D01*
X198501000Y-106335286D01*
X198537286Y-106407857D01*
X198573571Y-106553000D01*
X198573571Y-106734429D01*
X198537286Y-106879571D01*
X198501000Y-106952143D01*
X198464714Y-106988429D01*
X198392143Y-107024714D01*
X198319571Y-107024714D01*
X198247000Y-106988429D01*
X198210714Y-106952143D01*
X198174429Y-106879571D01*
X198138143Y-106734429D01*
X198138143Y-106553000D01*
X198174429Y-106407857D01*
X198210714Y-106335286D01*
X198247000Y-106299000D01*
X198319571Y-106262714D01*
X198900143Y-107024714D02*
X198900143Y-106262714D01*
X199335571Y-107024714D02*
X199009000Y-106589286D01*
X199335571Y-106262714D02*
X198900143Y-106698143D01*
X207282143Y-103976714D02*
X207028143Y-103613857D01*
X206846715Y-103976714D02*
X206846715Y-103214714D01*
X207137000Y-103214714D01*
X207209572Y-103251000D01*
X207245857Y-103287286D01*
X207282143Y-103359857D01*
X207282143Y-103468714D01*
X207245857Y-103541286D01*
X207209572Y-103577571D01*
X207137000Y-103613857D01*
X206846715Y-103613857D01*
X208007857Y-103976714D02*
X207572429Y-103976714D01*
X207790143Y-103976714D02*
X207790143Y-103214714D01*
X207717572Y-103323571D01*
X207645000Y-103396143D01*
X207572429Y-103432429D01*
X208261857Y-103214714D02*
X208733571Y-103214714D01*
X208479571Y-103505000D01*
X208588429Y-103505000D01*
X208661000Y-103541286D01*
X208697286Y-103577571D01*
X208733571Y-103650143D01*
X208733571Y-103831571D01*
X208697286Y-103904143D01*
X208661000Y-103940429D01*
X208588429Y-103976714D01*
X208370714Y-103976714D01*
X208298143Y-103940429D01*
X208261857Y-103904143D01*
X197847857Y-103976714D02*
X197412429Y-103976714D01*
X197630143Y-103976714D02*
X197630143Y-103214714D01*
X197557572Y-103323571D01*
X197485000Y-103396143D01*
X197412429Y-103432429D01*
X198319571Y-103214714D02*
X198392143Y-103214714D01*
X198464714Y-103251000D01*
X198501000Y-103287286D01*
X198537286Y-103359857D01*
X198573571Y-103505000D01*
X198573571Y-103686429D01*
X198537286Y-103831571D01*
X198501000Y-103904143D01*
X198464714Y-103940429D01*
X198392143Y-103976714D01*
X198319571Y-103976714D01*
X198247000Y-103940429D01*
X198210714Y-103904143D01*
X198174429Y-103831571D01*
X198138143Y-103686429D01*
X198138143Y-103505000D01*
X198174429Y-103359857D01*
X198210714Y-103287286D01*
X198247000Y-103251000D01*
X198319571Y-103214714D01*
X198900143Y-103976714D02*
X198900143Y-103214714D01*
X199335571Y-103976714D02*
X199009000Y-103541286D01*
X199335571Y-103214714D02*
X198900143Y-103650143D01*
X207282143Y-100674714D02*
X207028143Y-100311857D01*
X206846715Y-100674714D02*
X206846715Y-99912714D01*
X207137000Y-99912714D01*
X207209572Y-99949000D01*
X207245857Y-99985286D01*
X207282143Y-100057857D01*
X207282143Y-100166714D01*
X207245857Y-100239286D01*
X207209572Y-100275571D01*
X207137000Y-100311857D01*
X206846715Y-100311857D01*
X208007857Y-100674714D02*
X207572429Y-100674714D01*
X207790143Y-100674714D02*
X207790143Y-99912714D01*
X207717572Y-100021571D01*
X207645000Y-100094143D01*
X207572429Y-100130429D01*
X208661000Y-100166714D02*
X208661000Y-100674714D01*
X208479571Y-99876429D02*
X208298143Y-100420714D01*
X208769857Y-100420714D01*
X198718714Y-100674714D02*
X198283286Y-100674714D01*
X198501000Y-100674714D02*
X198501000Y-99912714D01*
X198428429Y-100021571D01*
X198355857Y-100094143D01*
X198283286Y-100130429D01*
X199045286Y-100674714D02*
X199045286Y-99912714D01*
X199480714Y-100674714D02*
X199154143Y-100239286D01*
X199480714Y-99912714D02*
X199045286Y-100348143D01*
X207282143Y-97626714D02*
X207028143Y-97263857D01*
X206846715Y-97626714D02*
X206846715Y-96864714D01*
X207137000Y-96864714D01*
X207209572Y-96901000D01*
X207245857Y-96937286D01*
X207282143Y-97009857D01*
X207282143Y-97118714D01*
X207245857Y-97191286D01*
X207209572Y-97227571D01*
X207137000Y-97263857D01*
X206846715Y-97263857D01*
X208007857Y-97626714D02*
X207572429Y-97626714D01*
X207790143Y-97626714D02*
X207790143Y-96864714D01*
X207717572Y-96973571D01*
X207645000Y-97046143D01*
X207572429Y-97082429D01*
X208697286Y-96864714D02*
X208334429Y-96864714D01*
X208298143Y-97227571D01*
X208334429Y-97191286D01*
X208407000Y-97155000D01*
X208588429Y-97155000D01*
X208661000Y-97191286D01*
X208697286Y-97227571D01*
X208733571Y-97300143D01*
X208733571Y-97481571D01*
X208697286Y-97554143D01*
X208661000Y-97590429D01*
X208588429Y-97626714D01*
X208407000Y-97626714D01*
X208334429Y-97590429D01*
X208298143Y-97554143D01*
X198718714Y-97626714D02*
X198283286Y-97626714D01*
X198501000Y-97626714D02*
X198501000Y-96864714D01*
X198428429Y-96973571D01*
X198355857Y-97046143D01*
X198283286Y-97082429D01*
X199045286Y-97626714D02*
X199045286Y-96864714D01*
X199480714Y-97626714D02*
X199154143Y-97191286D01*
X199480714Y-96864714D02*
X199045286Y-97300143D01*
X207282143Y-94324714D02*
X207028143Y-93961857D01*
X206846715Y-94324714D02*
X206846715Y-93562714D01*
X207137000Y-93562714D01*
X207209572Y-93599000D01*
X207245857Y-93635286D01*
X207282143Y-93707857D01*
X207282143Y-93816714D01*
X207245857Y-93889286D01*
X207209572Y-93925571D01*
X207137000Y-93961857D01*
X206846715Y-93961857D01*
X208007857Y-94324714D02*
X207572429Y-94324714D01*
X207790143Y-94324714D02*
X207790143Y-93562714D01*
X207717572Y-93671571D01*
X207645000Y-93744143D01*
X207572429Y-93780429D01*
X208661000Y-93562714D02*
X208515857Y-93562714D01*
X208443286Y-93599000D01*
X208407000Y-93635286D01*
X208334429Y-93744143D01*
X208298143Y-93889286D01*
X208298143Y-94179571D01*
X208334429Y-94252143D01*
X208370714Y-94288429D01*
X208443286Y-94324714D01*
X208588429Y-94324714D01*
X208661000Y-94288429D01*
X208697286Y-94252143D01*
X208733571Y-94179571D01*
X208733571Y-93998143D01*
X208697286Y-93925571D01*
X208661000Y-93889286D01*
X208588429Y-93853000D01*
X208443286Y-93853000D01*
X208370714Y-93889286D01*
X208334429Y-93925571D01*
X208298143Y-93998143D01*
X198718714Y-94324714D02*
X198283286Y-94324714D01*
X198501000Y-94324714D02*
X198501000Y-93562714D01*
X198428429Y-93671571D01*
X198355857Y-93744143D01*
X198283286Y-93780429D01*
X199045286Y-94324714D02*
X199045286Y-93562714D01*
X199480714Y-94324714D02*
X199154143Y-93889286D01*
X199480714Y-93562714D02*
X199045286Y-93998143D01*
X207282143Y-91276714D02*
X207028143Y-90913857D01*
X206846715Y-91276714D02*
X206846715Y-90514714D01*
X207137000Y-90514714D01*
X207209572Y-90551000D01*
X207245857Y-90587286D01*
X207282143Y-90659857D01*
X207282143Y-90768714D01*
X207245857Y-90841286D01*
X207209572Y-90877571D01*
X207137000Y-90913857D01*
X206846715Y-90913857D01*
X208007857Y-91276714D02*
X207572429Y-91276714D01*
X207790143Y-91276714D02*
X207790143Y-90514714D01*
X207717572Y-90623571D01*
X207645000Y-90696143D01*
X207572429Y-90732429D01*
X208261857Y-90514714D02*
X208769857Y-90514714D01*
X208443286Y-91276714D01*
X198718714Y-91022714D02*
X198283286Y-91022714D01*
X198501000Y-91022714D02*
X198501000Y-90260714D01*
X198428429Y-90369571D01*
X198355857Y-90442143D01*
X198283286Y-90478429D01*
X199045286Y-91022714D02*
X199045286Y-90260714D01*
X199480714Y-91022714D02*
X199154143Y-90587286D01*
X199480714Y-90260714D02*
X199045286Y-90696143D01*
X207282143Y-87974714D02*
X207028143Y-87611857D01*
X206846715Y-87974714D02*
X206846715Y-87212714D01*
X207137000Y-87212714D01*
X207209572Y-87249000D01*
X207245857Y-87285286D01*
X207282143Y-87357857D01*
X207282143Y-87466714D01*
X207245857Y-87539286D01*
X207209572Y-87575571D01*
X207137000Y-87611857D01*
X206846715Y-87611857D01*
X208007857Y-87974714D02*
X207572429Y-87974714D01*
X207790143Y-87974714D02*
X207790143Y-87212714D01*
X207717572Y-87321571D01*
X207645000Y-87394143D01*
X207572429Y-87430429D01*
X208443286Y-87539286D02*
X208370714Y-87503000D01*
X208334429Y-87466714D01*
X208298143Y-87394143D01*
X208298143Y-87357857D01*
X208334429Y-87285286D01*
X208370714Y-87249000D01*
X208443286Y-87212714D01*
X208588429Y-87212714D01*
X208661000Y-87249000D01*
X208697286Y-87285286D01*
X208733571Y-87357857D01*
X208733571Y-87394143D01*
X208697286Y-87466714D01*
X208661000Y-87503000D01*
X208588429Y-87539286D01*
X208443286Y-87539286D01*
X208370714Y-87575571D01*
X208334429Y-87611857D01*
X208298143Y-87684429D01*
X208298143Y-87829571D01*
X208334429Y-87902143D01*
X208370714Y-87938429D01*
X208443286Y-87974714D01*
X208588429Y-87974714D01*
X208661000Y-87938429D01*
X208697286Y-87902143D01*
X208733571Y-87829571D01*
X208733571Y-87684429D01*
X208697286Y-87611857D01*
X208661000Y-87575571D01*
X208588429Y-87539286D01*
X198718714Y-87974714D02*
X198283286Y-87974714D01*
X198501000Y-87974714D02*
X198501000Y-87212714D01*
X198428429Y-87321571D01*
X198355857Y-87394143D01*
X198283286Y-87430429D01*
X199045286Y-87974714D02*
X199045286Y-87212714D01*
X199480714Y-87974714D02*
X199154143Y-87539286D01*
X199480714Y-87212714D02*
X199045286Y-87648143D01*
X94760143Y-103214714D02*
X94506143Y-102851857D01*
X94324715Y-103214714D02*
X94324715Y-102452714D01*
X94615000Y-102452714D01*
X94687572Y-102489000D01*
X94723857Y-102525286D01*
X94760143Y-102597857D01*
X94760143Y-102706714D01*
X94723857Y-102779286D01*
X94687572Y-102815571D01*
X94615000Y-102851857D01*
X94324715Y-102851857D01*
X95485857Y-103214714D02*
X95050429Y-103214714D01*
X95268143Y-103214714D02*
X95268143Y-102452714D01*
X95195572Y-102561571D01*
X95123000Y-102634143D01*
X95050429Y-102670429D01*
X95848714Y-103214714D02*
X95993857Y-103214714D01*
X96066429Y-103178429D01*
X96102714Y-103142143D01*
X96175286Y-103033286D01*
X96211571Y-102888143D01*
X96211571Y-102597857D01*
X96175286Y-102525286D01*
X96139000Y-102489000D01*
X96066429Y-102452714D01*
X95921286Y-102452714D01*
X95848714Y-102489000D01*
X95812429Y-102525286D01*
X95776143Y-102597857D01*
X95776143Y-102779286D01*
X95812429Y-102851857D01*
X95848714Y-102888143D01*
X95921286Y-102924429D01*
X96066429Y-102924429D01*
X96139000Y-102888143D01*
X96175286Y-102851857D01*
X96211571Y-102779286D01*
X94270286Y-103722714D02*
X94742000Y-103722714D01*
X94488000Y-104013000D01*
X94596858Y-104013000D01*
X94669429Y-104049286D01*
X94705715Y-104085571D01*
X94742000Y-104158143D01*
X94742000Y-104339571D01*
X94705715Y-104412143D01*
X94669429Y-104448429D01*
X94596858Y-104484714D01*
X94379143Y-104484714D01*
X94306572Y-104448429D01*
X94270286Y-104412143D01*
X94996000Y-103722714D02*
X95467714Y-103722714D01*
X95213714Y-104013000D01*
X95322572Y-104013000D01*
X95395143Y-104049286D01*
X95431429Y-104085571D01*
X95467714Y-104158143D01*
X95467714Y-104339571D01*
X95431429Y-104412143D01*
X95395143Y-104448429D01*
X95322572Y-104484714D01*
X95104857Y-104484714D01*
X95032286Y-104448429D01*
X94996000Y-104412143D01*
X95939428Y-103722714D02*
X96012000Y-103722714D01*
X96084571Y-103759000D01*
X96120857Y-103795286D01*
X96157143Y-103867857D01*
X96193428Y-104013000D01*
X96193428Y-104194429D01*
X96157143Y-104339571D01*
X96120857Y-104412143D01*
X96084571Y-104448429D01*
X96012000Y-104484714D01*
X95939428Y-104484714D01*
X95866857Y-104448429D01*
X95830571Y-104412143D01*
X95794286Y-104339571D01*
X95758000Y-104194429D01*
X95758000Y-104013000D01*
X95794286Y-103867857D01*
X95830571Y-103795286D01*
X95866857Y-103759000D01*
X95939428Y-103722714D01*
X79556429Y-101436714D02*
X79302429Y-101073857D01*
X79121001Y-101436714D02*
X79121001Y-100674714D01*
X79411286Y-100674714D01*
X79483858Y-100711000D01*
X79520143Y-100747286D01*
X79556429Y-100819857D01*
X79556429Y-100928714D01*
X79520143Y-101001286D01*
X79483858Y-101037571D01*
X79411286Y-101073857D01*
X79121001Y-101073857D01*
X79774143Y-100674714D02*
X80028143Y-101436714D01*
X80282143Y-100674714D01*
X80935286Y-101436714D02*
X80499858Y-101436714D01*
X80717572Y-101436714D02*
X80717572Y-100674714D01*
X80645001Y-100783571D01*
X80572429Y-100856143D01*
X80499858Y-100892429D01*
X79483857Y-102706714D02*
X79048429Y-102706714D01*
X79266143Y-102706714D02*
X79266143Y-101944714D01*
X79193572Y-102053571D01*
X79121000Y-102126143D01*
X79048429Y-102162429D01*
X79955571Y-101944714D02*
X80028143Y-101944714D01*
X80100714Y-101981000D01*
X80137000Y-102017286D01*
X80173286Y-102089857D01*
X80209571Y-102235000D01*
X80209571Y-102416429D01*
X80173286Y-102561571D01*
X80137000Y-102634143D01*
X80100714Y-102670429D01*
X80028143Y-102706714D01*
X79955571Y-102706714D01*
X79883000Y-102670429D01*
X79846714Y-102634143D01*
X79810429Y-102561571D01*
X79774143Y-102416429D01*
X79774143Y-102235000D01*
X79810429Y-102089857D01*
X79846714Y-102017286D01*
X79883000Y-101981000D01*
X79955571Y-101944714D01*
X80536143Y-102706714D02*
X80536143Y-101944714D01*
X80971571Y-102706714D02*
X80645000Y-102271286D01*
X80971571Y-101944714D02*
X80536143Y-102380143D01*
X107532714Y-99967143D02*
X107532714Y-99531714D01*
X108294714Y-99749428D02*
X107532714Y-99749428D01*
X107532714Y-99386572D02*
X108294714Y-99132572D01*
X107532714Y-98878572D01*
X108294714Y-98225429D02*
X108294714Y-98660857D01*
X108294714Y-98443143D02*
X107532714Y-98443143D01*
X107641571Y-98515714D01*
X107714143Y-98588286D01*
X107750429Y-98660857D01*
X108911571Y-102107999D02*
X108911571Y-101853999D01*
X109310714Y-101745142D02*
X109310714Y-102107999D01*
X108548714Y-102107999D01*
X108548714Y-101745142D01*
X109274429Y-101454856D02*
X109310714Y-101345999D01*
X109310714Y-101164570D01*
X109274429Y-101091999D01*
X109238143Y-101055713D01*
X109165571Y-101019428D01*
X109093000Y-101019428D01*
X109020429Y-101055713D01*
X108984143Y-101091999D01*
X108947857Y-101164570D01*
X108911571Y-101309713D01*
X108875286Y-101382285D01*
X108839000Y-101418570D01*
X108766429Y-101454856D01*
X108693857Y-101454856D01*
X108621286Y-101418570D01*
X108585000Y-101382285D01*
X108548714Y-101309713D01*
X108548714Y-101128285D01*
X108585000Y-101019428D01*
X109310714Y-100692856D02*
X108548714Y-100692856D01*
X108548714Y-100511428D01*
X108585000Y-100402571D01*
X108657571Y-100329999D01*
X108730143Y-100293714D01*
X108875286Y-100257428D01*
X108984143Y-100257428D01*
X109129286Y-100293714D01*
X109201857Y-100329999D01*
X109274429Y-100402571D01*
X109310714Y-100511428D01*
X109310714Y-100692856D01*
X109093000Y-99967142D02*
X109093000Y-99604285D01*
X109310714Y-100039714D02*
X108548714Y-99785714D01*
X109310714Y-99531714D01*
X108548714Y-98951142D02*
X108548714Y-99096285D01*
X108585000Y-99168856D01*
X108621286Y-99205142D01*
X108730143Y-99277713D01*
X108875286Y-99313999D01*
X109165571Y-99313999D01*
X109238143Y-99277713D01*
X109274429Y-99241428D01*
X109310714Y-99168856D01*
X109310714Y-99023713D01*
X109274429Y-98951142D01*
X109238143Y-98914856D01*
X109165571Y-98878571D01*
X108984143Y-98878571D01*
X108911571Y-98914856D01*
X108875286Y-98951142D01*
X108839000Y-99023713D01*
X108839000Y-99168856D01*
X108875286Y-99241428D01*
X108911571Y-99277713D01*
X108984143Y-99313999D01*
X108548714Y-98660857D02*
X109310714Y-98406857D01*
X108548714Y-98152857D01*
X109310714Y-97499714D02*
X109310714Y-97935142D01*
X109310714Y-97717428D02*
X108548714Y-97717428D01*
X108657571Y-97789999D01*
X108730143Y-97862571D01*
X108766429Y-97935142D01*
X108548714Y-97173142D02*
X109165571Y-97173142D01*
X109238143Y-97136857D01*
X109274429Y-97100571D01*
X109310714Y-97028000D01*
X109310714Y-96882857D01*
X109274429Y-96810285D01*
X109238143Y-96774000D01*
X109165571Y-96737714D01*
X108548714Y-96737714D01*
X109310714Y-95975714D02*
X109310714Y-96411142D01*
X109310714Y-96193428D02*
X108548714Y-96193428D01*
X108657571Y-96265999D01*
X108730143Y-96338571D01*
X108766429Y-96411142D01*
X143110857Y-118200714D02*
X143546286Y-118200714D01*
X143328572Y-118962714D02*
X143328572Y-118200714D01*
X143691428Y-118200714D02*
X143945428Y-118962714D01*
X144199428Y-118200714D01*
X144417143Y-118273286D02*
X144453429Y-118237000D01*
X144526000Y-118200714D01*
X144707429Y-118200714D01*
X144780000Y-118237000D01*
X144816286Y-118273286D01*
X144852571Y-118345857D01*
X144852571Y-118418429D01*
X144816286Y-118527286D01*
X144380857Y-118962714D01*
X144852571Y-118962714D01*
X141224001Y-125167571D02*
X141478001Y-125167571D01*
X141586858Y-125566714D02*
X141224001Y-125566714D01*
X141224001Y-124804714D01*
X141586858Y-124804714D01*
X141877144Y-125530429D02*
X141986001Y-125566714D01*
X142167430Y-125566714D01*
X142240001Y-125530429D01*
X142276287Y-125494143D01*
X142312572Y-125421571D01*
X142312572Y-125349000D01*
X142276287Y-125276429D01*
X142240001Y-125240143D01*
X142167430Y-125203857D01*
X142022287Y-125167571D01*
X141949715Y-125131286D01*
X141913430Y-125095000D01*
X141877144Y-125022429D01*
X141877144Y-124949857D01*
X141913430Y-124877286D01*
X141949715Y-124841000D01*
X142022287Y-124804714D01*
X142203715Y-124804714D01*
X142312572Y-124841000D01*
X142639144Y-125566714D02*
X142639144Y-124804714D01*
X142820572Y-124804714D01*
X142929429Y-124841000D01*
X143002001Y-124913571D01*
X143038286Y-124986143D01*
X143074572Y-125131286D01*
X143074572Y-125240143D01*
X143038286Y-125385286D01*
X143002001Y-125457857D01*
X142929429Y-125530429D01*
X142820572Y-125566714D01*
X142639144Y-125566714D01*
X143364858Y-125349000D02*
X143727715Y-125349000D01*
X143292286Y-125566714D02*
X143546286Y-124804714D01*
X143800286Y-125566714D01*
X144380858Y-124804714D02*
X144235715Y-124804714D01*
X144163144Y-124841000D01*
X144126858Y-124877286D01*
X144054287Y-124986143D01*
X144018001Y-125131286D01*
X144018001Y-125421571D01*
X144054287Y-125494143D01*
X144090572Y-125530429D01*
X144163144Y-125566714D01*
X144308287Y-125566714D01*
X144380858Y-125530429D01*
X144417144Y-125494143D01*
X144453429Y-125421571D01*
X144453429Y-125240143D01*
X144417144Y-125167571D01*
X144380858Y-125131286D01*
X144308287Y-125095000D01*
X144163144Y-125095000D01*
X144090572Y-125131286D01*
X144054287Y-125167571D01*
X144018001Y-125240143D01*
X144671143Y-124804714D02*
X144925143Y-125566714D01*
X145179143Y-124804714D01*
X145832286Y-125566714D02*
X145396858Y-125566714D01*
X145614572Y-125566714D02*
X145614572Y-124804714D01*
X145542001Y-124913571D01*
X145469429Y-124986143D01*
X145396858Y-125022429D01*
X146158858Y-124804714D02*
X146158858Y-125421571D01*
X146195143Y-125494143D01*
X146231429Y-125530429D01*
X146304000Y-125566714D01*
X146449143Y-125566714D01*
X146521715Y-125530429D01*
X146558000Y-125494143D01*
X146594286Y-125421571D01*
X146594286Y-124804714D01*
X147356286Y-125566714D02*
X146920858Y-125566714D01*
X147138572Y-125566714D02*
X147138572Y-124804714D01*
X147066001Y-124913571D01*
X146993429Y-124986143D01*
X146920858Y-125022429D01*
X161652857Y-112866714D02*
X162088286Y-112866714D01*
X161870572Y-113628714D02*
X161870572Y-112866714D01*
X162233428Y-112866714D02*
X162487428Y-113628714D01*
X162741428Y-112866714D01*
X162922857Y-112866714D02*
X163394571Y-112866714D01*
X163140571Y-113157000D01*
X163249429Y-113157000D01*
X163322000Y-113193286D01*
X163358286Y-113229571D01*
X163394571Y-113302143D01*
X163394571Y-113483571D01*
X163358286Y-113556143D01*
X163322000Y-113592429D01*
X163249429Y-113628714D01*
X163031714Y-113628714D01*
X162959143Y-113592429D01*
X162922857Y-113556143D01*
X159512001Y-106371571D02*
X159766001Y-106371571D01*
X159874858Y-106770714D02*
X159512001Y-106770714D01*
X159512001Y-106008714D01*
X159874858Y-106008714D01*
X160165144Y-106734429D02*
X160274001Y-106770714D01*
X160455430Y-106770714D01*
X160528001Y-106734429D01*
X160564287Y-106698143D01*
X160600572Y-106625571D01*
X160600572Y-106553000D01*
X160564287Y-106480429D01*
X160528001Y-106444143D01*
X160455430Y-106407857D01*
X160310287Y-106371571D01*
X160237715Y-106335286D01*
X160201430Y-106299000D01*
X160165144Y-106226429D01*
X160165144Y-106153857D01*
X160201430Y-106081286D01*
X160237715Y-106045000D01*
X160310287Y-106008714D01*
X160491715Y-106008714D01*
X160600572Y-106045000D01*
X160927144Y-106770714D02*
X160927144Y-106008714D01*
X161108572Y-106008714D01*
X161217429Y-106045000D01*
X161290001Y-106117571D01*
X161326286Y-106190143D01*
X161362572Y-106335286D01*
X161362572Y-106444143D01*
X161326286Y-106589286D01*
X161290001Y-106661857D01*
X161217429Y-106734429D01*
X161108572Y-106770714D01*
X160927144Y-106770714D01*
X161652858Y-106553000D02*
X162015715Y-106553000D01*
X161580286Y-106770714D02*
X161834286Y-106008714D01*
X162088286Y-106770714D01*
X162668858Y-106008714D02*
X162523715Y-106008714D01*
X162451144Y-106045000D01*
X162414858Y-106081286D01*
X162342287Y-106190143D01*
X162306001Y-106335286D01*
X162306001Y-106625571D01*
X162342287Y-106698143D01*
X162378572Y-106734429D01*
X162451144Y-106770714D01*
X162596287Y-106770714D01*
X162668858Y-106734429D01*
X162705144Y-106698143D01*
X162741429Y-106625571D01*
X162741429Y-106444143D01*
X162705144Y-106371571D01*
X162668858Y-106335286D01*
X162596287Y-106299000D01*
X162451144Y-106299000D01*
X162378572Y-106335286D01*
X162342287Y-106371571D01*
X162306001Y-106444143D01*
X162959143Y-106008714D02*
X163213143Y-106770714D01*
X163467143Y-106008714D01*
X164120286Y-106770714D02*
X163684858Y-106770714D01*
X163902572Y-106770714D02*
X163902572Y-106008714D01*
X163830001Y-106117571D01*
X163757429Y-106190143D01*
X163684858Y-106226429D01*
X164446858Y-106008714D02*
X164446858Y-106625571D01*
X164483143Y-106698143D01*
X164519429Y-106734429D01*
X164592000Y-106770714D01*
X164737143Y-106770714D01*
X164809715Y-106734429D01*
X164846000Y-106698143D01*
X164882286Y-106625571D01*
X164882286Y-106008714D01*
X165644286Y-106770714D02*
X165208858Y-106770714D01*
X165426572Y-106770714D02*
X165426572Y-106008714D01*
X165354001Y-106117571D01*
X165281429Y-106190143D01*
X165208858Y-106226429D01*
X114136714Y-88718571D02*
X114753571Y-88718571D01*
X114826143Y-88682286D01*
X114862429Y-88646000D01*
X114898714Y-88573429D01*
X114898714Y-88428286D01*
X114862429Y-88355714D01*
X114826143Y-88319429D01*
X114753571Y-88283143D01*
X114136714Y-88283143D01*
X114136714Y-87557428D02*
X114136714Y-87920285D01*
X114499571Y-87956571D01*
X114463286Y-87920285D01*
X114427000Y-87847714D01*
X114427000Y-87666285D01*
X114463286Y-87593714D01*
X114499571Y-87557428D01*
X114572143Y-87521143D01*
X114753571Y-87521143D01*
X114826143Y-87557428D01*
X114862429Y-87593714D01*
X114898714Y-87666285D01*
X114898714Y-87847714D01*
X114862429Y-87920285D01*
X114826143Y-87956571D01*
X115914714Y-90605428D02*
X115152714Y-90605428D01*
X115515571Y-90605428D02*
X115515571Y-90170000D01*
X115914714Y-90170000D02*
X115152714Y-90170000D01*
X115515571Y-89807142D02*
X115515571Y-89553142D01*
X115914714Y-89444285D02*
X115914714Y-89807142D01*
X115152714Y-89807142D01*
X115152714Y-89444285D01*
X115515571Y-88863713D02*
X115515571Y-89117713D01*
X115914714Y-89117713D02*
X115152714Y-89117713D01*
X115152714Y-88754856D01*
X115406714Y-88137999D02*
X115914714Y-88137999D01*
X115116429Y-88319428D02*
X115660714Y-88500856D01*
X115660714Y-88029142D01*
X115152714Y-87593714D02*
X115152714Y-87521142D01*
X115189000Y-87448571D01*
X115225286Y-87412285D01*
X115297857Y-87375999D01*
X115443000Y-87339714D01*
X115624429Y-87339714D01*
X115769571Y-87375999D01*
X115842143Y-87412285D01*
X115878429Y-87448571D01*
X115914714Y-87521142D01*
X115914714Y-87593714D01*
X115878429Y-87666285D01*
X115842143Y-87702571D01*
X115769571Y-87738856D01*
X115624429Y-87775142D01*
X115443000Y-87775142D01*
X115297857Y-87738856D01*
X115225286Y-87702571D01*
X115189000Y-87666285D01*
X115152714Y-87593714D01*
X115914714Y-86976857D02*
X115914714Y-86831714D01*
X115878429Y-86759142D01*
X115842143Y-86722857D01*
X115733286Y-86650285D01*
X115588143Y-86614000D01*
X115297857Y-86614000D01*
X115225286Y-86650285D01*
X115189000Y-86686571D01*
X115152714Y-86759142D01*
X115152714Y-86904285D01*
X115189000Y-86976857D01*
X115225286Y-87013142D01*
X115297857Y-87049428D01*
X115479286Y-87049428D01*
X115551857Y-87013142D01*
X115588143Y-86976857D01*
X115624429Y-86904285D01*
X115624429Y-86759142D01*
X115588143Y-86686571D01*
X115551857Y-86650285D01*
X115479286Y-86614000D01*
X115406714Y-85960857D02*
X115914714Y-85960857D01*
X115116429Y-86142286D02*
X115660714Y-86323714D01*
X115660714Y-85852000D01*
X115515571Y-85307714D02*
X115551857Y-85198857D01*
X115588143Y-85162572D01*
X115660714Y-85126286D01*
X115769571Y-85126286D01*
X115842143Y-85162572D01*
X115878429Y-85198857D01*
X115914714Y-85271429D01*
X115914714Y-85561714D01*
X115152714Y-85561714D01*
X115152714Y-85307714D01*
X115189000Y-85235143D01*
X115225286Y-85198857D01*
X115297857Y-85162572D01*
X115370429Y-85162572D01*
X115443000Y-85198857D01*
X115479286Y-85235143D01*
X115515571Y-85307714D01*
X115515571Y-85561714D01*
X105337429Y-125058714D02*
X105337429Y-125675571D01*
X105373714Y-125748143D01*
X105410000Y-125784429D01*
X105482571Y-125820714D01*
X105627714Y-125820714D01*
X105700286Y-125784429D01*
X105736571Y-125748143D01*
X105772857Y-125675571D01*
X105772857Y-125058714D01*
X106462286Y-125058714D02*
X106317143Y-125058714D01*
X106244572Y-125095000D01*
X106208286Y-125131286D01*
X106135715Y-125240143D01*
X106099429Y-125385286D01*
X106099429Y-125675571D01*
X106135715Y-125748143D01*
X106172000Y-125784429D01*
X106244572Y-125820714D01*
X106389715Y-125820714D01*
X106462286Y-125784429D01*
X106498572Y-125748143D01*
X106534857Y-125675571D01*
X106534857Y-125494143D01*
X106498572Y-125421571D01*
X106462286Y-125385286D01*
X106389715Y-125349000D01*
X106244572Y-125349000D01*
X106172000Y-125385286D01*
X106135715Y-125421571D01*
X106099429Y-125494143D01*
X102325716Y-127090714D02*
X101962859Y-127090714D01*
X101962859Y-126328714D01*
X102579716Y-127090714D02*
X102579716Y-126328714D01*
X102833716Y-126873000D01*
X103087716Y-126328714D01*
X103087716Y-127090714D01*
X103849715Y-127090714D02*
X103414287Y-127090714D01*
X103632001Y-127090714D02*
X103632001Y-126328714D01*
X103559430Y-126437571D01*
X103486858Y-126510143D01*
X103414287Y-126546429D01*
X104575429Y-127090714D02*
X104140001Y-127090714D01*
X104357715Y-127090714D02*
X104357715Y-126328714D01*
X104285144Y-126437571D01*
X104212572Y-126510143D01*
X104140001Y-126546429D01*
X105301143Y-127090714D02*
X104865715Y-127090714D01*
X105083429Y-127090714D02*
X105083429Y-126328714D01*
X105010858Y-126437571D01*
X104938286Y-126510143D01*
X104865715Y-126546429D01*
X105555143Y-126328714D02*
X106063143Y-126328714D01*
X105736572Y-127090714D01*
X106353429Y-127090714D02*
X106353429Y-126328714D01*
X106607429Y-126873000D01*
X106861429Y-126328714D01*
X106861429Y-127090714D01*
X107224286Y-127090714D02*
X107224286Y-126328714D01*
X107514571Y-126328714D01*
X107587143Y-126365000D01*
X107623428Y-126401286D01*
X107659714Y-126473857D01*
X107659714Y-126582714D01*
X107623428Y-126655286D01*
X107587143Y-126691571D01*
X107514571Y-126727857D01*
X107224286Y-126727857D01*
X107986286Y-126800429D02*
X108566857Y-126800429D01*
X108857143Y-126328714D02*
X109328857Y-126328714D01*
X109074857Y-126619000D01*
X109183715Y-126619000D01*
X109256286Y-126655286D01*
X109292572Y-126691571D01*
X109328857Y-126764143D01*
X109328857Y-126945571D01*
X109292572Y-127018143D01*
X109256286Y-127054429D01*
X109183715Y-127090714D01*
X108966000Y-127090714D01*
X108893429Y-127054429D01*
X108857143Y-127018143D01*
X109655429Y-127018143D02*
X109691714Y-127054429D01*
X109655429Y-127090714D01*
X109619143Y-127054429D01*
X109655429Y-127018143D01*
X109655429Y-127090714D01*
X109945714Y-126328714D02*
X110417428Y-126328714D01*
X110163428Y-126619000D01*
X110272286Y-126619000D01*
X110344857Y-126655286D01*
X110381143Y-126691571D01*
X110417428Y-126764143D01*
X110417428Y-126945571D01*
X110381143Y-127018143D01*
X110344857Y-127054429D01*
X110272286Y-127090714D01*
X110054571Y-127090714D01*
X109982000Y-127054429D01*
X109945714Y-127018143D01*
X137849429Y-109818714D02*
X137849429Y-110435571D01*
X137885714Y-110508143D01*
X137922000Y-110544429D01*
X137994571Y-110580714D01*
X138139714Y-110580714D01*
X138212286Y-110544429D01*
X138248571Y-110508143D01*
X138284857Y-110435571D01*
X138284857Y-109818714D01*
X138611429Y-109891286D02*
X138647715Y-109855000D01*
X138720286Y-109818714D01*
X138901715Y-109818714D01*
X138974286Y-109855000D01*
X139010572Y-109891286D01*
X139046857Y-109963857D01*
X139046857Y-110036429D01*
X139010572Y-110145286D01*
X138575143Y-110580714D01*
X139046857Y-110580714D01*
X139790714Y-116041713D02*
X139790714Y-115533713D01*
X140552714Y-115860284D01*
X140044714Y-114916856D02*
X140552714Y-114916856D01*
X139754429Y-115098285D02*
X140298714Y-115279713D01*
X140298714Y-114807999D01*
X140552714Y-114154856D02*
X140552714Y-114517713D01*
X139790714Y-114517713D01*
X139790714Y-114009714D02*
X140552714Y-113755714D01*
X139790714Y-113501714D01*
X140480143Y-112812285D02*
X140516429Y-112848571D01*
X140552714Y-112957428D01*
X140552714Y-113029999D01*
X140516429Y-113138856D01*
X140443857Y-113211428D01*
X140371286Y-113247713D01*
X140226143Y-113283999D01*
X140117286Y-113283999D01*
X139972143Y-113247713D01*
X139899571Y-113211428D01*
X139827000Y-113138856D01*
X139790714Y-113029999D01*
X139790714Y-112957428D01*
X139827000Y-112848571D01*
X139863286Y-112812285D01*
X140552714Y-112086571D02*
X140552714Y-112521999D01*
X140552714Y-112304285D02*
X139790714Y-112304285D01*
X139899571Y-112376856D01*
X139972143Y-112449428D01*
X140008429Y-112521999D01*
X139790714Y-111868857D02*
X139790714Y-111433428D01*
X140552714Y-111651142D02*
X139790714Y-111651142D01*
X140044714Y-110852857D02*
X140552714Y-110852857D01*
X139754429Y-111034286D02*
X140298714Y-111215714D01*
X140298714Y-110744000D01*
X139790714Y-110090857D02*
X139790714Y-110453714D01*
X140153571Y-110490000D01*
X140117286Y-110453714D01*
X140081000Y-110381143D01*
X140081000Y-110199714D01*
X140117286Y-110127143D01*
X140153571Y-110090857D01*
X140226143Y-110054572D01*
X140407571Y-110054572D01*
X140480143Y-110090857D01*
X140516429Y-110127143D01*
X140552714Y-110199714D01*
X140552714Y-110381143D01*
X140516429Y-110453714D01*
X140480143Y-110490000D01*
X143691429Y-109818714D02*
X143691429Y-110435571D01*
X143727714Y-110508143D01*
X143764000Y-110544429D01*
X143836571Y-110580714D01*
X143981714Y-110580714D01*
X144054286Y-110544429D01*
X144090571Y-110508143D01*
X144126857Y-110435571D01*
X144126857Y-109818714D01*
X144417143Y-109818714D02*
X144888857Y-109818714D01*
X144634857Y-110109000D01*
X144743715Y-110109000D01*
X144816286Y-110145286D01*
X144852572Y-110181571D01*
X144888857Y-110254143D01*
X144888857Y-110435571D01*
X144852572Y-110508143D01*
X144816286Y-110544429D01*
X144743715Y-110580714D01*
X144526000Y-110580714D01*
X144453429Y-110544429D01*
X144417143Y-110508143D01*
X145505714Y-116041713D02*
X145505714Y-115533713D01*
X146267714Y-115860284D01*
X145759714Y-114916856D02*
X146267714Y-114916856D01*
X145469429Y-115098285D02*
X146013714Y-115279713D01*
X146013714Y-114807999D01*
X146267714Y-114154856D02*
X146267714Y-114517713D01*
X145505714Y-114517713D01*
X145505714Y-114009714D02*
X146267714Y-113755714D01*
X145505714Y-113501714D01*
X146195143Y-112812285D02*
X146231429Y-112848571D01*
X146267714Y-112957428D01*
X146267714Y-113029999D01*
X146231429Y-113138856D01*
X146158857Y-113211428D01*
X146086286Y-113247713D01*
X145941143Y-113283999D01*
X145832286Y-113283999D01*
X145687143Y-113247713D01*
X145614571Y-113211428D01*
X145542000Y-113138856D01*
X145505714Y-113029999D01*
X145505714Y-112957428D01*
X145542000Y-112848571D01*
X145578286Y-112812285D01*
X146267714Y-112086571D02*
X146267714Y-112521999D01*
X146267714Y-112304285D02*
X145505714Y-112304285D01*
X145614571Y-112376856D01*
X145687143Y-112449428D01*
X145723429Y-112521999D01*
X145505714Y-111868857D02*
X145505714Y-111433428D01*
X146267714Y-111651142D02*
X145505714Y-111651142D01*
X145759714Y-110852857D02*
X146267714Y-110852857D01*
X145469429Y-111034286D02*
X146013714Y-111215714D01*
X146013714Y-110744000D01*
X145505714Y-110090857D02*
X145505714Y-110453714D01*
X145868571Y-110490000D01*
X145832286Y-110453714D01*
X145796000Y-110381143D01*
X145796000Y-110199714D01*
X145832286Y-110127143D01*
X145868571Y-110090857D01*
X145941143Y-110054572D01*
X146122571Y-110054572D01*
X146195143Y-110090857D01*
X146231429Y-110127143D01*
X146267714Y-110199714D01*
X146267714Y-110381143D01*
X146231429Y-110453714D01*
X146195143Y-110490000D01*
X132261429Y-109818714D02*
X132261429Y-110435571D01*
X132297714Y-110508143D01*
X132334000Y-110544429D01*
X132406571Y-110580714D01*
X132551714Y-110580714D01*
X132624286Y-110544429D01*
X132660571Y-110508143D01*
X132696857Y-110435571D01*
X132696857Y-109818714D01*
X133386286Y-110072714D02*
X133386286Y-110580714D01*
X133204857Y-109782429D02*
X133023429Y-110326714D01*
X133495143Y-110326714D01*
X134202714Y-116041713D02*
X134202714Y-115533713D01*
X134964714Y-115860284D01*
X134456714Y-114916856D02*
X134964714Y-114916856D01*
X134166429Y-115098285D02*
X134710714Y-115279713D01*
X134710714Y-114807999D01*
X134964714Y-114154856D02*
X134964714Y-114517713D01*
X134202714Y-114517713D01*
X134202714Y-114009714D02*
X134964714Y-113755714D01*
X134202714Y-113501714D01*
X134892143Y-112812285D02*
X134928429Y-112848571D01*
X134964714Y-112957428D01*
X134964714Y-113029999D01*
X134928429Y-113138856D01*
X134855857Y-113211428D01*
X134783286Y-113247713D01*
X134638143Y-113283999D01*
X134529286Y-113283999D01*
X134384143Y-113247713D01*
X134311571Y-113211428D01*
X134239000Y-113138856D01*
X134202714Y-113029999D01*
X134202714Y-112957428D01*
X134239000Y-112848571D01*
X134275286Y-112812285D01*
X134964714Y-112086571D02*
X134964714Y-112521999D01*
X134964714Y-112304285D02*
X134202714Y-112304285D01*
X134311571Y-112376856D01*
X134384143Y-112449428D01*
X134420429Y-112521999D01*
X134202714Y-111868857D02*
X134202714Y-111433428D01*
X134964714Y-111651142D02*
X134202714Y-111651142D01*
X134456714Y-110852857D02*
X134964714Y-110852857D01*
X134166429Y-111034286D02*
X134710714Y-111215714D01*
X134710714Y-110744000D01*
X134202714Y-110090857D02*
X134202714Y-110453714D01*
X134565571Y-110490000D01*
X134529286Y-110453714D01*
X134493000Y-110381143D01*
X134493000Y-110199714D01*
X134529286Y-110127143D01*
X134565571Y-110090857D01*
X134638143Y-110054572D01*
X134819571Y-110054572D01*
X134892143Y-110090857D01*
X134928429Y-110127143D01*
X134964714Y-110199714D01*
X134964714Y-110381143D01*
X134928429Y-110453714D01*
X134892143Y-110490000D01*
M02*
