G04 #@! TF.FileFunction,Soldermask,Top*
%FSLAX46Y46*%
G04 Gerber Fmt 4.6, Leading zero omitted, Abs format (unit mm)*
G04 Created by KiCad (PCBNEW 4.0.5-e0-6337~49~ubuntu14.04.1) date Fri Dec 30 14:23:34 2016*
%MOMM*%
%LPD*%
G01*
G04 APERTURE LIST*
%ADD10C,0.150000*%
%ADD11C,1.524000*%
%ADD12R,1.778000X1.778000*%
%ADD13C,1.778000*%
%ADD14R,0.398780X1.501140*%
%ADD15C,3.048000*%
%ADD16C,3.175000*%
%ADD17R,2.000000X1.600000*%
%ADD18R,1.600000X3.500000*%
%ADD19R,1.600000X2.000000*%
%ADD20R,1.500000X1.500000*%
%ADD21R,0.899160X1.798320*%
%ADD22R,1.399540X1.998980*%
%ADD23R,1.099820X1.798320*%
%ADD24R,1.524000X3.048000*%
%ADD25O,1.524000X3.048000*%
%ADD26R,3.048000X1.524000*%
%ADD27O,3.048000X1.524000*%
%ADD28R,2.000000X1.700000*%
%ADD29R,1.700000X2.000000*%
%ADD30R,1.200000X1.200000*%
%ADD31R,1.600000X1.500000*%
%ADD32R,0.660400X2.032000*%
%ADD33R,2.032000X0.660400*%
%ADD34R,3.800000X2.000000*%
%ADD35R,1.500000X2.000000*%
G04 APERTURE END LIST*
D10*
D11*
X130937000Y-80835500D03*
X155194000Y-80835500D03*
D12*
X206375000Y-124460000D03*
D13*
X206375000Y-127000000D03*
X203835000Y-124460000D03*
X203835000Y-127000000D03*
X201295000Y-124460000D03*
X201295000Y-127000000D03*
X198755000Y-124460000D03*
X198755000Y-127000000D03*
X196215000Y-124460000D03*
X196215000Y-127000000D03*
X193675000Y-124460000D03*
X193675000Y-127000000D03*
X191135000Y-124460000D03*
X191135000Y-127000000D03*
X188595000Y-124460000D03*
X188595000Y-127000000D03*
X186055000Y-124460000D03*
X186055000Y-127000000D03*
X183515000Y-124460000D03*
X183515000Y-127000000D03*
X180975000Y-124460000D03*
X180975000Y-127000000D03*
X178435000Y-124460000D03*
X178435000Y-127000000D03*
X175895000Y-124460000D03*
X175895000Y-127000000D03*
D14*
X149209760Y-114360960D03*
X149860000Y-114360960D03*
X150510240Y-114360960D03*
X150510240Y-111699040D03*
X149860000Y-111699040D03*
X149209760Y-111699040D03*
D15*
X165862000Y-116205000D03*
D16*
X88900000Y-120650000D03*
X88900000Y-90170000D03*
X187960000Y-106045000D03*
D17*
X128365000Y-108585000D03*
X124365000Y-108585000D03*
X119920000Y-123190000D03*
X123920000Y-123190000D03*
X82010000Y-82550000D03*
X78010000Y-82550000D03*
D18*
X114935000Y-123985000D03*
X114935000Y-118585000D03*
D17*
X118840000Y-114300000D03*
X114840000Y-114300000D03*
D19*
X101600000Y-86265000D03*
X101600000Y-90265000D03*
D17*
X128365000Y-120015000D03*
X124365000Y-120015000D03*
D18*
X97790000Y-117950000D03*
X97790000Y-123350000D03*
D19*
X92075000Y-108490000D03*
X92075000Y-112490000D03*
D17*
X111030000Y-108585000D03*
X115030000Y-108585000D03*
D19*
X88900000Y-108490000D03*
X88900000Y-112490000D03*
D20*
X102870000Y-105665000D03*
X102870000Y-108965000D03*
X106680000Y-105665000D03*
X106680000Y-108965000D03*
X99060000Y-105665000D03*
X99060000Y-108965000D03*
D21*
X136105900Y-105138220D03*
X138605260Y-105138220D03*
X140355320Y-105138220D03*
X143603980Y-105138220D03*
X146103340Y-105138220D03*
X148602700Y-105138220D03*
X151023320Y-105138220D03*
X152722580Y-105138220D03*
X133606540Y-105138220D03*
X141856460Y-105138220D03*
D22*
X128125220Y-84140040D03*
X157624780Y-82991960D03*
D23*
X155874720Y-105138220D03*
D24*
X78740000Y-77470000D03*
D25*
X81280000Y-77470000D03*
X83820000Y-77470000D03*
X86360000Y-77470000D03*
X88900000Y-77470000D03*
X91440000Y-77470000D03*
X93980000Y-77470000D03*
X96520000Y-77470000D03*
X99060000Y-77470000D03*
X101600000Y-77470000D03*
X104140000Y-77470000D03*
X106680000Y-77470000D03*
X109220000Y-77470000D03*
X111760000Y-77470000D03*
X114300000Y-77470000D03*
X116840000Y-77470000D03*
D26*
X170815000Y-118745000D03*
D27*
X170815000Y-116205000D03*
X170815000Y-113665000D03*
X170815000Y-111125000D03*
X170815000Y-108585000D03*
X170815000Y-106045000D03*
X170815000Y-103505000D03*
X170815000Y-100965000D03*
X170815000Y-98425000D03*
X170815000Y-95885000D03*
X170815000Y-93345000D03*
X170815000Y-90805000D03*
D28*
X160877000Y-116205000D03*
X156877000Y-116205000D03*
X131350000Y-120015000D03*
X135350000Y-120015000D03*
D29*
X153670000Y-114205000D03*
X153670000Y-118205000D03*
X81915000Y-86900000D03*
X81915000Y-90900000D03*
D28*
X102330000Y-111760000D03*
X98330000Y-111760000D03*
X126905000Y-123190000D03*
X130905000Y-123190000D03*
X107220000Y-111760000D03*
X111220000Y-111760000D03*
D29*
X78105000Y-90900000D03*
X78105000Y-86900000D03*
D28*
X201200000Y-116205000D03*
X205200000Y-116205000D03*
X201200000Y-113030000D03*
X205200000Y-113030000D03*
X201200000Y-109855000D03*
X205200000Y-109855000D03*
X201200000Y-106680000D03*
X205200000Y-106680000D03*
X201200000Y-103505000D03*
X205200000Y-103505000D03*
X201200000Y-100330000D03*
X205200000Y-100330000D03*
X201200000Y-97155000D03*
X205200000Y-97155000D03*
X201200000Y-93980000D03*
X205200000Y-93980000D03*
X201200000Y-90805000D03*
X205200000Y-90805000D03*
X201200000Y-87630000D03*
X205200000Y-87630000D03*
D29*
X95250000Y-109950000D03*
X95250000Y-105950000D03*
D30*
X81410000Y-96165000D03*
X78610000Y-96165000D03*
D31*
X80010000Y-99415000D03*
D32*
X106680000Y-95986600D03*
X105410000Y-95986600D03*
X104140000Y-95986600D03*
X102870000Y-95986600D03*
X102870000Y-102133400D03*
X104140000Y-102133400D03*
X105410000Y-102133400D03*
X106680000Y-102133400D03*
D33*
X141071600Y-120015000D03*
X141071600Y-121285000D03*
X141071600Y-122555000D03*
X141071600Y-123825000D03*
X147218400Y-123825000D03*
X147218400Y-122555000D03*
X147218400Y-121285000D03*
X147218400Y-120015000D03*
X165633400Y-111760000D03*
X165633400Y-110490000D03*
X165633400Y-109220000D03*
X165633400Y-107950000D03*
X159486600Y-107950000D03*
X159486600Y-109220000D03*
X159486600Y-110490000D03*
X159486600Y-111760000D03*
D32*
X104140000Y-91338400D03*
X105410000Y-91338400D03*
X106680000Y-91338400D03*
X107950000Y-91338400D03*
X109220000Y-91338400D03*
X110490000Y-91338400D03*
X111760000Y-91338400D03*
X113030000Y-91338400D03*
X113030000Y-85191600D03*
X111760000Y-85191600D03*
X110490000Y-85191600D03*
X109220000Y-85191600D03*
X107950000Y-85191600D03*
X106680000Y-85191600D03*
X105410000Y-85191600D03*
X104140000Y-85191600D03*
D34*
X106045000Y-116865000D03*
D35*
X106045000Y-123165000D03*
X108345000Y-123165000D03*
X103745000Y-123165000D03*
D14*
X137779760Y-114360960D03*
X138430000Y-114360960D03*
X139080240Y-114360960D03*
X139080240Y-111699040D03*
X138430000Y-111699040D03*
X137779760Y-111699040D03*
X143494760Y-114360960D03*
X144145000Y-114360960D03*
X144795240Y-114360960D03*
X144795240Y-111699040D03*
X144145000Y-111699040D03*
X143494760Y-111699040D03*
X132064760Y-114360960D03*
X132715000Y-114360960D03*
X133365240Y-114360960D03*
X133365240Y-111699040D03*
X132715000Y-111699040D03*
X132064760Y-111699040D03*
M02*
